<svg width="144.423950" height="147.628418" viewBox="0 0 144.424 147.628" fill="none" xmlns="http://www.w3.org/2000/svg" xmlns:xlink="http://www.w3.org/1999/xlink">
	<desc>
			Created with Pixso.
	</desc>
	<defs/>
	<g opacity="0.640000">
		<path id="Vector" d="M64.48 142.62L61.31 141.36C59.86 140.76 59.4 139.66 59.9 138.33C60.43 136.95 61.55 136.46 63 137.06L65.22 137.94L66.38 134.94L67.33 135.33L64.48 142.62ZM64.9 138.75L63 137.97C61.91 137.52 61.24 137.83 60.88 138.68C60.53 139.52 60.85 140.19 61.94 140.65L63.84 141.43L64.9 138.75Z" fill="#FFFCF6" fill-opacity="1.000000" fill-rule="nonzero"/>
		<path id="Vector" d="M55.04 138.4L51.9 136.46C50.63 135.68 50.31 134.52 50.95 133.46C51.44 132.69 52.22 132.19 53.13 132.48C52.43 131.84 52.64 131.21 52.99 130.5C53.34 129.8 53.84 129.09 53.73 128.42L54.72 129.06C54.79 129.48 54.23 130.12 53.94 130.82C53.66 131.53 53.45 132.16 54.3 132.72L56.48 134.06L58.24 131.24L59.12 131.77L55.04 138.4ZM54.19 133.67C53.38 133.14 52.53 132.93 51.93 133.89C51.55 134.56 51.58 135.22 52.39 135.75L54.61 137.13L56.02 134.8L54.19 133.67Z" fill="#FFFCF6" fill-opacity="1.000000" fill-rule="nonzero"/>
		<path id="Vector" d="M46.12 132.37L42.1 128.78L42.7 128.11L45.94 131L47.6 129.13L44.57 126.45L45.17 125.78L48.2 128.53L50 126.52L46.72 123.6L47.32 122.93L51.37 126.56L46.12 132.37Z" fill="#FFFCF6" fill-opacity="1.000000" fill-rule="nonzero"/>
		<path id="Vector" d="M38.83 125.43L37.98 124.3L41.68 118.35L34.99 120.39L34.14 119.26L40.34 114.47L40.94 115.28L35.76 119.26L42.42 117.25L42.98 117.96L39.28 123.84L44.46 119.86L45.06 120.67L38.83 125.43Z" fill="#FFFCF6" fill-opacity="1.000000" fill-rule="nonzero"/>
		<path id="Vector" d="M31.64 115L31.14 114.08L38.05 110.35L38.54 111.26L31.64 115Z" fill="#FFFCF6" fill-opacity="1.000000" fill-rule="nonzero"/>
		<path id="Vector" d="M31.5 102.17C33.33 101.47 34.74 102.17 35.37 104C36.08 105.91 35.62 107.35 33.64 108.06L28.96 109.78L28.61 108.8L33.29 107.07C34.6 106.61 35.02 105.56 34.53 104.29C34.07 103.05 33.08 102.63 31.81 103.12L27.13 104.85L26.77 103.86L31.5 102.17Z" fill="#FFFCF6" fill-opacity="1.000000" fill-rule="nonzero"/>
		<path id="Vector" d="M25.47 98.96L25.26 97.55L31.39 94.1L24.52 92.66L24.31 91.25L32.06 90.05L32.2 91.04L25.79 92.02L32.59 93.47L32.69 94.35L26.63 97.73L33.05 96.74L33.19 97.73L25.47 98.96Z" fill="#FFFCF6" fill-opacity="1.000000" fill-rule="nonzero"/>
		<path id="Vector" d="M24.34 80.29L24.87 76.66C25.08 75.18 26 74.4 27.23 74.58C28.15 74.72 28.89 75.25 28.99 76.2C29.31 75.32 29.98 75.21 30.76 75.28C31.53 75.36 32.38 75.5 32.94 75.14L32.77 76.31C32.38 76.55 31.6 76.27 30.79 76.31C30.02 76.31 29.35 76.41 29.21 77.4L28.85 79.94L32.17 80.43L32.03 81.49L24.34 80.29ZM28.36 77.61C28.5 76.62 28.36 75.78 27.23 75.64C26.49 75.53 25.86 75.88 25.72 76.8L25.33 79.37L28.04 79.76L28.36 77.61Z" fill="#FFFCF6" fill-opacity="1.000000" fill-rule="nonzero"/>
		<path id="Vector" d="M27.2 66.44C28.01 64.08 30.26 63.51 32.31 64.22C34.32 64.89 35.8 66.72 34.98 69.08C34.17 71.44 31.92 72.01 29.88 71.3C27.83 70.67 26.39 68.8 27.2 66.44ZM34.1 68.84C34.7 67.04 33.4 65.73 31.92 65.24C30.44 64.75 28.61 64.96 28.01 66.76C27.41 68.55 28.71 69.86 30.19 70.35C31.67 70.84 33.5 70.63 34.1 68.84Z" fill="#FFFCF6" fill-opacity="1.000000" fill-rule="nonzero"/>
		<path id="Vector" d="M32.06 55.8C33.29 53.65 35.65 53.54 37.49 54.6C39.32 55.66 40.41 57.74 39.14 59.92C37.87 62.11 35.55 62.18 33.72 61.12C31.88 59.99 30.79 57.91 32.06 55.8ZM38.4 59.46C39.35 57.81 38.33 56.29 36.99 55.52C35.62 54.71 33.82 54.6 32.83 56.22C31.88 57.88 32.91 59.39 34.24 60.17C35.62 60.98 37.42 61.08 38.4 59.46Z" fill="#FFFCF6" fill-opacity="1.000000" fill-rule="nonzero"/>
		<path id="Vector" d="M36.89 48.79L37.84 47.69L44.36 50.27L41.15 44.03L42.1 42.94L47.92 48.19L47.25 48.93L42.39 44.56L45.59 50.72L44.99 51.39L38.51 48.86L43.37 53.23L42.7 53.97L36.89 48.79Z" fill="#FFFCF6" fill-opacity="1.000000" fill-rule="nonzero"/>
		<path id="Vector" d="M50.91 38.71C50.14 37.86 49.26 37.97 48.41 38.6C47.74 39.13 47.18 39.91 47.81 40.75C48.38 41.53 49.5 40.89 50.67 40.36C51.83 39.84 53.1 39.41 54.01 40.68C55 42.02 54.12 43.54 52.99 44.38C51.58 45.44 49.89 45.65 48.73 44.13L49.54 43.54C50.31 44.59 51.58 44.38 52.5 43.68C53.27 43.11 53.91 42.27 53.2 41.35C52.57 40.5 51.44 41.07 50.28 41.6C49.12 42.13 47.88 42.58 47.04 41.46C46.05 40.19 46.79 38.74 47.92 37.9C49.19 36.91 50.63 36.81 51.69 38.14L50.91 38.71Z" fill="#FFFCF6" fill-opacity="1.000000" fill-rule="nonzero"/>
		<path id="Vector" d="M57.54 39.7L58.59 39.13L59.16 40.19L58.1 40.75L57.54 39.7Z" fill="#FFFCF6" fill-opacity="1.000000" fill-rule="nonzero"/>
		<path id="Vector" d="M65.11 29.02L67.86 28.24C68.53 28.07 69.41 27.82 69.91 27.96C70.47 28.1 71.03 28.52 71.24 29.3C71.49 30.11 71.21 30.81 70.58 31.31C71.56 31.24 72.27 31.8 72.51 32.75C72.83 33.85 72.3 35.15 70.82 35.57L67.19 36.59L65.11 29.02ZM67.97 35.4L70.5 34.69C71.39 34.44 71.77 33.77 71.56 32.93C71.28 31.94 70.4 31.91 69.55 32.12L67.26 32.79L67.97 35.4ZM67.02 31.98L69.02 31.45C70.19 31.13 70.5 30.6 70.29 29.83C70.01 28.77 69.24 28.84 68.36 29.09L66.35 29.62L67.02 31.98Z" fill="#FFFCF6" fill-opacity="1.000000" fill-rule="nonzero"/>
		<path id="Vector" d="M77.73 26.34L78.89 26.23L82.66 33.74L81.5 33.85L80.44 31.59L77.16 31.91L76.49 34.34L75.4 34.45L77.73 26.34ZM77.38 30.99L80.02 30.75L78.36 27.26L77.38 30.99Z" fill="#FFFCF6" fill-opacity="1.000000" fill-rule="nonzero"/>
		<path id="Vector" d="M85.94 25.95L87.03 26.06L90.59 32.72L91.12 26.41L92.11 26.48L91.47 34.3L90.34 34.23L86.78 27.64L86.26 33.88L85.27 33.81L85.94 25.95Z" fill="#FFFCF6" fill-opacity="1.000000" fill-rule="nonzero"/>
		<path id="Vector" d="M97.07 27.36L98.06 27.64L97.04 31.41L101.9 28.67L103.17 29.02L99.15 31.2L101.23 36.59L99.96 36.24L98.27 31.66L96.69 32.47L95.95 35.11L94.96 34.83L97.07 27.36Z" fill="#FFFCF6" fill-opacity="1.000000" fill-rule="nonzero"/>
		<path id="Vector" d="M112.44 33.07L113.32 33.6L111.56 36.49L115.08 38.6L116.84 35.71L117.72 36.24L113.64 42.94L112.76 42.41L114.62 39.34L111.1 37.23L109.23 40.29L108.35 39.76L112.44 33.07Z" fill="#FFFCF6" fill-opacity="1.000000" fill-rule="nonzero"/>
		<path id="Vector" d="M124.42 41.39C126.25 43.08 125.86 45.37 124.42 46.95C122.97 48.54 120.75 49.14 118.89 47.48C117.02 45.83 117.44 43.5 118.89 41.91C120.33 40.33 122.55 39.73 124.42 41.39ZM119.49 46.81C120.89 48.08 122.62 47.41 123.64 46.25C124.67 45.09 125.23 43.32 123.82 42.06C122.41 40.79 120.68 41.46 119.66 42.62C118.64 43.78 118.08 45.54 119.49 46.81Z" fill="#FFFCF6" fill-opacity="1.000000" fill-rule="nonzero"/>
		<path id="Vector" d="M130.44 49.38L128.86 47.31L129.53 46.78L133.37 51.75L132.7 52.27L131.11 50.2L125.62 54.42L124.98 53.58L130.44 49.38Z" fill="#FFFCF6" fill-opacity="1.000000" fill-rule="nonzero"/>
		<path id="Vector" d="M135.52 55.16L138.09 59.92L137.32 60.34L135.24 56.5L133.05 57.7L134.99 61.26L134.22 61.68L132.28 58.12L129.92 59.43L132.03 63.3L131.25 63.73L128.65 58.93L135.52 55.16Z" fill="#FFFCF6" fill-opacity="1.000000" fill-rule="nonzero"/>
		<path id="Vector" d="M139.85 64.01L140.2 65L133.65 67.32L135.03 71.23L134.18 71.51L132.45 66.62L139.85 64.01Z" fill="#FFFCF6" fill-opacity="1.000000" fill-rule="nonzero"/>
	</g>
	<path id="Rectangle 93" d="M69.95 83.4C68.84 83.24 68.12 82.16 68.41 81.08C68.68 80.07 69.76 79.53 70.73 79.93L83.86 85.33L69.95 83.4Z" fill="#FCD043" fill-opacity="1.000000" fill-rule="nonzero"/>
	<path id="Rectangle 95" d="M85.7 71.45C85.84 70.32 86.95 69.58 88.04 69.88C89.07 70.16 89.62 71.27 89.22 72.25L83.87 85.3L85.7 71.45Z" fill="#FCD043" fill-opacity="1.000000" fill-rule="nonzero"/>
	<path id="Rectangle 97" d="M75.42 74.12C74.74 73.22 74.99 71.93 75.96 71.38C76.86 70.86 78.02 71.26 78.43 72.23L83.92 85.29L75.42 74.12Z" fill="#FCD043" fill-opacity="1.000000" fill-rule="nonzero"/>
	<path id="Rectangle 99" d="M95.04 76.78C95.93 76.1 97.23 76.37 97.8 77.35C98.33 78.27 97.94 79.43 96.97 79.84L83.92 85.26L95.04 76.78Z" fill="#FCD043" fill-opacity="1.000000" fill-rule="nonzero"/>
	<path id="Rectangle 94" d="M97.76 87.22C98.86 87.37 99.59 88.46 99.3 89.54C99.03 90.54 97.95 91.08 96.98 90.69L83.84 85.29L97.76 87.22Z" fill="#FCD043" fill-opacity="1.000000" fill-rule="nonzero"/>
	<path id="Rectangle 96" d="M82.01 99.17C81.86 100.29 80.76 101.03 79.66 100.73C78.64 100.46 78.09 99.34 78.49 98.36L83.84 85.32L82.01 99.17Z" fill="#FCD043" fill-opacity="1.000000" fill-rule="nonzero"/>
	<path id="Rectangle 98" d="M92.4 96.43C93.08 97.33 92.83 98.62 91.86 99.18C90.96 99.7 89.8 99.3 89.39 98.33L83.9 85.27L92.4 96.43Z" fill="#FCD043" fill-opacity="1.000000" fill-rule="nonzero"/>
	<path id="Rectangle 100" d="M72.78 93.77C71.89 94.45 70.6 94.18 70.03 93.2C69.5 92.28 69.89 91.12 70.85 90.71L83.9 85.29L72.78 93.77Z" fill="#FCD043" fill-opacity="1.000000" fill-rule="nonzero"/>
</svg>
