<svg width="2589.341553" height="224.621826" viewBox="0 0 2589.34 224.622" fill="none" xmlns="http://www.w3.org/2000/svg" xmlns:xlink="http://www.w3.org/1999/xlink">
	<desc>
			Created with Pixso.
	</desc>
	<defs/>
	<path id="Bank hotel Bank__hotel© Bank hotel Bank hotel Bank hotel Bank hotel Bank hotel Bank hotel" d="M774.34 19.92C774.34 32.87 762.71 37.67 750.23 39.11C764.38 40.54 779.62 46.78 779.62 61.43C779.62 78.33 759.7 83.99 744.11 83.99L713.88 83.99L713.88 0L738.95 0C754.42 0 774.34 3.1 774.34 19.92ZM957.72 27.09L938.27 44.38L962.88 83.99L953.15 83.99L932.15 49.68L922.42 58.3L922.42 83.99L913.07 83.99L913.07 0L922.42 0L922.42 57.24L956.38 27.09L957.72 27.09ZM1123.18 26.27C1133.03 26.27 1141.31 32.98 1142.87 47.28C1144.06 59.03 1146 79.54 1146.47 83.99L1136.98 83.99C1136.51 80.03 1134.11 51.7 1133.52 45.58C1132.56 36.59 1128.1 26.39 1117.79 28.44C1104.34 30.96 1101.93 56.04 1101.93 66.12L1101.93 83.99L1092.48 83.99L1092.48 0L1101.93 0L1101.93 56.04C1103.52 42.48 1107.6 26.27 1123.18 26.27ZM1333.08 83.99L1333.08 0L1342.54 0L1342.54 83.99L1333.08 83.99ZM765 19.92C765 9.34 758.64 0.96 738.95 0.96L723.22 0.96L723.22 38.87L738.95 38.87C758.64 38.87 765 30.58 765 19.92ZM1355.76 50.03C1355.76 27.71 1373.75 9.72 1396.07 9.72C1418.28 9.72 1436.38 27.71 1436.38 50.03C1436.38 72.24 1418.28 90.35 1396.07 90.35C1373.75 90.35 1355.76 72.24 1355.76 50.03ZM1247.38 82.44C1255.43 82.06 1258.93 72.71 1258.93 62.75L1259.75 62.75C1259.75 74.15 1256.38 84.58 1243.66 84.58C1233.12 84.58 1226.53 77.63 1226.53 63.6L1226.53 27.09L1219.43 27.09L1219.43 26.27L1226.53 26.27L1234.67 9.84L1235.99 9.84L1235.99 26.27L1250.02 26.27L1250.02 27.09L1235.99 27.09L1235.99 65.27C1235.99 75.7 1237.92 82.91 1247.38 82.44ZM1356.73 50.03C1356.73 71.63 1374.36 89.26 1396.07 89.26C1417.78 89.26 1435.42 71.63 1435.42 50.03C1435.42 28.3 1417.78 10.66 1396.07 10.66C1374.36 10.66 1356.73 28.3 1356.73 50.03ZM1303.67 82.44C1315.44 81.24 1321.92 70.78 1323.82 67.32L1324.67 67.67C1320.83 74.5 1313.74 83.87 1299.48 84.58C1283.86 85.31 1266.34 76.43 1265.87 56.74C1265.29 35.88 1284.24 26.86 1297.43 26.27C1307.5 25.66 1321.57 30.7 1323.24 45.23L1276.06 45.23C1274.63 51.59 1274.87 58.68 1276.92 64.42C1281.34 77.02 1291.42 83.75 1303.67 82.44ZM798.23 37.79C800.16 31.31 805.9 26.27 815.51 26.27C825.47 26.27 837.34 31.43 837.34 46.2L837.34 83.99L836.02 83.99L827.88 67.2C825.71 75.96 819.23 84.58 807.11 84.58C795.71 84.58 785.63 76.66 785.63 66.12C785.63 41.63 820.44 40.42 827.88 55.78L827.88 44.64C827.88 35.5 822.95 27.48 814.43 27.48C806.64 27.48 800.98 31.78 799.08 38.14L798.23 37.79ZM880.06 26.27C889.9 26.27 898.19 32.98 899.74 47.28C900.95 59.03 902.88 79.54 903.47 83.99L893.86 83.99C893.5 80.03 890.99 51.7 890.4 45.58C889.43 36.59 884.98 26.39 874.67 28.44C861.22 30.96 858.82 56.16 858.82 66.24L858.82 83.99L849.35 83.99L849.35 27.09L858.82 27.09L858.82 56.04C860.4 42.48 864.47 26.27 880.06 26.27ZM1152.48 55.42C1152.48 37.2 1169.03 26.27 1184.15 26.27C1199.26 26.27 1215.84 37.2 1215.84 55.42C1215.84 73.68 1199.26 84.58 1184.15 84.58C1169.03 84.58 1152.48 73.68 1152.48 55.42ZM1162.31 55.42C1162.31 71.27 1172.28 83.64 1184.15 83.64C1196.04 83.64 1206 71.27 1206 55.42C1206 39.58 1196.04 27.24 1184.15 27.24C1172.28 27.24 1162.31 39.58 1162.31 55.42ZM1314.59 44.26C1313.04 33.83 1303.67 25.42 1291.92 27.59C1283.74 29.15 1278.59 36.12 1276.3 44.26L1314.59 44.26ZM1381.07 54.34C1384.32 65.15 1393.2 70.78 1403.98 69.11C1409.4 68.4 1414.21 64.8 1417.31 58.56L1417.78 58.79C1414.44 65.62 1408.55 71.27 1397.74 71.27C1385.64 71.27 1375.18 61.43 1375.18 49.42C1375.18 37.32 1386.11 27.48 1398.24 27.48C1404.95 27.48 1412.04 30.82 1413.71 32.28L1413.71 39.58C1409.14 31.66 1400.03 27.24 1392 28.91C1381.54 31.2 1377.7 43.56 1381.07 54.34ZM723.22 83.14L744.11 83.14C763.91 83.14 770.15 72.09 770.15 61.43C770.15 50.88 763.91 39.84 744.11 39.84L723.22 39.84L723.22 83.14ZM794.27 65.03C794.27 75 801.48 82.32 809.74 82.32C820.9 82.32 827.38 71.27 827.88 60.96L827.88 58.06C823.19 44.26 794.27 41.51 794.27 65.03ZM972.48 87.24L972.48 86.27L1018.68 86.27L1018.68 87.24L972.48 87.24ZM1033.07 87.24L1033.07 86.27L1079.28 86.27L1079.28 87.24L1033.07 87.24Z" fill="#FFFCF6" fill-opacity="1.000000" fill-rule="evenodd"/>
	<path id="Bank hotel Bank__hotel© Bank hotel Bank hotel Bank hotel Bank hotel Bank hotel Bank hotel" d="M198.46 19.92C198.46 32.87 186.83 37.67 174.35 39.11C188.5 40.54 203.74 46.78 203.74 61.43C203.74 78.33 183.82 83.99 168.23 83.99L138 83.99L138 0L163.07 0C178.54 0 198.46 3.1 198.46 19.92ZM381.84 27.09L362.39 44.38L387 83.99L377.27 83.99L356.27 49.68L346.54 58.3L346.54 83.99L337.19 83.99L337.19 0L346.54 0L346.54 57.24L380.5 27.09L381.84 27.09ZM453.7 26.27C463.54 26.27 471.83 32.98 473.38 47.28C474.59 59.03 476.52 79.54 476.99 83.99L467.5 83.99C467.03 80.03 464.63 51.7 464.04 45.58C463.07 36.59 458.62 26.39 448.31 28.44C434.86 30.96 432.46 56.04 432.46 66.12L432.46 83.99L422.99 83.99L422.99 0L432.46 0L432.46 56.04C434.04 42.48 438.11 26.27 453.7 26.27ZM663.59 83.99L663.59 0L673.06 0L673.06 83.99L663.59 83.99ZM1538.87 19.92C1538.87 32.87 1527.24 37.67 1514.76 39.11C1528.91 40.54 1544.14 46.78 1544.14 61.43C1544.14 78.33 1524.22 83.99 1508.63 83.99L1478.4 83.99L1478.4 0L1503.48 0C1518.95 0 1538.87 3.1 1538.87 19.92ZM1722.25 27.09L1702.79 44.38L1727.4 83.99L1717.68 83.99L1696.67 49.68L1686.94 58.3L1686.94 83.99L1677.6 83.99L1677.6 0L1686.94 0L1686.94 57.24L1720.9 27.09L1722.25 27.09ZM1794.1 26.27C1803.95 26.27 1812.24 32.98 1813.79 47.28C1814.99 59.03 1816.92 79.54 1817.39 83.99L1807.9 83.99C1807.43 80.03 1805.03 51.7 1804.44 45.58C1803.48 36.59 1799.02 26.39 1788.71 28.44C1775.26 30.96 1772.86 56.04 1772.86 66.12L1772.86 83.99L1763.4 83.99L1763.4 0L1772.86 0L1772.86 56.04C1774.44 42.48 1778.52 26.27 1794.1 26.27ZM2004 83.99L2004 0L2013.46 0L2013.46 83.99L2004 83.99ZM2114.75 19.92C2114.75 32.87 2103.12 37.67 2090.63 39.11C2104.79 40.54 2120.02 46.78 2120.02 61.43C2120.02 78.33 2100.1 83.99 2084.51 83.99L2054.28 83.99L2054.28 0L2079.36 0C2094.83 0 2114.75 3.1 2114.75 19.92ZM2298.12 27.09L2278.67 44.38L2303.28 83.99L2293.56 83.99L2272.55 49.68L2262.82 58.3L2262.82 83.99L2253.48 83.99L2253.48 0L2262.82 0L2262.82 57.24L2296.78 27.09L2298.12 27.09ZM2369.98 26.27C2379.83 26.27 2388.12 32.98 2389.67 47.28C2390.87 59.03 2392.8 79.54 2393.27 83.99L2383.78 83.99C2383.31 80.03 2380.9 51.7 2380.32 45.58C2379.36 36.59 2374.89 26.39 2364.59 28.44C2351.13 30.96 2348.74 56.04 2348.74 66.12L2348.74 83.99L2339.28 83.99L2339.28 0L2348.74 0L2348.74 56.04C2350.32 42.48 2354.39 26.27 2369.98 26.27ZM2579.87 83.99L2579.87 0L2589.34 0L2589.34 83.99L2579.87 83.99ZM189.12 19.92C189.12 9.34 182.76 0.96 163.07 0.96L147.34 0.96L147.34 38.87L163.07 38.87C182.76 38.87 189.12 30.58 189.12 19.92ZM1529.52 19.92C1529.52 9.34 1523.17 0.96 1503.48 0.96L1487.75 0.96L1487.75 38.87L1503.48 38.87C1523.17 38.87 1529.52 30.58 1529.52 19.92ZM2105.39 19.92C2105.39 9.34 2099.05 0.96 2079.36 0.96L2063.62 0.96L2063.62 38.87L2079.36 38.87C2099.05 38.87 2105.39 30.58 2105.39 19.92ZM577.9 82.44C585.96 82.06 589.44 72.71 589.44 62.75L590.26 62.75C590.26 74.15 586.89 84.58 574.18 84.58C563.63 84.58 557.04 77.63 557.04 63.6L557.04 27.09L549.95 27.09L549.95 26.27L557.04 26.27L565.19 9.84L566.5 9.84L566.5 26.27L580.54 26.27L580.54 27.09L566.5 27.09L566.5 65.27C566.5 75.7 568.44 82.91 577.9 82.44ZM1918.3 82.44C1926.36 82.06 1929.85 72.71 1929.85 62.75L1930.67 62.75C1930.67 74.15 1927.3 84.58 1914.58 84.58C1904.04 84.58 1897.44 77.63 1897.44 63.6L1897.44 27.09L1890.35 27.09L1890.35 26.27L1897.44 26.27L1905.59 9.84L1906.91 9.84L1906.91 26.27L1920.94 26.27L1920.94 27.09L1906.91 27.09L1906.91 65.27C1906.91 75.7 1908.84 82.91 1918.3 82.44ZM2494.18 82.44C2502.24 82.06 2505.73 72.71 2505.73 62.75L2506.55 62.75C2506.55 74.15 2503.18 84.58 2490.46 84.58C2479.92 84.58 2473.32 77.63 2473.32 63.6L2473.32 27.09L2466.24 27.09L2466.24 26.27L2473.32 26.27L2481.47 9.84L2482.79 9.84L2482.79 26.27L2496.82 26.27L2496.82 27.09L2482.79 27.09L2482.79 65.27C2482.79 75.7 2484.72 82.91 2494.18 82.44ZM634.18 82.44C645.96 81.24 652.43 70.78 654.34 67.32L655.19 67.67C651.35 74.5 644.26 83.87 629.99 84.58C614.38 85.31 596.86 76.43 596.39 56.74C595.8 35.88 614.76 26.86 627.94 26.27C638.02 25.66 652.08 30.7 653.75 45.23L606.58 45.23C605.15 51.59 605.38 58.68 607.43 64.42C611.86 77.02 621.93 83.75 634.18 82.44ZM1974.58 82.44C1986.36 81.24 1992.84 70.78 1994.74 67.32L1995.59 67.67C1991.75 74.5 1984.66 83.87 1970.4 84.58C1954.78 85.31 1937.26 76.43 1936.79 56.74C1936.21 35.88 1955.16 26.86 1968.34 26.27C1978.42 25.66 1992.49 30.7 1994.16 45.23L1946.99 45.23C1945.55 51.59 1945.79 58.68 1947.84 64.42C1952.26 77.02 1962.34 83.75 1974.58 82.44ZM2550.47 82.44C2562.24 81.24 2568.72 70.78 2570.62 67.32L2571.47 67.67C2567.62 74.5 2560.54 83.87 2546.28 84.58C2530.65 85.31 2513.13 76.43 2512.67 56.74C2512.09 35.88 2531.04 26.86 2544.23 26.27C2554.3 25.66 2568.37 30.7 2570.04 45.23L2522.87 45.23C2521.43 51.59 2521.67 58.68 2523.72 64.42C2528.13 77.02 2538.22 83.75 2550.47 82.44ZM222.35 37.79C224.28 31.31 230.02 26.27 239.63 26.27C249.59 26.27 261.46 31.43 261.46 46.2L261.46 83.99L260.14 83.99L252 67.2C249.83 75.96 243.35 84.58 231.23 84.58C219.83 84.58 209.75 76.66 209.75 66.12C209.75 41.63 244.56 40.42 252 55.78L252 44.64C252 35.5 247.08 27.48 238.55 27.48C230.76 27.48 225.1 31.78 223.2 38.14L222.35 37.79ZM304.18 26.27C314.02 26.27 322.31 32.98 323.86 47.28C325.07 59.03 327 79.54 327.59 83.99L317.98 83.99C317.62 80.03 315.1 51.7 314.52 45.58C313.55 36.59 309.1 26.39 298.79 28.44C285.34 30.96 282.94 56.16 282.94 66.24L282.94 83.99L273.47 83.99L273.47 27.09L282.94 27.09L282.94 56.04C284.52 42.48 288.59 26.27 304.18 26.27ZM482.99 55.42C482.99 37.2 499.54 26.27 514.66 26.27C529.78 26.27 546.36 37.2 546.36 55.42C546.36 73.68 529.78 84.58 514.66 84.58C499.54 84.58 482.99 73.68 482.99 55.42ZM1562.75 37.79C1564.69 31.31 1570.43 26.27 1580.04 26.27C1590 26.27 1601.86 31.43 1601.86 46.2L1601.86 83.99L1600.55 83.99L1592.4 67.2C1590.23 75.96 1583.76 84.58 1571.63 84.58C1560.23 84.58 1550.16 76.66 1550.16 66.12C1550.16 41.63 1584.96 40.42 1592.4 55.78L1592.4 44.64C1592.4 35.5 1587.48 27.48 1578.95 27.48C1571.16 27.48 1565.51 31.78 1563.6 38.14L1562.75 37.79ZM1644.58 26.27C1654.43 26.27 1662.72 32.98 1664.27 47.28C1665.47 59.03 1667.4 79.54 1667.99 83.99L1658.38 83.99C1658.03 80.03 1655.51 51.7 1654.92 45.58C1653.96 36.59 1649.5 26.39 1639.19 28.44C1625.74 30.96 1623.34 56.16 1623.34 66.24L1623.34 83.99L1613.88 83.99L1613.88 27.09L1623.34 27.09L1623.34 56.04C1624.92 42.48 1629 26.27 1644.58 26.27ZM1823.39 55.42C1823.39 37.2 1839.95 26.27 1855.06 26.27C1870.18 26.27 1886.76 37.2 1886.76 55.42C1886.76 73.68 1870.18 84.58 1855.06 84.58C1839.95 84.58 1823.39 73.68 1823.39 55.42ZM2138.62 37.79C2140.57 31.31 2146.31 26.27 2155.92 26.27C2165.87 26.27 2177.74 31.43 2177.74 46.2L2177.74 83.99L2176.43 83.99L2168.28 67.2C2166.11 75.96 2159.63 84.58 2147.51 84.58C2136.11 84.58 2126.03 76.66 2126.03 66.12C2126.03 41.63 2160.84 40.42 2168.28 55.78L2168.28 44.64C2168.28 35.5 2163.36 27.48 2154.83 27.48C2147.04 27.48 2141.38 31.78 2139.48 38.14L2138.62 37.79ZM2220.46 26.27C2230.31 26.27 2238.6 32.98 2240.14 47.28C2241.35 59.03 2243.28 79.54 2243.87 83.99L2234.26 83.99C2233.9 80.03 2231.38 51.7 2230.8 45.58C2229.84 36.59 2225.37 26.39 2215.07 28.44C2201.62 30.96 2199.22 56.16 2199.22 66.24L2199.22 83.99L2189.76 83.99L2189.76 27.09L2199.22 27.09L2199.22 56.04C2200.8 42.48 2204.87 26.27 2220.46 26.27ZM2399.28 55.42C2399.28 37.2 2415.83 26.27 2430.95 26.27C2446.06 26.27 2462.63 37.2 2462.63 55.42C2462.63 73.68 2446.06 84.58 2430.95 84.58C2415.83 84.58 2399.28 73.68 2399.28 55.42ZM492.83 55.42C492.83 71.27 502.8 83.64 514.66 83.64C526.56 83.64 536.52 71.27 536.52 55.42C536.52 39.58 526.56 27.24 514.66 27.24C502.8 27.24 492.83 39.58 492.83 55.42ZM1833.24 55.42C1833.24 71.27 1843.2 83.64 1855.06 83.64C1866.96 83.64 1876.92 71.27 1876.92 55.42C1876.92 39.58 1866.96 27.24 1855.06 27.24C1843.2 27.24 1833.24 39.58 1833.24 55.42ZM2409.12 55.42C2409.12 71.27 2419.08 83.64 2430.95 83.64C2442.84 83.64 2452.8 71.27 2452.8 55.42C2452.8 39.58 2442.84 27.24 2430.95 27.24C2419.08 27.24 2409.12 39.58 2409.12 55.42ZM645.11 44.26C643.56 33.83 634.18 25.42 622.43 27.59C614.26 29.15 609.1 36.12 606.82 44.26L645.11 44.26ZM1985.51 44.26C1983.96 33.83 1974.58 25.42 1962.84 27.59C1954.66 29.15 1949.51 36.12 1947.22 44.26L1985.51 44.26ZM2561.38 44.26C2559.84 33.83 2550.47 25.42 2538.72 27.59C2530.54 29.15 2525.38 36.12 2523.1 44.26L2561.38 44.26ZM147.34 83.14L168.23 83.14C188.03 83.14 194.27 72.09 194.27 61.43C194.27 50.88 188.03 39.84 168.23 39.84L147.34 39.84L147.34 83.14ZM1487.75 83.14L1508.63 83.14C1528.44 83.14 1534.68 72.09 1534.68 61.43C1534.68 50.88 1528.44 39.84 1508.63 39.84L1487.75 39.84L1487.75 83.14ZM2063.62 83.14L2084.51 83.14C2104.32 83.14 2110.56 72.09 2110.56 61.43C2110.56 50.88 2104.32 39.84 2084.51 39.84L2063.62 39.84L2063.62 83.14ZM218.39 65.03C218.39 75 225.6 82.32 233.86 82.32C245.02 82.32 251.5 71.27 252 60.96L252 58.06C247.31 44.26 218.39 41.51 218.39 65.03ZM1558.8 65.03C1558.8 75 1566 82.32 1574.27 82.32C1585.43 82.32 1591.9 71.27 1592.4 60.96L1592.4 58.06C1587.71 44.26 1558.8 41.51 1558.8 65.03ZM2134.68 65.03C2134.68 75 2141.87 82.32 2150.14 82.32C2161.31 82.32 2167.78 71.27 2168.28 60.96L2168.28 58.06C2163.59 44.26 2134.68 41.51 2134.68 65.03ZM60.46 159.92C60.46 172.87 48.83 177.67 36.35 179.11C50.5 180.54 65.74 186.78 65.74 201.43C65.74 218.34 45.82 223.99 30.23 223.99L0 223.99L0 140L25.07 140C40.54 140 60.46 143.1 60.46 159.92ZM243.84 167.1L224.39 184.38L249 223.99L239.27 223.99L218.27 189.68L208.54 198.3L208.54 223.99L199.19 223.99L199.19 140L208.54 140L208.54 197.24L242.5 167.1L243.84 167.1ZM315.7 166.27C325.54 166.27 333.83 172.98 335.38 187.28C336.59 199.03 338.52 219.54 338.99 223.99L329.5 223.99C329.03 220.03 326.63 191.7 326.04 185.58C325.07 176.59 320.62 166.39 310.31 168.44C296.86 170.96 294.46 196.04 294.46 206.12L294.46 223.99L284.99 223.99L284.99 140L294.46 140L294.46 196.04C296.04 182.48 300.11 166.27 315.7 166.27ZM525.59 223.99L525.59 140L535.06 140L535.06 223.99L525.59 223.99ZM663.94 159.92C663.94 172.87 652.31 177.67 639.83 179.11C653.98 180.54 669.22 186.78 669.22 201.43C669.22 218.34 649.3 223.99 633.71 223.99L603.48 223.99L603.48 140L628.55 140C644.02 140 663.94 143.1 663.94 159.92ZM847.32 167.1L827.87 184.38L852.48 223.99L842.75 223.99L821.75 189.68L812.02 198.3L812.02 223.99L802.67 223.99L802.67 140L812.02 140L812.02 197.24L845.97 167.1L847.32 167.1ZM919.18 166.27C929.02 166.27 937.31 172.98 938.86 187.28C940.07 199.03 942 219.54 942.47 223.99L932.98 223.99C932.51 220.03 930.11 191.7 929.52 185.58C928.55 176.59 924.1 166.39 913.79 168.44C900.34 170.96 897.94 196.04 897.94 206.12L897.94 223.99L888.47 223.99L888.47 140L897.94 140L897.94 196.04C899.52 182.48 903.59 166.27 919.18 166.27ZM1129.07 223.99L1129.07 140L1138.54 140L1138.54 223.99L1129.07 223.99ZM1239.82 159.92C1239.82 172.87 1228.19 177.67 1215.72 179.11C1229.87 180.54 1245.1 186.78 1245.1 201.43C1245.1 218.34 1225.18 223.99 1209.59 223.99L1179.36 223.99L1179.36 140L1204.43 140C1219.91 140 1239.82 143.1 1239.82 159.92ZM1423.21 167.1L1403.75 184.38L1428.36 223.99L1418.64 223.99L1397.63 189.68L1387.9 198.3L1387.9 223.99L1378.56 223.99L1378.56 140L1387.9 140L1387.9 197.24L1421.86 167.1L1423.21 167.1ZM1522.66 166.27C1532.51 166.27 1540.8 172.98 1542.35 187.28C1543.55 199.03 1545.48 219.54 1545.95 223.99L1536.46 223.99C1535.99 220.03 1533.59 191.7 1533 185.58C1532.04 176.59 1527.58 166.39 1517.27 168.44C1503.82 170.96 1501.42 196.04 1501.42 206.12L1501.42 223.99L1491.96 223.99L1491.96 140L1501.42 140L1501.42 196.04C1503 182.48 1507.08 166.27 1522.66 166.27ZM1732.56 223.99L1732.56 140L1742.02 140L1742.02 223.99L1732.56 223.99ZM1843.31 159.92C1843.31 172.87 1831.68 177.67 1819.2 179.11C1833.35 180.54 1848.58 186.78 1848.58 201.43C1848.58 218.34 1828.66 223.99 1813.07 223.99L1782.84 223.99L1782.84 140L1807.92 140C1823.39 140 1843.31 143.1 1843.31 159.92ZM2026.69 167.1L2007.23 184.38L2031.84 223.99L2022.12 223.99L2001.11 189.68L1991.38 198.3L1991.38 223.99L1982.04 223.99L1982.04 140L1991.38 140L1991.38 197.24L2025.34 167.1L2026.69 167.1ZM2098.54 166.27C2108.38 166.27 2116.68 172.98 2118.23 187.28C2119.43 199.03 2121.36 219.54 2121.83 223.99L2112.34 223.99C2111.87 220.03 2109.47 191.7 2108.87 185.58C2107.92 176.59 2103.46 166.39 2093.14 168.44C2079.7 170.96 2077.3 196.04 2077.3 206.12L2077.3 223.99L2067.84 223.99L2067.84 140L2077.3 140L2077.3 196.04C2078.87 182.48 2082.96 166.27 2098.54 166.27ZM2308.44 223.99L2308.44 140L2317.89 140L2317.89 223.99L2308.44 223.99ZM51.12 159.92C51.12 149.34 44.76 140.96 25.07 140.96L9.34 140.96L9.34 178.87L25.07 178.87C44.76 178.87 51.12 170.58 51.12 159.92ZM654.6 159.92C654.6 149.34 648.24 140.96 628.55 140.96L612.82 140.96L612.82 178.87L628.55 178.87C648.24 178.87 654.6 170.58 654.6 159.92ZM1230.48 159.92C1230.48 149.34 1224.13 140.96 1204.43 140.96L1188.71 140.96L1188.71 178.87L1204.43 178.87C1224.13 178.87 1230.48 170.58 1230.48 159.92ZM1833.96 159.92C1833.96 149.34 1827.6 140.96 1807.92 140.96L1792.19 140.96L1792.19 178.87L1807.92 178.87C1827.6 178.87 1833.96 170.58 1833.96 159.92ZM439.9 222.44C447.96 222.06 451.44 212.71 451.44 202.75L452.26 202.75C452.26 214.15 448.89 224.58 436.18 224.58C425.63 224.58 419.04 217.63 419.04 203.6L419.04 167.1L411.95 167.1L411.95 166.27L419.04 166.27L427.19 149.84L428.5 149.84L428.5 166.27L442.54 166.27L442.54 167.1L428.5 167.1L428.5 205.27C428.5 215.7 430.44 222.91 439.9 222.44ZM1043.38 222.44C1051.43 222.06 1054.93 212.71 1054.93 202.75L1055.75 202.75C1055.75 214.15 1052.38 224.58 1039.66 224.58C1029.12 224.58 1022.53 217.63 1022.53 203.6L1022.53 167.1L1015.44 167.1L1015.44 166.27L1022.53 166.27L1030.67 149.84L1031.99 149.84L1031.99 166.27L1046.02 166.27L1046.02 167.1L1031.99 167.1L1031.99 205.27C1031.99 215.7 1033.92 222.91 1043.38 222.44ZM1646.86 222.44C1654.92 222.06 1658.41 212.71 1658.41 202.75L1659.23 202.75C1659.23 214.15 1655.86 224.58 1643.14 224.58C1632.6 224.58 1626 217.63 1626 203.6L1626 167.1L1618.91 167.1L1618.91 166.27L1626 166.27L1634.15 149.84L1635.47 149.84L1635.47 166.27L1649.5 166.27L1649.5 167.1L1635.47 167.1L1635.47 205.27C1635.47 215.7 1637.4 222.91 1646.86 222.44ZM2222.74 222.44C2230.8 222.06 2234.29 212.71 2234.29 202.75L2235.11 202.75C2235.11 214.15 2231.74 224.58 2219.02 224.58C2208.48 224.58 2201.87 217.63 2201.87 203.6L2201.87 167.1L2194.79 167.1L2194.79 166.27L2201.87 166.27L2210.03 149.84L2211.35 149.84L2211.35 166.27L2225.37 166.27L2225.37 167.1L2211.35 167.1L2211.35 205.27C2211.35 215.7 2213.28 222.91 2222.74 222.44ZM496.18 222.44C507.96 221.24 514.43 210.78 516.34 207.32L517.19 207.67C513.35 214.5 506.26 223.87 491.99 224.58C476.38 225.31 458.86 216.43 458.39 196.74C457.8 175.88 476.76 166.86 489.94 166.27C500.02 165.66 514.08 170.7 515.75 185.23L468.58 185.23C467.15 191.59 467.38 198.68 469.43 204.42C473.86 217.02 483.93 223.76 496.18 222.44ZM1099.67 222.44C1111.43 221.24 1117.92 210.78 1119.81 207.32L1120.67 207.67C1116.82 214.5 1109.74 223.87 1095.48 224.58C1079.86 225.31 1062.34 216.43 1061.87 196.74C1061.29 175.88 1080.24 166.86 1093.43 166.27C1103.5 165.66 1117.56 170.7 1119.24 185.23L1072.06 185.23C1070.63 191.59 1070.87 198.68 1072.92 204.42C1077.34 217.02 1087.42 223.76 1099.67 222.44ZM1703.14 222.44C1714.92 221.24 1721.4 210.78 1723.3 207.32L1724.15 207.67C1720.31 214.5 1713.22 223.87 1698.96 224.58C1683.34 225.31 1665.82 216.43 1665.35 196.74C1664.77 175.88 1683.72 166.86 1696.9 166.27C1706.98 165.66 1721.05 170.7 1722.72 185.23L1675.55 185.23C1674.11 191.59 1674.35 198.68 1676.4 204.42C1680.82 217.02 1690.9 223.76 1703.14 222.44ZM2279.02 222.44C2290.8 221.24 2297.28 210.78 2299.18 207.32L2300.03 207.67C2296.19 214.5 2289.1 223.87 2274.84 224.58C2259.22 225.31 2241.7 216.43 2241.23 196.74C2240.64 175.88 2259.6 166.86 2272.78 166.27C2282.86 165.66 2296.93 170.7 2298.6 185.23L2251.43 185.23C2249.99 191.59 2250.23 198.68 2252.28 204.42C2256.7 217.02 2266.78 223.76 2279.02 222.44ZM84.35 177.79C86.28 171.31 92.02 166.27 101.63 166.27C111.59 166.27 123.46 171.43 123.46 186.2L123.46 223.99L122.14 223.99L114 207.2C111.83 215.96 105.35 224.58 93.22 224.58C81.83 224.58 71.75 216.67 71.75 206.12C71.75 181.63 106.56 180.43 114 195.78L114 184.64C114 175.5 109.08 167.48 100.55 167.48C92.76 167.48 87.1 171.78 85.2 178.14L84.35 177.79ZM166.18 166.27C176.02 166.27 184.31 172.98 185.86 187.28C187.07 199.03 189 219.54 189.59 223.99L179.98 223.99C179.62 220.03 177.11 191.7 176.52 185.58C175.55 176.59 171.1 166.39 160.79 168.44C147.34 170.96 144.94 196.16 144.94 206.24L144.94 223.99L135.47 223.99L135.47 167.1L144.94 167.1L144.94 196.04C146.52 182.48 150.59 166.27 166.18 166.27ZM344.99 195.43C344.99 177.2 361.54 166.27 376.66 166.27C391.78 166.27 408.36 177.2 408.36 195.43C408.36 213.68 391.78 224.58 376.66 224.58C361.54 224.58 344.99 213.68 344.99 195.43ZM687.83 177.79C689.76 171.31 695.5 166.27 705.11 166.27C715.07 166.27 726.94 171.43 726.94 186.2L726.94 223.99L725.62 223.99L717.48 207.2C715.31 215.96 708.83 224.58 696.71 224.58C685.31 224.58 675.23 216.67 675.23 206.12C675.23 181.63 710.04 180.43 717.48 195.78L717.48 184.64C717.48 175.5 712.55 167.48 704.03 167.48C696.24 167.48 690.58 171.78 688.68 178.14L687.83 177.79ZM769.66 166.27C779.5 166.27 787.79 172.98 789.34 187.28C790.55 199.03 792.48 219.54 793.07 223.99L783.46 223.99C783.1 220.03 780.59 191.7 780 185.58C779.03 176.59 774.58 166.39 764.27 168.44C750.82 170.96 748.42 196.16 748.42 206.24L748.42 223.99L738.95 223.99L738.95 167.1L748.42 167.1L748.42 196.04C750 182.48 754.07 166.27 769.66 166.27ZM948.47 195.43C948.47 177.2 965.02 166.27 980.14 166.27C995.26 166.27 1011.84 177.2 1011.84 195.43C1011.84 213.68 995.26 224.58 980.14 224.58C965.02 224.58 948.47 213.68 948.47 195.43ZM1263.71 177.79C1265.65 171.31 1271.39 166.27 1281 166.27C1290.96 166.27 1302.81 171.43 1302.81 186.2L1302.81 223.99L1301.51 223.99L1293.36 207.2C1291.18 215.96 1284.72 224.58 1272.59 224.58C1261.18 224.58 1251.11 216.67 1251.11 206.12C1251.11 181.63 1285.92 180.43 1293.36 195.78L1293.36 184.64C1293.36 175.5 1288.43 167.48 1279.91 167.48C1272.12 167.48 1266.47 171.78 1264.56 178.14L1263.71 177.79ZM1345.54 166.27C1355.39 166.27 1363.68 172.98 1365.23 187.28C1366.43 199.03 1368.36 219.54 1368.95 223.99L1359.34 223.99C1358.99 220.03 1356.47 191.7 1355.88 185.58C1354.92 176.59 1350.46 166.39 1340.15 168.44C1326.7 170.96 1324.3 196.16 1324.3 206.24L1324.3 223.99L1314.84 223.99L1314.84 167.1L1324.3 167.1L1324.3 196.04C1325.88 182.48 1329.96 166.27 1345.54 166.27ZM1551.95 195.43C1551.95 177.2 1568.51 166.27 1583.62 166.27C1598.74 166.27 1615.32 177.2 1615.32 195.43C1615.32 213.68 1598.74 224.58 1583.62 224.58C1568.51 224.58 1551.95 213.68 1551.95 195.43ZM1867.19 177.79C1869.13 171.31 1874.87 166.27 1884.48 166.27C1894.44 166.27 1906.3 171.43 1906.3 186.2L1906.3 223.99L1904.99 223.99L1896.84 207.2C1894.67 215.96 1888.2 224.58 1876.07 224.58C1864.67 224.58 1854.59 216.67 1854.59 206.12C1854.59 181.63 1889.4 180.43 1896.84 195.78L1896.84 184.64C1896.84 175.5 1891.92 167.48 1883.39 167.48C1875.6 167.48 1869.95 171.78 1868.04 178.14L1867.19 177.79ZM1949.02 166.27C1958.87 166.27 1967.16 172.98 1968.71 187.28C1969.91 199.03 1971.84 219.54 1972.43 223.99L1962.82 223.99C1962.47 220.03 1959.95 191.7 1959.36 185.58C1958.4 176.59 1953.94 166.39 1943.63 168.44C1930.18 170.96 1927.78 196.16 1927.78 206.24L1927.78 223.99L1918.32 223.99L1918.32 167.1L1927.78 167.1L1927.78 196.04C1929.36 182.48 1933.44 166.27 1949.02 166.27ZM2127.83 195.43C2127.83 177.2 2144.38 166.27 2159.5 166.27C2174.62 166.27 2191.2 177.2 2191.2 195.43C2191.2 213.68 2174.62 224.58 2159.5 224.58C2144.38 224.58 2127.83 213.68 2127.83 195.43ZM354.83 195.43C354.83 211.27 364.8 223.64 376.66 223.64C388.56 223.64 398.52 211.27 398.52 195.43C398.52 179.58 388.56 167.24 376.66 167.24C364.8 167.24 354.83 179.58 354.83 195.43ZM958.31 195.43C958.31 211.27 968.28 223.64 980.14 223.64C992.04 223.64 1002 211.27 1002 195.43C1002 179.58 992.04 167.24 980.14 167.24C968.28 167.24 958.31 179.58 958.31 195.43ZM1561.8 195.43C1561.8 211.27 1571.76 223.64 1583.62 223.64C1595.52 223.64 1605.48 211.27 1605.48 195.43C1605.48 179.58 1595.52 167.24 1583.62 167.24C1571.76 167.24 1561.8 179.58 1561.8 195.43ZM2137.68 195.43C2137.68 211.27 2147.63 223.64 2159.5 223.64C2171.39 223.64 2181.36 211.27 2181.36 195.43C2181.36 179.58 2171.39 167.24 2159.5 167.24C2147.63 167.24 2137.68 179.58 2137.68 195.43ZM507.11 184.26C505.56 173.83 496.18 165.43 484.43 167.59C476.26 169.15 471.1 176.12 468.82 184.26L507.11 184.26ZM1110.59 184.26C1109.04 173.83 1099.67 165.43 1087.92 167.59C1079.74 169.15 1074.59 176.12 1072.3 184.26L1110.59 184.26ZM1714.07 184.26C1712.52 173.83 1703.14 165.43 1691.4 167.59C1683.22 169.15 1678.07 176.12 1675.78 184.26L1714.07 184.26ZM2289.95 184.26C2288.39 173.83 2279.02 165.43 2267.28 167.59C2259.1 169.15 2253.95 176.12 2251.65 184.26L2289.95 184.26ZM9.34 223.14L30.23 223.14C50.03 223.14 56.27 212.1 56.27 201.43C56.27 190.88 50.03 179.84 30.23 179.84L9.34 179.84L9.34 223.14ZM612.82 223.14L633.71 223.14C653.51 223.14 659.75 212.1 659.75 201.43C659.75 190.88 653.51 179.84 633.71 179.84L612.82 179.84L612.82 223.14ZM1188.71 223.14L1209.59 223.14C1229.4 223.14 1235.64 212.1 1235.64 201.43C1235.64 190.88 1229.4 179.84 1209.59 179.84L1188.71 179.84L1188.71 223.14ZM1792.19 223.14L1813.07 223.14C1832.88 223.14 1839.12 212.1 1839.12 201.43C1839.12 190.88 1832.88 179.84 1813.07 179.84L1792.19 179.84L1792.19 223.14ZM80.39 205.03C80.39 215 87.6 222.32 95.86 222.32C107.02 222.32 113.5 211.27 114 200.96L114 198.06C109.31 184.26 80.39 181.51 80.39 205.03ZM683.87 205.03C683.87 215 691.08 222.32 699.34 222.32C710.5 222.32 716.98 211.27 717.48 200.96L717.48 198.06C712.79 184.26 683.87 181.51 683.87 205.03ZM1259.76 205.03C1259.76 215 1266.96 222.32 1275.23 222.32C1286.39 222.32 1292.86 211.27 1293.36 200.96L1293.36 198.06C1288.67 184.26 1259.76 181.51 1259.76 205.03ZM1863.24 205.03C1863.24 215 1870.44 222.32 1878.71 222.32C1889.87 222.32 1896.34 211.27 1896.84 200.96L1896.84 198.06C1892.15 184.26 1863.24 181.51 1863.24 205.03Z" fill="#FFFCF6" fill-opacity="0.120000" fill-rule="evenodd"/>
	<path id="Bank hotel Bank__hotel© Bank hotel Bank hotel Bank hotel Bank hotel Bank hotel Bank hotel" d="" fill="#313F38" fill-opacity="1.000000" fill-rule="evenodd"/>
</svg>
