<svg width="170.000000" height="170.000000" viewBox="0 0 170 170" fill="none" xmlns="http://www.w3.org/2000/svg" xmlns:xlink="http://www.w3.org/1999/xlink">
	<defs/>
	<g opacity="0.480000">
		<path id="Polygon 6" d="M85 0L35.03 16.23L4.16 58.73L4.16 111.26L35.03 153.76L85 170L134.96 153.76L165.84 111.26L165.84 58.73L134.96 16.23L85 0Z" fill="#C4C4C4" fill-opacity="0" fill-rule="evenodd"/>
		<path id="Polygon 6" d="M35.03 16.23L4.16 58.73L4.16 111.26L35.03 153.76L85 170L134.96 153.76L165.84 111.26L165.84 58.73L134.96 16.23L85 0L35.03 16.23ZM35.65 17.08L5.16 59.05L5.16 110.94L35.65 152.91L85 168.94L134.34 152.91L164.84 110.94L164.84 59.05L134.34 17.08L85 1.05L35.65 17.08Z" fill="#313F38" fill-opacity="1.000000" fill-rule="evenodd"/>
	</g>
	<path id="Vector 3" d="" fill="#313F38" fill-opacity="1.000000" fill-rule="nonzero"/>
	<path id="Vector 3" d="M100.72 90.51C100.72 90.51 96.09 91.72 92.13 95.34C88.16 98.96 84.86 105 84.86 105C84.86 105 81.55 98.96 77.59 95.34C73.62 91.72 68.99 90.51 68.99 90.51" stroke="#313F38" stroke-opacity="1.000000" stroke-width="2.000000"/>
	<rect id="Rectangle 31" x="84.165039" y="65.000000" width="1.379343" height="38.621655" fill="#313F38" fill-opacity="1.000000"/>
	<rect id="Rectangle 31" x="84.665039" y="65.500000" width="0.379343" height="37.621655" stroke="#313F38" stroke-opacity="1.000000" stroke-width="1.000000"/>
</svg>
