<svg width="1418.000000" height="713.500000" viewBox="0 0 1418 713.5" fill="none" xmlns="http://www.w3.org/2000/svg" xmlns:xlink="http://www.w3.org/1999/xlink">
	<desc>
			Created with Pixso.
	</desc>
	<defs/>
	<path id="Ellipse 18" d="M0 713.5C0 616.72 18.57 524.15 55.71 435.77C91.59 350.4 142.24 274.81 207.66 208.98C273.07 143.14 348.19 92.17 433.02 56.07C520.84 18.69 612.83 0 709 0C805.15 0 897.14 18.69 984.97 56.07C1069.8 92.17 1144.93 143.14 1210.34 208.98C1275.76 274.82 1326.41 350.41 1362.28 435.77C1399.43 524.15 1418 616.72 1418 713.5L1417 713.5C1417 616.86 1398.45 524.41 1361.36 436.16C1325.54 350.92 1274.96 275.43 1209.63 209.68C1144.31 143.94 1069.3 93.04 984.58 56.99C896.88 19.66 805.02 1 709 1C612.97 1 521.11 19.66 433.41 56.99C348.7 93.04 273.69 143.94 208.37 209.68C143.04 275.42 92.46 350.91 56.63 436.16C19.54 524.41 1 616.86 1 713.5L0 713.5Z" fill="#3F5148" fill-opacity="1.000000" fill-rule="evenodd"/>
</svg>
