<svg width="190.025391" height="190.000732" viewBox="0 0 190.025 190.001" fill="none" xmlns="http://www.w3.org/2000/svg" xmlns:xlink="http://www.w3.org/1999/xlink">
	<desc>
			Created with Pixso.
	</desc>
	<defs/>
	<path id="Vector" d="M53.37 9.43L58.34 7.29C60.64 6.34 62.38 7.05 63.32 9.11C64.27 11.25 63.56 13.07 61.27 14.03L57.79 15.53L59.85 20.21L58.34 20.84L53.37 9.43ZM57.24 14.18L60.24 12.92C61.98 12.2 62.38 11.09 61.82 9.74C61.27 8.4 60.16 8 58.42 8.71L55.42 9.98L57.24 14.18Z" fill="#1B3B36" fill-opacity="1.000000" fill-rule="nonzero"/>
	<path id="Vector" d="M53.37 9.43L58.34 7.29C60.64 6.34 62.38 7.05 63.32 9.11C64.27 11.25 63.56 13.07 61.27 14.03L57.79 15.53L59.85 20.21L58.34 20.84L53.37 9.43ZM57.24 14.18L60.24 12.92C61.98 12.2 62.38 11.09 61.82 9.74C61.27 8.4 60.16 8 58.42 8.71L55.42 9.98L57.24 14.18Z" fill="#000000" fill-opacity="0.200000" fill-rule="nonzero"/>
	<path id="Vector" d="M76.21 1.66L81.98 0.79C84.27 0.47 85.93 1.5 86.17 3.48C86.41 4.99 85.93 6.26 84.51 6.89C86.01 6.97 86.41 7.92 86.72 9.11C87.04 10.3 87.12 11.65 87.99 12.36L86.17 12.6C85.61 12.2 85.69 10.78 85.3 9.67C84.98 8.48 84.51 7.53 82.93 7.76L78.98 8.4L79.77 13.63L78.11 13.87L76.21 1.66ZM82.06 6.57C83.56 6.34 84.82 5.78 84.59 3.96C84.43 2.77 83.64 1.98 82.06 2.21L78.03 2.85L78.66 7.13L82.06 6.57Z" fill="#1B3B36" fill-opacity="1.000000" fill-rule="nonzero"/>
	<path id="Vector" d="M76.21 1.66L81.98 0.79C84.27 0.47 85.93 1.5 86.17 3.48C86.41 4.99 85.93 6.26 84.51 6.89C86.01 6.97 86.41 7.92 86.72 9.11C87.04 10.3 87.12 11.65 87.99 12.36L86.17 12.6C85.61 12.2 85.69 10.78 85.3 9.67C84.98 8.48 84.51 7.53 82.93 7.76L78.98 8.4L79.77 13.63L78.11 13.87L76.21 1.66ZM82.06 6.57C83.56 6.34 84.82 5.78 84.59 3.96C84.43 2.77 83.64 1.98 82.06 2.21L78.03 2.85L78.66 7.13L82.06 6.57Z" fill="#000000" fill-opacity="0.200000" fill-rule="nonzero"/>
	<path id="Vector" d="M100.87 0L109.4 0.87L109.24 2.29L102.37 1.58L101.97 5.54L108.38 6.18L108.22 7.6L101.82 6.97L101.34 11.25L108.3 11.88L108.14 13.31L99.6 12.36L100.87 0Z" fill="#1B3B36" fill-opacity="1.000000" fill-rule="nonzero"/>
	<path id="Vector" d="M100.87 0L109.4 0.87L109.24 2.29L102.37 1.58L101.97 5.54L108.38 6.18L108.22 7.6L101.82 6.97L101.34 11.25L108.3 11.88L108.14 13.31L99.6 12.36L100.87 0Z" fill="#000000" fill-opacity="0.200000" fill-rule="nonzero"/>
	<path id="Vector" d="M124.18 4.27L126.32 5.15L126.16 16.32L133.67 8.08L135.8 8.95L131.22 20.52L129.64 19.81L133.43 10.14L126 18.38L124.66 17.83L124.81 6.73L121.02 16.4L119.6 15.85L124.18 4.27Z" fill="#1B3B36" fill-opacity="1.000000" fill-rule="nonzero"/>
	<path id="Vector" d="M124.18 4.27L126.32 5.15L126.16 16.32L133.67 8.08L135.8 8.95L131.22 20.52L129.64 19.81L133.43 10.14L126 18.38L124.66 17.83L124.81 6.73L121.02 16.4L119.6 15.85L124.18 4.27Z" fill="#000000" fill-opacity="0.200000" fill-rule="nonzero"/>
	<path id="Vector" d="M149 16.8L150.34 17.75L143.15 27.9L141.81 26.95L149 16.8Z" fill="#1B3B36" fill-opacity="1.000000" fill-rule="nonzero"/>
	<path id="Vector" d="M149 16.8L150.34 17.75L143.15 27.9L141.81 26.95L149 16.8Z" fill="#000000" fill-opacity="0.200000" fill-rule="nonzero"/>
	<path id="Vector" d="M162.91 40.26C160.62 42.4 158.17 42.16 156.11 39.86C153.98 37.49 153.82 35.11 156.27 32.89L162.12 27.58L163.23 28.77L157.3 34.08C155.64 35.58 155.64 37.33 157.06 38.91C158.49 40.5 160.14 40.5 161.73 39.07L167.57 33.76L168.68 34.95L162.91 40.26Z" fill="#1B3B36" fill-opacity="1.000000" fill-rule="nonzero"/>
	<path id="Vector" d="M162.91 40.26C160.62 42.4 158.17 42.16 156.11 39.86C153.98 37.49 153.82 35.11 156.27 32.89L162.12 27.58L163.23 28.77L157.3 34.08C155.64 35.58 155.64 37.33 157.06 38.91C158.49 40.5 160.14 40.5 161.73 39.07L167.57 33.76L168.68 34.95L162.91 40.26Z" fill="#000000" fill-opacity="0.200000" fill-rule="nonzero"/>
	<path id="Vector" d="M177.77 48.03L178.8 50.09L171.13 58.18L182.19 57.15L183.22 59.21L172.08 64.68L171.37 63.25L180.69 58.73L169.71 59.76L169.07 58.5L176.66 50.49L167.34 55.01L166.62 53.58L177.77 48.03Z" fill="#1B3B36" fill-opacity="1.000000" fill-rule="nonzero"/>
	<path id="Vector" d="M177.77 48.03L178.8 50.09L171.13 58.18L182.19 57.15L183.22 59.21L172.08 64.68L171.37 63.25L180.69 58.73L169.71 59.76L169.07 58.5L176.66 50.49L167.34 55.01L166.62 53.58L177.77 48.03Z" fill="#000000" fill-opacity="0.200000" fill-rule="nonzero"/>
	<path id="Vector" d="M190.02 91.39L189.94 97.25C189.94 99.55 188.6 100.98 186.62 100.98C185.12 100.98 183.94 100.27 183.54 98.76C183.22 100.19 182.2 100.5 180.93 100.58C179.75 100.66 178.32 100.58 177.53 101.3L177.53 99.47C178.01 99 179.35 99.31 180.62 99.08C181.8 98.92 182.83 98.68 182.91 97.02L182.99 92.97L177.69 92.89L177.69 91.23L190.02 91.39ZM184.25 96.38C184.25 97.97 184.57 99.24 186.39 99.31C187.57 99.31 188.52 98.68 188.52 97.1L188.6 92.97L184.25 92.89L184.25 96.38Z" fill="#1B3B36" fill-opacity="1.000000" fill-rule="nonzero"/>
	<path id="Vector" d="M190.02 91.39L189.94 97.25C189.94 99.55 188.6 100.98 186.62 100.98C185.12 100.98 183.94 100.27 183.54 98.76C183.22 100.19 182.2 100.5 180.93 100.58C179.75 100.66 178.32 100.58 177.53 101.3L177.53 99.47C178.01 99 179.35 99.31 180.62 99.08C181.8 98.92 182.83 98.68 182.91 97.02L182.99 92.97L177.69 92.89L177.69 91.23L190.02 91.39ZM184.25 96.38C184.25 97.97 184.57 99.24 186.39 99.31C187.57 99.31 188.52 98.68 188.52 97.1L188.6 92.97L184.25 92.89L184.25 96.38Z" fill="#000000" fill-opacity="0.200000" fill-rule="nonzero"/>
	<path id="Vector" d="M186.7 121.27C185.59 125.08 182.04 126.19 178.8 125.24C175.55 124.29 173.1 121.51 174.13 117.71C175.24 113.9 178.8 112.79 182.04 113.74C185.28 114.69 187.73 117.47 186.7 121.27ZM175.48 118.1C174.69 121.04 176.82 122.94 179.19 123.65C181.56 124.36 184.49 123.81 185.28 120.88C186.07 117.94 183.93 116.04 181.56 115.33C179.19 114.69 176.35 115.17 175.48 118.1Z" fill="#1B3B36" fill-opacity="1.000000" fill-rule="nonzero"/>
	<path id="Vector" d="M186.7 121.27C185.59 125.08 182.04 126.19 178.8 125.24C175.55 124.29 173.1 121.51 174.13 117.71C175.24 113.9 178.8 112.79 182.04 113.74C185.28 114.69 187.73 117.47 186.7 121.27ZM175.48 118.1C174.69 121.04 176.82 122.94 179.19 123.65C181.56 124.36 184.49 123.81 185.28 120.88C186.07 117.94 183.93 116.04 181.56 115.33C179.19 114.69 176.35 115.17 175.48 118.1Z" fill="#000000" fill-opacity="0.200000" fill-rule="nonzero"/>
	<path id="Vector" d="M176.03 145.45C173.97 148.78 170.26 148.86 167.34 147.11C164.49 145.37 162.83 141.96 164.96 138.63C167.02 135.3 170.73 135.22 173.66 136.97C176.5 138.71 178.16 142.04 176.03 145.45ZM166.15 139.34C164.57 141.96 166.07 144.42 168.21 145.69C170.34 147.03 173.18 147.27 174.84 144.74C176.42 142.12 174.92 139.66 172.79 138.39C170.66 137.05 167.73 136.73 166.15 139.34Z" fill="#1B3B36" fill-opacity="1.000000" fill-rule="nonzero"/>
	<path id="Vector" d="M176.03 145.45C173.97 148.78 170.26 148.86 167.34 147.11C164.49 145.37 162.83 141.96 164.96 138.63C167.02 135.3 170.73 135.22 173.66 136.97C176.5 138.71 178.16 142.04 176.03 145.45ZM166.15 139.34C164.57 141.96 166.07 144.42 168.21 145.69C170.34 147.03 173.18 147.27 174.84 144.74C176.42 142.12 174.92 139.66 172.79 138.39C170.66 137.05 167.73 136.73 166.15 139.34Z" fill="#000000" fill-opacity="0.200000" fill-rule="nonzero"/>
	<path id="Vector" d="M162.91 162.09L161.25 163.6L151.37 158.45L155.4 168.91L153.74 170.42L145.44 161.14L146.63 160.11L153.5 167.8L149.47 157.5L150.5 156.55L160.3 161.7L153.42 154.01L154.61 152.98L162.91 162.09Z" fill="#1B3B36" fill-opacity="1.000000" fill-rule="nonzero"/>
	<path id="Vector" d="M162.91 162.09L161.25 163.6L151.37 158.45L155.4 168.91L153.74 170.42L145.44 161.14L146.63 160.11L153.5 167.8L149.47 157.5L150.5 156.55L160.3 161.7L153.42 154.01L154.61 152.98L162.91 162.09Z" fill="#000000" fill-opacity="0.200000" fill-rule="nonzero"/>
	<path id="Vector" d="M132.32 178.9C133.27 180.41 134.7 180.56 136.2 179.85C137.46 179.22 138.49 178.19 137.78 176.68C137.14 175.33 135.25 175.97 133.19 176.44C131.22 176.92 129.16 177.16 128.06 174.94C126.87 172.56 128.77 170.5 130.82 169.47C133.35 168.28 136.04 168.44 137.38 171.13L135.96 171.84C135.01 169.94 133.11 169.94 131.38 170.73C130.03 171.37 128.77 172.56 129.56 174.14C130.27 175.65 132.25 175.09 134.22 174.62C136.2 174.14 138.25 173.75 139.2 175.81C140.31 178.11 138.8 180.09 136.75 181.04C134.46 182.15 132.25 181.91 130.9 179.53L132.32 178.9Z" fill="#1B3B36" fill-opacity="1.000000" fill-rule="nonzero"/>
	<path id="Vector" d="M132.32 178.9C133.27 180.41 134.7 180.56 136.2 179.85C137.46 179.22 138.49 178.19 137.78 176.68C137.14 175.33 135.25 175.97 133.19 176.44C131.22 176.92 129.16 177.16 128.06 174.94C126.87 172.56 128.77 170.5 130.82 169.47C133.35 168.28 136.04 168.44 137.38 171.13L135.96 171.84C135.01 169.94 133.11 169.94 131.38 170.73C130.03 171.37 128.77 172.56 129.56 174.14C130.27 175.65 132.25 175.09 134.22 174.62C136.2 174.14 138.25 173.75 139.2 175.81C140.31 178.11 138.8 180.09 136.75 181.04C134.46 182.15 132.25 181.91 130.9 179.53L132.32 178.9Z" fill="#000000" fill-opacity="0.200000" fill-rule="nonzero"/>
	<path id="Vector" d="M115.72 177.39L113.83 177.87L113.35 175.96L115.25 175.49L115.72 177.39Z" fill="#1B3B36" fill-opacity="1.000000" fill-rule="nonzero"/>
	<path id="Vector" d="M115.72 177.39L113.83 177.87L113.35 175.96L115.25 175.49L115.72 177.39Z" fill="#000000" fill-opacity="0.200000" fill-rule="nonzero"/>
	<path id="Vector" d="M84.11 190L79.68 189.28C78.58 189.12 77.16 188.89 76.52 188.33C75.81 187.7 75.34 186.75 75.5 185.56C75.73 184.21 76.52 183.42 77.79 183.1C76.36 182.55 75.65 181.28 75.97 179.77C76.29 177.95 77.87 176.44 80.24 176.84L86.17 177.79L84.11 190ZM83.4 184.45L80.16 183.89C78.34 183.58 77.47 184.13 77.23 185.4C76.92 187.06 78.1 187.54 79.53 187.78L82.77 188.33L83.4 184.45ZM84.27 178.82L80.16 178.19C78.74 177.95 77.71 178.66 77.47 180.01C77.23 181.59 78.42 182.23 79.76 182.47L83.48 183.1L84.27 178.82Z" fill="#1B3B36" fill-opacity="1.000000" fill-rule="nonzero"/>
	<path id="Vector" d="M84.11 190L79.68 189.28C78.58 189.12 77.16 188.89 76.52 188.33C75.81 187.7 75.34 186.75 75.5 185.56C75.73 184.21 76.52 183.42 77.79 183.1C76.36 182.55 75.65 181.28 75.97 179.77C76.29 177.95 77.87 176.44 80.24 176.84L86.17 177.79L84.11 190ZM83.4 184.45L80.16 183.89C78.34 183.58 77.47 184.13 77.23 185.4C76.92 187.06 78.1 187.54 79.53 187.78L82.77 188.33L83.4 184.45ZM84.27 178.82L80.16 178.19C78.74 177.95 77.71 178.66 77.47 180.01C77.23 181.59 78.42 182.23 79.76 182.47L83.48 183.1L84.27 178.82Z" fill="#000000" fill-opacity="0.200000" fill-rule="nonzero"/>
	<path id="Vector" d="M57 182.55L55.34 181.83L55.97 168.52L57.63 169.23L57.32 173.19L62.14 175.33L64.91 172.48L66.49 173.19L57 182.55ZM61.11 176.36L57.24 174.62L56.76 180.8L61.11 176.36Z" fill="#1B3B36" fill-opacity="1.000000" fill-rule="nonzero"/>
	<path id="Vector" d="M57 182.55L55.34 181.83L55.97 168.52L57.63 169.23L57.32 173.19L62.14 175.33L64.91 172.48L66.49 173.19L57 182.55ZM61.11 176.36L57.24 174.62L56.76 180.8L61.11 176.36Z" fill="#000000" fill-opacity="0.200000" fill-rule="nonzero"/>
	<path id="Vector" d="M38.9 172.32L37.56 171.21L38.83 159.24L32.5 167.09L31.32 166.14L39.14 156.47L40.56 157.58L39.3 169.47L45.54 161.7L46.73 162.65L38.9 172.32Z" fill="#1B3B36" fill-opacity="1.000000" fill-rule="nonzero"/>
	<path id="Vector" d="M38.9 172.32L37.56 171.21L38.83 159.24L32.5 167.09L31.32 166.14L39.14 156.47L40.56 157.58L39.3 169.47L45.54 161.7L46.73 162.65L38.9 172.32Z" fill="#000000" fill-opacity="0.200000" fill-rule="nonzero"/>
	<path id="Vector" d="M20.57 154.57L19.62 153.22L24.6 149.57L15.9 148.07L14.64 146.32L21.75 147.67L24.6 138.87L25.78 140.53L23.33 147.91L26.1 148.46L29.66 145.92L30.6 147.27L20.57 154.57Z" fill="#1B3B36" fill-opacity="1.000000" fill-rule="nonzero"/>
	<path id="Vector" d="M20.57 154.57L19.62 153.22L24.6 149.57L15.9 148.07L14.64 146.32L21.75 147.67L24.6 138.87L25.78 140.53L23.33 147.91L26.1 148.46L29.66 145.92L30.6 147.27L20.57 154.57Z" fill="#000000" fill-opacity="0.200000" fill-rule="nonzero"/>
	<path id="Vector" d="M2.47 117.47L2.15 115.8L7.37 114.85L6.18 108.43L0.97 109.38L0.65 107.72L12.82 105.42L13.14 107.08L7.53 108.11L8.71 114.54L14.32 113.51L14.64 115.17L2.47 117.47Z" fill="#1B3B36" fill-opacity="1.000000" fill-rule="nonzero"/>
	<path id="Vector" d="M2.47 117.47L2.15 115.8L7.37 114.85L6.18 108.43L0.97 109.38L0.65 107.72L12.82 105.42L13.14 107.08L7.53 108.11L8.71 114.54L14.32 113.51L14.64 115.17L2.47 117.47Z" fill="#000000" fill-opacity="0.200000" fill-rule="nonzero"/>
	<path id="Vector" d="M0.02 86.63C0.33 82.67 3.65 81 7.05 81.24C10.45 81.48 13.38 83.78 12.98 87.74C12.66 91.71 9.34 93.37 5.95 93.13C2.63 92.89 -0.3 90.6 0.02 86.63ZM11.64 87.66C11.87 84.65 9.42 83.14 6.89 82.91C4.37 82.67 1.68 83.7 1.44 86.71C1.2 89.72 3.65 91.23 6.18 91.47C8.63 91.78 11.32 90.75 11.64 87.66Z" fill="#1B3B36" fill-opacity="1.000000" fill-rule="nonzero"/>
	<path id="Vector" d="M0.02 86.63C0.33 82.67 3.65 81 7.05 81.24C10.45 81.48 13.38 83.78 12.98 87.74C12.66 91.71 9.34 93.37 5.95 93.13C2.63 92.89 -0.3 90.6 0.02 86.63ZM11.64 87.66C11.87 84.65 9.42 83.14 6.89 82.91C4.37 82.67 1.68 83.7 1.44 86.71C1.2 89.72 3.65 91.23 6.18 91.47C8.63 91.78 11.32 90.75 11.64 87.66Z" fill="#000000" fill-opacity="0.200000" fill-rule="nonzero"/>
	<path id="Vector" d="M6.66 63.96L5.24 67.85L3.89 67.37L7.29 58.02L8.63 58.49L7.21 62.38L17.57 66.18L17.01 67.77L6.66 63.96Z" fill="#1B3B36" fill-opacity="1.000000" fill-rule="nonzero"/>
	<path id="Vector" d="M6.66 63.96L5.24 67.85L3.89 67.37L7.29 58.02L8.63 58.49L7.21 62.38L17.57 66.18L17.01 67.77L6.66 63.96Z" fill="#000000" fill-opacity="0.200000" fill-rule="nonzero"/>
	<path id="Vector" d="M13.85 45.49L18.59 38.36L19.78 39.15L15.9 44.94L19.14 47.16L22.7 41.77L23.89 42.56L20.33 47.95L23.89 50.33L27.76 44.54L28.94 45.34L24.12 52.55L13.85 45.49Z" fill="#1B3B36" fill-opacity="1.000000" fill-rule="nonzero"/>
	<path id="Vector" d="M13.85 45.49L18.59 38.36L19.78 39.15L15.9 44.94L19.14 47.16L22.7 41.77L23.89 42.56L20.33 47.95L23.89 50.33L27.76 44.54L28.94 45.34L24.12 52.55L13.85 45.49Z" fill="#000000" fill-opacity="0.200000" fill-rule="nonzero"/>
	<path id="Vector" d="M28.32 27.18L29.5 26.07L36.93 34.24L41.75 29.8L42.7 30.83L36.61 36.38L28.32 27.18Z" fill="#1B3B36" fill-opacity="1.000000" fill-rule="nonzero"/>
	<path id="Vector" d="M28.32 27.18L29.5 26.07L36.93 34.24L41.75 29.8L42.7 30.83L36.61 36.38L28.32 27.18Z" fill="#000000" fill-opacity="0.200000" fill-rule="nonzero"/>
</svg>
