<svg width="39.016235" height="39.406494" viewBox="0 0 39.0162 39.4065" fill="none" xmlns="http://www.w3.org/2000/svg" xmlns:xlink="http://www.w3.org/1999/xlink">
	<desc>
			Created with Pixso.
	</desc>
	<defs/>
	<path id="Rectangle 93" d="M5.6 17.79C4.49 17.63 3.77 16.55 4.06 15.47C4.32 14.46 5.41 13.92 6.37 14.32L19.51 19.72L5.6 17.79Z" fill="#FCD043" fill-opacity="1.000000" fill-rule="nonzero"/>
	<path id="Rectangle 95" d="M21.34 5.84C21.49 4.71 22.6 3.98 23.69 4.27C24.72 4.55 25.27 5.66 24.87 6.64L19.52 19.69L21.34 5.84Z" fill="#FCD043" fill-opacity="1.000000" fill-rule="nonzero"/>
	<path id="Rectangle 97" d="M11.07 8.51C10.39 7.61 10.64 6.32 11.61 5.77C12.51 5.25 13.67 5.65 14.08 6.62L19.57 19.68L11.07 8.51Z" fill="#FCD043" fill-opacity="1.000000" fill-rule="nonzero"/>
	<path id="Rectangle 99" d="M30.69 11.17C31.58 10.49 32.88 10.76 33.44 11.74C33.97 12.66 33.59 13.82 32.62 14.23L19.57 19.65L30.69 11.17Z" fill="#FCD043" fill-opacity="1.000000" fill-rule="nonzero"/>
	<path id="Rectangle 94" d="M33.41 21.61C34.51 21.76 35.24 22.85 34.95 23.93C34.68 24.93 33.59 25.47 32.63 25.08L19.49 19.68L33.41 21.61Z" fill="#FCD043" fill-opacity="1.000000" fill-rule="nonzero"/>
	<path id="Rectangle 96" d="M17.66 33.56C17.51 34.68 16.41 35.42 15.31 35.13C14.29 34.85 13.74 33.73 14.14 32.75L19.48 19.71L17.66 33.56Z" fill="#FCD043" fill-opacity="1.000000" fill-rule="nonzero"/>
	<path id="Rectangle 98" d="M28.05 30.83C28.73 31.72 28.48 33.01 27.51 33.57C26.61 34.09 25.45 33.69 25.04 32.72L19.55 19.66L28.05 30.83Z" fill="#FCD043" fill-opacity="1.000000" fill-rule="nonzero"/>
	<path id="Rectangle 100" d="M8.43 28.16C7.54 28.84 6.25 28.57 5.68 27.59C5.15 26.67 5.53 25.51 6.5 25.1L19.55 19.68L8.43 28.16Z" fill="#FCD043" fill-opacity="1.000000" fill-rule="nonzero"/>
</svg>
