<svg width="150.004639" height="107.889648" viewBox="0 0 150.005 107.89" fill="none" xmlns="http://www.w3.org/2000/svg" xmlns:xlink="http://www.w3.org/1999/xlink">
	<desc>
			Created with Pixso.
	</desc>
	<defs/>
	<g opacity="0.640000">
		<path id="Vector" d="M7.53 107.89L5.85 103.96C5.1 102.15 5.66 100.78 7.28 100.04C8.96 99.29 10.4 99.85 11.14 101.66L12.33 104.4L16 102.78L16.5 103.96L7.53 107.89ZM11.33 104.83L10.33 102.47C9.77 101.1 8.9 100.78 7.84 101.22C6.78 101.66 6.47 102.53 7.03 103.9L8.03 106.27L11.33 104.83Z" fill="#FFFCF6" fill-opacity="1.000000" fill-rule="nonzero"/>
		<path id="Vector" d="M2.92 95.8L1.86 91.31C1.43 89.51 2.18 88.2 3.67 87.83C4.79 87.58 5.91 87.83 6.47 88.89C6.41 87.7 7.16 87.33 8.09 87.02C9.03 86.71 10.09 86.52 10.58 85.83L10.9 87.27C10.58 87.7 9.53 87.76 8.65 88.14C7.78 88.51 7.03 88.89 7.28 90.13L8.03 93.25L12.08 92.31L12.39 93.56L2.92 95.8ZM6.35 90.88C6.1 89.7 5.54 88.76 4.17 89.07C3.23 89.32 2.67 89.94 2.92 91.13L3.67 94.3L6.97 93.49L6.35 90.88Z" fill="#FFFCF6" fill-opacity="1.000000" fill-rule="nonzero"/>
		<path id="Vector" d="M0.37 82.59L0 75.87L1.12 75.8L1.43 81.22L4.54 81.04L4.23 75.99L5.35 75.93L5.6 81.04L8.97 80.85L8.65 75.37L9.77 75.31L10.15 82.1L0.37 82.59Z" fill="#FFFCF6" fill-opacity="1.000000" fill-rule="nonzero"/>
		<path id="Vector" d="M0.06 70.01L0.31 68.27L8.84 66.27L1.12 62.16L1.37 60.42L11.08 61.66L10.9 62.91L2.8 61.85L10.46 65.96L10.34 67.08L1.86 69.01L9.96 70.07L9.78 71.32L0.06 70.01Z" fill="#FFFCF6" fill-opacity="1.000000" fill-rule="nonzero"/>
		<path id="Vector" d="M2.92 54.44L3.3 53.19L12.7 56L12.33 57.24L2.92 54.44Z" fill="#FFFCF6" fill-opacity="1.000000" fill-rule="nonzero"/>
		<path id="Vector" d="M14.14 42.98C16.38 43.97 17 45.84 15.94 48.02C14.88 50.33 13.2 51.2 10.84 50.08L5.17 47.46L5.73 46.28L11.4 48.89C12.95 49.64 14.26 49.08 14.95 47.52C15.63 46.03 15.13 44.78 13.58 44.1L7.91 41.48L8.47 40.3L14.14 42.98Z" fill="#FFFCF6" fill-opacity="1.000000" fill-rule="nonzero"/>
		<path id="Vector" d="M11.64 34.81L12.7 33.38L21.17 35.75L16.38 28.4L17.44 26.97L25.35 32.76L24.6 33.76L18.06 28.96L22.79 36.25L22.11 37.12L13.76 34.75L20.3 39.55L19.55 40.55L11.64 34.81Z" fill="#FFFCF6" fill-opacity="1.000000" fill-rule="nonzero"/>
		<path id="Vector" d="M27.15 17.31L30.83 14.57C32.32 13.45 33.82 13.57 34.75 14.82C35.44 15.75 35.63 16.88 34.88 17.81C35.94 17.31 36.62 17.81 37.25 18.56C37.87 19.3 38.49 20.18 39.3 20.36L38.12 21.24C37.56 21.11 37.12 20.18 36.37 19.49C35.69 18.81 35 18.31 34.01 19.06L31.45 20.99L33.94 24.35L32.89 25.16L27.15 17.31ZM33.07 18.49C34.07 17.75 34.69 16.88 33.82 15.75C33.26 15.01 32.39 14.76 31.45 15.44L28.84 17.37L30.89 20.11L33.07 18.49Z" fill="#FFFCF6" fill-opacity="1.000000" fill-rule="nonzero"/>
		<path id="Vector" d="M41.92 7.59C44.72 6.22 47.21 7.72 48.4 10.15C49.58 12.51 49.27 15.44 46.47 16.81C43.66 18.18 41.17 16.69 39.99 14.26C38.74 11.89 39.11 8.96 41.92 7.59ZM45.9 15.82C48.02 14.76 48.02 12.45 47.15 10.71C46.28 8.96 44.47 7.53 42.35 8.59C40.24 9.65 40.24 11.95 41.11 13.7C41.98 15.44 43.79 16.88 45.9 15.82Z" fill="#FFFCF6" fill-opacity="1.000000" fill-rule="nonzero"/>
		<path id="Vector" d="M55.62 2.49C58.61 1.68 60.79 3.67 61.48 6.22C62.16 8.78 61.29 11.58 58.24 12.39C55.19 13.2 53.07 11.21 52.38 8.65C51.76 6.04 52.63 3.23 55.62 2.49ZM57.99 11.33C60.29 10.71 60.73 8.47 60.23 6.6C59.73 4.67 58.24 2.98 55.93 3.54C53.63 4.17 53.19 6.41 53.69 8.28C54.19 10.21 55.68 11.89 57.99 11.33Z" fill="#FFFCF6" fill-opacity="1.000000" fill-rule="nonzero"/>
		<path id="Vector" d="M66.09 0.56L67.9 0.43L71.38 8.47L74.06 0.12L75.87 6.1e-5L76.37 9.77L75.12 9.84L74.69 1.68L72.07 9.96L70.95 10.02L67.46 2.05L67.9 10.21L66.65 10.27L66.09 0.56Z" fill="#FFFCF6" fill-opacity="1.000000" fill-rule="nonzero"/>
		<path id="Vector" d="M87.39 4.04C87.46 2.61 86.58 1.93 85.27 1.74C84.22 1.61 83.03 1.8 82.85 3.11C82.66 4.29 84.22 4.73 85.71 5.29C87.21 5.85 88.7 6.6 88.39 8.53C88.08 10.58 85.96 11.15 84.22 10.9C82.04 10.58 80.35 9.28 80.67 6.91L81.91 7.1C81.66 8.72 82.97 9.65 84.4 9.84C85.59 10.02 86.89 9.84 87.08 8.4C87.27 7.1 85.77 6.6 84.28 6.04C82.78 5.48 81.29 4.79 81.54 3.05C81.79 1.05 83.72 0.43 85.46 0.68C87.46 0.93 88.83 2.11 88.58 4.23L87.39 4.04Z" fill="#FFFCF6" fill-opacity="1.000000" fill-rule="nonzero"/>
		<path id="Vector" d="M92.38 10.77L93.81 11.21L93.37 12.64L91.94 12.2L92.38 10.77Z" fill="#FFFCF6" fill-opacity="1.000000" fill-rule="nonzero"/>
		<path id="Vector" d="M108.51 8.03L111.63 9.77C112.37 10.21 113.37 10.77 113.68 11.33C114.05 11.95 114.18 12.83 113.68 13.7C113.18 14.63 112.31 15.01 111.31 14.88C112.25 15.69 112.37 16.81 111.75 17.87C111.06 19.12 109.44 19.8 107.76 18.87L103.65 16.56L108.51 8.03ZM105.4 16.19L108.26 17.81C109.26 18.37 110.19 18.12 110.75 17.19C111.38 16.07 110.63 15.26 109.69 14.69L107.08 13.26L105.4 16.19ZM107.58 12.33L109.82 13.64C111.13 14.38 111.87 14.2 112.37 13.32C113.06 12.14 112.31 11.52 111.31 10.96L109.07 9.65L107.58 12.33Z" fill="#FFFCF6" fill-opacity="1.000000" fill-rule="nonzero"/>
		<path id="Vector" d="M122.03 16.81L123.15 17.75L119.85 27.71L118.72 26.78L119.78 23.85L116.61 21.24L113.87 22.79L112.81 21.92L122.03 16.81ZM117.6 20.61L120.16 22.73L121.78 18.18L117.6 20.61Z" fill="#FFFCF6" fill-opacity="1.000000" fill-rule="nonzero"/>
		<path id="Vector" d="M129.63 23.73L130.5 24.79L127.76 33.82L133.8 28.71L134.61 29.65L127.13 36L126.2 34.94L128.88 25.97L122.9 31.02L122.09 30.08L129.63 23.73Z" fill="#FFFCF6" fill-opacity="1.000000" fill-rule="nonzero"/>
		<path id="Vector" d="M138.22 34.82L138.84 35.94L134.61 38.37L141.34 40.24L142.14 41.67L136.66 40.05L133.74 46.65L132.93 45.22L135.48 39.68L133.36 38.99L130.37 40.67L129.75 39.55L138.22 34.82Z" fill="#FFFCF6" fill-opacity="1.000000" fill-rule="nonzero"/>
		<path id="Vector" d="M146.76 53.44L147.07 54.69L142.96 55.68L144.2 60.67L148.31 59.67L148.63 60.92L139.09 63.22L138.78 61.97L143.14 60.92L141.9 55.93L137.54 56.99L137.23 55.75L146.76 53.44Z" fill="#FFFCF6" fill-opacity="1.000000" fill-rule="nonzero"/>
		<path id="Vector" d="M150 71.38C150.12 74.5 147.75 76.18 145.07 76.3C142.39 76.43 139.9 74.99 139.72 71.88C139.53 68.76 141.96 67.08 144.64 66.96C147.32 66.83 149.81 68.27 150 71.38ZM140.84 71.82C140.96 74.18 143.08 75.12 145.01 74.99C146.94 74.87 149 73.81 148.87 71.44C148.75 69.08 146.63 68.14 144.7 68.27C142.77 68.39 140.71 69.45 140.84 71.82Z" fill="#FFFCF6" fill-opacity="1.000000" fill-rule="nonzero"/>
		<path id="Vector" d="M148.25 83.78L148.69 80.54L149.75 80.66L148.75 88.45L147.69 88.32L148.13 85.09L139.53 83.96L139.72 82.66L148.25 83.78Z" fill="#FFFCF6" fill-opacity="1.000000" fill-rule="nonzero"/>
		<path id="Vector" d="M147.63 93.37L145.7 99.85L144.64 99.54L146.2 94.31L143.21 93.43L141.77 98.29L140.72 97.98L142.15 93.12L138.91 92.19L137.35 97.48L136.29 97.17L138.22 90.63L147.63 93.37Z" fill="#FFFCF6" fill-opacity="1.000000" fill-rule="nonzero"/>
		<path id="Vector" d="M143.64 105.02L143.08 106.2L135.23 102.47L132.99 107.14L131.99 106.64L134.79 100.78L143.64 105.02Z" fill="#FFFCF6" fill-opacity="1.000000" fill-rule="nonzero"/>
	</g>
	<path id="Rectangle 93" d="M73.09 52.69C72.91 51.29 74 50.06 75.41 50.06C76.72 50.06 77.74 51.21 77.57 52.51L75.32 70.06L73.09 52.69Z" fill="#FCD043" fill-opacity="1.000000" fill-rule="nonzero"/>
	<path id="Rectangle 95" d="M92.69 67.83C94.08 67.65 95.32 68.74 95.32 70.14C95.32 71.46 94.17 72.47 92.86 72.31L75.32 70.06L92.69 67.83Z" fill="#FCD043" fill-opacity="1.000000" fill-rule="nonzero"/>
	<path id="Rectangle 97" d="M86.08 56.26C86.94 55.15 88.58 55.04 89.58 56.04C90.51 56.96 90.41 58.5 89.37 59.3L75.37 70.12L86.08 56.26Z" fill="#FCD043" fill-opacity="1.000000" fill-rule="nonzero"/>
	<path id="Rectangle 99" d="M89.24 80.83C90.35 81.69 90.45 83.33 89.46 84.32C88.53 85.25 87 85.15 86.19 84.11L75.38 70.12L89.24 80.83Z" fill="#FCD043" fill-opacity="1.000000" fill-rule="nonzero"/>
	<path id="Rectangle 94" d="M77.54 87.43C77.72 88.82 76.64 90.06 75.23 90.06C73.92 90.06 72.9 88.9 73.07 87.6L75.32 70.06L77.54 87.43Z" fill="#FCD043" fill-opacity="1.000000" fill-rule="nonzero"/>
	<path id="Rectangle 96" d="M57.95 72.28C56.55 72.46 55.32 71.38 55.32 69.97C55.32 68.66 56.47 67.64 57.77 67.81L75.32 70.06L57.95 72.28Z" fill="#FCD043" fill-opacity="1.000000" fill-rule="nonzero"/>
	<path id="Rectangle 98" d="M64.67 83.97C63.81 85.09 62.16 85.19 61.17 84.2C60.24 83.27 60.34 81.74 61.38 80.93L75.37 70.12L64.67 83.97Z" fill="#FCD043" fill-opacity="1.000000" fill-rule="nonzero"/>
	<path id="Rectangle 100" d="M61.52 59.41C60.41 58.55 60.3 56.91 61.3 55.91C62.22 54.98 63.76 55.08 64.56 56.12L75.37 70.12L61.52 59.41Z" fill="#FCD043" fill-opacity="1.000000" fill-rule="nonzero"/>
</svg>
