<svg width="45.000000" height="45.000000" viewBox="0 0 45 45" fill="none" xmlns="http://www.w3.org/2000/svg" xmlns:xlink="http://www.w3.org/1999/xlink">

	<defs/>
	<path id="Polygon 1" d="M22.5 0L6.59 6.59L0 22.5L6.59 38.4L22.5 45L38.4 38.4L45 22.5L38.4 6.59L22.5 0Z" fill="#E9E6DD" fill-opacity="0" fill-rule="evenodd"/>
	<path id="Polygon 1" d="M6.59 6.59L0 22.5L6.59 38.4L22.5 45L38.4 38.4L45 22.5L38.4 6.59L22.5 0L6.59 6.59ZM7.35 7.35L1.08 22.5L7.35 37.64L22.5 43.91L37.64 37.64L43.91 22.5L37.64 7.35L22.5 1.08L7.35 7.35Z" fill="#FFFCF6" fill-opacity="1.000000" fill-rule="evenodd"/>
	<path id="Vector 3" d="" fill="#FCD043" fill-opacity="1.000000" fill-rule="nonzero"/>
	<path id="Vector 3" d="M27.64 21.21C27.64 21.21 26.14 21.64 24.85 22.92C23.57 24.21 22.5 26.35 22.5 26.35C22.5 26.35 21.42 24.21 20.14 22.92C18.85 21.64 17.35 21.21 17.35 21.21" stroke="#FCD043" stroke-opacity="1.000000" stroke-width="1.000000"/>
</svg>
