<svg width="170.000000" height="170.000000" viewBox="0 0 170 170" fill="none" xmlns="http://www.w3.org/2000/svg" xmlns:xlink="http://www.w3.org/1999/xlink">
	<defs/>
	<g opacity="0.480000">
		<path id="Polygon 6" d="M0 85L16.23 134.96L58.73 165.84L111.26 165.84L153.76 134.96L170 85L153.76 35.03L111.26 4.16L58.73 4.16L16.23 35.03L0 85Z" fill="#C4C4C4" fill-opacity="0" fill-rule="evenodd"/>
		<path id="Polygon 6" d="M16.23 134.96L58.73 165.84L111.26 165.84L153.76 134.96L170 85L153.76 35.03L111.26 4.16L58.73 4.16L16.23 35.03L0 85L16.23 134.96ZM17.08 134.34L59.05 164.84L110.94 164.84L152.91 134.34L168.94 85L152.91 35.65L110.94 5.16L59.05 5.16L17.08 35.65L1.05 85L17.08 134.34Z" fill="#313F38" fill-opacity="1.000000" fill-rule="evenodd"/>
	</g>
	<path id="Vector 3" d="" fill="#313F38" fill-opacity="1.000000" fill-rule="nonzero"/>
	<path id="Vector 3" d="M90.51 69.27C90.51 69.27 91.72 73.9 95.34 77.86C98.96 81.83 105 85.13 105 85.13C105 85.13 98.96 88.44 95.34 92.4C91.72 96.37 90.51 101 90.51 101" stroke="#313F38" stroke-opacity="1.000000" stroke-width="2.000000"/>
	<rect id="Rectangle 31" x="65.000000" y="85.834961" width="1.379343" height="38.621655" transform="rotate(-90 65.000000 85.834961)" fill="#313F38" fill-opacity="1.000000"/>
	<rect id="Rectangle 31" x="65.500000" y="85.334961" width="0.379343" height="37.621655" transform="rotate(-90 65.500000 85.334961)" stroke="#313F38" stroke-opacity="1.000000" stroke-width="1.000000"/>
</svg>
