<svg width="190.211426" height="200.000000" viewBox="0 0 190.211 200" fill="none" xmlns="http://www.w3.org/2000/svg" xmlns:xlink="http://www.w3.org/1999/xlink">
	<defs/>
	<path id="Polygon 5" d="M95.1 0L36.32 19.09L0 69.09L0 130.9L36.32 180.9L95.1 200L153.88 180.9L190.21 130.9L190.21 69.09L153.88 19.09L95.1 0Z" fill="#FCD043" fill-opacity="1.000000" fill-rule="evenodd"/>
	<path id="Polygon 5" d="M36.32 19.09L0 69.09L0 130.9L36.32 180.9L95.1 200L153.88 180.9L190.21 130.9L190.21 69.09L153.88 19.09L95.1 0L36.32 19.09ZM36.94 19.94L1 69.42L1 130.57L36.94 180.05L95.1 198.94L153.26 180.05L189.21 130.57L189.21 69.42L153.26 19.94L95.1 1.05L36.94 19.94Z" fill="#FFFFFF" fill-opacity="0" fill-rule="evenodd"/>
</svg>
