<svg width="640" height="1444" viewBox="0 0 640 1444" fill="none" xmlns="http://www.w3.org/2000/svg">
<rect y="1444" width="1444" height="640" transform="rotate(-90 0 1444)" fill="#9F2921"/>
<path d="M374.19 143.38C393.073 143.38 408.38 128.073 408.38 109.19C408.38 90.3074 393.073 75 374.19 75C355.307 75 340 90.3074 340 109.19C340 128.073 355.307 143.38 374.19 143.38Z" fill="white"/>
<path d="M580.19 1083.38C599.073 1083.38 614.38 1068.07 614.38 1049.19C614.38 1030.31 599.073 1015 580.19 1015C561.307 1015 546 1030.31 546 1049.19C546 1068.07 561.307 1083.38 580.19 1083.38Z" fill="white"/>
<path d="M201.19 1434.38C220.073 1434.38 235.38 1419.07 235.38 1400.19C235.38 1381.31 220.073 1366 201.19 1366C182.307 1366 167 1381.31 167 1400.19C167 1419.07 182.307 1434.38 201.19 1434.38Z" fill="white"/>
<path d="M185.04 261.08C194.451 261.08 202.08 253.451 202.08 244.04C202.08 234.629 194.451 227 185.04 227C175.629 227 168 234.629 168 244.04C168 253.451 175.629 261.08 185.04 261.08Z" fill="white"/>
<path d="M436.04 360.08C445.451 360.08 453.08 352.451 453.08 343.04C453.08 333.629 445.451 326 436.04 326C426.629 326 419 333.629 419 343.04C419 352.451 426.629 360.08 436.04 360.08Z" fill="white"/>
<path d="M312.04 1167.08C321.451 1167.08 329.08 1159.45 329.08 1150.04C329.08 1140.63 321.451 1133 312.04 1133C302.629 1133 295 1140.63 295 1150.04C295 1159.45 302.629 1167.08 312.04 1167.08Z" fill="white"/>
<path d="M433 941.668L494.452 897H605L433 1015" fill="black"/>
<path d="M494 897H605L605 17H494L494 897Z" fill="#E94749"/>
<path d="M570 673L95 673V648L570 648V673Z" fill="#FD79B4"/>
<rect x="304" y="457" width="129" height="558" rx="6" fill="white"/>
<path d="M546.349 1234.52L627.143 1313.11L627.212 1286.65C599.979 1260.18 573.656 1233.36 546.422 1206.9C546.398 1216 546.374 1225.3 546.349 1234.52Z" fill="#FD5FA6"/>
<path d="M627.124 1320.11L627.219 1284.11L8.73114 1282.48L8.63636 1318.48L627.124 1320.11Z" fill="white"/>
<path d="M546.351 1233.9L387.352 1233.48L387.425 1205.48L546.425 1205.9L546.351 1233.9Z" fill="#E94749"/>
<path d="M197.621 1074.96C202.58 1074.96 206.601 1070.94 206.601 1065.98C206.601 1061.02 202.58 1057 197.621 1057C192.661 1057 188.641 1061.02 188.641 1065.98C188.641 1070.94 192.661 1074.96 197.621 1074.96Z" fill="white"/>
<path d="M112.04 1180.72C121.451 1180.72 129.08 1173.09 129.08 1163.68C129.08 1154.27 121.451 1146.64 112.04 1146.64C102.629 1146.64 95 1154.27 95 1163.68C95 1173.09 102.629 1180.72 112.04 1180.72Z" fill="white"/>
<path d="M166.98 491.96C171.939 491.96 175.96 487.939 175.96 482.98C175.96 478.02 171.939 474 166.98 474C162.02 474 158 478.02 158 482.98C158 487.939 162.02 491.96 166.98 491.96Z" fill="white"/>
</svg>
