<svg width="1281" height="1441" viewBox="0 0 1281 1441" fill="none" xmlns="http://www.w3.org/2000/svg">
<path d="M321.601 432H161.301V576H321.601V432Z" fill="#EB81B2"/>
<path d="M1283.4 431H1123.1V575H1283.4V431Z" fill="#EB81B2"/>
<path d="M1283.4 0H802.5V288H1283.4V0Z" fill="#EB81B2"/>
<path d="M962.8 574.506L802.5 431V575L962.8 574.506Z" fill="#EB81B2"/>
<path d="M161.3 575.506L1 432V576L161.3 575.506Z" fill="#EB81B2"/>
<path d="M642.2 575.506L481.9 432V576L642.2 575.506Z" fill="#EB81B2"/>
<path d="M481.9 0.0747275L641.265 144H802.5L641.265 0.0747275C641.265 0.0747275 538.88 -0.0934686 487.541 0.0746683L481.9 0.0747275Z" fill="#EB81B2"/>
<path d="M82.2633 288C126.529 288 162.413 255.765 162.413 216C162.413 176.235 126.529 144 82.2633 144C37.9977 144 2.11328 176.235 2.11328 216C2.11328 255.765 37.9977 288 82.2633 288Z" fill="#FBFBFB"/>
<path d="M242.564 288C286.83 288 322.714 255.765 322.714 216C322.714 176.235 286.83 144 242.564 144C198.298 144 162.414 176.235 162.414 216C162.414 255.765 198.298 288 242.564 288Z" fill="#FBFBFB"/>
<path d="M401.75 576C446.015 576 481.9 543.765 481.9 504C481.9 464.235 446.015 432 401.75 432C357.484 432 321.6 464.235 321.6 504C321.6 543.765 357.484 576 401.75 576Z" fill="#FBFBFB"/>
<path d="M82.15 1154C126.416 1154 162.3 1121.76 162.3 1082C162.3 1042.24 126.416 1010 82.15 1010C37.8844 1010 2 1042.24 2 1082C2 1121.76 37.8844 1154 82.15 1154Z" fill="#FBFBFB"/>
<path d="M242.15 1152C286.416 1152 322.3 1119.76 322.3 1080C322.3 1040.24 286.416 1008 242.15 1008C197.884 1008 162 1040.24 162 1080C162 1119.76 197.884 1152 242.15 1152Z" fill="#FBFBFB"/>
<path d="M509.73 1056C553.996 1056 589.88 1023.76 589.88 984C589.88 944.235 553.996 912 509.73 912C465.464 912 429.58 944.235 429.58 984C429.58 1023.76 465.464 1056 509.73 1056Z" fill="#FBFBFB"/>
<path d="M1042.95 432C1087.22 432 1123.1 399.765 1123.1 360C1123.1 320.235 1087.22 288 1042.95 288C998.685 288 962.801 320.235 962.801 360C962.801 399.765 998.685 432 1042.95 432Z" fill="#FBFBFB"/>
<path d="M82.2633 432C126.529 432 162.413 399.765 162.413 360C162.413 320.235 126.529 288 82.2633 288C37.9977 288 2.11328 320.235 2.11328 360C2.11328 399.765 37.9977 432 82.2633 432Z" fill="#FBFBFB"/>
<path d="M401.75 432C446.015 432 481.9 399.765 481.9 360C481.9 320.235 446.015 288 401.75 288C357.484 288 321.6 320.235 321.6 360C321.6 399.765 357.484 432 401.75 432Z" fill="#FBFBFB"/>
<path d="M1042.95 863C1087.22 863 1123.1 830.765 1123.1 791C1123.1 751.235 1087.22 719 1042.95 719C998.685 719 962.801 751.235 962.801 791C962.801 830.765 998.685 863 1042.95 863Z" fill="#FBFBFB"/>
<path d="M1283.4 575H802.5V863H1283.4V575Z" fill="#EB81B2"/>
<path d="M802.9 864H322V1151H802.9V864Z" fill="#EB81B2"/>
<path d="M481.9 863.484L642.2 1007V863L481.9 863.484Z" fill="#FBFBFB"/>
<path d="M642.199 863.484L802.499 1007V863L642.199 863.484Z" fill="#FBFBFB"/>
<path d="M321.6 863.484L481.9 1007V863L321.6 863.484Z" fill="#FBFBFB"/>
<path d="M2.11328 0H162.413V144L2.11328 0Z" fill="#EB81B2"/>
<path d="M162.414 0H322.714V144L162.414 0Z" fill="#EB81B2"/>
<path d="M322.713 0H483.013V144L322.713 0Z" fill="white"/>
<path d="M481.9 144H642.2V288L481.9 144Z" fill="white"/>
<path d="M481.9 288H642.2V432L481.9 288Z" fill="white"/>
<path d="M642.199 288H802.499V432L642.199 288Z" fill="white"/>
<path d="M1123.1 287H1283.4V431L1123.1 287Z" fill="#EB81B2"/>
<path d="M482.301 1154H322.001V1010L482.301 1154Z" fill="#F2BED9"/>
<path d="M962.801 719H1123.1V863L962.801 719Z" fill="#F2BED9"/>
<path d="M481.9 719H321.6V863H481.9V719Z" fill="#EB81B2"/>
<path d="M642.199 576H802.499V720L642.199 576Z" fill="#EB81B2"/>
<path d="M802.5 575H962.8V719L802.5 575Z" fill="#F2BED9"/>
<path d="M802.5 719H962.8V863L802.5 719Z" fill="#F2BED9"/>
<path d="M962.801 0H1123.1V144L962.801 0Z" fill="white"/>
<path d="M1123.1 0H1283.4V144L1123.1 0Z" fill="white"/>
<path d="M1049.63 1010C1093.89 1010 1129.78 977.765 1129.78 938C1129.78 898.235 1093.89 866 1049.63 866C1005.36 866 969.479 898.235 969.479 938C969.479 977.765 1005.36 1010 1049.63 1010Z" fill="#FBFBFB"/>
<path d="M1129 1010H1289.3V1154L1129 1010Z" fill="#EB81B2"/>
<path d="M969 1010H1129.3V1154L969 1010Z" fill="#EB81B2"/>
<path d="M81.15 864C125.416 864 161.3 831.765 161.3 792C161.3 752.235 125.416 720 81.15 720C36.8844 720 1 752.235 1 792C1 831.765 36.8844 864 81.15 864Z" fill="#FBFBFB"/>
<path d="M882.964 173.453H859.18V245.924H826.284V173.453H802.5V145.318H882.995V173.453H882.964Z" fill="white"/>
<path d="M989.753 205.175H923.93C924.527 211.359 925.941 215.965 928.203 218.995C931.376 223.354 935.523 225.519 940.613 225.519C943.849 225.519 946.897 224.56 949.819 222.674C951.61 221.468 953.495 219.366 955.537 216.336L987.868 219.83C982.935 229.94 976.965 237.174 969.959 241.565C962.952 245.955 952.93 248.15 939.859 248.15C928.517 248.15 919.594 246.264 913.09 242.523C906.587 238.751 901.182 232.784 896.91 224.622C892.637 216.46 890.5 206.814 890.5 195.776C890.5 180.039 894.773 167.332 903.35 157.593C911.928 147.854 923.773 143 938.885 143C951.139 143 960.816 145.195 967.916 149.554C975.017 153.914 980.421 160.221 984.129 168.507C987.836 176.793 989.69 187.552 989.69 200.816V205.175H989.753ZM956.354 186.717C955.694 179.266 953.998 173.917 951.233 170.702C948.468 167.487 944.823 165.879 940.299 165.879C935.084 165.879 930.905 168.321 927.794 173.175C925.815 176.205 924.527 180.719 923.993 186.717H956.323H956.354Z" fill="white"/>
<path d="M1031.46 177.906L1000.07 174.011C1001.26 167.58 1002.96 162.509 1005.19 158.799C1007.42 155.12 1010.63 151.905 1014.84 149.184C1017.85 147.236 1022 145.721 1027.25 144.639C1032.49 143.557 1038.21 143.031 1044.34 143.031C1054.17 143.031 1062.09 143.681 1068.06 144.979C1074.03 146.278 1078.99 148.967 1082.98 153.079C1085.78 155.924 1087.98 159.943 1089.58 165.168C1091.18 170.393 1092 175.34 1092 180.101V224.53C1092 229.26 1092.25 232.97 1092.75 235.66C1093.26 238.35 1094.39 241.782 1096.12 245.955H1065.29C1064.07 243.358 1063.25 241.38 1062.88 240.019C1062.5 238.659 1062.12 236.526 1061.74 233.619C1057.44 238.473 1053.17 241.967 1048.93 244.038C1043.11 246.821 1036.36 248.212 1028.69 248.212C1018.48 248.212 1010.72 245.43 1005.41 239.865C1000.1 234.3 997.461 227.467 997.461 219.304C997.461 211.668 999.378 205.392 1003.18 200.445C1006.98 195.498 1014.05 191.85 1024.32 189.438C1036.64 186.532 1044.62 184.492 1048.27 183.317C1051.91 182.142 1055.81 180.627 1059.89 178.71C1059.89 173.98 1059.04 170.671 1057.38 168.755C1055.71 166.869 1052.79 165.91 1048.58 165.91C1043.21 165.91 1039.15 166.93 1036.48 168.94C1034.38 170.517 1032.68 173.485 1031.39 177.844L1031.46 177.906ZM1059.92 198.157C1055.4 200.043 1050.68 201.713 1045.81 203.166C1039.15 205.237 1034.91 207.309 1033.15 209.318C1031.33 211.39 1030.42 213.77 1030.42 216.429C1030.42 219.459 1031.33 221.933 1033.12 223.88C1034.91 225.828 1037.58 226.756 1041.07 226.756C1044.56 226.756 1048.14 225.704 1051.28 223.633C1054.42 221.562 1056.65 218.995 1057.97 215.996C1059.29 212.997 1059.95 209.102 1059.95 204.279V198.126L1059.92 198.157Z" fill="white"/>
<path d="M1177.26 173.455H1153.48V245.926H1120.58V173.455H1096.8V145.32H1177.3V173.455H1177.26Z" fill="white"/>
<path d="M1188.85 286.969V145.333H1219.66V160.496C1223.91 154.128 1227.82 149.809 1231.38 147.539C1236.17 144.513 1241.5 143 1247.32 143C1258.82 143 1267.68 148.264 1273.98 158.762C1280.28 169.259 1283.4 182.247 1283.4 197.694C1283.4 214.779 1279.97 227.799 1273.13 236.783C1266.29 245.767 1257.63 250.275 1247.17 250.275C1242.09 250.275 1237.46 249.235 1233.3 247.186C1229.11 245.137 1225.4 242.079 1222.09 238.012V287H1188.85V286.969ZM1221.87 196.937C1221.87 205.07 1223.28 211.091 1226.15 215C1229.02 218.909 1232.61 220.895 1236.99 220.895C1240.8 220.895 1244.02 219.004 1246.6 215.252C1249.18 211.469 1250.47 205.102 1250.47 196.086C1250.47 187.764 1249.12 181.68 1246.44 177.771C1243.73 173.862 1240.46 171.939 1236.58 171.939C1232.39 171.939 1228.86 173.893 1226.06 177.834C1223.25 181.774 1221.87 188.142 1221.87 196.968V196.937Z" fill="white"/>
<path d="M60.7412 606.052H29.9263V679.943H2.11328V577.334H60.7677V606.02L60.7412 606.052Z" fill="white"/>
<path d="M152.466 638.394H96.8134C97.3182 644.699 98.5136 649.396 100.426 652.485C103.109 656.93 106.616 659.137 110.919 659.137C113.655 659.137 116.232 658.159 118.703 656.236C120.217 655.007 121.811 652.863 123.537 649.774L150.872 653.336C146.702 663.644 141.654 671.021 135.73 675.497C129.807 679.974 121.332 682.212 110.282 682.212C100.692 682.212 93.1476 680.289 87.6487 676.474C82.1499 672.629 77.5807 666.545 73.9679 658.222C70.3552 649.9 68.5488 640.065 68.5488 628.811C68.5488 612.765 72.1616 599.809 79.4137 589.879C86.6658 579.949 96.6806 575 109.458 575C119.818 575 128 577.238 134.004 581.683C140.007 586.128 144.576 592.559 147.711 601.007C150.846 609.455 152.413 620.426 152.413 633.949V638.394H152.466ZM124.228 619.574C123.67 611.977 122.236 606.524 119.898 603.245C117.56 599.967 114.479 598.328 110.654 598.328C106.244 598.328 102.711 600.818 100.081 605.767C98.4073 608.856 97.3181 613.459 96.8665 619.574H124.201H124.228Z" fill="white"/>
<path d="M161.788 628.937C161.788 613.301 165.507 600.376 172.972 590.257C180.437 580.107 190.505 575.031 203.176 575.031C217.68 575.031 228.625 580.989 236.036 592.905C241.987 602.488 244.962 614.31 244.962 628.369C244.962 644.163 241.269 657.087 233.884 667.143C226.499 677.231 216.272 682.275 203.229 682.275C191.594 682.275 182.19 678.082 174.991 669.728C166.171 659.357 161.762 645.77 161.762 628.968L161.788 628.937ZM189.628 628.842C189.628 637.984 190.93 644.762 193.559 649.143C196.163 653.525 199.457 655.7 203.415 655.7C207.373 655.7 210.694 653.557 213.27 649.238C215.847 644.919 217.122 637.984 217.122 628.464C217.122 619.574 215.821 612.954 213.244 608.604C210.64 604.254 207.453 602.079 203.627 602.079C199.59 602.079 196.242 604.285 193.613 608.698C190.983 613.112 189.654 619.826 189.654 628.842H189.628Z" fill="white"/>
<path d="M358.74 679.943H335.284V615.541L318.15 679.943H301.441L282.792 615.541V679.943H259.336V577.334H292.435L309.809 636.315L325.641 577.334H358.74V679.943Z" fill="white"/>
<path d="M456.919 638.394H401.267C401.771 644.699 402.967 649.396 404.879 652.485C407.562 656.93 411.069 659.137 415.372 659.137C418.109 659.137 420.685 658.159 423.156 656.236C424.67 655.007 426.264 652.863 427.991 649.774L455.325 653.336C451.155 663.644 446.108 671.021 440.184 675.497C434.26 679.974 425.786 682.212 414.735 682.212C405.145 682.212 397.601 680.289 392.102 676.474C386.603 672.629 382.034 666.545 378.421 658.222C374.808 649.9 373.002 640.065 373.002 628.811C373.002 612.765 376.615 599.809 383.867 589.879C391.119 579.949 401.134 575 413.911 575C424.271 575 432.453 577.238 438.457 581.683C444.461 586.128 449.03 592.559 452.164 601.007C455.299 609.455 456.866 620.426 456.866 633.949V638.394H456.919ZM428.681 619.574C428.123 611.977 426.689 606.524 424.351 603.245C422.014 599.967 418.932 598.328 415.107 598.328C410.697 598.328 407.164 600.818 404.534 605.767C402.86 608.856 401.771 613.459 401.32 619.574H428.655H428.681Z" fill="white"/>
<path d="M530.69 606.052H510.581V679.943H482.768V606.052H462.658V577.365H530.716V606.052H530.69Z" fill="white"/>
<path d="M540.734 718.968V577.333H566.714V592.496C570.301 586.128 573.595 581.809 576.596 579.539C580.634 576.513 585.124 575 590.038 575C599.734 575 607.199 580.264 612.512 590.762C617.825 601.259 620.454 614.247 620.454 629.694C620.454 646.779 617.559 659.799 611.794 668.783C606.03 677.767 598.725 682.275 589.905 682.275C585.628 682.275 581.723 681.235 578.217 679.186C574.684 677.137 571.549 674.079 568.76 670.012V719H540.734V718.968ZM568.547 628.937C568.547 637.07 569.743 643.091 572.16 647C574.578 650.909 577.606 652.895 581.298 652.895C584.513 652.895 587.222 651.004 589.401 647.252C591.579 643.469 592.668 637.102 592.668 628.086C592.668 619.764 591.526 613.68 589.268 609.771C586.983 605.862 584.22 603.939 580.953 603.939C577.42 603.939 574.445 605.893 572.08 609.834C569.716 613.774 568.547 620.142 568.547 628.968V628.937Z" fill="white"/>
<path d="M714.627 679.943H688.381V629.474L661.152 679.943H634.721V577.334H660.966V628.497L688.487 577.334H714.627V679.943Z" fill="white"/>
<path d="M808.451 679.943H780.638V642.178C773.652 648.104 766.081 651.067 757.925 651.067C740.526 651.067 731.812 637.922 731.812 611.6V577.365H759.572V605.547C759.572 610.181 760.316 613.838 761.83 616.486C763.345 619.134 765.417 620.458 768.1 620.458C773.28 620.458 777.45 617.463 780.638 611.442V577.365H808.451V679.975V679.943Z" fill="white"/>
<path d="M905.199 638.394H849.546C850.051 644.699 851.246 649.396 853.159 652.485C855.842 656.93 859.348 659.137 863.652 659.137C866.388 659.137 868.965 658.159 871.435 656.236C872.949 655.007 874.543 652.863 876.27 649.774L903.605 653.336C899.434 663.644 894.387 671.021 888.463 675.497C882.539 679.974 874.065 682.212 863.014 682.212C853.424 682.212 845.88 680.289 840.381 676.474C834.882 672.629 830.313 666.545 826.7 658.222C823.088 649.9 821.281 640.065 821.281 628.811C821.281 612.765 824.894 599.809 832.146 589.879C839.398 579.949 849.413 575 862.191 575C872.551 575 880.733 577.238 886.736 581.683C892.74 586.128 897.309 592.559 900.443 601.007C903.578 609.455 905.145 620.426 905.145 633.949V638.394H905.199ZM876.961 619.574C876.403 611.977 874.968 606.524 872.63 603.245C870.293 599.967 867.211 598.328 863.386 598.328C858.976 598.328 855.443 600.818 852.813 605.767C851.14 608.856 850.051 613.459 849.599 619.574H876.934H876.961Z" fill="white"/>
<path d="M971.961 639.749L998.339 644.005C996.878 651.791 994.487 658.537 991.167 664.243C987.846 669.949 983.596 674.362 978.442 677.515C973.289 680.667 966.727 682.243 958.758 682.243C950.789 682.243 944.679 681.234 939.552 679.217C934.425 677.199 930.042 673.921 926.349 669.381C922.657 664.842 919.788 659.514 917.689 653.399C915.591 647.283 914.555 639.182 914.555 629.063C914.555 618.944 915.83 609.739 918.38 602.709C920.239 597.571 922.79 592.937 926.031 588.87C929.245 584.772 932.565 581.746 935.992 579.76C941.411 576.607 948.345 575.031 956.792 575.031C968.614 575.031 977.619 578.026 983.835 584.016C990.051 590.005 994.381 598.769 996.905 610.306L970.792 615.224C969.968 610.842 968.481 607.532 966.329 605.325C964.177 603.087 961.282 601.984 957.642 601.984C953.047 601.984 949.328 604.317 946.485 608.982C943.643 613.648 942.235 620.709 942.235 630.135C942.235 638.551 943.643 644.951 946.459 649.332C949.275 653.714 952.861 655.889 957.244 655.889C960.883 655.889 963.938 654.565 966.409 651.917C968.879 649.269 970.739 645.234 971.961 639.749Z" fill="white"/>
<path d="M1091.71 679.943H1060.39L1049.82 651.603C1048.12 647.095 1046.47 644.289 1044.85 643.123C1043.23 641.957 1041.24 641.389 1038.87 641.389V679.943H1011.11V577.333H1038.87V614.436C1041.16 614.121 1042.83 613.049 1043.92 611.253C1045.01 609.456 1046.6 605.484 1048.65 599.368C1050.72 593.253 1052.58 588.776 1054.2 585.939C1055.85 583.102 1057.92 580.99 1060.47 579.571C1063.02 578.153 1066.21 577.239 1070 576.86C1073.83 576.482 1079.51 576.293 1087.06 576.293V604.223H1085.84C1082.12 604.223 1079.28 604.444 1077.31 604.853C1075.34 605.263 1073.78 606.146 1072.61 607.501C1071.41 608.857 1070.06 611.631 1068.52 615.823C1066.98 620.016 1065.67 622.916 1064.67 624.556C1063.66 626.195 1062.14 627.298 1060.12 627.897C1064 628.401 1066.98 629.599 1069.05 631.428C1071.15 633.256 1074.31 639.183 1078.53 649.144L1091.68 679.974L1091.71 679.943Z" fill="white"/>
<path d="M1181.66 679.943H1155.41V629.474L1128.18 679.943H1101.75V577.334H1128V628.497L1155.52 577.334H1181.66V679.943Z" fill="white"/>
<path d="M1193.16 577.334H1226.1L1237.6 605.926L1250.99 577.334H1281.62L1256.92 626.227L1283.4 679.943H1251.02L1237.63 646.906L1221.9 679.943H1191.83L1218.13 626.227L1193.19 577.334H1193.16Z" fill="white"/>
<path d="M880.834 757.743C886.308 751.104 893.274 747.81 901.734 747.81C910.926 747.81 918.233 751.823 923.655 759.849C929.076 767.875 931.8 778.304 931.8 791.161C931.8 804.018 929.076 813.555 923.655 820.962C918.233 828.369 910.874 832.084 901.603 832.084C892.829 832.084 885.889 828.864 880.834 822.448V861.092H853.466V822.597C847.73 828.914 840.737 832.084 832.488 832.084C823.347 832.084 816.066 828.071 810.645 820.045C805.224 812.019 802.5 801.565 802.5 788.659C802.5 775.753 805.224 766.29 810.645 758.908C816.066 751.526 823.4 747.835 832.618 747.835C841.366 747.835 848.306 751.253 853.466 758.09V719H880.834V757.793V757.743ZM841.444 809.22C844.849 809.22 847.756 807.758 850.14 804.86C852.549 801.962 853.728 796.858 853.728 789.551C853.728 784.126 852.654 779.642 850.506 776.025C848.359 772.433 845.19 770.625 841.025 770.625C837.49 770.625 834.74 772.309 832.802 775.678C830.864 779.047 829.869 783.556 829.869 789.229C829.869 802.531 833.718 809.195 841.444 809.195V809.22ZM893.222 809.22C896.81 809.22 899.56 807.535 901.498 804.142C903.436 800.748 904.379 796.214 904.379 790.542C904.379 777.289 900.529 770.65 892.803 770.65C889.451 770.65 886.57 772.086 884.16 774.985C881.751 777.883 880.572 782.961 880.572 790.244C880.572 795.669 881.646 800.178 883.794 803.795C885.941 807.411 889.084 809.22 893.196 809.22H893.222Z" fill="white"/>
<path d="M1024.9 830.252H999.029V790.592L972.184 830.252H946.125V749.619H972.001V789.824L999.134 749.619H1024.9V830.252Z" fill="white"/>
<path d="M1103.9 772.186H1073.51V830.252H1046.09V749.619H1103.92V772.162L1103.9 772.186Z" fill="white"/>
<path d="M1109.95 749.643H1138.81L1153.53 803.324L1167.2 749.643H1194.17L1165.83 835.8C1162.61 845.634 1159.31 852.248 1155.96 855.692C1151.22 860.547 1143.97 863 1134.25 863C1130.32 863 1124.22 862.38 1115.97 861.166L1113.82 839.615C1117.75 841.027 1122.15 841.745 1126.99 841.745C1130.22 841.745 1132.84 840.903 1134.83 839.243C1136.82 837.559 1138.52 834.586 1139.91 830.276L1109.95 749.667V749.643Z" fill="white"/>
<path d="M1204.8 860.919V749.618H1230.42V761.534C1233.95 756.53 1237.2 753.136 1240.16 751.352C1244.14 748.974 1248.57 747.785 1253.41 747.785C1262.97 747.785 1270.33 751.922 1275.57 760.171C1280.81 768.42 1283.4 778.626 1283.4 790.765C1283.4 804.191 1280.55 814.422 1274.86 821.482C1269.18 828.542 1261.98 832.084 1253.28 832.084C1249.07 832.084 1245.22 831.267 1241.76 829.657C1238.28 828.047 1235.19 825.644 1232.44 822.448V860.944H1204.8V860.919ZM1232.23 790.17C1232.23 796.561 1233.4 801.293 1235.79 804.364C1238.17 807.436 1241.16 808.997 1244.8 808.997C1247.97 808.997 1250.64 807.511 1252.78 804.563C1254.93 801.59 1256.01 796.586 1256.01 789.501C1256.01 782.961 1254.88 778.18 1252.65 775.109C1250.4 772.037 1247.68 770.526 1244.46 770.526C1240.97 770.526 1238.04 772.062 1235.71 775.158C1233.38 778.255 1232.23 783.259 1232.23 790.195V790.17Z" fill="white"/>
<path d="M1129.3 1154H969V1298H1129.3V1154Z" fill="#EB81B2"/>
<path d="M641.3 1292H481V1436H641.3V1292Z" fill="#EB81B2"/>
<path d="M1210.15 1298C1254.42 1298 1290.3 1265.76 1290.3 1226C1290.3 1186.24 1254.42 1154 1210.15 1154C1165.88 1154 1130 1186.24 1130 1226C1130 1265.76 1165.88 1298 1210.15 1298Z" fill="#FBFBFB"/>
<path d="M160.299 1297H320.599V1441L160.299 1297Z" fill="#EB81B2"/>
<path d="M0 1297H160.3V1441L0 1297Z" fill="#EB81B2"/>
<path d="M241.15 1297C285.416 1297 321.3 1264.76 321.3 1225C321.3 1185.24 285.416 1153 241.15 1153C196.884 1153 161 1185.24 161 1225C161 1264.76 196.884 1297 241.15 1297Z" fill="#FBFBFB"/>
<path d="M642 1291H802.3V1435L642 1291Z" fill="#EB81B2"/>
<path d="M722.851 1291C767.117 1291 803.001 1258.76 803.001 1219C803.001 1179.24 767.117 1147 722.851 1147C678.586 1147 642.701 1179.24 642.701 1219C642.701 1258.76 678.586 1291 722.851 1291Z" fill="#FBFBFB"/>
<path d="M401.15 1295C445.416 1295 481.3 1262.76 481.3 1223C481.3 1183.24 445.416 1151 401.15 1151C356.884 1151 321 1183.24 321 1223C321 1262.76 356.884 1295 401.15 1295Z" fill="#FBFBFB"/>
</svg>
