<svg width="645" height="1406" viewBox="0 0 645 1406" fill="none" xmlns="http://www.w3.org/2000/svg">
<path d="M335 849H491L491 141H335L335 849Z" fill="#E94749"/>
<path d="M-3 454.5L322.661 141H491L-3 658" fill="#FF79B6"/>
<path d="M248 931.138L335 849H491L248 1066" fill="#FF79B6"/>
<path d="M645 792H7V821H645V792Z" fill="white"/>
<path d="M171 1066H248L248 0H171L171 1066Z" fill="#E94749"/>
<path d="M0 1170L0 1233H271V1170H0Z" fill="#FF79B6"/>
<path d="M271 1233.17L365.988 1354H391L393.5 1327.5C353.5 1273.89 311 1223.61 271 1170C271 1188.55 271 1214.62 271 1233.17Z" fill="#FF79B6"/>
<path d="M424 1353.8H366L639 1051.5V1118L424 1353.8Z" fill="#9F2921"/>
<path d="M545.971 422.739C564.854 422.739 580.161 407.432 580.161 388.549C580.161 369.667 564.854 354.359 545.971 354.359C527.089 354.359 511.781 369.667 511.781 388.549C511.781 407.432 527.089 422.739 545.971 422.739Z" fill="white"/>
<path d="M75.19 1074.38C94.0726 1074.38 109.38 1059.07 109.38 1040.19C109.38 1021.31 94.0726 1006 75.19 1006C56.3074 1006 41 1021.31 41 1040.19C41 1059.07 56.3074 1074.38 75.19 1074.38Z" fill="white"/>
<path d="M557.19 1377.38C576.073 1377.38 591.38 1362.07 591.38 1343.19C591.38 1324.31 576.073 1309 557.19 1309C538.307 1309 523 1324.31 523 1343.19C523 1362.07 538.307 1377.38 557.19 1377.38Z" fill="white"/>
<path d="M58.19 131.38C77.0726 131.38 92.38 116.073 92.38 97.19C92.38 78.3074 77.0726 63 58.19 63C39.3074 63 24 78.3074 24 97.19C24 116.073 39.3074 131.38 58.19 131.38Z" fill="white"/>
<path d="M261.02 250.08C270.431 250.08 278.06 242.451 278.06 233.04C278.06 223.629 270.431 216 261.02 216C251.61 216 243.98 223.629 243.98 233.04C243.98 242.451 251.61 250.08 261.02 250.08Z" fill="white"/>
<path d="M520.04 982.08C529.451 982.08 537.08 974.451 537.08 965.04C537.08 955.629 529.451 948 520.04 948C510.629 948 503 955.629 503 965.04C503 974.451 510.629 982.08 520.04 982.08Z" fill="white"/>
<path d="M161.04 1405.08C170.451 1405.08 178.08 1397.45 178.08 1388.04C178.08 1378.63 170.451 1371 161.04 1371C151.629 1371 144 1378.63 144 1388.04C144 1397.45 151.629 1405.08 161.04 1405.08Z" fill="white"/>
<path d="M367.4 723.39C372.359 723.39 376.38 719.369 376.38 714.41C376.38 709.45 372.359 705.43 367.4 705.43C362.44 705.43 358.42 709.45 358.42 714.41C358.42 719.369 362.44 723.39 367.4 723.39Z" fill="white"/>
</svg>
