<svg width="619" height="1418" viewBox="0 0 619 1418" fill="none" xmlns="http://www.w3.org/2000/svg">
<path d="M365.553 126.38C384.436 126.38 399.743 111.073 399.743 92.19C399.743 73.3074 384.436 58 365.553 58C346.671 58 331.363 73.3074 331.363 92.19C331.363 111.073 346.671 126.38 365.553 126.38Z" fill="white"/>
<path d="M571.553 1066.38C590.436 1066.38 605.743 1051.07 605.743 1032.19C605.743 1013.31 590.436 998 571.553 998C552.671 998 537.363 1013.31 537.363 1032.19C537.363 1051.07 552.671 1066.38 571.553 1066.38Z" fill="white"/>
<path d="M192.553 1417.38C211.436 1417.38 226.743 1402.07 226.743 1383.19C226.743 1364.31 211.436 1349 192.553 1349C173.671 1349 158.363 1364.31 158.363 1383.19C158.363 1402.07 173.671 1417.38 192.553 1417.38Z" fill="white"/>
<path d="M176.403 244.08C185.814 244.08 193.443 236.451 193.443 227.04C193.443 217.629 185.814 210 176.403 210C166.992 210 159.363 217.629 159.363 227.04C159.363 236.451 166.992 244.08 176.403 244.08Z" fill="white"/>
<path d="M427.403 343.08C436.814 343.08 444.443 335.451 444.443 326.04C444.443 316.629 436.814 309 427.403 309C417.992 309 410.363 316.629 410.363 326.04C410.363 335.451 417.992 343.08 427.403 343.08Z" fill="white"/>
<path d="M303.403 1150.08C312.814 1150.08 320.443 1142.45 320.443 1133.04C320.443 1123.63 312.814 1116 303.403 1116C293.992 1116 286.363 1123.63 286.363 1133.04C286.363 1142.45 293.992 1150.08 303.403 1150.08Z" fill="white"/>
<path d="M424.363 924.668L485.815 880H596.363L424.363 998" fill="black"/>
<path d="M485.363 880H596.363L596.363 0H485.363L485.363 880Z" fill="#E94749"/>
<path d="M561.363 656L86.3633 656V631L561.363 631V656Z" fill="#FD79B4"/>
<rect x="295.363" y="440" width="129" height="558" rx="6" fill="white"/>
<path d="M537.713 1217.52L618.506 1296.11L618.576 1269.65C591.342 1243.18 565.019 1216.36 537.785 1189.9C537.761 1199 537.737 1208.3 537.713 1217.52Z" fill="#FD5FA6"/>
<path d="M618.487 1303.11L618.582 1267.11L0.0944233 1265.48L-0.000359048 1301.48L618.487 1303.11Z" fill="white"/>
<path d="M537.714 1216.9L378.715 1216.48L378.789 1188.48L537.788 1188.9L537.714 1216.9Z" fill="#E94749"/>
<path d="M188.984 1057.96C193.943 1057.96 197.964 1053.94 197.964 1048.98C197.964 1044.02 193.943 1040 188.984 1040C184.024 1040 180.004 1044.02 180.004 1048.98C180.004 1053.94 184.024 1057.96 188.984 1057.96Z" fill="white"/>
<path d="M103.403 1163.72C112.814 1163.72 120.443 1156.09 120.443 1146.68C120.443 1137.27 112.814 1129.64 103.403 1129.64C93.9923 1129.64 86.3633 1137.27 86.3633 1146.68C86.3633 1156.09 93.9923 1163.72 103.403 1163.72Z" fill="white"/>
<path d="M158.343 474.96C163.303 474.96 167.323 470.939 167.323 465.98C167.323 461.02 163.303 457 158.343 457C153.384 457 149.363 461.02 149.363 465.98C149.363 470.939 153.384 474.96 158.343 474.96Z" fill="white"/>
</svg>
