<svg width="646" height="720" viewBox="0 0 646 720" fill="none" xmlns="http://www.w3.org/2000/svg">
<rect x="6" width="640" height="720" fill="#E94749"/>
<rect x="115" y="217.738" width="100" height="100" transform="rotate(-33.1875 115 217.738)" fill="white"/>
<rect x="277" y="626.738" width="100" height="100" transform="rotate(-33.1875 277 626.738)" fill="white"/>
<path d="M350.49 177L392.537 312.026L304 265.536L350.49 177Z" fill="#EE80B4"/>
<path d="M438.852 304.996L556.174 226.032L536.995 324.175L438.852 304.996Z" fill="#EE80B4"/>
<circle cx="98" cy="468" r="50" fill="#F2BED9"/>
<circle cx="249" cy="368" r="50" fill="#F2BED9"/>
<circle cx="577" cy="60" r="50" fill="white"/>
<circle cx="515" cy="627" r="50" fill="#EE80B4"/>
<rect x="465" y="377" width="100" height="100" fill="#F2BED9"/>
<rect x="386" y="166.74" width="100" height="100" transform="rotate(-22.7928 386 166.74)" fill="#F2BED9"/>
<rect x="65" y="604.246" width="100" height="100" transform="rotate(-30.8276 65 604.246)" fill="#EE80B4"/>
<rect x="288" y="467.246" width="100" height="100" transform="rotate(-30.8276 288 467.246)" fill="#EE80B4"/>
<circle cx="289" cy="78" r="50" fill="#EE80B4"/>
<path d="M179.426 579.504L226.078 445.999L269.504 536.078L179.426 579.504Z" fill="white"/>
<path d="M43.4258 382.504L90.0783 248.999L133.504 339.078L43.4258 382.504Z" fill="#F2BED9"/>
<path d="M108.426 148.504L155.078 14.9991L198.504 105.078L108.426 148.504Z" fill="#F2BED9"/>
</svg>
