<svg width="1905" height="720" viewBox="0 0 1905 720" fill="none" xmlns="http://www.w3.org/2000/svg">
<path d="M1066.77 0.031712C949.575 241.188 833.196 478.844 716 720C1113.18 717.624 1509.55 718.78 1906.7 716.372C1907.48 477.592 1908.22 238.812 1909 0H1066.77V0.031712Z" fill="#EB81B2"/>
<path d="M1692.18 134.928L1787.94 246.855V134.543L1692.18 134.928Z" fill="#FBFBFB"/>
<path d="M1592 132.385L1687.77 244.312V132L1592 132.385Z" fill="#FBFBFB"/>
<path d="M1794.23 134.928L1890 246.855V134.543L1794.23 134.928Z" fill="#FBFBFB"/>
<path d="M1591.73 135.427L1687.71 23.3711V135.812L1591.73 135.427Z" fill="#FBFBFB"/>
<path d="M1692.18 134.927L1787.94 23V135.312L1692.18 134.927Z" fill="#FBFBFB"/>
<path d="M1794.23 134.927L1890 23V135.312L1794.23 134.927Z" fill="#FBFBFB"/>
<path d="M892.684 134.928L988.449 246.855V134.543L892.684 134.928Z" fill="#FBFBFB"/>
<path d="M994.748 134.928L1090.51 246.855V134.543L994.748 134.928Z" fill="#FBFBFB"/>
<path d="M1095.2 134.928L1190.96 246.855V134.543L1095.2 134.928Z" fill="#FBFBFB"/>
<path d="M1191.04 134.928L1286.81 246.855V134.543L1191.04 134.928Z" fill="#FBFBFB"/>
<path d="M1291.52 134.928L1387.26 246.855V134.543L1291.52 134.928Z" fill="#FBFBFB"/>
<path d="M1393.58 134.928L1489.32 246.855V134.543L1393.58 134.928Z" fill="#FBFBFB"/>
<path d="M1494.03 134.928L1589.8 246.855V134.543L1494.03 134.928Z" fill="#FBFBFB"/>
<path d="M892.684 134.927L988.449 23V135.312L892.684 134.927Z" fill="#FBFBFB"/>
<path d="M994.748 134.927L1090.51 23V135.312L994.748 134.927Z" fill="#FBFBFB"/>
<path d="M1095.2 134.927L1190.96 23V135.312L1095.2 134.927Z" fill="#FBFBFB"/>
<path d="M1191.04 134.927L1286.81 23V135.312L1191.04 134.927Z" fill="#FBFBFB"/>
<path d="M1291.52 134.927L1387.26 23V135.312L1291.52 134.927Z" fill="#FBFBFB"/>
<path d="M1393.58 134.927L1489.32 23V135.312L1393.58 134.927Z" fill="#FBFBFB"/>
<path d="M1494.03 134.927L1589.8 23V135.312L1494.03 134.927Z" fill="#FBFBFB"/>
<path d="M1591.72 585.389L1687.46 697.348V585.004L1591.72 585.389Z" fill="#FBFBFB"/>
<path d="M1692.17 585.389L1787.94 697.348V585.004L1692.17 585.389Z" fill="#FBFBFB"/>
<path d="M1794.23 585.389L1890 697.348V585.004L1794.23 585.389Z" fill="#FBFBFB"/>
<path d="M1591.72 585.423L1687.46 473.496V585.808L1591.72 585.423Z" fill="#FBFBFB"/>
<path d="M1692.17 585.423L1787.94 473.496V585.808L1692.17 585.423Z" fill="#FBFBFB"/>
<path d="M1794.23 585.423L1890 473.496V585.808L1794.23 585.423Z" fill="#FBFBFB"/>
<path d="M892.684 583.721L988.449 695.68V583.336L892.684 583.721Z" fill="#FBFBFB"/>
<path d="M994.742 583.721L1090.51 695.68V583.336L994.742 583.721Z" fill="#FBFBFB"/>
<path d="M1095.19 583.721L1190.96 695.68V583.336L1095.19 583.721Z" fill="#FBFBFB"/>
<path d="M1191.04 583.721L1286.81 695.68V583.336L1191.04 583.721Z" fill="#FBFBFB"/>
<path d="M1291.52 583.721L1387.26 695.68V583.336L1291.52 583.721Z" fill="#FBFBFB"/>
<path d="M1393.58 583.721L1489.31 695.68V583.336L1393.58 583.721Z" fill="#FBFBFB"/>
<path d="M1494.03 583.721L1589.8 695.68V583.336L1494.03 583.721Z" fill="#FBFBFB"/>
<path d="M892.684 583.754L988.449 471.828V584.139L892.684 583.754Z" fill="#FBFBFB"/>
<path d="M994.742 583.754L1090.51 471.828V584.139L994.742 583.754Z" fill="#FBFBFB"/>
<path d="M1095.19 583.754L1190.96 471.828V584.139L1095.19 583.754Z" fill="#FBFBFB"/>
<path d="M1191.04 583.754L1286.81 471.828V584.139L1191.04 583.754Z" fill="#FBFBFB"/>
<path d="M1291.52 583.754L1387.26 471.828V584.139L1291.52 583.754Z" fill="#FBFBFB"/>
<path d="M1393.58 583.754L1489.31 471.828V584.139L1393.58 583.754Z" fill="#FBFBFB"/>
<path d="M1494.03 583.754L1589.8 471.828V584.139L1494.03 583.754Z" fill="#FBFBFB"/>
<path d="M296.578 354.192L201.367 242.266V354.609L296.578 354.192Z" fill="#EB81B2"/>
<path d="M196.678 354.192L101.467 242.266V354.609L196.678 354.192Z" fill="#EB81B2"/>
<path d="M95.2108 354.192L0 242.266V354.609L95.2108 354.192Z" fill="#EB81B2"/>
<path d="M296.578 354.192L201.367 466.118V353.807L296.578 354.192Z" fill="#EB81B2"/>
<path d="M196.678 354.192L101.467 466.118V353.807L196.678 354.192Z" fill="#EB81B2"/>
<path d="M95.2108 354.192L0 466.118V353.807L95.2108 354.192Z" fill="#EB81B2"/>
<path d="M890.075 355.86L794.891 243.934V356.277L890.075 355.86Z" fill="#EB81B2"/>
<path d="M790.199 355.86L694.988 243.934V356.277L790.199 355.86Z" fill="#EB81B2"/>
<path d="M694.912 355.86L599.701 243.934V356.277L694.912 355.86Z" fill="#EB81B2"/>
<path d="M595.043 355.86L499.832 243.934V356.277L595.043 355.86Z" fill="#EB81B2"/>
<path d="M493.57 355.86L398.359 243.934V356.277L493.57 355.86Z" fill="#EB81B2"/>
<path d="M393.678 355.86L298.467 243.934V356.277L393.678 355.86Z" fill="#EB81B2"/>
<path d="M890.075 355.862L794.891 467.788V355.477L890.075 355.862Z" fill="#EB81B2"/>
<path d="M790.199 355.862L694.988 467.788V355.477L790.199 355.862Z" fill="#EB81B2"/>
<path d="M694.912 355.862L599.701 467.788V355.477L694.912 355.862Z" fill="#EB81B2"/>
<path d="M595.043 355.862L499.832 467.788V355.477L595.043 355.862Z" fill="#EB81B2"/>
<path d="M493.57 355.862L398.359 467.788V355.477L493.57 355.862Z" fill="#EB81B2"/>
<path d="M393.678 355.862L298.467 467.788V355.477L393.678 355.862Z" fill="#EB81B2"/>
<path d="M144.057 213.007H101.081L86.5617 177.88C84.2566 172.298 81.978 168.801 79.7524 167.358C77.5268 165.914 74.7977 165.208 71.5388 165.208V213.007H33.4648V85.7785H71.5388V131.781C74.6653 131.396 76.9704 130.049 78.4541 127.835C79.9379 125.59 82.1105 120.681 84.9455 113.111C87.7805 105.508 90.3241 99.958 92.5762 96.4613C94.8283 92.9326 97.6898 90.3017 101.187 88.5694C104.685 86.805 109.056 85.6825 114.276 85.2334C119.522 84.7522 127.312 84.5273 137.671 84.5273V119.142H135.976C130.862 119.142 126.967 119.398 124.291 119.912C121.615 120.425 119.469 121.516 117.826 123.216C116.21 124.884 114.329 128.316 112.209 133.513C110.09 138.71 108.314 142.335 106.937 144.356C105.532 146.377 103.466 147.757 100.71 148.495C106.009 149.136 110.09 150.58 112.978 152.858C115.839 155.135 120.184 162.449 125.987 174.832L144.03 213.039L144.057 213.007Z" fill="white"/>
<path d="M152.854 261.418V85.7809H188.49V104.612C193.418 96.7201 197.949 91.3628 202.056 88.5398C207.593 84.7864 213.74 82.9258 220.496 82.9258C233.771 82.9258 244.051 89.4383 251.311 102.463C258.57 115.487 262.2 131.591 262.2 150.743C262.2 171.915 258.226 188.051 250.33 199.215C242.408 210.347 232.393 215.929 220.311 215.929C214.455 215.929 209.103 214.646 204.255 212.079C199.406 209.513 195.114 205.728 191.298 200.691V261.45H152.854V261.418ZM191.007 149.748C191.007 159.821 192.65 167.264 195.962 172.14C199.274 177.016 203.433 179.454 208.494 179.454C212.919 179.454 216.628 177.112 219.622 172.429C222.616 167.745 224.1 159.821 224.1 148.657C224.1 138.36 222.537 130.789 219.41 125.945C216.284 121.101 212.495 118.695 207.991 118.695C203.115 118.695 199.062 121.133 195.829 126.009C192.597 130.885 190.954 138.777 190.954 149.716L191.007 149.748Z" fill="white"/>
<path d="M307.508 126.972L271.103 122.063C272.481 113.915 274.468 107.499 277.038 102.848C279.635 98.164 283.344 94.1218 288.219 90.6892C291.717 88.2191 296.512 86.2942 302.633 84.9468C308.753 83.5995 315.351 82.9258 322.478 82.9258C333.898 82.9258 343.065 83.7278 349.98 85.396C356.896 87.0321 362.672 90.4327 367.282 95.6297C370.514 99.2226 373.084 104.323 374.939 110.9C376.82 117.476 377.748 123.764 377.748 129.763V185.966C377.748 191.965 378.039 196.649 378.648 200.049C379.231 203.45 380.53 207.781 382.517 213.042H346.774C345.344 209.77 344.416 207.268 343.966 205.567C343.515 203.835 343.092 201.14 342.668 197.483C337.686 203.643 332.732 208.037 327.804 210.668C321.074 214.197 313.231 215.929 304.329 215.929C292.485 215.929 283.477 212.4 277.33 205.375C271.183 198.349 268.109 189.688 268.109 179.39C268.109 169.734 270.335 161.778 274.76 155.555C279.184 149.331 287.345 144.68 299.268 141.664C313.549 138.007 322.822 135.408 327.062 133.933C331.301 132.457 335.805 130.533 340.521 128.127C340.521 122.128 339.541 117.925 337.633 115.551C335.699 113.145 332.308 111.958 327.433 111.958C321.206 111.958 316.517 113.241 313.39 115.808C310.953 117.797 308.992 121.55 307.508 127.068V126.972ZM340.521 152.636C335.275 155.042 329.817 157.159 324.147 158.987C316.411 161.618 311.509 164.216 309.469 166.783C307.349 169.413 306.289 172.429 306.289 175.765C306.289 179.615 307.323 182.726 309.416 185.164C311.509 187.602 314.582 188.821 318.636 188.821C322.69 188.821 326.823 187.506 330.48 184.876C334.136 182.245 336.706 179.037 338.243 175.22C339.78 171.434 340.521 166.494 340.521 160.431V152.636Z" fill="white"/>
<path d="M474.667 163.157L510.886 168.418C508.899 178.074 505.614 186.447 501.056 193.504C496.499 200.562 490.697 206.08 483.596 209.961C476.522 213.875 467.513 215.832 456.597 215.832C445.681 215.832 437.282 214.581 430.261 212.046C423.239 209.512 417.198 205.47 412.164 199.856C407.104 194.242 403.156 187.634 400.294 180.031C397.433 172.46 396.002 162.387 396.002 149.876C396.002 137.364 397.751 125.912 401.248 117.186C403.792 110.802 407.289 105.06 411.74 99.9916C416.165 94.923 420.722 91.1696 425.412 88.6673C432.831 84.7536 442.342 82.7969 453.947 82.7969C470.163 82.7969 482.536 86.518 491.041 93.9285C499.546 101.339 505.534 112.214 508.952 126.522L473.13 132.617C472.017 127.195 469.951 123.089 467.01 120.33C464.042 117.571 460.068 116.192 455.087 116.192C448.781 116.192 443.694 119.079 439.799 124.854C435.904 130.628 433.943 139.385 433.943 151.095C433.943 161.553 435.878 169.476 439.746 174.898C443.614 180.319 448.542 183.046 454.53 183.046C459.512 183.046 463.724 181.41 467.116 178.138C470.507 174.866 473.051 169.83 474.746 163.029L474.667 163.157Z" fill="white"/>
<path d="M523.682 149.747C523.682 130.339 528.795 114.331 539.023 101.756C549.25 89.1802 563.054 82.8926 580.461 82.8926C600.359 82.8926 615.382 90.2711 625.557 105.06C633.717 116.961 637.824 131.622 637.824 149.041C637.824 168.61 632.763 184.65 622.616 197.161C612.468 209.672 598.452 215.896 580.567 215.896C564.591 215.896 551.687 210.699 541.831 200.305C529.723 187.441 523.682 170.599 523.682 149.747ZM561.862 149.619C561.862 160.975 563.663 169.348 567.24 174.769C570.817 180.191 575.321 182.918 580.753 182.918C586.184 182.918 590.742 180.255 594.266 174.898C597.789 169.54 599.538 160.975 599.538 149.138C599.538 138.102 597.763 129.922 594.213 124.5C590.662 119.111 586.264 116.416 581.018 116.416C575.48 116.416 570.87 119.143 567.267 124.628C563.663 130.114 561.835 138.423 561.835 149.619H561.862Z" fill="white"/>
<path d="M739.885 121.356H712.276V213.008H674.097V121.356H646.488V85.7793H739.858V121.356H739.885Z" fill="white"/>
<path d="M788.162 126.972L751.758 122.063C753.135 113.915 755.123 107.499 757.693 102.848C760.289 98.164 763.999 94.1218 768.874 90.6892C772.371 88.2191 777.167 86.2942 783.287 84.9468C789.408 83.5995 796.005 82.9258 803.132 82.9258C814.552 82.9258 823.719 83.7278 830.635 85.396C837.55 87.0321 843.326 90.4327 847.936 95.6297C851.169 99.2226 853.739 104.323 855.593 110.9C857.475 117.476 858.402 123.764 858.402 129.763V185.966C858.402 191.965 858.693 196.649 859.303 200.049C859.886 203.45 861.184 207.781 863.171 213.042H827.429C825.998 209.77 825.071 207.268 824.62 205.567C824.196 203.835 823.746 201.14 823.322 197.483C818.341 203.643 813.386 208.037 808.458 210.668C801.728 214.197 793.885 215.929 784.983 215.929C773.139 215.929 764.131 212.4 757.984 205.375C751.837 198.349 748.764 189.688 748.764 179.39C748.764 169.734 750.989 161.778 755.414 155.555C759.839 149.331 767.999 144.68 779.922 141.664C794.203 138.007 803.477 135.408 807.716 133.933C811.955 132.457 816.46 130.533 821.176 128.127C821.176 122.128 820.195 117.925 818.288 115.551C816.354 113.145 812.962 111.958 808.087 111.958C801.861 111.958 797.171 113.241 794.044 115.808C791.607 117.797 789.646 121.55 788.162 127.068V126.972ZM821.202 152.636C815.956 155.042 810.498 157.159 804.828 158.987C797.091 161.618 792.19 164.216 790.15 166.783C788.03 169.413 786.97 172.429 786.97 175.765C786.97 179.615 788.003 182.726 790.097 185.164C792.19 187.602 795.263 188.821 799.317 188.821C803.371 188.821 807.504 187.506 811.16 184.876C814.817 182.245 817.387 179.037 818.924 175.22C820.46 171.434 821.229 166.494 821.229 160.431V152.636H821.202Z" fill="white"/>
<path d="M1101.79 419.764H1064.72V328.112H1036.5V419.764H999.436V292.535H1101.79V419.764Z" fill="white"/>
<path d="M1124.39 468.173V292.536H1159.1V311.334C1163.89 303.443 1168.29 298.085 1172.29 295.295C1177.7 291.541 1183.68 289.648 1190.23 289.648C1203.16 289.648 1213.17 296.161 1220.25 309.185C1227.32 322.209 1230.85 338.314 1230.85 357.465C1230.85 378.638 1226.98 394.774 1219.29 405.938C1211.58 417.07 1201.83 422.651 1190.07 422.651C1184.37 422.651 1179.15 421.368 1174.46 418.802C1169.75 416.236 1165.56 412.45 1161.85 407.413V468.173H1124.41H1124.39ZM1161.53 356.503C1161.53 366.576 1163.15 374.05 1166.36 378.894C1169.56 383.771 1173.64 386.209 1178.57 386.209C1182.89 386.209 1186.49 383.867 1189.41 379.183C1192.32 374.5 1193.78 366.576 1193.78 355.412C1193.78 345.114 1192.27 337.543 1189.22 332.699C1186.17 327.855 1182.49 325.45 1178.12 325.45C1173.38 325.45 1169.43 327.887 1166.28 332.764C1163.12 337.64 1161.53 345.531 1161.53 356.471V356.503Z" fill="white"/>
<path d="M1244.04 356.503C1244.04 337.094 1249.02 321.087 1258.99 308.511C1268.95 295.936 1282.38 289.648 1299.34 289.648C1318.71 289.648 1333.33 297.027 1343.24 311.816C1351.19 323.717 1355.16 338.378 1355.16 355.797C1355.16 375.366 1350.24 391.406 1340.38 403.917C1330.52 416.428 1316.88 422.683 1299.44 422.683C1283.89 422.683 1271.33 417.487 1261.74 407.093C1249.95 394.229 1244.07 377.387 1244.07 356.535L1244.04 356.503ZM1281.19 356.406C1281.19 367.763 1282.94 376.136 1286.44 381.557C1289.93 386.979 1294.3 389.705 1299.6 389.705C1304.9 389.705 1309.33 387.043 1312.77 381.685C1316.19 376.328 1317.91 367.731 1317.91 355.926C1317.91 344.89 1316.19 336.677 1312.72 331.288C1309.25 325.899 1304.98 323.204 1299.87 323.204C1294.46 323.204 1290.01 325.931 1286.49 331.416C1282.96 336.902 1281.22 345.211 1281.22 356.406H1281.19Z" fill="white"/>
<path d="M1445.12 369.944L1480.36 375.205C1478.42 384.861 1475.22 393.234 1470.79 400.292C1466.37 407.381 1460.7 412.867 1453.81 416.781C1446.92 420.695 1438.15 422.651 1427.52 422.651C1416.9 422.651 1408.71 421.4 1401.88 418.866C1395.04 416.364 1389.19 412.29 1384.26 406.644C1379.33 401.03 1375.49 394.421 1372.68 386.85C1369.9 379.247 1368.49 369.207 1368.49 356.695C1368.49 344.184 1370.19 332.699 1373.58 324.006C1376.07 317.622 1379.46 311.88 1383.78 306.843C1388.1 301.775 1392.52 297.989 1397.08 295.519C1404.31 291.605 1413.56 289.648 1424.85 289.648C1440.64 289.648 1452.67 293.37 1460.96 300.78C1469.25 308.223 1475.06 319.066 1478.4 333.373L1443.53 339.469C1442.44 334.047 1440.45 329.941 1437.57 327.182C1434.68 324.423 1430.81 323.044 1425.96 323.044C1419.84 323.044 1414.86 325.931 1411.07 331.705C1407.28 337.479 1405.37 346.237 1405.37 357.947C1405.37 368.405 1407.26 376.328 1411.02 381.75C1414.78 387.171 1419.58 389.898 1425.4 389.898C1430.25 389.898 1434.33 388.262 1437.65 384.99C1440.96 381.717 1443.42 376.681 1445.06 369.88L1445.12 369.944Z" fill="white"/>
<path d="M1578.89 328.112H1552.03V419.764H1514.88V328.112H1488.01V292.535H1578.89V328.112Z" fill="white"/>
<path d="M1630.53 337.832H1647.46C1676.05 337.832 1690.36 351.562 1690.36 379.054C1690.36 406.547 1676.42 419.796 1648.55 419.796H1593.36V292.567H1630.5V337.864L1630.53 337.832ZM1630.53 389.833H1642.64C1645.69 389.833 1648.15 388.903 1650.06 387.074C1651.97 385.246 1652.92 382.551 1652.92 379.054C1652.92 371.387 1649.5 367.538 1642.64 367.538H1630.53V389.833ZM1700.9 292.535H1737.97V419.764H1700.9V292.535Z" fill="white"/>
<path d="M1749.63 292.535H1793.61L1808.95 327.983L1826.84 292.535H1867.72L1834.73 353.166L1870.08 419.796H1826.81L1808.92 378.83L1787.94 419.796H1747.77L1782.91 353.166L1749.6 292.535H1749.63Z" fill="white"/>
<path d="M143.343 686.637H116.901V650.322H46.3434V686.637H19.7949V614.746H29.4658C36.4606 598.77 39.9845 577.79 39.9845 551.869V523.094H132.851V614.746H143.37V686.637H143.343ZM94.5651 614.746V558.67H76.2832V560.114C76.2832 577.822 73.2892 596.011 67.2748 614.746H94.5651Z" fill="white"/>
<path d="M267.82 598.802H191.275C191.964 606.629 193.633 612.468 196.256 616.285C199.939 621.803 204.761 624.562 210.696 624.562C214.458 624.562 218.009 623.375 221.4 620.969C223.467 619.461 225.692 616.767 228.051 612.949L265.674 617.376C259.925 630.144 252.983 639.319 244.849 644.868C236.715 650.418 225.057 653.209 209.848 653.209C196.653 653.209 186.267 650.835 178.716 646.087C171.138 641.34 164.885 633.801 159.904 623.439C154.923 613.077 152.459 600.919 152.459 586.964C152.459 567.075 157.44 550.971 167.429 538.684C177.391 526.398 191.169 520.238 208.762 520.238C223.016 520.238 234.277 522.997 242.544 528.515C250.81 534.032 257.09 542.02 261.408 552.478C265.727 562.936 267.873 576.57 267.873 593.348V598.866L267.82 598.802ZM228.978 575.448C228.236 566.016 226.249 559.28 223.016 555.205C219.784 551.131 215.571 549.078 210.299 549.078C204.231 549.078 199.382 552.158 195.753 558.317C193.447 562.167 191.964 567.845 191.354 575.448H228.978Z" fill="white"/>
<path d="M369.324 558.67H341.636V650.322H303.35V558.67H275.662V523.094H369.297V558.67H369.324Z" fill="white"/>
<path d="M417.729 564.315L381.245 559.407C382.623 551.259 384.61 544.843 387.207 540.191C389.803 535.539 393.539 531.465 398.414 528.033C401.912 525.562 406.734 523.638 412.854 522.291C418.975 520.943 425.625 520.27 432.752 520.27C444.198 520.27 453.392 521.104 460.334 522.74C467.276 524.376 473.052 527.776 477.689 532.973C480.948 536.566 483.518 541.667 485.372 548.243C487.227 554.819 488.181 561.139 488.181 567.106V623.31C488.181 629.309 488.472 633.993 489.082 637.393C489.664 640.794 490.963 645.124 492.976 650.385H457.128C455.697 647.113 454.743 644.611 454.32 642.911C453.869 641.178 453.445 638.484 452.995 634.827C447.987 640.986 443.032 645.381 438.078 648.011C431.321 651.54 423.479 653.272 414.523 653.272C402.627 653.272 393.618 649.744 387.472 642.718C381.298 635.693 378.225 627.031 378.225 616.701C378.225 607.045 380.45 599.09 384.875 592.866C389.326 586.643 397.513 582.023 409.463 578.975C423.797 575.318 433.07 572.72 437.336 571.244C441.602 569.769 446.079 567.844 450.849 565.438C450.849 559.439 449.868 555.268 447.934 552.862C446 550.456 442.582 549.269 437.707 549.269C431.454 549.269 426.764 550.553 423.638 553.087C421.2 555.076 419.24 558.829 417.729 564.347V564.315ZM450.849 589.947C445.603 592.353 440.118 594.47 434.421 596.299C426.658 598.929 421.757 601.528 419.69 604.094C417.57 606.725 416.511 609.708 416.511 613.076C416.511 616.926 417.57 620.038 419.663 622.476C421.757 624.914 424.83 626.133 428.91 626.133C432.991 626.133 437.124 624.818 440.78 622.187C444.437 619.557 447.033 616.349 448.57 612.531C450.107 608.746 450.875 603.806 450.875 597.742V589.947H450.849Z" fill="white"/>
<path d="M625.533 650.322H587.353V558.67H558.367V612.051C558.367 626.295 556.089 636.849 551.558 643.714C547.027 650.579 540.059 654.044 530.68 654.044C520.055 654.044 510.517 652.792 502.064 650.322V614.264C506.569 616.029 510.013 616.895 512.371 616.895C517.511 616.895 520.055 612.019 520.055 602.267V523.094H625.507V650.322H625.533Z" fill="white"/>
<path d="M759.203 598.802H682.658C683.347 606.629 684.989 612.468 687.639 616.285C691.322 621.803 696.144 624.562 702.079 624.562C705.841 624.562 709.392 623.375 712.783 620.969C714.85 619.461 717.075 616.767 719.434 612.949L757.057 617.376C751.308 630.144 744.366 639.319 736.232 644.868C728.098 650.418 716.44 653.209 701.231 653.209C688.036 653.209 677.65 650.835 670.073 646.087C662.495 641.34 656.242 633.801 651.261 623.439C646.28 613.109 643.789 600.919 643.789 586.964C643.789 567.075 648.77 550.971 658.759 538.684C668.748 526.398 682.499 520.238 700.092 520.238C714.346 520.238 725.607 522.997 733.874 528.515C742.14 534.032 748.42 542.02 752.738 552.478C757.057 562.936 759.203 576.57 759.203 593.348V598.866V598.802ZM720.387 575.448C719.646 566.016 717.658 559.28 714.426 555.205C711.194 551.131 706.954 549.078 701.708 549.078C695.641 549.078 690.792 552.158 687.162 558.317C684.857 562.167 683.373 567.845 682.764 575.448H720.387Z" fill="white"/>
<path d="M888.021 650.322H851.908V587.734L814.444 650.322H778.092V523.093H814.205V586.547L852.067 523.093H888.048V650.322H888.021ZM863.805 471.701C863.619 483.282 860.466 492.168 854.319 498.424C848.199 504.647 840.912 507.759 832.46 507.759C822.578 507.759 814.867 504.583 809.277 498.231C803.713 491.879 800.56 483.025 799.792 471.701H815.927C817.808 480.17 823.055 484.405 831.692 484.405C836.435 484.405 840.171 483.57 842.9 481.87C845.629 480.17 847.457 476.802 848.384 471.733H863.778L863.805 471.701Z" fill="white"/>
</svg>
