<svg width="627" height="701" viewBox="0 0 627 701" fill="none" xmlns="http://www.w3.org/2000/svg">
<rect x="115" y="207.738" width="100" height="100" transform="rotate(-33.1875 115 207.738)" fill="white"/>
<rect x="277" y="616.738" width="100" height="100" transform="rotate(-33.1875 277 616.738)" fill="white"/>
<path d="M350.49 167L392.537 302.026L304 255.536L350.49 167Z" fill="#EE80B4"/>
<path d="M438.852 294.996L556.174 216.032L536.995 314.175L438.852 294.996Z" fill="#EE80B4"/>
<circle cx="98" cy="458" r="50" fill="#F2BED9"/>
<circle cx="249" cy="358" r="50" fill="#F2BED9"/>
<circle cx="577" cy="50" r="50" fill="white"/>
<circle cx="515" cy="617" r="50" fill="#EE80B4"/>
<rect x="465" y="367" width="100" height="100" fill="#F2BED9"/>
<rect x="386" y="156.74" width="100" height="100" transform="rotate(-22.7928 386 156.74)" fill="#F2BED9"/>
<rect x="65" y="594.246" width="100" height="100" transform="rotate(-30.8276 65 594.246)" fill="#EE80B4"/>
<rect x="288" y="457.246" width="100" height="100" transform="rotate(-30.8276 288 457.246)" fill="#EE80B4"/>
<circle cx="289" cy="68" r="50" fill="#EE80B4"/>
<path d="M179.426 569.504L226.078 435.999L269.504 526.078L179.426 569.504Z" fill="white"/>
<path d="M43.4258 372.504L90.0783 238.999L133.504 329.078L43.4258 372.504Z" fill="#F2BED9"/>
<path d="M108.426 138.504L155.078 4.99907L198.504 95.0777L108.426 138.504Z" fill="#F2BED9"/>
</svg>
