<svg width="1273" height="1054" viewBox="0 0 1273 1054" fill="none" xmlns="http://www.w3.org/2000/svg">
<g clip-path="url(#clip0_467_544)">
<path d="M654.333 -2.64453C631.49 92.8826 597.093 246.179 564.392 438.724C510.101 758.438 389.993 955.549 439.324 1024.33C450.326 1039.67 474.839 1065.13 511.667 1057.31H-7V-2.64453H654.333Z" fill="#E94749"/>
<path d="M528.122 819.924H526.32C489.999 819.924 460.555 868.403 460.555 928.205V931.171C460.555 990.973 489.999 1039.45 526.32 1039.45H528.122C564.444 1039.45 593.888 990.973 593.888 931.171V928.205C593.888 868.403 564.444 819.924 528.122 819.924Z" fill="#EE80B4"/>
<path d="M116.992 414.773H84.089L72.9666 391.337C71.1934 387.619 69.4583 385.284 67.7613 384.324C66.058 383.364 63.9672 382.888 61.4758 382.888V414.773H32.3223V329.92H61.4758V360.603C63.8655 360.335 65.6323 359.461 66.7763 357.965C67.9203 356.478 69.5792 353.2 71.7529 348.141C73.9265 343.082 75.8713 339.381 77.5937 337.037C79.3161 334.694 81.5089 332.938 84.1846 331.762C86.8603 330.595 90.2033 329.842 94.2137 329.522C98.2241 329.202 104.192 329.047 112.124 329.047V352.136H110.834C106.919 352.136 103.932 352.309 101.879 352.655C99.8258 353.001 98.1798 353.736 96.9341 354.852C95.6947 355.968 94.2582 358.259 92.6375 361.727C91.0104 365.186 89.663 367.599 88.5889 368.957C87.5148 370.314 85.926 371.231 83.8286 371.715C87.8835 372.139 91.0167 373.116 93.2094 374.63C95.4085 376.152 98.7261 381.038 103.169 389.297L116.992 414.782V414.773Z" fill="#FAFAFA"/>
<path d="M117.863 447.046V329.911H145.154V342.459C148.923 337.184 152.387 333.621 155.54 331.753C159.792 329.254 164.495 328 169.649 328C179.818 328 187.687 332.341 193.254 341.024C198.816 349.706 201.599 360.438 201.599 373.228C201.599 387.342 198.568 398.117 192.504 405.545C186.441 412.974 178.776 416.693 169.51 416.693C165.023 416.693 160.923 415.836 157.224 414.133C153.525 412.429 150.214 409.895 147.303 406.54V447.046H117.863ZM147.087 372.58C147.087 379.29 148.352 384.272 150.881 387.523C153.411 390.775 156.614 392.401 160.478 392.401C163.866 392.401 166.707 390.844 169.001 387.731C171.295 384.618 172.439 379.325 172.439 371.871C172.439 364.996 171.245 359.954 168.861 356.728C166.472 353.502 163.561 351.894 160.122 351.894C156.398 351.894 153.29 353.52 150.811 356.772C148.326 360.023 147.087 365.298 147.087 372.589V372.58Z" fill="#FAFAFA"/>
<path d="M233.339 357.403L205.476 354.125C206.524 348.694 208.043 344.414 210.026 341.3C212.009 338.187 214.863 335.48 218.587 333.189C221.263 331.537 224.937 330.257 229.621 329.358C234.299 328.45 239.364 328 244.804 328C253.543 328 260.56 328.545 265.861 329.634C271.161 330.724 275.579 333.007 279.112 336.466C281.597 338.862 283.555 342.26 284.985 346.653C286.415 351.046 287.133 355.24 287.133 359.236V396.707C287.133 400.702 287.362 403.833 287.813 406.099C288.264 408.365 289.256 411.253 290.788 414.764H263.427C262.327 412.576 261.609 410.916 261.278 409.774C260.941 408.633 260.611 406.834 260.274 404.378C256.455 408.477 252.654 411.409 248.885 413.164C243.73 415.508 237.737 416.684 230.904 416.684C221.829 416.684 214.939 414.34 210.242 409.653C205.539 404.966 203.188 399.189 203.188 392.314C203.188 385.871 204.884 380.57 208.272 376.411C211.66 372.26 217.92 369.164 227.041 367.14C237.979 364.693 245.065 362.972 248.313 361.986C251.561 361 254.999 359.712 258.628 358.112C258.628 354.116 257.885 351.323 256.41 349.723C254.929 348.123 252.33 347.328 248.605 347.328C243.832 347.328 240.248 348.184 237.858 349.888C235.996 351.22 234.489 353.727 233.345 357.403H233.339ZM258.628 374.5C254.618 376.1 250.436 377.509 246.095 378.737C240.171 380.493 236.428 382.231 234.852 383.926C233.231 385.681 232.417 387.679 232.417 389.918C232.417 392.478 233.218 394.571 234.82 396.188C236.421 397.814 238.773 398.627 241.875 398.627C244.976 398.627 248.141 397.745 250.938 395.989C253.734 394.234 255.711 392.089 256.88 389.555C258.05 387.03 258.635 383.736 258.635 379.688V374.491L258.628 374.5Z" fill="#FAFAFA"/>
<path d="M352.539 381.53L380.263 385.049C378.731 391.492 376.227 397.079 372.744 401.792C369.255 406.505 364.806 410.172 359.384 412.783C353.963 415.395 347.073 416.7 338.722 416.7C330.371 416.7 323.932 415.861 318.555 414.184C313.185 412.506 308.564 409.791 304.694 406.038C300.823 402.284 297.791 397.883 295.599 392.824C293.4 387.765 292.307 381.062 292.307 372.709C292.307 364.355 293.641 356.719 296.317 350.916C298.275 346.661 300.95 342.839 304.338 339.458C307.725 336.076 311.215 333.56 314.793 331.917C320.475 329.314 327.758 328.008 336.644 328.008C349.056 328.008 358.526 330.481 365.047 335.436C371.568 340.391 376.138 347.639 378.763 357.169L351.325 361.242C350.467 357.618 348.904 354.894 346.635 353.052C344.366 351.219 341.321 350.293 337.502 350.293C332.678 350.293 328.775 352.222 325.788 356.079C322.801 359.936 321.314 365.773 321.314 373.591C321.314 380.561 322.795 385.845 325.756 389.46C328.718 393.074 332.487 394.882 337.076 394.882C340.896 394.882 344.105 393.792 346.711 391.604C349.311 389.425 351.262 386.061 352.552 381.538L352.539 381.53Z" fill="#FAFAFA"/>
<path d="M381.273 372.58C381.273 359.634 385.189 348.971 393.019 340.582C400.849 332.194 411.425 328 424.752 328C439.987 328 451.497 332.929 459.277 342.779C465.531 350.718 468.657 360.49 468.657 372.104C468.657 385.154 464.774 395.851 457.02 404.187C449.26 412.524 438.525 416.693 424.822 416.693C412.594 416.693 402.711 413.233 395.167 406.306C385.9 397.728 381.273 386.494 381.273 372.588V372.58ZM410.497 372.502C410.497 380.069 411.87 385.655 414.615 389.279C417.361 392.902 420.812 394.709 424.969 394.709C429.125 394.709 432.621 392.928 435.322 389.356C438.017 385.785 439.37 380.06 439.37 372.173C439.37 364.823 438.01 359.348 435.29 355.751C432.57 352.153 429.202 350.354 425.191 350.354C420.939 350.354 417.431 352.179 414.66 355.829C411.889 359.478 410.503 365.03 410.503 372.485L410.497 372.502Z" fill="#FAFAFA"/>
<path d="M538.01 353.64H516.877V414.763H487.654V353.64H466.521V329.91H538.01V353.64Z" fill="#FAFAFA"/>
<path d="M566.175 357.403L538.312 354.125C539.36 348.694 540.879 344.414 542.862 341.3C544.845 338.187 547.699 335.48 551.423 333.189C554.099 331.537 557.772 330.257 562.457 329.358C567.134 328.45 572.2 328 577.64 328C586.379 328 593.396 328.545 598.697 329.634C603.997 330.724 608.414 333.007 611.948 336.466C614.433 338.862 616.391 342.26 617.821 346.653C619.251 351.046 619.969 355.24 619.969 359.236V396.707C619.969 400.702 620.198 403.833 620.649 406.099C621.1 408.365 622.092 411.253 623.624 414.764H596.262C595.163 412.576 594.445 410.916 594.114 409.774C593.777 408.633 593.447 406.834 593.11 404.378C589.29 408.477 585.49 411.409 581.721 413.164C576.566 415.508 570.573 416.684 563.74 416.684C554.665 416.684 547.775 414.34 543.078 409.653C538.375 404.966 536.023 399.189 536.023 392.314C536.023 385.871 537.72 380.57 541.108 376.411C544.496 372.26 550.756 369.164 559.876 367.14C570.814 364.693 577.901 362.972 581.149 361.986C584.396 361 587.835 359.712 591.464 358.112C591.464 354.116 590.72 351.323 589.246 349.723C587.765 348.123 585.165 347.328 581.441 347.328C576.668 347.328 573.083 348.184 570.693 349.888C568.831 351.22 567.325 353.727 566.181 357.403H566.175ZM591.457 374.5C587.447 376.1 583.265 377.509 578.924 378.737C573.001 380.493 569.257 382.231 567.681 383.926C566.06 385.681 565.247 387.679 565.247 389.918C565.247 392.478 566.047 394.571 567.649 396.188C569.251 397.814 571.602 398.627 574.704 398.627C577.806 398.627 580.971 397.745 583.767 395.989C586.564 394.234 588.54 392.089 589.71 389.555C590.879 387.03 591.464 383.736 591.464 379.688V374.491L591.457 374.5Z" fill="#FAFAFA"/>
<path d="M118.286 557.659H89.0626V525.619H62.5593V557.659H33.3359V472.807H62.5593V501.889H89.0626V472.807H118.286V557.659Z" fill="#FAFAFA"/>
<path d="M124.525 515.476C124.525 502.53 128.44 491.867 136.271 483.479C144.101 475.091 154.677 470.896 168.005 470.896C183.239 470.896 194.749 475.826 202.529 485.676C208.782 493.614 211.91 503.387 211.91 515.001C211.91 528.05 208.026 538.747 200.272 547.084C192.512 555.42 181.777 559.589 168.074 559.589C155.846 559.589 145.963 556.13 138.419 549.203C129.153 540.624 124.525 529.39 124.525 515.485V515.476ZM153.749 515.39C153.749 522.956 155.122 528.543 157.867 532.166C160.613 535.79 164.064 537.597 168.221 537.597C172.377 537.597 175.873 535.816 178.574 532.244C181.269 528.673 182.623 522.948 182.623 515.061C182.623 507.71 181.263 502.236 178.542 498.639C175.822 495.041 172.454 493.242 168.443 493.242C164.191 493.242 160.683 495.067 157.912 498.717C155.141 502.366 153.755 507.918 153.755 515.372L153.749 515.39Z" fill="#FAFAFA"/>
<path d="M274.533 512.519C280.31 513.159 284.905 515.286 288.325 518.91C291.738 522.533 293.447 527.376 293.447 533.455C293.447 541.55 291.058 547.612 286.285 551.633C281.511 555.655 272.938 557.669 260.57 557.669H217.16V472.816H264.078C272.575 472.816 279.058 474.633 283.526 478.265C287.988 481.897 290.225 486.964 290.225 493.476C290.225 498.068 288.77 502.055 285.852 505.445C282.941 508.835 279.166 511.092 274.533 512.208V512.527V512.519ZM246.307 505.168H253.686C258.555 505.168 260.995 502.678 260.995 497.696C260.995 493.675 258.415 491.669 253.261 491.669H246.314V505.168H246.307ZM246.307 537.684H255.904C258.294 537.684 260.226 537.07 261.707 535.851C263.188 534.623 263.925 532.841 263.925 530.498C263.925 525.387 261.249 522.827 255.904 522.827H246.307V537.693V537.684Z" fill="#FAFAFA"/>
<path d="M295.023 515.476C295.023 502.53 298.939 491.867 306.769 483.479C314.599 475.091 325.175 470.896 338.502 470.896C353.737 470.896 365.247 475.826 373.027 485.676C379.281 493.614 382.407 503.387 382.407 515.001C382.407 528.05 378.524 538.747 370.77 547.084C363.01 555.42 352.275 559.589 338.572 559.589C326.344 559.589 316.461 556.13 308.917 549.203C299.65 540.624 295.023 529.39 295.023 515.485V515.476ZM324.253 515.39C324.253 522.956 325.626 528.543 328.371 532.166C331.117 535.79 334.568 537.597 338.725 537.597C342.881 537.597 346.377 535.816 349.078 532.244C351.773 528.673 353.127 522.948 353.127 515.061C353.127 507.71 351.767 502.236 349.047 498.639C346.326 495.041 342.958 493.242 338.947 493.242C334.695 493.242 331.187 495.067 328.416 498.717C325.645 502.366 324.26 507.918 324.26 515.372L324.253 515.39Z" fill="#FAFAFA"/>
<path d="M450.255 496.536H417.88V557.659H388.656V472.807H450.255V496.536Z" fill="#FAFAFA"/>
<path d="M449.764 515.476C449.764 502.53 453.679 491.867 461.509 483.479C469.339 475.091 479.915 470.896 493.243 470.896C508.477 470.896 519.987 475.826 527.767 485.676C534.021 493.614 537.148 503.387 537.148 515.001C537.148 528.05 533.265 538.747 525.511 547.084C517.75 555.42 507.016 559.589 493.313 559.589C481.084 559.589 471.202 556.13 463.657 549.203C454.391 540.624 449.764 529.39 449.764 515.485V515.476ZM478.987 515.39C478.987 522.956 480.36 528.543 483.105 532.166C485.851 535.79 489.302 537.597 493.459 537.597C497.616 537.597 501.111 535.816 503.812 532.244C506.507 528.673 507.861 522.948 507.861 515.061C507.861 507.71 506.501 502.236 503.781 498.639C501.06 495.041 497.692 493.242 493.681 493.242C489.429 493.242 485.921 495.067 483.15 498.717C480.379 502.366 478.994 507.918 478.994 515.372L478.987 515.39Z" fill="#FAFAFA"/>
<path d="M655.163 0H1273.44L1276.11 1054.66L657.889 1058.63C653.712 1046.5 644.196 1008.73 637.196 982.446C580.772 770.557 619.402 598.851 644.867 197.637C647.709 152.902 651.707 84.4552 655.163 0.00988802V0Z" fill="#E94749"/>
<path d="M767.434 496.548H746.301V557.671H717.078V496.548H695.945V472.818H767.434V496.548Z" fill="#FAFAFA"/>
<path d="M853.473 523.312H795.019C795.547 528.536 796.812 532.418 798.814 534.978C801.629 538.654 805.309 540.495 809.847 540.495C812.714 540.495 815.434 539.7 818.014 538.1C819.59 537.088 821.287 535.307 823.099 532.747L851.82 535.705C847.428 544.231 842.128 550.337 835.918 554.047C829.709 557.748 820.804 559.599 809.199 559.599C799.125 559.599 791.193 558.016 785.416 554.843C779.639 551.677 774.853 546.644 771.052 539.743C767.258 532.842 765.357 524.739 765.357 515.417C765.357 502.151 769.164 491.419 776.785 483.212C784.399 475.005 794.918 470.906 808.341 470.906C819.228 470.906 827.827 472.739 834.126 476.423C840.424 480.107 845.229 485.426 848.521 492.405C851.814 499.384 853.466 508.464 853.466 519.654V523.329L853.473 523.312ZM823.817 507.729C823.245 501.442 821.726 496.945 819.266 494.221C816.806 491.505 813.571 490.148 809.561 490.148C804.928 490.148 801.229 492.197 798.458 496.296C796.691 498.856 795.566 502.661 795.089 507.72H823.81L823.817 507.729Z" fill="#FAFAFA"/>
<path d="M884.64 500.299L856.776 497.022C857.825 491.591 859.344 487.31 861.327 484.197C863.31 481.084 866.164 478.377 869.888 476.085C872.564 474.433 876.238 473.154 880.922 472.254C885.599 471.346 890.665 470.896 896.105 470.896C904.844 470.896 911.861 471.441 917.162 472.531C922.462 473.621 926.879 475.904 930.413 479.363C932.898 481.758 934.856 485.157 936.286 489.55C937.716 493.943 938.434 498.137 938.434 502.133V539.604C938.434 543.599 938.663 546.73 939.114 548.995C939.566 551.261 940.557 554.15 942.089 557.661H914.727C913.628 555.473 912.91 553.812 912.579 552.671C912.242 551.529 911.912 549.731 911.575 547.275C907.755 551.374 903.955 554.305 900.186 556.061C895.031 558.404 889.038 559.581 882.206 559.581C873.13 559.581 866.24 557.237 861.543 552.55C856.84 547.863 854.488 542.086 854.488 535.211C854.488 528.768 856.185 523.467 859.573 519.307C862.96 515.156 869.221 512.061 878.341 510.037C889.279 507.59 896.366 505.869 899.614 504.883C902.861 503.897 906.3 502.609 909.929 501.009C909.929 497.013 909.185 494.22 907.711 492.62C906.23 491.02 903.63 490.225 899.906 490.225C895.133 490.225 891.548 491.081 889.159 492.784C887.296 494.116 885.79 496.624 884.646 500.299H884.64ZM909.923 517.396C905.912 518.996 901.73 520.406 897.389 521.633C891.466 523.389 887.722 525.127 886.146 526.822C884.525 528.578 883.712 530.576 883.712 532.815C883.712 535.375 884.513 537.468 886.114 539.085C887.716 540.711 890.068 541.524 893.169 541.524C896.271 541.524 899.436 540.642 902.232 538.886C905.029 537.131 907.005 534.986 908.175 532.452C909.344 529.927 909.929 526.632 909.929 522.585V517.388L909.923 517.396Z" fill="#FAFAFA"/>
<path d="M1011.22 496.548H990.086V557.671H960.863V496.548H939.73V472.818H1011.22V496.548Z" fill="#FAFAFA"/>
<path d="M1012.95 589.953V472.817H1040.24V485.365C1044.01 480.09 1047.47 476.527 1050.62 474.659C1054.88 472.16 1059.58 470.906 1064.73 470.906C1074.9 470.906 1082.77 475.248 1088.34 483.93C1093.9 492.612 1096.68 503.344 1096.68 516.134C1096.68 530.248 1093.65 541.023 1087.59 548.452C1081.52 555.88 1073.86 559.599 1064.59 559.599C1060.11 559.599 1056.01 558.743 1052.31 557.039C1048.61 555.336 1045.3 552.801 1042.39 549.446V589.953H1012.95ZM1042.17 515.477C1042.17 522.188 1043.44 527.169 1045.96 530.421C1048.49 533.672 1051.7 535.298 1055.56 535.298C1058.95 535.298 1061.79 533.742 1064.08 530.629C1066.38 527.515 1067.52 522.223 1067.52 514.768C1067.52 507.893 1066.33 502.851 1063.94 499.626C1061.56 496.4 1058.64 494.791 1055.21 494.791C1051.48 494.791 1048.37 496.417 1045.89 499.669C1043.41 502.92 1042.17 508.196 1042.17 515.486V515.477Z" fill="#FAFAFA"/>
<path d="M1128.42 500.299L1100.56 497.022C1101.61 491.591 1103.13 487.31 1105.11 484.197C1107.09 481.084 1109.95 478.377 1113.67 476.085C1116.35 474.433 1120.02 473.154 1124.7 472.254C1129.38 471.346 1134.45 470.896 1139.89 470.896C1148.63 470.896 1155.64 471.441 1160.94 472.531C1166.25 473.621 1170.66 475.904 1174.2 479.363C1176.68 481.758 1178.64 485.157 1180.07 489.55C1181.5 493.943 1182.22 498.137 1182.22 502.133V539.604C1182.22 543.599 1182.45 546.73 1182.9 548.995C1183.35 551.261 1184.34 554.15 1185.87 557.661H1158.51C1157.41 555.473 1156.69 553.812 1156.36 552.671C1156.03 551.529 1155.69 549.731 1155.36 547.275C1151.54 551.374 1147.74 554.305 1143.97 556.061C1138.81 558.404 1132.82 559.581 1125.99 559.581C1116.91 559.581 1110.02 557.237 1105.33 552.55C1100.62 547.863 1098.27 542.086 1098.27 535.211C1098.27 528.768 1099.97 523.467 1103.36 519.307C1106.74 515.156 1113 512.061 1122.12 510.037C1133.06 507.59 1140.15 505.869 1143.4 504.883C1146.64 503.897 1150.08 502.609 1153.71 501.009C1153.71 497.013 1152.97 494.22 1151.49 492.62C1150.01 491.02 1147.41 490.225 1143.69 490.225C1138.92 490.225 1135.33 491.081 1132.94 492.784C1131.08 494.116 1129.57 496.624 1128.43 500.299H1128.42ZM1153.71 517.396C1149.7 518.996 1145.51 520.406 1141.17 521.633C1135.25 523.389 1131.51 525.127 1129.93 526.822C1128.31 528.578 1127.49 530.576 1127.49 532.815C1127.49 535.375 1128.3 537.468 1129.9 539.085C1131.5 540.711 1133.85 541.524 1136.95 541.524C1140.05 541.524 1143.22 540.642 1146.02 538.886C1148.81 537.131 1150.79 534.986 1151.96 532.452C1153.13 529.927 1153.71 526.632 1153.71 522.585V517.388L1153.71 517.396Z" fill="#FAFAFA"/>
<path d="M29.2891 976.523H36.0859C38.8203 976.523 40.9219 976.852 42.3906 977.508C43.8594 978.148 45.0156 979.141 45.8594 980.484C46.7188 981.828 47.1484 983.32 47.1484 984.961C47.1484 986.492 46.7734 987.891 46.0234 989.156C45.2734 990.406 44.1719 991.422 42.7188 992.203C44.5156 992.812 45.8984 993.531 46.8672 994.359C47.8359 995.172 48.5859 996.164 49.1172 997.336C49.6641 998.492 49.9375 999.75 49.9375 1001.11C49.9375 1003.88 48.9219 1006.22 46.8906 1008.14C44.875 1010.05 42.1641 1011 38.7578 1011H29.2891V976.523ZM32.6641 979.898V990.938H34.6328C37.0234 990.938 38.7812 990.719 39.9062 990.281C41.0312 989.828 41.9219 989.125 42.5781 988.172C43.2344 987.203 43.5625 986.133 43.5625 984.961C43.5625 983.383 43.0078 982.148 41.8984 981.258C40.8047 980.352 39.0547 979.898 36.6484 979.898H32.6641ZM32.6641 994.406V1007.62H36.9297C39.4453 1007.62 41.2891 1007.38 42.4609 1006.9C43.6328 1006.4 44.5703 1005.62 45.2734 1004.58C45.9922 1003.53 46.3516 1002.4 46.3516 1001.18C46.3516 999.648 45.8516 998.312 44.8516 997.172C43.8516 996.031 42.4766 995.25 40.7266 994.828C39.5547 994.547 37.5156 994.406 34.6094 994.406H32.6641ZM81.625 985.5V1011H78.3906V1006.62C77.0156 1008.29 75.4688 1009.55 73.75 1010.39C72.0469 1011.23 70.1797 1011.66 68.1484 1011.66C64.5391 1011.66 61.4531 1010.35 58.8906 1007.74C56.3438 1005.12 55.0703 1001.93 55.0703 998.18C55.0703 994.508 56.3594 991.367 58.9375 988.758C61.5156 986.148 64.6172 984.844 68.2422 984.844C70.3359 984.844 72.2266 985.289 73.9141 986.18C75.6172 987.07 77.1094 988.406 78.3906 990.188V985.5H81.625ZM68.5 988.008C66.6719 988.008 64.9844 988.461 63.4375 989.367C61.8906 990.258 60.6562 991.516 59.7344 993.141C58.8281 994.766 58.375 996.484 58.375 998.297C58.375 1000.09 58.8359 1001.81 59.7578 1003.45C60.6797 1005.09 61.9141 1006.38 63.4609 1007.3C65.0234 1008.2 66.6953 1008.66 68.4766 1008.66C70.2734 1008.66 71.9766 1008.2 73.5859 1007.3C75.1953 1006.39 76.4297 1005.16 77.2891 1003.62C78.1641 1002.07 78.6016 1000.33 78.6016 998.391C78.6016 995.438 77.625 992.969 75.6719 990.984C73.7344 989 71.3438 988.008 68.5 988.008ZM116.711 985.5H117.648L126.297 1011H122.875L116.57 992.227L106.773 1011H106.164L96.3438 992.227L90.0625 1011H86.6406L95.3359 985.5H96.2266L106.492 1005.45L116.711 985.5ZM144.578 985.5H147.836V990.188C149.133 988.406 150.625 987.07 152.312 986.18C154 985.289 155.883 984.844 157.961 984.844C161.586 984.844 164.688 986.148 167.266 988.758C169.844 991.367 171.133 994.508 171.133 998.18C171.133 1001.93 169.852 1005.12 167.289 1007.74C164.742 1010.35 161.664 1011.66 158.055 1011.66C156.023 1011.66 154.156 1011.23 152.453 1010.39C150.75 1009.55 149.211 1008.29 147.836 1006.62V1020.33H144.578V985.5ZM157.703 988.008C154.859 988.008 152.461 989 150.508 990.984C148.57 992.969 147.602 995.438 147.602 998.391C147.602 1000.33 148.031 1002.07 148.891 1003.62C149.766 1005.16 151.008 1006.39 152.617 1007.3C154.242 1008.2 155.953 1008.66 157.75 1008.66C159.516 1008.66 161.172 1008.2 162.719 1007.3C164.281 1006.38 165.523 1005.09 166.445 1003.45C167.367 1001.81 167.828 1000.09 167.828 998.297C167.828 996.484 167.367 994.766 166.445 993.141C165.539 991.516 164.312 990.258 162.766 989.367C161.219 988.461 159.531 988.008 157.703 988.008ZM202.703 985.5V1011H199.469V1006.62C198.094 1008.29 196.547 1009.55 194.828 1010.39C193.125 1011.23 191.258 1011.66 189.227 1011.66C185.617 1011.66 182.531 1010.35 179.969 1007.74C177.422 1005.12 176.148 1001.93 176.148 998.18C176.148 994.508 177.438 991.367 180.016 988.758C182.594 986.148 185.695 984.844 189.32 984.844C191.414 984.844 193.305 985.289 194.992 986.18C196.695 987.07 198.188 988.406 199.469 990.188V985.5H202.703ZM189.578 988.008C187.75 988.008 186.062 988.461 184.516 989.367C182.969 990.258 181.734 991.516 180.812 993.141C179.906 994.766 179.453 996.484 179.453 998.297C179.453 1000.09 179.914 1001.81 180.836 1003.45C181.758 1005.09 182.992 1006.38 184.539 1007.3C186.102 1008.2 187.773 1008.66 189.555 1008.66C191.352 1008.66 193.055 1008.2 194.664 1007.3C196.273 1006.39 197.508 1005.16 198.367 1003.62C199.242 1002.07 199.68 1000.33 199.68 998.391C199.68 995.438 198.703 992.969 196.75 990.984C194.812 989 192.422 988.008 189.578 988.008ZM210.32 1008.21L220.164 985.5H221.875L231.648 1008.21H234.719V1014.26H231.555V1011H210.461V1014.4H207.227V1008.21H210.32ZM220.961 990.562L213.508 1008.21H228.109L220.961 990.562ZM242.43 995.602H245.547C248.031 995.602 249.977 995.797 251.383 996.188C252.789 996.578 254 997.445 255.016 998.789C256.031 1000.12 256.539 1001.65 256.539 1003.38C256.539 1005.48 255.805 1007.27 254.336 1008.77C252.867 1010.26 250.641 1011 247.656 1011H239.172V985.5H242.43V995.602ZM242.547 998.602V1008.23H246.32C250.758 1008.23 252.977 1006.67 252.977 1003.55C252.977 1002.66 252.734 1001.78 252.25 1000.92C251.781 1000.06 251.086 999.461 250.164 999.117C249.258 998.773 247.648 998.602 245.336 998.602H242.547ZM261.062 985.5H264.367V1011H261.062V985.5ZM276.461 975.656V1002.38H273.062V975.656H276.461ZM274.797 1005.84C275.594 1005.84 276.273 1006.12 276.836 1006.69C277.398 1007.25 277.68 1007.94 277.68 1008.75C277.68 1009.55 277.398 1010.23 276.836 1010.81C276.273 1011.38 275.594 1011.66 274.797 1011.66C274 1011.66 273.32 1011.38 272.758 1010.81C272.195 1010.23 271.914 1009.55 271.914 1008.75C271.914 1007.94 272.195 1007.25 272.758 1006.69C273.32 1006.12 274 1005.84 274.797 1005.84Z" fill="white"/>
<path d="M979.148 986.523H1003.62V1021H1000.15V989.805H982.617V1021H979.148V986.523ZM1011.52 995.5H1014.77V1000.19C1016.07 998.406 1017.56 997.07 1019.25 996.18C1020.94 995.289 1022.82 994.844 1024.9 994.844C1028.52 994.844 1031.62 996.148 1034.2 998.758C1036.78 1001.37 1038.07 1004.51 1038.07 1008.18C1038.07 1011.93 1036.79 1015.12 1034.23 1017.74C1031.68 1020.35 1028.6 1021.66 1024.99 1021.66C1022.96 1021.66 1021.09 1021.23 1019.39 1020.39C1017.69 1019.55 1016.15 1018.29 1014.77 1016.62V1030.33H1011.52V995.5ZM1024.64 998.008C1021.8 998.008 1019.4 999 1017.45 1000.98C1015.51 1002.97 1014.54 1005.44 1014.54 1008.39C1014.54 1010.33 1014.97 1012.07 1015.83 1013.62C1016.7 1015.16 1017.95 1016.39 1019.55 1017.3C1021.18 1018.2 1022.89 1018.66 1024.69 1018.66C1026.45 1018.66 1028.11 1018.2 1029.66 1017.3C1031.22 1016.38 1032.46 1015.09 1033.38 1013.45C1034.3 1011.81 1034.77 1010.09 1034.77 1008.3C1034.77 1006.48 1034.3 1004.77 1033.38 1003.14C1032.48 1001.52 1031.25 1000.26 1029.7 999.367C1028.16 998.461 1026.47 998.008 1024.64 998.008ZM1047.52 995.5V1014.37L1066.24 995.5H1066.5V1021H1063.22V1002.3L1044.63 1021H1044.23V995.5H1047.52ZM1070.91 995.5H1074.84L1081.59 1004.95L1088.34 995.5H1092.28L1083.56 1007.62L1093.38 1021H1089.4L1081.59 1010.29L1073.91 1021H1069.99L1079.65 1007.62L1070.91 995.5ZM1108.95 994.844C1112.87 994.844 1116.12 996.266 1118.7 999.109C1121.04 1001.7 1122.21 1004.77 1122.21 1008.32C1122.21 1011.88 1120.97 1015 1118.48 1017.67C1116.02 1020.33 1112.84 1021.66 1108.95 1021.66C1105.04 1021.66 1101.84 1020.33 1099.36 1017.67C1096.89 1015 1095.66 1011.88 1095.66 1008.32C1095.66 1004.79 1096.83 1001.73 1099.17 999.133C1101.75 996.273 1105.01 994.844 1108.95 994.844ZM1108.95 998.055C1106.23 998.055 1103.89 999.062 1101.94 1001.08C1099.98 1003.09 1099.01 1005.53 1099.01 1008.39C1099.01 1010.23 1099.45 1011.95 1100.34 1013.55C1101.23 1015.14 1102.44 1016.38 1103.95 1017.25C1105.47 1018.11 1107.13 1018.54 1108.95 1018.54C1110.76 1018.54 1112.42 1018.11 1113.94 1017.25C1115.45 1016.38 1116.66 1015.14 1117.55 1013.55C1118.44 1011.95 1118.88 1010.23 1118.88 1008.39C1118.88 1005.53 1117.9 1003.09 1115.93 1001.08C1113.98 999.062 1111.65 998.055 1108.95 998.055ZM1128.54 1018.21L1138.38 995.5H1140.09L1149.87 1018.21H1152.94V1024.26H1149.77V1021H1128.68V1024.4H1125.45V1018.21H1128.54ZM1139.18 1000.56L1131.73 1018.21H1146.33L1139.18 1000.56ZM1160.67 995.5V1014.37L1179.4 995.5H1179.66V1021H1176.38V1002.3L1157.79 1021H1157.39V995.5H1160.67ZM1184.11 995.5H1200.89V998.336H1194.14V1021H1190.84V998.336H1184.11V995.5ZM1226.81 1012.54L1229.58 1013.99C1228.67 1015.77 1227.62 1017.21 1226.44 1018.3C1225.25 1019.4 1223.91 1020.23 1222.43 1020.81C1220.95 1021.38 1219.27 1021.66 1217.39 1021.66C1213.23 1021.66 1209.98 1020.3 1207.64 1017.58C1205.3 1014.84 1204.12 1011.76 1204.12 1008.32C1204.12 1005.09 1205.12 1002.2 1207.1 999.672C1209.62 996.453 1212.98 994.844 1217.2 994.844C1221.55 994.844 1225.02 996.492 1227.61 999.789C1229.45 1002.12 1230.39 1005.02 1230.42 1008.51H1207.5C1207.56 1011.48 1208.51 1013.91 1210.34 1015.82C1212.16 1017.71 1214.42 1018.66 1217.11 1018.66C1218.41 1018.66 1219.66 1018.43 1220.88 1017.98C1222.12 1017.52 1223.16 1016.92 1224.02 1016.17C1224.88 1015.42 1225.81 1014.21 1226.81 1012.54ZM1226.81 1005.67C1226.38 1003.92 1225.73 1002.52 1224.89 1001.48C1224.06 1000.43 1222.96 999.586 1221.59 998.945C1220.21 998.305 1218.77 997.984 1217.25 997.984C1214.75 997.984 1212.6 998.789 1210.8 1000.4C1209.49 1001.57 1208.5 1003.33 1207.83 1005.67H1226.81ZM1241.65 985.656V1012.38H1238.25V985.656H1241.65ZM1239.98 1015.84C1240.78 1015.84 1241.46 1016.12 1242.02 1016.69C1242.59 1017.25 1242.87 1017.94 1242.87 1018.75C1242.87 1019.55 1242.59 1020.23 1242.02 1020.81C1241.46 1021.38 1240.78 1021.66 1239.98 1021.66C1239.19 1021.66 1238.51 1021.38 1237.95 1020.81C1237.38 1020.23 1237.1 1019.55 1237.1 1018.75C1237.1 1017.94 1237.38 1017.25 1237.95 1016.69C1238.51 1016.12 1239.19 1015.84 1239.98 1015.84Z" fill="white"/>
</g>
<defs>
<clipPath id="clip0_467_544">
<rect width="1280" height="1054" fill="white" transform="translate(-7)"/>
</clipPath>
</defs>
</svg>
