<svg width="640" height="716" viewBox="0 0 640 716" fill="none" xmlns="http://www.w3.org/2000/svg">
<circle cx="398" cy="196" r="80" fill="#9F2921"/>
<path d="M640 116H480V276H640V116Z" fill="#EB81B2"/>
<path d="M318 116H158V276H318V116Z" fill="#EB81B2"/>
<path d="M160 276L0 116V276H160Z" fill="#9F2921"/>
<path d="M160 404H0V564H160V404Z" fill="#EB81B2"/>
<path d="M640 404H480V564H640V404Z" fill="#9F2921"/>
<circle cx="240" cy="484" r="80" fill="#9F2921"/>
<path d="M480 564L320 404V564H480Z" fill="#EB81B2"/>
<path d="M46.8957 317.062H22.2476V391.008H0V288.377H46.8528V317.062H46.8957Z" fill="#F2BED9"/>
<path d="M120.197 349.422H75.745C76.1308 355.764 77.1166 360.451 78.6169 363.55C80.7603 368.018 83.5467 370.252 87.0188 370.252C89.205 370.252 91.2625 369.314 93.2344 367.368C94.4346 366.143 95.7206 363.981 97.0923 360.882L118.954 364.486C115.611 374.792 111.581 382.216 106.866 386.685C102.151 391.153 95.3777 393.387 86.5472 393.387C78.8742 393.387 72.83 391.441 68.4577 387.621C64.0424 383.801 60.3988 377.675 57.5268 369.386C54.6548 361.026 53.1973 351.225 53.1973 339.982C53.1973 323.91 56.1122 310.936 61.8991 300.99C67.6861 291.044 75.7021 286.143 85.9043 286.143C94.1775 286.143 100.736 288.378 105.537 292.774C110.338 297.243 113.982 303.657 116.511 312.089C118.997 320.522 120.283 331.549 120.283 345.027V349.494L120.197 349.422ZM97.6496 330.54C97.2209 322.973 96.0635 317.495 94.1774 314.18C92.2913 310.864 89.8479 309.279 86.8044 309.279C83.2894 309.279 80.4602 311.73 78.3598 316.703C77.0309 319.802 76.1735 324.414 75.7878 330.54H97.6496Z" fill="#F2BED9"/>
<path d="M127.695 339.91C127.695 324.27 130.653 311.368 136.611 301.206C142.57 291.044 150.629 286 160.745 286C172.319 286 181.107 291.982 187.022 303.874C191.78 313.459 194.181 325.279 194.181 339.333C194.181 355.116 191.223 368.089 185.308 378.107C179.392 388.197 171.248 393.243 160.831 393.243C151.529 393.243 144.027 389.062 138.283 380.702C131.253 370.324 127.695 356.703 127.695 339.91ZM149.9 339.838C149.9 348.991 150.929 355.764 153.029 360.161C155.13 364.557 157.745 366.72 160.917 366.72C164.089 366.72 166.746 364.557 168.804 360.233C170.862 355.909 171.89 348.99 171.89 339.477C171.89 330.612 170.862 323.981 168.804 319.585C166.746 315.261 164.174 313.027 161.131 313.027C157.916 313.027 155.215 315.261 153.115 319.657C151.015 324.054 149.943 330.757 149.943 339.838H149.9Z" fill="#F2BED9"/>
<path d="M285.064 390.935H266.331V326.503L252.657 390.935H239.283L224.365 326.503V390.935H205.633V288.305H232.081L245.97 347.333L258.616 288.305H285.064V390.935Z" fill="#F2BED9"/>
<path d="M363.549 349.422H319.097C319.482 355.764 320.468 360.451 321.969 363.55C324.112 368.018 326.898 370.252 330.37 370.252C332.557 370.252 334.614 369.314 336.586 367.368C337.786 366.143 339.072 363.981 340.444 360.882L362.306 364.486C358.962 374.792 354.933 382.216 350.218 386.685C345.502 391.153 338.729 393.387 329.899 393.387C322.226 393.387 316.182 391.441 311.809 387.621C307.394 383.801 303.75 377.675 300.878 369.386C298.006 361.026 296.549 351.225 296.549 339.982C296.549 323.91 299.464 310.936 305.251 300.99C311.038 291.044 319.054 286.143 329.256 286.143C337.529 286.143 344.088 288.378 348.889 292.774C353.69 297.243 357.333 303.657 359.862 312.089C362.349 320.522 363.635 331.549 363.635 345.027V349.494L363.549 349.422ZM341.001 330.54C340.573 322.973 339.415 317.495 337.529 314.18C335.643 310.864 333.2 309.279 330.156 309.279C326.641 309.279 323.812 311.73 321.711 316.703C320.383 319.802 319.525 324.414 319.139 330.54H341.001Z" fill="#F2BED9"/>
<path d="M422.538 317.062H406.463V391.008H384.215V317.062H368.141V288.377H422.538V317.062Z" fill="#F2BED9"/>
<path d="M430.504 430V288.305H451.251V303.513C454.123 297.171 456.738 292.846 459.138 290.54C462.353 287.513 465.954 286 469.855 286C477.571 286 483.572 291.261 487.816 301.783C492.06 312.306 494.16 325.278 494.16 340.702C494.16 357.783 491.845 370.829 487.259 379.766C482.629 388.775 476.799 393.243 469.769 393.243C466.34 393.243 463.254 392.234 460.424 390.144C457.595 388.054 455.109 385.027 452.88 380.991V430H430.461H430.504ZM452.751 339.91C452.751 348.054 453.694 354.036 455.623 358C457.552 361.964 459.996 363.909 462.911 363.909C465.483 363.909 467.669 362.035 469.383 358.287C471.141 354.539 471.998 348.125 471.998 339.116C471.998 330.828 471.098 324.702 469.255 320.81C467.454 316.918 465.226 314.971 462.611 314.971C459.781 314.971 457.424 316.918 455.538 320.882C453.652 324.846 452.709 331.189 452.709 340.054L452.751 339.91Z" fill="#F2BED9"/>
<path d="M569.476 390.935H548.515V340.413L526.739 390.935H505.605V288.305H526.567V339.477L548.557 288.305H569.476V390.935Z" fill="#F2BED9"/>
<path d="M639.914 390.935H617.753V351.079H616.938C615.395 351.079 614.152 351.873 613.251 353.386C612.351 354.9 611.451 357.206 610.551 360.305L601.678 390.935H577.115L585.731 361.243C588.261 352.45 591.604 347.549 595.762 346.756C591.09 345.459 587.489 342 585.046 336.378C582.602 330.756 581.359 324.558 581.359 317.855C581.359 311.152 582.302 305.315 584.188 300.198C586.074 295.081 588.775 291.837 592.376 290.395C595.976 288.954 600.477 288.305 605.921 288.305H640V390.935H639.914ZM617.753 327.872V311.728H610.851C607.593 311.728 605.536 312.449 604.764 313.819C603.95 315.188 603.564 317.134 603.564 319.729C603.564 325.206 606.264 327.872 611.623 327.872H617.795H617.753Z" fill="#F2BED9"/>
<path d="M73.9313 715.999H58.0858V684.602H15.8897V715.999H0V653.745H5.78208C9.9752 639.901 12.0498 621.727 12.0498 599.299V574.396H67.6196V653.745H73.8872V715.999H73.9313ZM44.7561 653.745V605.177H33.8098V606.413C33.8098 621.726 32.0001 637.504 28.425 653.667H44.7561V653.745Z" fill="#F2BED9"/>
<path d="M148.789 684.603H127.206V630.389L104.783 684.603H83.0234V574.475H104.607V629.383L127.25 574.475H148.789V684.603Z" fill="#F2BED9"/>
<path d="M230.752 684.603H207.844V642.994H187.099V684.603H164.191V574.475H187.099V612.214H207.844V574.475H230.752V684.603Z" fill="#F2BED9"/>
<path d="M266.15 610.127L244.302 605.873C245.14 598.835 246.332 593.268 247.877 589.246C249.422 585.225 251.673 581.666 254.586 578.727C256.66 576.562 259.574 574.939 263.237 573.779C266.901 572.619 270.873 572 275.11 572C281.952 572 287.469 572.696 291.618 574.088C295.767 575.48 299.254 578.496 301.99 582.981C303.932 586.075 305.477 590.483 306.581 596.206C307.684 601.929 308.258 607.343 308.258 612.525V661.17C308.258 666.352 308.434 670.449 308.788 673.388C309.141 676.327 309.935 680.118 311.127 684.681H289.676C288.837 681.819 288.263 679.653 287.999 678.184C287.734 676.714 287.469 674.395 287.204 671.147C284.203 676.483 281.245 680.272 278.288 682.515C274.227 685.531 269.549 687.077 264.208 687.077C257.102 687.077 251.717 684.061 248.009 677.952C244.346 671.842 242.492 664.341 242.492 655.447C242.492 647.095 243.816 640.21 246.465 634.797C249.113 629.383 254.012 625.363 261.163 622.734C269.725 619.563 275.287 617.319 277.847 616.082C280.407 614.767 283.099 613.144 285.924 611.056C285.924 605.874 285.35 602.238 284.203 600.15C283.055 598.062 281.025 597.057 278.067 597.057C274.316 597.057 271.535 598.139 269.637 600.382C268.181 602.084 266.989 605.332 266.106 610.127H266.15ZM285.968 632.323C282.834 634.411 279.568 636.19 276.125 637.814C271.491 640.057 268.534 642.299 267.298 644.541C266.018 646.784 265.4 649.414 265.4 652.353C265.4 655.678 266.018 658.385 267.298 660.473C268.534 662.561 270.387 663.643 272.815 663.643C275.243 663.643 277.714 662.484 279.921 660.241C282.128 657.998 283.673 655.138 284.6 651.89C285.527 648.642 285.968 644.31 285.968 639.051V632.323Z" fill="#F2BED9"/>
<path d="M404.571 684.603H385.283V615.462L371.203 684.603H357.432L342.072 615.462V684.603H322.783V574.475H350.016L364.317 637.813L377.338 574.475H404.571V684.603Z" fill="#F2BED9"/>
<path d="M485.783 684.603H464.2V630.389L441.778 684.603H420.018V574.475H441.601V629.383L464.244 574.475H485.783V684.603Z" fill="#F2BED9"/>
<path d="M566.684 684.603H540.907L532.212 654.208C530.844 649.413 529.476 646.32 528.152 645.082C526.827 643.845 525.194 643.226 523.208 643.226V684.603H500.389V574.474H523.208V614.302C525.062 613.993 526.474 612.833 527.357 610.9C528.24 608.966 529.564 604.712 531.241 598.138C532.919 591.564 534.463 586.771 535.832 583.754C537.2 580.738 538.921 578.417 540.996 576.948C543.07 575.478 545.719 574.474 548.852 574.01C551.986 573.623 556.665 573.391 562.888 573.391V603.398H561.873C558.783 603.398 556.444 603.629 554.855 604.093C553.266 604.557 551.942 605.486 550.971 606.956C550 608.425 548.897 611.363 547.617 615.849C546.337 620.334 545.277 623.505 544.439 625.206C543.6 626.985 542.364 628.147 540.731 628.765C543.909 629.307 546.381 630.621 548.102 632.555C549.823 634.488 552.428 640.907 555.914 651.579L566.728 684.68L566.684 684.603Z" fill="#F2BED9"/>
<path d="M594.979 610.127L573.131 605.873C573.969 598.835 575.161 593.268 576.706 589.246C578.251 585.225 580.502 581.666 583.415 578.727C585.489 576.562 588.403 574.939 592.066 573.779C595.729 572.619 599.702 572 603.983 572C610.825 572 616.342 572.696 620.491 574.088C624.64 575.48 628.083 578.496 630.863 582.981C632.805 586.075 634.35 590.483 635.454 596.206C636.557 601.929 637.131 607.343 637.131 612.525V661.17C637.131 666.352 637.308 670.449 637.661 673.388C638.014 676.327 638.808 680.118 640 684.681H618.549C617.666 681.819 617.136 679.653 616.872 678.184C616.607 676.714 616.342 674.395 616.077 671.147C613.076 676.483 610.118 680.272 607.161 682.515C603.1 685.531 598.422 687.077 593.081 687.077C585.975 687.077 580.59 684.061 576.882 677.952C573.219 671.842 571.365 664.341 571.365 655.447C571.365 647.095 572.689 640.21 575.338 634.797C577.986 629.383 582.885 625.363 590.036 622.734C598.598 619.563 604.16 617.319 606.72 616.082C609.28 614.767 611.972 613.144 614.797 611.056C614.797 605.874 614.223 602.238 613.076 600.15C611.928 598.062 609.898 597.057 606.941 597.057C603.189 597.057 600.408 598.139 598.51 600.382C597.054 602.084 595.862 605.332 594.979 610.127ZM614.797 632.323C611.663 634.411 608.397 636.19 604.998 637.814C600.364 640.057 597.407 642.299 596.171 644.541C594.891 646.784 594.273 649.414 594.273 652.353C594.273 655.678 594.891 658.385 596.171 660.473C597.407 662.561 599.261 663.643 601.688 663.643C604.116 663.643 606.587 662.484 608.794 660.241C611.001 657.998 612.546 655.138 613.473 651.89C614.4 648.642 614.841 644.31 614.841 639.051V632.323H614.797Z" fill="#F2BED9"/>
<path d="M71.2722 104.977H45.4685V31.105H25.8038V104.977H0V2.44727H71.3221V104.977H71.2722Z" fill="#F2BED9"/>
<path d="M86.9972 144.001V2.44727H111.154V17.6401C114.498 11.3041 117.542 6.98371 120.337 4.6797C124.081 1.65569 128.273 0.144531 132.815 0.144531C141.849 0.144531 148.786 5.40013 153.728 15.9122C158.669 26.4242 161.114 39.3835 161.114 54.7916C161.114 71.8556 158.419 84.8889 153.079 93.8169C147.688 102.817 140.901 107.28 132.715 107.28C128.722 107.28 125.129 106.273 121.835 104.185C118.541 102.097 115.646 99.0724 113.051 95.0403V144.001H86.9473H86.9972ZM112.901 54.0006C112.901 62.1366 113.999 68.1127 116.245 72.0727C118.491 76.0327 121.336 77.9772 124.73 77.9772C127.724 77.9772 130.269 76.105 132.266 72.361C134.312 68.617 135.311 62.2078 135.311 53.2078C135.311 44.9278 134.262 38.8075 132.116 34.9194C130.02 31.0314 127.425 29.0888 124.38 29.0888C121.086 29.0888 118.341 31.0315 116.145 34.9915C113.949 38.9515 112.851 45.2887 112.851 54.1447L112.901 54.0006Z" fill="#F2BED9"/>
<path d="M170.396 54.0006C170.396 38.3765 173.84 25.4876 180.778 15.3356C187.715 5.18356 197.099 0.144531 208.877 0.144531C222.353 0.144531 232.585 6.12041 239.473 18.0004C245.013 27.5765 247.808 39.384 247.808 53.424C247.808 69.192 244.364 82.153 237.476 92.161C230.589 102.241 221.106 107.28 208.977 107.28C198.147 107.28 189.412 103.104 182.724 94.7521C174.539 84.384 170.396 70.7766 170.396 54.0006ZM196.25 53.8564C196.25 63.0005 197.448 69.769 199.894 74.161C202.339 78.553 205.384 80.7124 209.077 80.7124C212.77 80.7124 215.865 78.5531 218.261 74.233C220.656 69.913 221.854 63.0001 221.854 53.4961C221.854 44.64 220.656 38.0159 218.261 33.6239C215.865 29.3039 212.87 27.0725 209.327 27.0725C205.583 27.0725 202.439 29.304 199.993 33.696C197.548 38.088 196.3 44.7844 196.3 53.8564H196.25Z" fill="#F2BED9"/>
<path d="M310.488 64.8002L335.044 69.0471C333.696 76.8231 331.451 83.5916 328.406 89.2796C325.312 94.9676 321.369 99.4323 316.577 102.528C311.786 105.696 305.647 107.28 298.26 107.28C290.873 107.28 285.134 106.272 280.392 104.256C275.651 102.24 271.558 98.9273 268.114 94.3913C264.67 89.8553 262.025 84.5275 260.078 78.4075C258.132 72.2875 257.184 64.2243 257.184 54.0722C257.184 43.9202 258.382 34.7751 260.727 27.719C262.474 22.607 264.82 17.9276 267.815 13.8956C270.809 9.79154 273.904 6.76739 277.098 4.75138C282.139 1.58337 288.577 0 296.463 0C307.444 0 315.828 3.02401 321.618 9.00003C327.408 14.976 331.451 23.7594 333.746 35.2794L309.44 40.1767C308.691 35.7847 307.294 32.4718 305.297 30.3118C303.301 28.0798 300.606 27.0001 297.212 27.0001C292.92 27.0001 289.476 29.3039 286.83 33.9839C284.185 38.6639 282.888 45.7195 282.888 55.1515C282.888 63.5756 284.185 69.9847 286.83 74.3047C289.476 78.6967 292.82 80.8561 296.862 80.8561C300.256 80.8561 303.101 79.5598 305.397 76.8958C307.693 74.2318 309.44 70.2002 310.588 64.7281L310.488 64.8002Z" fill="#F2BED9"/>
<path d="M403.672 31.105H384.956V104.977H359.052V31.105H340.336V2.44727H403.672V31.105Z" fill="#F2BED9"/>
<path d="M409.717 54.0006C409.717 38.3765 413.161 25.4876 420.098 15.3356C427.036 5.18356 436.419 0.144531 448.198 0.144531C461.674 0.144531 471.905 6.12041 478.793 18.0004C484.333 27.5765 487.078 39.384 487.078 53.424C487.078 69.192 483.634 82.153 476.796 92.161C469.909 102.241 460.426 107.28 448.298 107.28C437.467 107.28 428.683 103.104 422.045 94.7521C413.859 84.384 409.717 70.7766 409.717 54.0006ZM435.62 53.8564C435.62 63.0005 436.818 69.769 439.264 74.161C441.709 78.553 444.754 80.7124 448.447 80.7124C452.141 80.7124 455.235 78.5531 457.631 74.233C460.026 69.913 461.224 63.0001 461.224 53.4961C461.224 44.64 460.026 38.0159 457.631 33.6239C455.235 29.2319 452.241 27.0725 448.697 27.0725C444.954 27.0725 441.809 29.304 439.363 33.696C436.918 38.088 435.67 44.7844 435.67 53.8564H435.62Z" fill="#F2BED9"/>
<path d="M556.348 31.105H537.632V104.977H511.728V31.105H493.012V2.44727H556.348V31.105Z" fill="#F2BED9"/>
<path d="M589.091 35.6402L564.385 31.6798C565.333 25.1278 566.681 19.9445 568.428 16.2004C570.175 12.4564 572.72 9.14365 576.014 6.40764C578.36 4.39163 581.654 2.8804 585.797 1.8004C589.939 0.720392 594.431 0.144531 599.272 0.144531C607.009 0.144531 613.247 0.792674 617.939 2.08868C622.631 3.38468 626.524 6.19199 629.668 10.368C631.864 13.248 633.611 17.3517 634.859 22.6798C636.106 28.0078 636.755 33.0486 636.755 37.8726V83.161C636.755 87.985 636.955 91.7998 637.354 94.5359C637.753 97.2719 638.652 100.8 639.999 105.048H615.743C614.745 102.384 614.146 100.369 613.846 99.0007C613.547 97.6327 613.247 95.4716 612.948 92.4476C609.554 97.4156 606.21 100.945 602.866 103.033C598.274 105.841 592.984 107.28 586.945 107.28C578.909 107.28 572.82 104.473 568.627 98.7845C564.485 93.0965 562.389 86.1131 562.389 77.8331C562.389 70.057 563.886 63.6478 566.881 58.6078C569.875 53.5678 575.415 49.8251 583.501 47.3771C593.183 44.4251 599.472 42.3363 602.367 41.1843C605.262 39.9603 608.306 38.449 611.501 36.505C611.501 31.681 610.852 28.2958 609.554 26.3518C608.256 24.4078 605.961 23.4725 602.617 23.4725C598.374 23.4725 595.23 24.48 593.084 26.5681C591.437 28.1521 590.089 31.1761 589.091 35.6402ZM611.501 56.3051C607.957 58.2491 604.264 59.9048 600.42 61.4168C595.18 63.5048 591.836 65.5919 590.438 67.6799C588.991 69.7679 588.292 72.216 588.292 74.952C588.292 78.048 588.991 80.5684 590.438 82.5124C591.836 84.4564 593.932 85.4638 596.677 85.4638C599.422 85.4638 602.217 84.3842 604.713 82.2962C607.208 80.2082 608.955 77.5436 610.003 74.5196C611.051 71.4956 611.55 67.4642 611.55 62.5682V56.3051H611.501Z" fill="#F2BED9"/>
</svg>
