<svg width="1275" height="724" viewBox="0 0 1275 724" fill="none" xmlns="http://www.w3.org/2000/svg">
<g clip-path="url(#clip0_466_476)">
<rect width="1275" height="724" fill="white"/>
<path d="M1280.99 0H-5.40234V727.503H1280.99V0Z" fill="#F2BED9"/>
<path d="M525.463 300.974C516.691 305.197 508.727 309.932 501.788 315.067L105.277 167.864C132.152 144.833 163.63 123.627 198.954 104.703L525.463 300.955V300.974Z" fill="white"/>
<path d="M593.345 281.137C579.305 283.172 566.002 286.158 553.688 289.981L303.705 59.1724C352.566 42.1698 405.794 28.7808 462.241 19.709L593.363 281.156L593.345 281.137Z" fill="white"/>
<path d="M486.11 329.177C480.322 335.681 475.935 342.623 473.185 349.888L9.26172 305.917C17.6209 277.58 31.8404 250.364 51.2552 224.689L486.11 329.177Z" fill="white"/>
<path d="M0.601562 365.408H4.98786L2.3453 392.11C1.19479 383.286 0.601562 374.385 0.601562 365.408Z" fill="#2BAAE2"/>
<path d="M482.711 402.628L51.3799 506.278C31.8033 480.413 17.4939 452.989 9.13477 424.442L471.458 380.623C473.472 388.326 477.301 395.705 482.711 402.628Z" fill="white"/>
<path d="M522.495 433.437L200.551 626.951C164.849 607.951 133.067 586.651 105.922 563.486L498.011 417.938C505.057 423.605 513.273 428.797 522.477 433.456L522.495 433.437Z" fill="white"/>
<path d="M594.726 454.929L465.941 711.698H465.923C409.081 702.759 355.474 689.465 306.236 672.52L552.175 445.42C565.316 449.585 579.607 452.818 594.708 454.929H594.726Z" fill="white"/>
<path d="M971.841 671.378C923.017 688.419 869.824 701.845 813.413 710.974L684.557 454.111C699.208 451.771 713.032 448.386 725.687 444.088L971.841 671.378Z" fill="white"/>
<path d="M1169.93 562.573C1143.11 585.623 1111.7 606.829 1076.43 625.771L754.074 431.992C762.775 427.389 770.523 422.292 777.192 416.758L1169.93 562.554V562.573Z" fill="white"/>
<path d="M1280.97 603.786L1169.94 562.554C1190.8 544.658 1208.84 525.658 1223.82 505.727L1278.25 518.812L1280.99 603.786H1280.97Z" fill="white"/>
<path d="M1265.6 424.594C1257.27 452.893 1243.11 480.089 1223.8 505.764L791.605 401.923C796.711 395.21 800.342 388.097 802.284 380.68L1265.6 424.594Z" fill="white"/>
<path d="M1265.6 306.203L800.723 350.269C797.99 342.871 793.55 335.796 787.672 329.177L1223.39 224.5C1242.91 250.327 1257.26 277.714 1265.62 306.222L1265.6 306.203Z" fill="white"/>
<path d="M1168.9 167.369L771.673 314.839C764.572 309.628 756.411 304.835 747.404 300.556L1074.44 103.98C1110.08 122.961 1141.79 144.224 1168.88 167.369H1168.9Z" fill="white"/>
<path d="M968.768 58.3458L718.395 289.439C705.843 285.575 692.285 282.58 677.99 280.59L809.255 14.8164C866.022 23.9164 919.607 41.1119 968.768 58.3458Z" fill="white"/>
<path d="M675.587 6.56624H636.883V5.91992H637.386C650.204 5.91992 662.949 6.12914 675.587 6.56624Z" fill="#2BAAE2"/>
<path d="M1270.93 362.945H804.085C803.815 357.836 802.718 352.822 800.92 347.962C798.187 340.519 793.745 333.4 787.865 326.741C783.352 321.651 777.994 316.83 771.88 312.314C764.777 307.071 756.614 302.249 747.605 297.943C738.794 293.734 729.139 290.002 718.817 286.883C706.266 283.056 692.708 280.09 678.413 278.119C665.197 276.302 651.333 275.326 637.056 275.326V2.17383H634.377V275.345C620.244 275.46 606.56 276.531 593.506 278.425C579.462 280.473 566.156 283.477 553.839 287.323C543.715 290.481 534.239 294.174 525.608 298.384C516.833 302.632 508.868 307.396 501.927 312.562C495.939 317.002 490.671 321.747 486.247 326.76C480.457 333.305 476.07 340.289 473.319 347.599C471.521 352.382 470.406 357.3 470.064 362.313H469.003C469.003 362.6 468.967 362.906 468.949 363.194H470.01C469.956 364.035 469.92 364.897 469.92 365.758C469.92 370.082 470.478 374.349 471.575 378.521C473.588 386.27 477.418 393.695 482.831 400.66C487.02 406.075 492.163 411.223 498.133 416.045C505.182 421.747 513.399 426.97 522.605 431.659C531.596 436.251 541.576 440.308 552.328 443.733C565.473 447.923 579.768 451.176 594.872 453.3C608.34 455.195 622.474 456.209 637.038 456.209C637.632 456.209 638.225 456.209 638.818 456.209V724.022H592.786C607.567 724.615 622.491 724.902 637.524 724.902C645.274 724.902 653.006 724.826 660.702 724.654C713.567 723.582 764.777 718.855 813.597 710.895L684.707 452.459C699.362 450.105 713.189 446.699 725.848 442.374C736.115 438.892 745.645 434.797 754.24 430.204C762.943 425.574 770.693 420.445 777.364 414.877L1170.2 561.566C1191.06 543.56 1209.11 524.444 1224.09 504.391L791.785 399.913C796.892 393.159 800.524 386.002 802.466 378.54C803.581 374.349 804.138 370.082 804.138 365.739C804.138 365.107 804.121 364.476 804.103 363.825H1270.82L1270.91 362.945H1270.93Z" fill="#E94749"/>
<path d="M635.873 401.144C670.512 401.144 698.593 386.038 698.593 367.405C698.593 348.771 670.512 333.666 635.873 333.666C601.233 333.666 573.152 348.771 573.152 367.405C573.152 386.038 601.233 401.144 635.873 401.144Z" fill="white"/>
<path d="M637.6 410.103C681.364 410.103 716.841 391.013 716.841 367.464C716.841 343.914 681.364 324.824 637.6 324.824C593.837 324.824 558.359 343.914 558.359 367.464C558.359 391.013 593.837 410.103 637.6 410.103Z" fill="white"/>
<path d="M637.061 426.477C697.941 426.477 747.294 399.927 747.294 367.177C747.294 334.426 697.941 307.877 637.061 307.877C576.181 307.877 526.828 334.426 526.828 367.177C526.828 399.927 576.181 426.477 637.061 426.477Z" fill="white"/>
<path d="M803.978 367.938C803.978 372.255 803.42 376.496 802.306 380.661C800.364 388.059 796.733 395.191 791.628 401.904C787.691 407.115 782.819 412.098 777.21 416.758C770.541 422.292 762.793 427.389 754.093 431.992C745.5 436.537 735.972 440.607 725.707 444.088C713.052 448.367 699.228 451.771 684.577 454.111C670.825 456.317 656.353 457.591 641.379 457.8C640.48 457.8 639.599 457.8 638.7 457.8C638.107 457.8 637.514 457.8 636.921 457.8C622.36 457.8 608.23 456.792 594.765 454.909C579.665 452.798 565.374 449.565 552.233 445.4C541.483 441.996 531.506 437.964 522.517 433.399C513.295 428.759 505.08 423.548 498.051 417.88C492.083 413.088 486.942 407.971 482.753 402.589C477.342 395.648 473.513 388.268 471.5 380.585C470.403 376.439 469.846 372.217 469.846 367.9C469.846 367.044 469.864 366.207 469.936 365.351C469.936 365.066 469.954 364.761 469.972 364.476C470.313 359.493 471.41 354.587 473.225 349.851C475.976 342.586 480.362 335.644 486.151 329.14C490.573 324.157 495.822 319.44 501.826 315.028C508.765 309.893 516.729 305.158 525.501 300.935C534.13 296.77 543.604 293.081 553.725 289.943C566.039 286.12 579.359 283.134 593.381 281.099C606.432 279.216 620.113 278.151 634.242 278.037C635.141 278.037 636.022 278.037 636.921 278.037C651.194 278.037 665.036 279.007 678.267 280.814C692.558 282.773 706.113 285.721 718.661 289.524C728.997 292.643 738.651 296.333 747.441 300.517C756.447 304.796 764.609 309.589 771.71 314.8C777.822 319.288 783.197 324.081 787.691 329.14C793.587 335.758 798.027 342.833 800.742 350.231C802.54 355.062 803.636 360.045 803.906 365.123C803.924 365.427 803.942 365.712 803.942 365.998C803.96 366.625 803.978 367.253 803.978 367.9V367.938Z" fill="#E94749"/>
<path d="M637.119 2.17383V2.82913H634.437V277.909C620.29 278.024 606.594 279.103 593.527 281.011L462.25 19.6004C517.828 10.5248 576.483 2.1931 637.119 2.17383Z" fill="#E94749"/>
<path d="M636.002 277.104V278.074C621.872 278.189 608.192 279.253 595.141 281.136L609.612 309.988L617.845 326.419L621.998 334.712L636.002 362.593L636.972 364.513L637.008 364.59L637.242 365.046V365.084L637.35 365.274L637.386 365.35V365.388L637.422 365.407L637.512 365.579L637.548 365.655L637.601 365.807H637.619L637.637 365.883V365.921L637.727 366.035L637.997 366.606L638.285 367.195L638.41 367.461L638.662 367.937V277.066C637.763 277.123 636.882 277.123 635.984 277.066L636.002 277.104Z" fill="white"/>
<path d="M473.188 349.889C471.39 354.644 470.276 359.531 469.934 364.514H5.05822L4.96834 365.389H0.582031C0.582031 345.134 3.56616 325.26 9.26475 305.918L473.188 349.889Z" fill="#E94749"/>
<path d="M636.88 365.408H4.96484L5.05473 364.533H469.931C470.272 359.55 471.369 354.644 473.185 349.908L529.092 355.195L560.263 358.143L574.896 359.532L627.622 364.533L631.882 364.933L634.237 365.161H634.507L634.525 365.18L635.208 365.256L635.568 365.294H635.783H635.801H635.855H635.873L636.502 365.351L636.898 365.389L636.88 365.408Z" fill="#E94749"/>
<path d="M501.787 315.066C495.8 319.479 490.533 324.195 486.111 329.178L51.2559 224.69C66.2664 204.759 84.3868 185.76 105.276 167.863L501.787 315.066Z" fill="#E94749"/>
<path d="M105.28 167.863C84.391 185.741 66.2705 204.759 51.26 224.69L-2.65192 211.739L-5.40234 126.783L105.28 167.863Z" fill="white"/>
<path d="M637.386 365.409H636.882L636.541 365.333L636.019 365.219H636.001L635.912 365.2L635.516 365.105H635.426L634.797 364.933L634.186 364.781L633.197 364.534L629.799 363.716L629.044 363.545L580.22 351.811L566.576 348.54L537.597 341.579L486.076 329.198C490.498 324.215 495.748 319.498 501.752 315.086L547.988 332.241L574.108 341.94L586.53 346.562L624.964 360.826L633.952 364.173L634.168 364.249L634.977 364.553L635.157 364.629L636.001 364.952L636.253 365.048H636.271L636.379 365.086L636.667 365.2L636.828 365.257L637.152 365.371L637.332 365.447L637.386 365.409Z" fill="white"/>
<path d="M553.686 289.981C543.565 293.119 534.092 296.79 525.463 300.974L198.953 104.722C230.88 87.5859 265.988 72.3142 303.703 59.1914L553.686 290V289.981Z" fill="#E94749"/>
<path d="M637.603 367.463L636.884 367.938L636.416 367.653L636.057 367.444L635.248 366.949L635.068 366.835L634.96 366.759L634.205 366.302H634.169L634.115 366.226L633.738 366.017L632.677 365.371L632.587 365.313L631.868 364.895L631.203 364.496L629.837 363.678L625.019 360.787L594.117 342.206L583.942 336.082L562.784 323.359L525.482 300.936C534.111 296.771 543.585 293.081 553.706 289.943L581.767 315.846L597.731 330.586L605.568 337.813L634.025 364.096L634.241 364.287L634.457 364.477L634.852 364.857L635.104 365.066L635.23 365.181L635.392 365.352H635.428L635.517 365.466L635.715 365.637L635.859 365.789H635.877L635.913 365.846H635.931L636.093 366.017L636.578 366.455L636.92 366.778L637.027 366.873L637.153 366.987L637.639 367.425L637.603 367.463Z" fill="white"/>
<path d="M809.306 15.0317L678.371 281.011C665.188 279.174 651.359 278.188 637.117 278.188V2.17383H675.734C721.741 3.74 766.438 8.10963 809.306 15.0317Z" fill="#E94749"/>
<path d="M640.479 278.057V277.049C639.598 277.277 638.7 277.448 637.801 277.581V368.585L638.556 367.083L638.664 366.854L638.825 366.512H638.843L639.077 366.036L639.149 365.903L639.257 365.675H639.275L639.311 365.58L639.401 365.39L639.455 365.294L639.473 365.238L639.509 365.162L639.58 365.009L639.634 364.895L639.832 364.515L640.479 363.241L654.807 334.675L659.193 325.945L667.372 309.646L681.826 280.833C668.613 279.027 654.753 278.057 640.479 278.057Z" fill="white"/>
<path d="M643.746 457.61H641.031C640.132 457.382 641.948 457.743 641.031 457.61L641.032 367.082L641.805 368.584L641.913 368.813L642.074 369.155H642.092L642.326 369.63L642.398 369.763L642.506 369.992H642.524L642.56 370.087L642.65 370.277L642.722 370.372L642.74 370.429L642.775 370.505L642.847 370.657L642.919 370.772L643.117 371.152L643.782 372.426L658.307 400.992L662.747 409.721L671.035 426.02L685.686 454.833C672.293 456.64 658.253 457.61 643.8 457.61H643.746Z" fill="white"/>
<path d="M1272.88 341.961L1274.01 365.026H804.053C803.784 359.941 802.688 354.951 800.891 350.113L1265.6 305.982C1269.05 317.791 1271.51 329.79 1272.86 341.961H1272.88Z" fill="#E94749"/>
<path d="M803.886 365.161C803.617 360.083 803.512 354.907 801.714 350.076L745.175 355.538L715.046 358.39L697.105 360.083L643.481 365.161L642.959 365.218L641.341 365.37H641.072L641.054 365.389L640.514 365.446L640.101 365.484H640.029L639.562 365.522L639.256 365.56H638.951L638.933 365.598H638.681L638.645 365.617L636.901 365.788L635.93 365.883H635.877L635.571 365.922H635.535L634.69 365.998L634.223 366.036L803.948 366.03C803.93 365.745 803.904 365.5 803.886 365.215V365.161Z" fill="white"/>
<path d="M1223.39 224.501L787.673 329.178C783.161 324.119 777.803 319.327 771.691 314.839L1168.92 167.369C1190.01 185.342 1208.27 204.455 1223.39 224.501Z" fill="#E94749"/>
<path d="M771.693 314.838C777.805 319.326 783.18 324.119 787.674 329.177L736.441 341.482L708.343 348.234L691.877 352.19L642.027 364.172L641.47 364.305H641.362L641.254 364.362L640.571 364.533L640.086 364.647H640.014L639.744 364.723H639.726L639.583 364.761L638.684 364.97L637.21 365.332L636.922 365.408H636.904L636.311 365.56L635.772 365.693L635.682 365.712H635.664L634.855 365.902L634.226 366.055H633.74L634.226 365.883L635.412 365.446H635.484L635.61 365.37L635.772 365.294H635.79L635.897 365.256L636.005 365.218H636.041L636.437 365.066L636.652 364.989H636.67L636.904 364.894L637.138 364.818L637.875 364.552L638.684 364.248L639.043 364.115L639.349 364L640.32 363.639L640.607 363.544L641.147 363.335H641.165L641.362 363.278L646.036 361.528H646.054L685.549 346.865L700.236 341.407L725.691 331.955L771.675 314.876L771.693 314.838Z" fill="white"/>
<path d="M1280.99 127.633V212.523L1223.37 224.724C1207.66 204.769 1190.74 185.182 1168.87 167.29L1280.99 127.633Z" fill="white"/>
<path d="M1074.45 103.962L747.419 300.537C738.611 296.353 728.957 292.645 718.639 289.545L968.945 58.4316C1006.93 71.5354 1042.27 86.8072 1074.47 103.981L1074.45 103.962Z" fill="#E94749"/>
<path d="M747.424 300.537L710.302 322.846L689.593 335.284L677.873 342.34L646.036 361.472H646.018L641.38 364.268H641.344L641.236 364.363L640.967 364.534L640.913 364.572H640.895L640.733 364.687H640.715L640.104 365.067L639.942 365.162H639.906L639.744 365.295H639.726L639.582 365.39L639.546 365.409L639.277 365.58H639.259L638.719 365.923L638.468 366.075L637.749 366.493H637.731L637.048 366.931L636.94 366.988L636.562 367.216L636.131 367.463L634.261 368.585L633.578 368.11L634.261 367.463L634.477 367.273L635.016 366.778L635.286 366.512H635.304L635.807 366.037L635.933 365.923H635.951L636.077 365.789L636.347 365.542L636.49 365.39L636.526 365.352L636.58 365.295L636.742 365.124L636.904 364.972L636.976 364.915L637.137 364.763L637.425 364.496L637.911 364.04H637.928L637.946 364.021L638.468 363.526L638.683 363.336L638.935 363.108L639.169 362.898L666.278 337.851L674.96 329.845L690.672 315.333L718.644 289.525C728.98 292.644 738.634 296.334 747.424 300.518V300.537Z" fill="white"/>
<path d="M1242.73 2.82152L1074.45 103.962C1042.27 86.8071 1006.91 71.5163 968.93 58.4126L1030.07 1.82422H1244.47L1242.73 2.82152Z" fill="white"/>
<path d="M1273.97 365.02L1274.22 365.288C1274.22 385.448 1271.22 405.322 1265.56 424.569L802.244 380.655C803.359 376.49 803.916 372.249 803.916 367.932C803.916 367.304 803.934 365.666 803.916 365.02H1270.73L1270.57 365.155L1273.97 365.02Z" fill="#E94749"/>
<path d="M803.923 366.093C803.923 365.807 803.883 365.465 803.883 365.18H638.682L639.095 365.218L639.706 365.274H639.724H639.832H640.012L640.389 365.332L641.055 365.408H641.342L643.661 365.655L647.94 366.074L698.274 370.847L716.269 372.559L746.254 375.411L802.287 380.718C803.402 376.553 803.959 372.312 803.959 367.994C803.959 367.367 803.941 366.739 803.923 366.093Z" fill="white"/>
<path d="M1223.8 505.747C1208.84 525.678 1190.78 544.677 1169.93 562.574L777.19 416.778L729.875 399.224L704.941 389.962L690.039 384.428L650.472 369.745H650.436L650.4 369.707L641.574 366.436L641.34 366.36L640.549 366.056L640.333 365.98L639.489 365.657L639.237 365.58H639.219L639.129 365.542L638.841 365.428L638.644 365.352L638.356 365.238L638.158 365.162H638.644L639.003 365.238L639.524 365.352L639.614 365.371L640.01 365.466H640.1L640.747 365.638L641.34 365.77L642.329 366.018L645.69 366.816L646.499 367.007L694.964 378.646L711.647 382.659L739.349 389.316L791.607 401.867L1223.8 505.709V505.747Z" fill="#E94749"/>
<path d="M1247.19 728.396L1032.51 727.388L971.859 671.378C1009.5 658.237 1044.57 642.927 1076.45 625.791L1247.19 728.415V728.396Z" fill="white"/>
<path d="M1076.45 625.771C1044.56 642.926 1009.5 658.236 971.861 671.359L725.707 444.069C735.972 440.607 745.499 436.537 754.092 431.973L1076.45 625.752V625.771Z" fill="#E94749"/>
<path d="M754.07 431.992C745.477 436.537 735.949 440.607 725.685 444.088L696.491 417.138L681.228 403.046L672.348 394.849L641.572 366.435L641.338 366.226L641.14 366.055L640.745 365.674L640.493 365.446L640.367 365.332L640.206 365.161H640.17L640.08 365.047L639.9 364.875H639.882L639.738 364.724H639.702L639.684 364.686L639.523 364.533L639.037 364.096L638.678 363.754L638.57 363.658L638.462 363.563L637.977 363.126L638.66 362.65L639.145 362.935L639.469 363.126L640.314 363.62L640.475 363.735L640.619 363.811L641.356 364.248H641.392L641.446 364.305L641.806 364.514H641.824L642.866 365.161L642.956 365.218L643.675 365.636L644.34 366.055L645.689 366.853L650.452 369.725H650.488L683.296 389.467L695.304 396.674L715.528 408.846L754.088 432.011L754.07 431.992Z" fill="white"/>
<path d="M638.993 457.35V724.312L592.817 723.4C549.057 721.708 506.561 717.526 465.688 711.101L594.909 454.461C608.419 456.343 622.597 457.35 637.207 457.35C637.802 457.35 638.398 457.35 638.993 457.35Z" fill="#E94749"/>
<path d="M465.959 711.697C506.694 718.107 549.065 722.291 592.659 724.002H459.775L465.941 711.697H465.959Z" fill="white"/>
<path d="M638.661 457.838C639.576 457.819 640.469 457.652 641.358 457.652V362.004L640.603 363.506L640.477 363.735L640.315 364.115H640.297L640.082 364.534L640.01 364.667L639.902 364.895L639.83 364.99L639.74 365.18L639.686 365.275L639.668 365.351L639.632 365.427L639.56 365.561L639.488 365.675L639.309 366.074L638.661 367.348L622.105 400.346L617.88 408.79L609.899 424.689L594.727 454.948C608.191 456.83 622.321 457.838 636.882 457.838C637.475 457.838 638.068 457.838 638.661 457.838Z" fill="white"/>
<path d="M471.462 380.623L9.13892 424.442C6.02896 413.829 3.72795 403.103 2.32577 392.186V392.11C1.71456 387.337 1.21121 382.221 0.905611 376.781C0.689892 372.825 0.582031 369.022 0.582031 365.408H469.88C469.809 366.245 469.79 367.101 469.79 367.957C469.79 372.255 470.348 376.496 471.444 380.642L471.462 380.623Z" fill="#E94749"/>
<path d="M469.609 364.514C469.501 364.799 469.393 365.103 469.285 365.388H469.896C469.842 366.225 469.806 367.081 469.806 367.937C469.806 372.235 470.364 376.476 471.46 380.622L527.853 375.278L558.881 372.35L573.478 370.961L632.064 365.407L632.567 365.35L634.203 365.199H634.473L634.491 365.18L635.048 365.122L635.425 365.084H635.515L635.983 365.027H636.288L636.324 365.008L636.612 364.97H636.863L636.935 364.951L638.661 364.78L639.65 364.685H639.668H639.686H639.991L640.027 364.647H640.045L640.854 364.571H640.872L641.304 364.533H469.555L469.609 364.514Z" fill="white"/>
<path d="M106.241 563.564L-8.97852 603.517L-6.01273 517.96L51.321 506.426C67.6425 526.632 83.4842 545.445 106.261 563.564H106.241Z" fill="white"/>
<path d="M498.013 417.918L105.924 563.467C84.8014 545.475 66.5191 526.342 51.3828 506.278L482.715 402.627C486.903 408.009 492.044 413.125 498.013 417.918Z" fill="#E94749"/>
<path d="M641.862 364.514H641.844L641.359 364.704L640.19 365.141H640.118L639.975 365.218L639.831 365.274L639.687 365.331L639.561 365.369L639.525 365.388L639.166 365.522L638.95 365.598H638.932L638.68 365.693L638.5 365.769H638.482L637.745 366.035L636.901 366.358L636.559 366.492L636.217 366.606L635.247 366.967L634.959 367.081L634.42 367.271L634.204 367.347L629.512 369.097H629.494L583.672 386.119L571.232 390.74L545.561 400.269L498.013 417.918C492.045 413.125 486.903 408.009 482.715 402.627L535.279 389.998L563.861 383.133L577.56 379.843L633.521 366.396L634.078 366.263H634.186L634.294 366.206L634.977 366.035L635.48 365.921H635.516L635.804 365.845L636.002 365.807L636.865 365.598L638.357 365.237L638.626 365.16H638.644L639.273 365.008L639.777 364.894H639.867L639.885 364.875L640.676 364.685H640.694L641.323 364.533H641.826L641.862 364.514Z" fill="white"/>
<path d="M306.253 672.519L247.541 726.722L32.8281 727.73L200.532 626.932C232.764 644.105 268.196 659.415 306.235 672.519H306.253Z" fill="white"/>
<path d="M552.192 445.419L306.253 672.519C268.197 659.415 232.765 644.124 200.551 626.931L522.495 433.418C531.483 437.982 541.46 442.014 552.21 445.419H552.192Z" fill="#E94749"/>
<path d="M642.058 362.461L641.339 363.127L641.142 363.298H641.124L640.602 363.812L640.297 364.097H640.279L639.847 364.515L639.685 364.648L639.667 364.686L639.578 364.762L639.308 365.009L639.146 365.162L639.11 365.2L639.056 365.238L638.894 365.409L638.697 365.58L638.661 365.618L638.517 365.77H638.499L638.229 366.037L637.744 366.455H637.726L637.169 367.006L636.935 367.215L636.683 367.444L636.468 367.634L604.973 396.713L597.027 404.035L581.495 418.356L552.229 445.382C541.479 441.977 531.502 437.945 522.514 433.381L561.199 410.121L581.873 397.702L592.155 391.521L629.511 369.06H629.529L634.185 366.265H634.221L634.328 366.17L634.598 365.998L634.688 365.96L634.85 365.846L635.497 365.466L635.641 365.39H635.677L635.838 365.256H635.856L635.982 365.181L636 365.162L636.324 364.99H636.342L636.881 364.648L637.133 364.496L637.888 364.039H637.906L637.924 364.02L638.553 363.621L638.661 363.564L639.038 363.336L639.452 363.07L641.339 361.947L642.058 362.423V362.461Z" fill="white"/>
<path d="M701.35 363.109C701.35 364.116 701.139 365.105 700.716 366.077C699.98 367.803 698.603 369.467 696.667 371.033C695.174 372.249 693.327 373.412 691.2 374.499C688.671 375.79 685.733 376.979 682.434 378.053C679.176 379.113 675.563 380.063 671.67 380.875C666.871 381.873 661.629 382.667 656.074 383.213C650.859 383.728 645.372 384.025 639.693 384.074C639.352 384.074 639.018 384.074 638.678 384.074C638.453 384.074 638.228 384.074 638.003 384.074C632.481 384.074 627.123 383.839 622.018 383.399C616.292 382.907 610.872 382.153 605.889 381.181C601.813 380.387 598.03 379.446 594.621 378.381C591.124 377.298 588.009 376.083 585.344 374.76C583.081 373.642 581.131 372.449 579.543 371.193C577.491 369.573 576.039 367.852 575.276 366.059C574.86 365.092 574.648 364.107 574.648 363.1C574.648 362.9 574.655 362.705 574.683 362.505C574.683 362.439 574.689 362.368 574.696 362.301C574.826 361.139 575.241 359.994 575.93 358.889C576.973 357.194 578.636 355.575 580.831 354.057C582.508 352.895 584.499 351.794 586.775 350.765C589.407 349.567 592.426 348.462 595.753 347.477C599.025 346.505 602.617 345.644 606.455 344.912C611.125 344.021 616.176 343.324 621.493 342.849C626.442 342.41 631.629 342.161 636.987 342.135C637.328 342.135 637.662 342.135 638.003 342.135C643.415 342.135 648.664 342.361 653.681 342.783C659.1 343.24 664.24 343.927 668.998 344.815C672.918 345.542 676.578 346.403 679.912 347.379C683.327 348.378 686.422 349.496 689.114 350.712C691.432 351.759 693.47 352.877 695.174 354.057C697.41 355.601 699.094 357.252 700.123 358.978C700.805 360.105 701.221 361.267 701.323 362.452C701.33 362.523 701.337 362.59 701.337 362.656C701.343 362.803 701.35 362.949 701.35 363.1V363.109Z" fill="#E94749"/>
</g>
<defs>
<clipPath id="clip0_466_476">
<rect width="1275" height="724" fill="white"/>
</clipPath>
</defs>
</svg>
