<svg width="1895" height="720" viewBox="0 0 1895 720" fill="none" xmlns="http://www.w3.org/2000/svg">
<path d="M0 0L931.583 0.729239L1189 720H0V0Z" fill="#E94749"/>
<path d="M1598.2 147.5L1693.36 243V147.172L1598.2 147.5Z" fill="#F2BED9"/>
<path d="M1698.05 147.5L1793.24 243V147.172L1698.05 147.5Z" fill="#F2BED9"/>
<path d="M1799.49 147.5L1894.68 243V147.172L1799.49 147.5Z" fill="#F2BED9"/>
<path d="M1598.2 147.5L1693.36 52V147.856L1598.2 147.5Z" fill="#F2BED9"/>
<path d="M1698.05 147.5L1793.24 52V147.856L1698.05 147.5Z" fill="#F2BED9"/>
<path d="M1799.49 147.5L1894.68 52V147.856L1799.49 147.5Z" fill="#F2BED9"/>
<path d="M903.354 147.5L998.544 243V147.172L903.354 147.5Z" fill="#F2BED9"/>
<path d="M1004.8 147.5L1100 243V147.172L1004.8 147.5Z" fill="#F2BED9"/>
<path d="M1104.65 147.5L1199.84 243V147.172L1104.65 147.5Z" fill="#F2BED9"/>
<path d="M1199.92 147.5L1295.11 243V147.172L1199.92 147.5Z" fill="#F2BED9"/>
<path d="M1299.8 147.5L1394.96 243V147.172L1299.8 147.5Z" fill="#F2BED9"/>
<path d="M1401.24 147.5L1496.41 243V147.172L1401.24 147.5Z" fill="#F2BED9"/>
<path d="M1501.09 147.5L1596.28 243V147.172L1501.09 147.5Z" fill="#F2BED9"/>
<path d="M903.354 147.5L998.544 52V147.856L903.354 147.5Z" fill="#F2BED9"/>
<path d="M806.064 147.5L901.255 243V147.172L806.064 147.5Z" fill="#F2BED9"/>
<path d="M806.064 147.5L901.255 52V147.856L806.064 147.5Z" fill="#F2BED9"/>
<path d="M710.684 147.5L805.874 52V147.856L710.684 147.5Z" fill="#F2BED9"/>
<path d="M710.285 147.5L805.476 243V147.172L710.285 147.5Z" fill="#F2BED9"/>
<path d="M616 147.5L711.191 243V147.172L616 147.5Z" fill="#F2BED9"/>
<path d="M616 147.5L711.191 52V147.856L616 147.5Z" fill="#F2BED9"/>
<path d="M1004.8 147.5L1100 52V147.856L1004.8 147.5Z" fill="#F2BED9"/>
<path d="M1104.65 147.5L1199.84 52V147.856L1104.65 147.5Z" fill="#F2BED9"/>
<path d="M1199.92 147.5L1295.11 52V147.856L1199.92 147.5Z" fill="#F2BED9"/>
<path d="M1299.8 147.5L1394.96 52V147.856L1299.8 147.5Z" fill="#F2BED9"/>
<path d="M1401.24 147.5L1496.41 52V147.856L1401.24 147.5Z" fill="#F2BED9"/>
<path d="M1501.09 147.5L1596.28 52V147.856L1501.09 147.5Z" fill="#F2BED9"/>
<path d="M306.515 364.821L211.324 270V365.147L306.515 364.821Z" fill="#F2BED9"/>
<path d="M206.634 364.821L111.443 270V365.147L206.634 364.821Z" fill="#F2BED9"/>
<path d="M105.191 364.821L10 270V365.147L105.191 364.821Z" fill="#F2BED9"/>
<path d="M306.515 364.793L211.324 459.586V364.467L306.515 364.793Z" fill="#F2BED9"/>
<path d="M206.634 364.793L111.443 459.586V364.467L206.634 364.793Z" fill="#F2BED9"/>
<path d="M105.191 364.793L10 459.586V364.467L105.191 364.793Z" fill="#F2BED9"/>
<path d="M1001.33 366.233L906.166 271.412V366.559L1001.33 366.233Z" fill="#F2BED9"/>
<path d="M899.885 366.233L804.721 271.412V366.559L899.885 366.233Z" fill="#F2BED9"/>
<path d="M800.032 366.233L704.842 271.412V366.559L800.032 366.233Z" fill="#F2BED9"/>
<path d="M704.763 366.233L609.572 271.412V366.559L704.763 366.233Z" fill="#F2BED9"/>
<path d="M604.915 366.233L509.725 271.412V366.559L604.915 366.233Z" fill="#F2BED9"/>
<path d="M503.466 366.233L408.275 271.412V366.559L503.466 366.233Z" fill="#F2BED9"/>
<path d="M403.589 366.233L308.398 271.412V366.559L403.589 366.233Z" fill="#F2BED9"/>
<path d="M1001.33 366.207L906.166 461V365.881L1001.33 366.207Z" fill="#F2BED9"/>
<path d="M899.885 366.207L804.721 461V365.881L899.885 366.207Z" fill="#F2BED9"/>
<path d="M800.032 366.207L704.842 461V365.881L800.032 366.207Z" fill="#F2BED9"/>
<path d="M1200.04 365.903L1104.88 271.082V366.229L1200.04 365.903Z" fill="#F2BED9"/>
<path d="M1100.19 365.903L1005 271.082V366.229L1100.19 365.903Z" fill="#F2BED9"/>
<path d="M1200.04 365.875L1104.88 460.668V365.549L1200.04 365.875Z" fill="#F2BED9"/>
<path d="M1100.19 365.875L1005 460.668V365.549L1100.19 365.875Z" fill="#F2BED9"/>
<path d="M704.763 366.207L609.572 461V365.881L704.763 366.207Z" fill="#F2BED9"/>
<path d="M604.915 366.207L509.725 461V365.881L604.915 366.207Z" fill="#F2BED9"/>
<path d="M503.466 366.207L408.275 461V365.881L503.466 366.207Z" fill="#F2BED9"/>
<path d="M403.589 366.207L308.398 461V365.881L403.589 366.207Z" fill="#F2BED9"/>
<path d="M135.465 120.358H107.675V212.01H69.2097V120.358H41.3926V84.7812H135.465V120.358Z" fill="#FBFBFB"/>
<path d="M260.256 160.489H183.353C184.045 168.317 185.722 174.155 188.357 177.973C192.057 183.49 196.902 186.25 202.865 186.25C206.645 186.25 210.212 185.063 213.619 182.657C215.695 181.149 217.931 178.454 220.3 174.637L258.1 179.063C252.323 191.831 245.349 201.006 237.177 206.556C229.005 212.106 217.292 214.897 202.013 214.897C188.756 214.897 178.322 212.523 170.735 207.775C163.122 203.027 156.84 195.488 151.836 185.126C146.831 174.797 144.355 162.638 144.355 148.652C144.355 128.762 149.36 112.658 159.395 100.372C169.404 88.0851 183.246 81.9258 200.921 81.9258C215.243 81.9258 226.556 84.6845 234.861 90.2022C243.166 95.72 249.475 103.708 253.814 114.166C258.153 124.624 260.309 138.258 260.309 155.035V160.554L260.256 160.489ZM221.232 137.135C220.487 127.704 218.49 120.967 215.243 116.893C211.995 112.819 207.763 110.766 202.465 110.766C196.37 110.766 191.498 113.845 187.851 120.005C185.536 123.854 184.045 129.564 183.433 137.135H221.232Z" fill="#FBFBFB"/>
<path d="M312.857 126.003L276.203 121.094C277.587 112.946 279.583 106.53 282.192 101.878C284.801 97.1948 288.554 93.1526 293.452 89.7201C296.966 87.25 301.81 85.3254 307.959 83.9781C314.108 82.6307 320.79 81.957 327.95 81.957C339.45 81.957 348.687 82.7587 355.661 84.4269C362.635 86.0629 368.438 89.4636 373.097 94.6605C376.371 98.2535 378.926 103.354 380.816 109.931C382.706 116.507 383.638 122.795 383.638 128.794V184.997C383.638 190.996 383.931 195.68 384.543 199.081C385.129 202.481 386.433 206.812 388.456 212.073H352.44C351.003 208.801 350.044 206.298 349.619 204.598C349.166 202.866 348.74 200.171 348.288 196.514C343.257 202.673 338.252 207.068 333.301 209.699C326.513 213.228 318.634 214.96 309.636 214.96C297.711 214.96 288.634 211.431 282.458 204.406C276.256 197.38 273.168 188.719 273.168 178.421C273.168 168.765 275.404 160.809 279.849 154.586C284.321 148.362 292.547 143.711 304.552 140.695C318.953 137.038 328.27 134.439 332.556 132.964C336.815 131.488 341.34 129.563 346.131 127.157C346.131 121.158 345.147 116.988 343.203 114.582C341.26 112.176 337.826 110.989 332.928 110.989C326.646 110.989 321.935 112.272 318.793 114.807C316.344 116.796 314.375 120.549 312.857 126.067V126.003ZM346.131 151.634C340.861 154.04 335.351 156.158 329.627 157.986C321.828 160.617 316.903 163.215 314.827 165.782C312.698 168.412 311.633 171.395 311.633 174.764C311.633 178.613 312.698 181.725 314.801 184.163C316.903 186.601 319.991 187.821 324.091 187.821C328.19 187.821 332.343 186.505 336.016 183.874C339.69 181.244 342.298 178.036 343.842 174.219C345.386 170.433 346.158 165.493 346.158 159.43V151.634H346.131Z" fill="#FBFBFB"/>
<path d="M490.994 120.358H463.204V212.01H424.739V120.358H396.922V84.7812H490.994V120.358Z" fill="#FBFBFB"/>
<path d="M504.834 260.418V84.7809H540.743V103.58C545.695 95.688 550.273 90.3307 554.399 87.5398C559.989 83.7864 566.191 81.9258 572.979 81.9258C586.369 81.9258 596.724 88.4379 604.044 101.462C611.364 114.487 615.011 130.591 615.011 149.743C615.011 170.915 611.018 187.051 603.033 198.215C595.047 209.347 584.958 214.929 572.766 214.929C566.857 214.929 561.48 213.646 556.609 211.079C551.737 208.513 547.398 204.727 543.565 199.691V260.45H504.834V260.418ZM543.299 148.748C543.299 158.821 544.949 166.296 548.303 171.14C551.657 175.984 555.837 178.454 560.947 178.454C565.42 178.454 569.146 176.112 572.154 171.429C575.162 166.745 576.679 158.821 576.679 147.657C576.679 137.36 575.109 129.789 571.968 124.945C568.827 120.101 564.994 117.695 560.468 117.695C555.57 117.695 551.471 120.133 548.223 125.009C544.976 129.885 543.325 137.777 543.325 148.716L543.299 148.748Z" fill="#FBFBFB"/>
<path d="M1338.05 429.619H1299.69V337.967H1270.57V391.348C1270.57 405.591 1268.28 416.146 1263.72 423.011C1259.17 429.876 1252.17 433.34 1242.75 433.34C1232.07 433.34 1222.49 432.09 1214 429.619V393.562C1218.53 395.326 1221.99 396.192 1224.35 396.192C1229.52 396.192 1232.07 391.316 1232.07 381.564V302.391H1338.02V429.619H1338.05Z" fill="#FBFBFB"/>
<path d="M1473.03 429.619H1436.75V367.032L1399.11 429.619H1362.59V302.391H1398.87V365.845L1436.91 302.391H1473.06V429.619H1473.03Z" fill="#FBFBFB"/>
<path d="M1610.63 429.619H1572.16V381.564H1537.29V429.619H1498.83V302.391H1537.29V345.987H1572.16V302.391H1610.63V429.619Z" fill="#FBFBFB"/>
<path d="M1746.92 429.619H1710.64V367.032L1673 429.619H1636.48V302.391H1672.76V365.845L1710.8 302.391H1746.95V429.619H1746.92Z" fill="#FBFBFB"/>
<path d="M1883.21 429.621H1846.93V367.033L1809.29 429.621H1772.77V302.392H1809.05V365.846L1847.09 302.392H1883.24V429.621H1883.21ZM1858.88 251C1858.69 262.581 1855.53 271.499 1849.35 277.723C1843.2 283.946 1835.88 287.058 1827.39 287.058C1817.46 287.058 1809.71 283.882 1804.1 277.53C1798.51 271.178 1795.34 262.324 1794.57 251H1810.78C1812.67 259.469 1817.94 263.703 1826.62 263.703C1831.38 263.703 1835.13 262.87 1837.88 261.169C1840.62 259.469 1842.45 256.101 1843.39 251.032H1858.85L1858.88 251Z" fill="#FBFBFB"/>
<path d="M154.072 649.354H117.79V586.766L80.1506 649.354H43.6289V522.125H79.911V585.579L117.95 522.125H154.099V649.354H154.072Z" fill="#FBFBFB"/>
<path d="M243.139 697.731V522.093H279.048V540.892C283.999 533.001 288.578 527.643 292.704 524.852C298.294 521.099 304.496 519.238 311.284 519.238C324.674 519.238 335.028 525.75 342.349 538.775C349.669 551.799 353.316 567.903 353.316 587.055C353.316 608.228 349.323 624.364 341.337 635.528C333.351 646.659 323.263 652.241 311.071 652.241C305.162 652.241 299.785 650.958 294.913 648.392C290.042 645.825 285.703 642.04 281.87 637.003V697.763H243.139V697.731ZM281.577 586.093C281.577 596.166 283.227 603.641 286.581 608.485C289.909 613.361 294.115 615.799 299.199 615.799C303.671 615.799 307.398 613.457 310.406 608.773C313.414 604.09 314.931 596.166 314.931 585.002C314.931 574.704 313.36 567.134 310.219 562.29C307.078 557.446 303.245 555.039 298.72 555.039C293.822 555.039 289.722 557.478 286.475 562.354C283.201 567.23 281.577 575.122 281.577 586.061V586.093Z" fill="#FBFBFB"/>
<path d="M483.486 649.354H447.204V586.766L409.565 649.354H373.043V522.125H409.325V585.579L447.364 522.125H483.513V649.354H483.486Z" fill="#FBFBFB"/>
<path d="M592.328 557.67H564.538V649.323H526.073V557.67H498.256V522.094H592.328V557.67Z" fill="#FBFBFB"/>
<path d="M744.726 649.354H712.304V569.475L688.613 649.354H665.507L639.713 569.475V649.354H607.291V522.125H653.05L677.087 595.267L698.968 522.125H744.7V649.354H744.726Z" fill="#FBFBFB"/>
<path d="M764.609 586.093C764.609 566.684 769.747 550.677 780.075 538.101C790.377 525.526 804.299 519.238 821.814 519.238C841.859 519.238 857.005 526.617 867.253 541.406C875.479 553.307 879.605 567.968 879.605 585.387C879.605 604.956 874.494 620.996 864.299 633.507C854.103 646.018 839.969 652.241 821.921 652.241C805.843 652.241 792.826 647.044 782.897 636.65C770.705 623.786 764.609 606.944 764.609 586.093ZM803.074 585.965C803.074 597.321 804.884 605.694 808.505 611.115C812.125 616.536 816.65 619.263 822.134 619.263C827.617 619.263 832.196 616.601 835.763 611.243C839.303 605.886 841.087 597.321 841.087 585.483C841.087 574.448 839.303 566.235 835.71 560.846C832.116 555.456 827.697 552.762 822.426 552.762C816.836 552.762 812.205 555.489 808.558 560.974C804.911 566.46 803.101 574.769 803.101 585.965H803.074Z" fill="#FBFBFB"/>
<path d="M973.574 581.633C981.187 582.596 987.23 585.772 991.729 591.225C996.227 596.647 998.463 603.928 998.463 613.039C998.463 625.197 995.322 634.276 989.04 640.307C982.758 646.338 971.471 649.354 955.207 649.354H898.082V522.125H959.812C970.992 522.125 979.537 524.852 985.393 530.273C991.276 535.727 994.204 543.33 994.204 553.082C994.204 559.979 992.288 565.946 988.454 571.047C984.621 576.115 979.644 579.516 973.574 581.184V581.665V581.633ZM936.44 570.63H946.156C952.572 570.63 955.766 566.908 955.766 559.434C955.766 553.403 952.359 550.387 945.597 550.387H936.467V570.63H936.44ZM936.44 619.391H949.058C952.199 619.391 954.754 618.461 956.698 616.632C958.641 614.804 959.626 612.109 959.626 608.612C959.626 600.945 956.112 597.096 949.058 597.096H936.44V619.391Z" fill="#FBFBFB"/>
<path d="M1598.4 586.207L1693.56 681V585.854L1598.4 586.207Z" fill="#F2BED9"/>
<path d="M1698.25 586.207L1793.44 681V585.854L1698.25 586.207Z" fill="#F2BED9"/>
<path d="M1799.69 586.207L1894.88 681V585.854L1799.69 586.207Z" fill="#F2BED9"/>
<path d="M1598.4 586.206L1693.56 491.412V586.532L1598.4 586.206Z" fill="#F2BED9"/>
<path d="M1698.25 586.206L1793.44 491.412V586.532L1698.25 586.206Z" fill="#F2BED9"/>
<path d="M1799.69 586.206L1894.88 491.412V586.532L1799.69 586.206Z" fill="#F2BED9"/>
<path d="M1005 584.795L1100.19 679.588V584.441L1005 584.795Z" fill="#F2BED9"/>
<path d="M1104.85 584.795L1200.04 679.588V584.441L1104.85 584.795Z" fill="#F2BED9"/>
<path d="M1200.12 584.795L1295.31 679.588V584.441L1200.12 584.795Z" fill="#F2BED9"/>
<path d="M1300 584.795L1395.16 679.588V584.441L1300 584.795Z" fill="#F2BED9"/>
<path d="M1401.44 584.795L1496.61 679.588V584.441L1401.44 584.795Z" fill="#F2BED9"/>
<path d="M1501.29 584.795L1596.48 679.588V584.441L1501.29 584.795Z" fill="#F2BED9"/>
<path d="M1005 584.794L1100.19 490V585.12L1005 584.794Z" fill="#F2BED9"/>
<path d="M1104.85 584.794L1200.04 490V585.12L1104.85 584.794Z" fill="#F2BED9"/>
<path d="M1200.12 584.794L1295.31 490V585.12L1200.12 584.794Z" fill="#F2BED9"/>
<path d="M1300 584.794L1395.16 490V585.12L1300 584.794Z" fill="#F2BED9"/>
<path d="M1401.44 584.794L1496.61 490V585.12L1401.44 584.794Z" fill="#F2BED9"/>
<path d="M1501.29 584.794L1596.48 490V585.12L1501.29 584.794Z" fill="#F2BED9"/>
</svg>
