<svg width="1287" height="1060" viewBox="0 0 1287 1060" fill="none" xmlns="http://www.w3.org/2000/svg">
<rect width="1287" height="1060" fill="#F2BED9"/>
<path d="M183.5 834C250.05 834 304 770.872 304 693C304 615.128 250.05 552 183.5 552C116.95 552 63 615.128 63 693C63 770.872 116.95 834 183.5 834Z" fill="#F71E1E"/>
<path d="M513.5 605C580.603 605 635 541.424 635 463C635 384.576 580.603 321 513.5 321C446.397 321 392 384.576 392 463C392 541.424 446.397 605 513.5 605Z" fill="#FF79B6"/>
<path d="M789.5 837C856.603 837 911 774.096 911 696.5C911 618.904 856.603 556 789.5 556C722.397 556 668 618.904 668 696.5C668 774.096 722.397 837 789.5 837Z" fill="#AD1717"/>
<path d="M1107.5 647C1174.05 647 1228 583.872 1228 506C1228 428.128 1174.05 365 1107.5 365C1040.95 365 987 428.128 987 506C987 583.872 1040.95 647 1107.5 647Z" fill="white"/>
<path d="M192 794H174V1055H192V794Z" fill="#F71E1E"/>
<path d="M524 558H504V1054H524V558Z" fill="#FF79B6"/>
<path d="M799 826H780V1055H799V826Z" fill="#AD1717"/>
<path d="M1117 613H1098V1054H1117V613Z" fill="white"/>
<path d="M492.772 428.181V497.999H484.318V437.045H483.909L466.863 448.363V439.772L484.318 428.181H492.772Z" fill="black"/>
<path d="M535.625 498.954C530.488 498.954 526.113 497.556 522.5 494.761C518.886 491.942 516.125 487.863 514.216 482.522C512.306 477.158 511.352 470.681 511.352 463.09C511.352 455.545 512.306 449.102 514.216 443.761C516.147 438.397 518.92 434.306 522.534 431.488C526.17 428.647 530.534 427.227 535.625 427.227C540.716 427.227 545.068 428.647 548.681 431.488C552.318 434.306 555.091 438.397 557 443.761C558.931 449.102 559.897 455.545 559.897 463.09C559.897 470.681 558.943 477.158 557.034 482.522C555.125 487.863 552.363 491.942 548.75 494.761C545.136 497.556 540.761 498.954 535.625 498.954ZM535.625 491.454C540.716 491.454 544.67 488.999 547.488 484.09C550.306 479.181 551.716 472.181 551.716 463.09C551.716 457.045 551.068 451.897 549.772 447.647C548.5 443.397 546.659 440.158 544.25 437.931C541.863 435.704 538.988 434.59 535.625 434.59C530.579 434.59 526.636 437.079 523.795 442.056C520.954 447.011 519.534 454.022 519.534 463.09C519.534 469.136 520.17 474.272 521.443 478.499C522.716 482.727 524.545 485.942 526.931 488.147C529.341 490.352 532.238 491.454 535.625 491.454Z" fill="black"/>
<path d="M764.772 662.181V731.999H756.318V671.045H755.909L738.863 682.363V673.772L756.318 662.181H764.772Z" fill="black"/>
<path d="M807.625 732.954C802.488 732.954 798.113 731.556 794.5 728.761C790.886 725.942 788.125 721.863 786.216 716.522C784.306 711.158 783.352 704.681 783.352 697.09C783.352 689.545 784.306 683.102 786.216 677.761C788.147 672.397 790.92 668.306 794.534 665.488C798.17 662.647 802.534 661.227 807.625 661.227C812.716 661.227 817.068 662.647 820.681 665.488C824.318 668.306 827.091 672.397 829 677.761C830.931 683.102 831.897 689.545 831.897 697.09C831.897 704.681 830.943 711.158 829.034 716.522C827.125 721.863 824.363 725.942 820.75 728.761C817.136 731.556 812.761 732.954 807.625 732.954ZM807.625 725.454C812.716 725.454 816.67 722.999 819.488 718.09C822.306 713.181 823.716 706.181 823.716 697.09C823.716 691.045 823.068 685.897 821.772 681.647C820.5 677.397 818.659 674.158 816.25 671.931C813.863 669.704 810.988 668.59 807.625 668.59C802.579 668.59 798.636 671.079 795.795 676.056C792.954 681.011 791.534 688.022 791.534 697.09C791.534 703.136 792.17 708.272 793.443 712.499C794.716 716.727 796.545 719.942 798.931 722.147C801.341 724.352 804.238 725.454 807.625 725.454Z" fill="black"/>
<path d="M159.772 662.181V731.999H151.318V671.045H150.909L133.863 682.363V673.772L151.318 662.181H159.772Z" fill="black"/>
<path d="M202.625 732.954C197.488 732.954 193.113 731.556 189.5 728.761C185.886 725.942 183.125 721.863 181.216 716.522C179.306 711.158 178.352 704.681 178.352 697.09C178.352 689.545 179.306 683.102 181.216 677.761C183.147 672.397 185.92 668.306 189.534 665.488C193.17 662.647 197.534 661.227 202.625 661.227C207.716 661.227 212.068 662.647 215.681 665.488C219.318 668.306 222.091 672.397 224 677.761C225.931 683.102 226.897 689.545 226.897 697.09C226.897 704.681 225.943 711.158 224.034 716.522C222.125 721.863 219.363 725.942 215.75 728.761C212.136 731.556 207.761 732.954 202.625 732.954ZM202.625 725.454C207.716 725.454 211.67 722.999 214.488 718.09C217.306 713.181 218.716 706.181 218.716 697.09C218.716 691.045 218.068 685.897 216.772 681.647C215.5 677.397 213.659 674.158 211.25 671.931C208.863 669.704 205.988 668.59 202.625 668.59C197.579 668.59 193.636 671.079 190.795 676.056C187.954 681.011 186.534 688.022 186.534 697.09C186.534 703.136 187.17 708.272 188.443 712.499C189.716 716.727 191.545 719.942 193.931 722.147C196.341 724.352 199.238 725.454 202.625 725.454Z" fill="black"/>
<path d="M1086.77 471.181V540.999H1078.32V480.045H1077.91L1060.86 491.363V482.772L1078.32 471.181H1086.77Z" fill="black"/>
<path d="M1129.62 541.954C1124.49 541.954 1120.11 540.556 1116.5 537.761C1112.89 534.942 1110.12 530.863 1108.22 525.522C1106.31 520.158 1105.35 513.681 1105.35 506.09C1105.35 498.545 1106.31 492.102 1108.22 486.761C1110.15 481.397 1112.92 477.306 1116.53 474.488C1120.17 471.647 1124.53 470.227 1129.62 470.227C1134.72 470.227 1139.07 471.647 1142.68 474.488C1146.32 477.306 1149.09 481.397 1151 486.761C1152.93 492.102 1153.9 498.545 1153.9 506.09C1153.9 513.681 1152.94 520.158 1151.03 525.522C1149.12 530.863 1146.36 534.942 1142.75 537.761C1139.14 540.556 1134.76 541.954 1129.62 541.954ZM1129.62 534.454C1134.72 534.454 1138.67 531.999 1141.49 527.09C1144.31 522.181 1145.72 515.181 1145.72 506.09C1145.72 500.045 1145.07 494.897 1143.77 490.647C1142.5 486.397 1140.66 483.158 1138.25 480.931C1135.86 478.704 1132.99 477.59 1129.62 477.59C1124.58 477.59 1120.64 480.079 1117.8 485.056C1114.95 490.011 1113.53 497.022 1113.53 506.09C1113.53 512.136 1114.17 517.272 1115.44 521.499C1116.72 525.727 1118.55 528.942 1120.93 531.147C1123.34 533.352 1126.24 534.454 1129.62 534.454Z" fill="black"/>
<path d="M152.74 293.89C157.015 293.89 160.48 290.425 160.48 286.15C160.48 281.875 157.015 278.41 152.74 278.41C148.465 278.41 145 281.875 145 286.15C145 290.425 148.465 293.89 152.74 293.89Z" fill="#F71E1E"/>
<path d="M326.371 182.32C330.325 182.32 333.531 179.114 333.531 175.16C333.531 171.206 330.325 168 326.371 168C322.417 168 319.211 171.206 319.211 175.16C319.211 179.114 322.417 182.32 326.371 182.32Z" fill="#F71E1E"/>
<path d="M289.16 416.32C293.114 416.32 296.32 413.114 296.32 409.16C296.32 405.206 293.114 402 289.16 402C285.206 402 282 405.206 282 409.16C282 413.114 285.206 416.32 289.16 416.32Z" fill="#F71E1E"/>
<path d="M576.39 230.539C580.345 230.539 583.55 227.333 583.55 223.379C583.55 219.424 580.345 216.219 576.39 216.219C572.436 216.219 569.23 219.424 569.23 223.379C569.23 227.333 572.436 230.539 576.39 230.539Z" fill="white"/>
<path d="M52.16 448.32C56.1144 448.32 59.32 445.114 59.32 441.16C59.32 437.206 56.1144 434 52.16 434C48.2056 434 45 437.206 45 441.16C45 445.114 48.2056 448.32 52.16 448.32Z" fill="white"/>
<path d="M58.16 148.32C62.1144 148.32 65.32 145.114 65.32 141.16C65.32 137.206 62.1144 134 58.16 134C54.2056 134 51 137.206 51 141.16C51 145.114 54.2056 148.32 58.16 148.32Z" fill="white"/>
<path d="M892.16 76.32C896.114 76.32 899.32 73.1144 899.32 69.16C899.32 65.2056 896.114 62 892.16 62C888.206 62 885 65.2056 885 69.16C885 73.1144 888.206 76.32 892.16 76.32Z" fill="white"/>
<path d="M1221.16 399.32C1225.11 399.32 1228.32 396.114 1228.32 392.16C1228.32 388.206 1225.11 385 1221.16 385C1217.21 385 1214 388.206 1214 392.16C1214 396.114 1217.21 399.32 1221.16 399.32Z" fill="white"/>
<path d="M828.74 455.48C833.015 455.48 836.48 452.015 836.48 447.74C836.48 443.465 833.015 440 828.74 440C824.465 440 821 443.465 821 447.74C821 452.015 824.465 455.48 828.74 455.48Z" fill="#F71E1E"/>
<path d="M460.16 708.101C464.114 708.101 467.32 704.896 467.32 700.941C467.32 696.987 464.114 693.781 460.16 693.781C456.206 693.781 453 696.987 453 700.941C453 704.896 456.206 708.101 460.16 708.101Z" fill="#F71E1E"/>
<path d="M747.39 522.32C751.345 522.32 754.55 519.114 754.55 515.16C754.55 511.206 751.345 508 747.39 508C743.436 508 740.23 511.206 740.23 515.16C740.23 519.114 743.436 522.32 747.39 522.32Z" fill="white"/>
<path d="M304.16 884.32C308.114 884.32 311.32 881.114 311.32 877.16C311.32 873.206 308.114 870 304.16 870C300.206 870 297 873.206 297 877.16C297 881.114 300.206 884.32 304.16 884.32Z" fill="white"/>
<path d="M999.74 747.261C1004.01 747.261 1007.48 743.796 1007.48 739.521C1007.48 735.247 1004.01 731.781 999.74 731.781C995.465 731.781 992 735.247 992 739.521C992 743.796 995.465 747.261 999.74 747.261Z" fill="#F71E1E"/>
<path d="M906.74 309.48C911.015 309.48 914.48 306.015 914.48 301.74C914.48 297.465 911.015 294 906.74 294C902.465 294 899 297.465 899 301.74C899 306.015 902.465 309.48 906.74 309.48Z" fill="#F71E1E"/>
<path d="M432.16 993.32C436.114 993.32 439.32 990.114 439.32 986.16C439.32 982.206 436.114 979 432.16 979C428.206 979 425 982.206 425 986.16C425 990.114 428.206 993.32 432.16 993.32Z" fill="white"/>
<path d="M670.51 1000.26C674.784 1000.26 678.25 996.796 678.25 992.521C678.25 988.247 674.784 984.781 670.51 984.781C666.235 984.781 662.77 988.247 662.77 992.521C662.77 996.796 666.235 1000.26 670.51 1000.26Z" fill="#F71E1E"/>
<path d="M974.16 911.32C978.114 911.32 981.32 908.114 981.32 904.16C981.32 900.206 978.114 897 974.16 897C970.206 897 967 900.206 967 904.16C967 908.114 970.206 911.32 974.16 911.32Z" fill="white"/>
<path d="M636.74 852.48C641.015 852.48 644.48 849.015 644.48 844.74C644.48 840.465 641.015 837 636.74 837C632.465 837 629 840.465 629 844.74C629 849.015 632.465 852.48 636.74 852.48Z" fill="#F71E1E"/>
<path d="M1235.74 54.48C1240.01 54.48 1243.48 51.0147 1243.48 46.74C1243.48 42.4653 1240.01 39 1235.74 39C1231.47 39 1228 42.4653 1228 46.74C1228 51.0147 1231.47 54.48 1235.74 54.48Z" fill="#F71E1E"/>
<path d="M526.74 54.48C531.015 54.48 534.48 51.0147 534.48 46.74C534.48 42.4653 531.015 39 526.74 39C522.465 39 519 42.4653 519 46.74C519 51.0147 522.465 54.48 526.74 54.48Z" fill="#F71E1E"/>
</svg>
