<svg width="645" height="1441" viewBox="0 0 645 1441" fill="none" xmlns="http://www.w3.org/2000/svg">
<path d="M335 870.703H491L491 144.604H335L335 870.703Z" fill="#E94749"/>
<path d="M-3 466.118L322.661 144.604H491L-3 674.82" fill="#FF79B6"/>
<path d="M248 954.941L335 870.703H491L248 1093.25" fill="#FF79B6"/>
<path d="M645 812.246H7V841.987H645V812.246Z" fill="white"/>
<path d="M171 1093.25H248L248 0.000244141H171L171 1093.25Z" fill="#E94749"/>
<path d="M0 1199.91L0 1264.52H271V1199.91H0Z" fill="#FF79B6"/>
<path d="M271 1264.7L365.988 1388.61H391L393.5 1361.44C353.5 1306.46 311 1254.89 271 1199.91C271 1218.93 271 1245.67 271 1264.7Z" fill="#FF79B6"/>
<path d="M424 1388.41H366L639 1078.38V1146.58L424 1388.41Z" fill="#9F2921"/>
<path d="M545.971 433.546C564.854 433.546 580.161 417.847 580.161 398.482C580.161 379.117 564.854 363.418 545.971 363.418C527.089 363.418 511.781 379.117 511.781 398.482C511.781 417.847 527.089 433.546 545.971 433.546Z" fill="white"/>
<path d="M75.19 1101.85C94.0726 1101.85 109.38 1086.15 109.38 1066.78C109.38 1047.42 94.0726 1031.72 75.19 1031.72C56.3074 1031.72 41 1047.42 41 1066.78C41 1086.15 56.3074 1101.85 75.19 1101.85Z" fill="white"/>
<path d="M557.19 1412.59C576.073 1412.59 591.38 1396.89 591.38 1377.53C591.38 1358.16 576.073 1342.46 557.19 1342.46C538.307 1342.46 523 1358.16 523 1377.53C523 1396.89 538.307 1412.59 557.19 1412.59Z" fill="white"/>
<path d="M58.19 134.737C77.0726 134.737 92.38 119.039 92.38 99.6734C92.38 80.3081 77.0726 64.6094 58.19 64.6094C39.3074 64.6094 24 80.3081 24 99.6734C24 119.039 39.3074 134.737 58.19 134.737Z" fill="white"/>
<path d="M261.02 256.473C270.431 256.473 278.06 248.649 278.06 238.997C278.06 229.346 270.431 221.521 261.02 221.521C251.61 221.521 243.98 229.346 243.98 238.997C243.98 248.649 251.61 256.473 261.02 256.473Z" fill="white"/>
<path d="M520.04 1007.19C529.451 1007.19 537.08 999.362 537.08 989.71C537.08 980.058 529.451 972.234 520.04 972.234C510.629 972.234 503 980.058 503 989.71C503 999.362 510.629 1007.19 520.04 1007.19Z" fill="white"/>
<path d="M161.04 1441C170.451 1441 178.08 1433.18 178.08 1423.52C178.08 1413.87 170.451 1406.05 161.04 1406.05C151.629 1406.05 144 1413.87 144 1423.52C144 1433.18 151.629 1441 161.04 1441Z" fill="white"/>
<path d="M367.4 741.882C372.359 741.882 376.38 737.759 376.38 732.672C376.38 727.586 372.359 723.463 367.4 723.463C362.44 723.463 358.42 727.586 358.42 732.672C358.42 737.759 362.44 741.882 367.4 741.882Z" fill="white"/>
</svg>
