<svg width="1199" height="1016" viewBox="0 0 1199 1016" fill="none" xmlns="http://www.w3.org/2000/svg">
<path d="M138.5 795C205.05 795 259 731.872 259 654C259 576.128 205.05 513 138.5 513C71.9497 513 18 576.128 18 654C18 731.872 71.9497 795 138.5 795Z" fill="#F71E1E"/>
<path d="M468.5 566C535.603 566 590 502.424 590 424C590 345.576 535.603 282 468.5 282C401.397 282 347 345.576 347 424C347 502.424 401.397 566 468.5 566Z" fill="#FF79B6"/>
<path d="M744.5 798C811.603 798 866 735.096 866 657.5C866 579.904 811.603 517 744.5 517C677.397 517 623 579.904 623 657.5C623 735.096 677.397 798 744.5 798Z" fill="#AD1717"/>
<path d="M1062.5 608C1129.05 608 1183 544.872 1183 467C1183 389.128 1129.05 326 1062.5 326C995.95 326 942 389.128 942 467C942 544.872 995.95 608 1062.5 608Z" fill="white"/>
<path d="M147 755H129V1016H147V755Z" fill="#F71E1E"/>
<path d="M479 519H459V1015H479V519Z" fill="#FF79B6"/>
<path d="M754 787H735V1016H754V787Z" fill="#AD1717"/>
<path d="M1072 574H1053V1015H1072V574Z" fill="white"/>
<path d="M40.3906 43.0469H47.4219V68.9219L74.9375 43.0469H84.2656L51.125 73.9844L86.8438 112H77.7031L47.4219 79.8438V112H40.3906V43.0469Z" fill="#E33B2F"/>
<path d="M146.844 61V112H140.375V103.234C137.625 106.578 134.531 109.094 131.094 110.781C127.688 112.469 123.953 113.312 119.891 113.312C112.672 113.312 106.5 110.703 101.375 105.484C96.2812 100.234 93.7344 93.8594 93.7344 86.3594C93.7344 79.0156 96.3125 72.7344 101.469 67.5156C106.625 62.2969 112.828 59.6875 120.078 59.6875C124.266 59.6875 128.047 60.5781 131.422 62.3594C134.828 64.1406 137.812 66.8125 140.375 70.375V61H146.844ZM120.594 66.0156C116.938 66.0156 113.562 66.9219 110.469 68.7344C107.375 70.5156 104.906 73.0312 103.062 76.2812C101.25 79.5312 100.344 82.9688 100.344 86.5938C100.344 90.1875 101.266 93.625 103.109 96.9062C104.953 100.188 107.422 102.75 110.516 104.594C113.641 106.406 116.984 107.312 120.547 107.312C124.141 107.312 127.547 106.406 130.766 104.594C133.984 102.781 136.453 100.328 138.172 97.2344C139.922 94.1406 140.797 90.6562 140.797 86.7812C140.797 80.875 138.844 75.9375 134.938 71.9688C131.062 68 126.281 66.0156 120.594 66.0156Z" fill="#E33B2F"/>
<path d="M161.656 61H168.266V82.4688L191.844 61H200.984L175.156 84.3438L203.047 112H193.766L170.328 88.4219L168.266 90.25V112H161.656V61Z" fill="#E33B2F"/>
<path d="M251.281 112H236.469V61H251.047C256.609 61 260.609 62.2812 263.047 64.8438C265.516 67.4062 266.75 70.4062 266.75 73.8438C266.75 79.0312 264.469 82.5469 259.906 84.3906C266.531 86.7344 269.844 91.25 269.844 97.9375C269.844 107.312 263.656 112 251.281 112ZM243.078 66.6719V82.6094H247.344C251.219 82.6094 253.75 82.4531 254.938 82.1406C256.125 81.8281 257.234 81.0625 258.266 79.8438C259.328 78.5938 259.859 76.9531 259.859 74.9219C259.859 72.7969 259.312 71.0156 258.219 69.5781C257.125 68.1406 255.969 67.2969 254.75 67.0469C253.562 66.7969 251.094 66.6719 247.344 66.6719H243.078ZM243.078 88.6094V106.469H250.109C253.422 106.469 255.781 106.266 257.188 105.859C258.625 105.422 259.844 104.5 260.844 103.094C261.875 101.688 262.391 99.9062 262.391 97.75C262.391 94.9688 261.516 92.75 259.766 91.0938C258.016 89.4375 255.703 88.6094 252.828 88.6094H243.078Z" fill="#E33B2F"/>
<path d="M332.188 61V112H325.719V103.234C322.969 106.578 319.875 109.094 316.438 110.781C313.031 112.469 309.297 113.312 305.234 113.312C298.016 113.312 291.844 110.703 286.719 105.484C281.625 100.234 279.078 93.8594 279.078 86.3594C279.078 79.0156 281.656 72.7344 286.812 67.5156C291.969 62.2969 298.172 59.6875 305.422 59.6875C309.609 59.6875 313.391 60.5781 316.766 62.3594C320.172 64.1406 323.156 66.8125 325.719 70.375V61H332.188ZM305.938 66.0156C302.281 66.0156 298.906 66.9219 295.812 68.7344C292.719 70.5156 290.25 73.0312 288.406 76.2812C286.594 79.5312 285.688 82.9688 285.688 86.5938C285.688 90.1875 286.609 93.625 288.453 96.9062C290.297 100.188 292.766 102.75 295.859 104.594C298.984 106.406 302.328 107.312 305.891 107.312C309.484 107.312 312.891 106.406 316.109 104.594C319.328 102.781 321.797 100.328 323.516 97.2344C325.266 94.1406 326.141 90.6562 326.141 86.7812C326.141 80.875 324.188 75.9375 320.281 71.9688C316.406 68 311.625 66.0156 305.938 66.0156Z" fill="#E33B2F"/>
<path d="M402.359 61H404.234L421.531 112H414.688L402.078 74.4531L382.484 112H381.266L361.625 74.4531L349.062 112H342.219L359.609 61H361.391L381.922 100.891L402.359 61Z" fill="#E33B2F"/>
<path d="M507.5 71.5938L502.297 74.8281C497.797 68.8594 491.656 65.875 483.875 65.875C477.656 65.875 472.484 67.875 468.359 71.875C464.266 75.875 462.219 80.7344 462.219 86.4531C462.219 90.1719 463.156 93.6719 465.031 96.9531C466.938 100.234 469.531 102.781 472.812 104.594C476.125 106.406 479.828 107.312 483.922 107.312C491.422 107.312 497.547 104.328 502.297 98.3594L507.5 101.781C505.062 105.438 501.781 108.281 497.656 110.312C493.562 112.312 488.891 113.312 483.641 113.312C475.578 113.312 468.891 110.75 463.578 105.625C458.266 100.5 455.609 94.2656 455.609 86.9219C455.609 81.9844 456.844 77.4062 459.312 73.1875C461.812 68.9375 465.234 65.625 469.578 63.25C473.922 60.875 478.781 59.6875 484.156 59.6875C487.531 59.6875 490.781 60.2031 493.906 61.2344C497.062 62.2656 499.734 63.6094 501.922 65.2656C504.109 66.9219 505.969 69.0312 507.5 71.5938Z" fill="#E33B2F"/>
<path d="M520.156 61H562.953V112H556.391V67.1875H526.719V112H520.156V61Z" fill="#E33B2F"/>
<path d="M620.562 95.0781L626.094 97.9844C624.281 101.547 622.188 104.422 619.812 106.609C617.438 108.797 614.766 110.469 611.797 111.625C608.828 112.75 605.469 113.312 601.719 113.312C593.406 113.312 586.906 110.594 582.219 105.156C577.531 99.6875 575.188 93.5156 575.188 86.6406C575.188 80.1719 577.172 74.4062 581.141 69.3438C586.172 62.9062 592.906 59.6875 601.344 59.6875C610.031 59.6875 616.969 62.9844 622.156 69.5781C625.844 74.2344 627.719 80.0469 627.781 87.0156H581.938C582.062 92.9531 583.953 97.8281 587.609 101.641C591.266 105.422 595.781 107.312 601.156 107.312C603.75 107.312 606.266 106.859 608.703 105.953C611.172 105.047 613.266 103.844 614.984 102.344C616.703 100.844 618.562 98.4219 620.562 95.0781ZM620.562 81.3438C619.688 77.8438 618.406 75.0469 616.719 72.9531C615.062 70.8594 612.859 69.1719 610.109 67.8906C607.359 66.6094 604.469 65.9688 601.438 65.9688C596.438 65.9688 592.141 67.5781 588.547 70.7969C585.922 73.1406 583.938 76.6562 582.594 81.3438H620.562Z" fill="#E33B2F"/>
<path d="M640.062 61H646.672V82.4688L670.25 61H679.391L653.562 84.3438L681.453 112H672.172L648.734 88.4219L646.672 90.25V112H640.062V61Z" fill="#E33B2F"/>
<path d="M682.531 61H716.094V66.6719H702.594V112H695.984V66.6719H682.531V61Z" fill="#E33B2F"/>
<path d="M775.812 61V112H769.344V103.234C766.594 106.578 763.5 109.094 760.062 110.781C756.656 112.469 752.922 113.312 748.859 113.312C741.641 113.312 735.469 110.703 730.344 105.484C725.25 100.234 722.703 93.8594 722.703 86.3594C722.703 79.0156 725.281 72.7344 730.438 67.5156C735.594 62.2969 741.797 59.6875 749.047 59.6875C753.234 59.6875 757.016 60.5781 760.391 62.3594C763.797 64.1406 766.781 66.8125 769.344 70.375V61H775.812ZM749.562 66.0156C745.906 66.0156 742.531 66.9219 739.438 68.7344C736.344 70.5156 733.875 73.0312 732.031 76.2812C730.219 79.5312 729.312 82.9688 729.312 86.5938C729.312 90.1875 730.234 93.625 732.078 96.9062C733.922 100.188 736.391 102.75 739.484 104.594C742.609 106.406 745.953 107.312 749.516 107.312C753.109 107.312 756.516 106.406 759.734 104.594C762.953 102.781 765.422 100.328 767.141 97.2344C768.891 94.1406 769.766 90.6562 769.766 86.7812C769.766 80.875 767.812 75.9375 763.906 71.9688C760.031 68 755.25 66.0156 749.562 66.0156Z" fill="#E33B2F"/>
<path d="M790.625 61H797.234V82.4688L820.812 61H829.953L804.125 84.3438L832.016 112H822.734L799.297 88.4219L797.234 90.25V112H790.625V61Z" fill="#E33B2F"/>
<path d="M881.984 112H875L857.938 74.875L841.016 112H833.984L857.328 61H858.5L881.984 112Z" fill="#E33B2F"/>
<path d="M898.578 81.2031H904.812C909.781 81.2031 913.672 81.5938 916.484 82.375C919.297 83.1562 921.719 84.8906 923.75 87.5781C925.781 90.2344 926.797 93.2969 926.797 96.7656C926.797 100.953 925.328 104.547 922.391 107.547C919.453 110.516 915 112 909.031 112H892.062V61H898.578V81.2031ZM898.812 87.2031V106.469H906.359C915.234 106.469 919.672 103.344 919.672 97.0938C919.672 95.3125 919.188 93.5625 918.219 91.8438C917.281 90.125 915.891 88.9219 914.047 88.2344C912.234 87.5469 909.016 87.2031 904.391 87.2031H898.812Z" fill="#E33B2F"/>
<path d="M944.797 61.7969H938C938.062 55.4844 939.938 50.5 943.625 46.8438C947.344 43.1562 952.312 41.3125 958.531 41.3125C964.656 41.3125 969.469 42.8594 972.969 45.9531C976.469 49.0469 978.219 52.8906 978.219 57.4844C978.219 59.6719 977.734 61.7031 976.766 63.5781C975.828 65.4219 974.391 67.0938 972.453 68.5938C970.516 70.0625 967.125 71.75 962.281 73.6562C956.188 76.0938 952.5 77.9062 951.219 79.0938C949.906 80.3125 949.25 81.7812 949.25 83.5C949.25 85.3125 950.125 86.9375 951.875 88.375C953.656 89.8125 955.953 90.5312 958.766 90.5312C961.859 90.5312 964.234 89.75 965.891 88.1875C967.547 86.5938 968.562 84.0625 968.938 80.5938H975.781C975.562 85.8125 973.938 89.875 970.906 92.7812C967.906 95.6562 963.859 97.0938 958.766 97.0938C953.703 97.0938 949.672 95.7812 946.672 93.1562C943.672 90.5312 942.172 87.2969 942.172 83.4531C942.172 81.5781 942.578 79.8125 943.391 78.1562C944.234 76.4688 945.406 75.0625 946.906 73.9375C948.438 72.8125 951.297 71.3906 955.484 69.6719C962.234 66.9219 966.562 64.8594 968.469 63.4844C970.344 62.1094 971.281 60.1406 971.281 57.5781C971.281 54.8594 970.125 52.5625 967.812 50.6875C965.531 48.8125 962.469 47.875 958.625 47.875C953.938 47.875 950.297 49.4219 947.703 52.5156C945.891 54.6719 944.922 57.7656 944.797 61.7969ZM958.484 101.688C960.078 101.688 961.438 102.25 962.562 103.375C963.688 104.5 964.25 105.875 964.25 107.5C964.25 109.094 963.688 110.469 962.562 111.625C961.438 112.75 960.078 113.312 958.484 113.312C956.891 113.312 955.531 112.75 954.406 111.625C953.281 110.469 952.719 109.094 952.719 107.5C952.719 105.875 953.281 104.5 954.406 103.375C955.531 102.25 956.891 101.688 958.484 101.688Z" fill="#E33B2F"/>
<path d="M447.772 389.181V458.999H439.318V398.045H438.909L421.863 409.363V400.772L439.318 389.181H447.772Z" fill="black"/>
<path d="M490.625 459.954C485.488 459.954 481.113 458.556 477.5 455.761C473.886 452.942 471.125 448.863 469.216 443.522C467.306 438.158 466.352 431.681 466.352 424.09C466.352 416.545 467.306 410.102 469.216 404.761C471.147 399.397 473.92 395.306 477.534 392.488C481.17 389.647 485.534 388.227 490.625 388.227C495.716 388.227 500.068 389.647 503.681 392.488C507.318 395.306 510.091 399.397 512 404.761C513.931 410.102 514.897 416.545 514.897 424.09C514.897 431.681 513.943 438.158 512.034 443.522C510.125 448.863 507.363 452.942 503.75 455.761C500.136 458.556 495.761 459.954 490.625 459.954ZM490.625 452.454C495.716 452.454 499.67 449.999 502.488 445.09C505.306 440.181 506.716 433.181 506.716 424.09C506.716 418.045 506.068 412.897 504.772 408.647C503.5 404.397 501.659 401.158 499.25 398.931C496.863 396.704 493.988 395.59 490.625 395.59C485.579 395.59 481.636 398.079 478.795 403.056C475.954 408.011 474.534 415.022 474.534 424.09C474.534 430.136 475.17 435.272 476.443 439.499C477.716 443.727 479.545 446.942 481.931 449.147C484.341 451.352 487.238 452.454 490.625 452.454Z" fill="black"/>
<path d="M719.772 623.181V692.999H711.318V632.045H710.909L693.863 643.363V634.772L711.318 623.181H719.772Z" fill="black"/>
<path d="M762.625 693.954C757.488 693.954 753.113 692.556 749.5 689.761C745.886 686.942 743.125 682.863 741.216 677.522C739.306 672.158 738.352 665.681 738.352 658.09C738.352 650.545 739.306 644.102 741.216 638.761C743.147 633.397 745.92 629.306 749.534 626.488C753.17 623.647 757.534 622.227 762.625 622.227C767.716 622.227 772.068 623.647 775.681 626.488C779.318 629.306 782.091 633.397 784 638.761C785.931 644.102 786.897 650.545 786.897 658.09C786.897 665.681 785.943 672.158 784.034 677.522C782.125 682.863 779.363 686.942 775.75 689.761C772.136 692.556 767.761 693.954 762.625 693.954ZM762.625 686.454C767.716 686.454 771.67 683.999 774.488 679.09C777.306 674.181 778.716 667.181 778.716 658.09C778.716 652.045 778.068 646.897 776.772 642.647C775.5 638.397 773.659 635.158 771.25 632.931C768.863 630.704 765.988 629.59 762.625 629.59C757.579 629.59 753.636 632.079 750.795 637.056C747.954 642.011 746.534 649.022 746.534 658.09C746.534 664.136 747.17 669.272 748.443 673.499C749.716 677.727 751.545 680.942 753.931 683.147C756.341 685.352 759.238 686.454 762.625 686.454Z" fill="black"/>
<path d="M114.772 623.181V692.999H106.318V632.045H105.909L88.8633 643.363V634.772L106.318 623.181H114.772Z" fill="black"/>
<path d="M157.625 693.954C152.488 693.954 148.113 692.556 144.5 689.761C140.886 686.942 138.125 682.863 136.216 677.522C134.306 672.158 133.352 665.681 133.352 658.09C133.352 650.545 134.306 644.102 136.216 638.761C138.147 633.397 140.92 629.306 144.534 626.488C148.17 623.647 152.534 622.227 157.625 622.227C162.716 622.227 167.068 623.647 170.681 626.488C174.318 629.306 177.091 633.397 179 638.761C180.931 644.102 181.897 650.545 181.897 658.09C181.897 665.681 180.943 672.158 179.034 677.522C177.125 682.863 174.363 686.942 170.75 689.761C167.136 692.556 162.761 693.954 157.625 693.954ZM157.625 686.454C162.716 686.454 166.67 683.999 169.488 679.09C172.306 674.181 173.716 667.181 173.716 658.09C173.716 652.045 173.068 646.897 171.772 642.647C170.5 638.397 168.659 635.158 166.25 632.931C163.863 630.704 160.988 629.59 157.625 629.59C152.579 629.59 148.636 632.079 145.795 637.056C142.954 642.011 141.534 649.022 141.534 658.09C141.534 664.136 142.17 669.272 143.443 673.499C144.716 677.727 146.545 680.942 148.931 683.147C151.341 685.352 154.238 686.454 157.625 686.454Z" fill="black"/>
<path d="M1041.77 432.181V501.999H1033.32V441.045H1032.91L1015.86 452.363V443.772L1033.32 432.181H1041.77Z" fill="black"/>
<path d="M1084.62 502.954C1079.49 502.954 1075.11 501.556 1071.5 498.761C1067.89 495.942 1065.12 491.863 1063.22 486.522C1061.31 481.158 1060.35 474.681 1060.35 467.09C1060.35 459.545 1061.31 453.102 1063.22 447.761C1065.15 442.397 1067.92 438.306 1071.53 435.488C1075.17 432.647 1079.53 431.227 1084.62 431.227C1089.72 431.227 1094.07 432.647 1097.68 435.488C1101.32 438.306 1104.09 442.397 1106 447.761C1107.93 453.102 1108.9 459.545 1108.9 467.09C1108.9 474.681 1107.94 481.158 1106.03 486.522C1104.12 491.863 1101.36 495.942 1097.75 498.761C1094.14 501.556 1089.76 502.954 1084.62 502.954ZM1084.62 495.454C1089.72 495.454 1093.67 492.999 1096.49 488.09C1099.31 483.181 1100.72 476.181 1100.72 467.09C1100.72 461.045 1100.07 455.897 1098.77 451.647C1097.5 447.397 1095.66 444.158 1093.25 441.931C1090.86 439.704 1087.99 438.59 1084.62 438.59C1079.58 438.59 1075.64 441.079 1072.8 446.056C1069.95 451.011 1068.53 458.022 1068.53 467.09C1068.53 473.136 1069.17 478.272 1070.44 482.499C1071.72 486.727 1073.55 489.942 1075.93 492.147C1078.34 494.352 1081.24 495.454 1084.62 495.454Z" fill="black"/>
<path d="M107.74 254.89C112.015 254.89 115.48 251.425 115.48 247.15C115.48 242.875 112.015 239.41 107.74 239.41C103.465 239.41 100 242.875 100 247.15C100 251.425 103.465 254.89 107.74 254.89Z" fill="#F71E1E"/>
<path d="M281.371 143.32C285.325 143.32 288.531 140.114 288.531 136.16C288.531 132.206 285.325 129 281.371 129C277.417 129 274.211 132.206 274.211 136.16C274.211 140.114 277.417 143.32 281.371 143.32Z" fill="#F71E1E"/>
<path d="M531.39 191.539C535.345 191.539 538.55 188.333 538.55 184.379C538.55 180.424 535.345 177.219 531.39 177.219C527.436 177.219 524.23 180.424 524.23 184.379C524.23 188.333 527.436 191.539 531.39 191.539Z" fill="white"/>
<path d="M7.16 409.32C11.1144 409.32 14.32 406.114 14.32 402.16C14.32 398.206 11.1144 395 7.16 395C3.20564 395 0 398.206 0 402.16C0 406.114 3.20564 409.32 7.16 409.32Z" fill="white"/>
<path d="M13.16 109.32C17.1144 109.32 20.32 106.114 20.32 102.16C20.32 98.2056 17.1144 95 13.16 95C9.20564 95 6 98.2056 6 102.16C6 106.114 9.20564 109.32 13.16 109.32Z" fill="white"/>
<path d="M847.16 37.32C851.114 37.32 854.32 34.1144 854.32 30.16C854.32 26.2056 851.114 23 847.16 23C843.206 23 840 26.2056 840 30.16C840 34.1144 843.206 37.32 847.16 37.32Z" fill="white"/>
<path d="M1176.16 360.32C1180.11 360.32 1183.32 357.114 1183.32 353.16C1183.32 349.206 1180.11 346 1176.16 346C1172.21 346 1169 349.206 1169 353.16C1169 357.114 1172.21 360.32 1176.16 360.32Z" fill="white"/>
<path d="M783.74 416.48C788.015 416.48 791.48 413.015 791.48 408.74C791.48 404.465 788.015 401 783.74 401C779.465 401 776 404.465 776 408.74C776 413.015 779.465 416.48 783.74 416.48Z" fill="#F71E1E"/>
<path d="M415.16 669.101C419.114 669.101 422.32 665.896 422.32 661.941C422.32 657.987 419.114 654.781 415.16 654.781C411.206 654.781 408 657.987 408 661.941C408 665.896 411.206 669.101 415.16 669.101Z" fill="#F71E1E"/>
<path d="M702.39 483.32C706.345 483.32 709.55 480.114 709.55 476.16C709.55 472.206 706.345 469 702.39 469C698.436 469 695.23 472.206 695.23 476.16C695.23 480.114 698.436 483.32 702.39 483.32Z" fill="white"/>
<path d="M259.16 845.32C263.114 845.32 266.32 842.114 266.32 838.16C266.32 834.206 263.114 831 259.16 831C255.206 831 252 834.206 252 838.16C252 842.114 255.206 845.32 259.16 845.32Z" fill="white"/>
<path d="M954.74 708.261C959.015 708.261 962.48 704.796 962.48 700.521C962.48 696.247 959.015 692.781 954.74 692.781C950.465 692.781 947 696.247 947 700.521C947 704.796 950.465 708.261 954.74 708.261Z" fill="#F71E1E"/>
<path d="M861.74 270.48C866.015 270.48 869.48 267.015 869.48 262.74C869.48 258.465 866.015 255 861.74 255C857.465 255 854 258.465 854 262.74C854 267.015 857.465 270.48 861.74 270.48Z" fill="#F71E1E"/>
<path d="M387.16 954.32C391.114 954.32 394.32 951.114 394.32 947.16C394.32 943.206 391.114 940 387.16 940C383.206 940 380 943.206 380 947.16C380 951.114 383.206 954.32 387.16 954.32Z" fill="white"/>
<path d="M625.51 961.261C629.784 961.261 633.25 957.796 633.25 953.521C633.25 949.247 629.784 945.781 625.51 945.781C621.235 945.781 617.77 949.247 617.77 953.521C617.77 957.796 621.235 961.261 625.51 961.261Z" fill="#F71E1E"/>
<path d="M929.16 872.32C933.114 872.32 936.32 869.114 936.32 865.16C936.32 861.206 933.114 858 929.16 858C925.206 858 922 861.206 922 865.16C922 869.114 925.206 872.32 929.16 872.32Z" fill="white"/>
<path d="M591.74 813.48C596.015 813.48 599.48 810.015 599.48 805.74C599.48 801.465 596.015 798 591.74 798C587.465 798 584 801.465 584 805.74C584 810.015 587.465 813.48 591.74 813.48Z" fill="#F71E1E"/>
<path d="M1190.74 15.48C1195.01 15.48 1198.48 12.0147 1198.48 7.74001C1198.48 3.46532 1195.01 0 1190.74 0C1186.47 0 1183 3.46532 1183 7.74001C1183 12.0147 1186.47 15.48 1190.74 15.48Z" fill="#F71E1E"/>
<path d="M481.74 15.48C486.015 15.48 489.48 12.0147 489.48 7.74001C489.48 3.46532 486.015 0 481.74 0C477.465 0 474 3.46532 474 7.74001C474 12.0147 477.465 15.48 481.74 15.48Z" fill="#F71E1E"/>
</svg>
