<svg width="1920" height="720" viewBox="0 0 1920 720" fill="none" xmlns="http://www.w3.org/2000/svg">
<rect width="1920" height="720" fill="#F2BED9"/>
<path d="M1081.77 0.031712C964.575 241.188 848.196 478.844 731 720C1128.18 717.624 1524.55 718.78 1921.7 716.372C1922.48 477.592 1923.22 238.812 1924 0H1081.77V0.031712Z" fill="#EB81B2"/>
<path d="M1707.18 134.928L1802.94 246.855V134.543L1707.18 134.928Z" fill="#FBFBFB"/>
<path d="M1607 132.385L1702.77 244.312V132L1607 132.385Z" fill="#FBFBFB"/>
<path d="M1809.23 134.928L1905 246.855V134.543L1809.23 134.928Z" fill="#FBFBFB"/>
<path d="M1606.73 135.427L1702.71 23.3711V135.812L1606.73 135.427Z" fill="#FBFBFB"/>
<path d="M1707.18 134.927L1802.94 23V135.312L1707.18 134.927Z" fill="#FBFBFB"/>
<path d="M1809.23 134.927L1905 23V135.312L1809.23 134.927Z" fill="#FBFBFB"/>
<path d="M907.684 134.928L1003.45 246.855V134.543L907.684 134.928Z" fill="#FBFBFB"/>
<path d="M1009.75 134.928L1105.51 246.855V134.543L1009.75 134.928Z" fill="#FBFBFB"/>
<path d="M1110.2 134.928L1205.96 246.855V134.543L1110.2 134.928Z" fill="#FBFBFB"/>
<path d="M1206.04 134.928L1301.81 246.855V134.543L1206.04 134.928Z" fill="#FBFBFB"/>
<path d="M1306.52 134.928L1402.26 246.855V134.543L1306.52 134.928Z" fill="#FBFBFB"/>
<path d="M1408.58 134.928L1504.32 246.855V134.543L1408.58 134.928Z" fill="#FBFBFB"/>
<path d="M1509.03 134.928L1604.8 246.855V134.543L1509.03 134.928Z" fill="#FBFBFB"/>
<path d="M907.684 134.927L1003.45 23V135.312L907.684 134.927Z" fill="#FBFBFB"/>
<path d="M1009.75 134.927L1105.51 23V135.312L1009.75 134.927Z" fill="#FBFBFB"/>
<path d="M1110.2 134.927L1205.96 23V135.312L1110.2 134.927Z" fill="#FBFBFB"/>
<path d="M1206.04 134.927L1301.81 23V135.312L1206.04 134.927Z" fill="#FBFBFB"/>
<path d="M1306.52 134.927L1402.26 23V135.312L1306.52 134.927Z" fill="#FBFBFB"/>
<path d="M1408.58 134.927L1504.32 23V135.312L1408.58 134.927Z" fill="#FBFBFB"/>
<path d="M1509.03 134.927L1604.8 23V135.312L1509.03 134.927Z" fill="#FBFBFB"/>
<path d="M1606.72 585.389L1702.46 697.348V585.004L1606.72 585.389Z" fill="#FBFBFB"/>
<path d="M1707.17 585.389L1802.94 697.348V585.004L1707.17 585.389Z" fill="#FBFBFB"/>
<path d="M1809.23 585.389L1905 697.348V585.004L1809.23 585.389Z" fill="#FBFBFB"/>
<path d="M1606.72 585.423L1702.46 473.496V585.808L1606.72 585.423Z" fill="#FBFBFB"/>
<path d="M1707.17 585.423L1802.94 473.496V585.808L1707.17 585.423Z" fill="#FBFBFB"/>
<path d="M1809.23 585.423L1905 473.496V585.808L1809.23 585.423Z" fill="#FBFBFB"/>
<path d="M907.684 583.721L1003.45 695.68V583.336L907.684 583.721Z" fill="#FBFBFB"/>
<path d="M1009.74 583.721L1105.51 695.68V583.336L1009.74 583.721Z" fill="#FBFBFB"/>
<path d="M1110.19 583.721L1205.96 695.68V583.336L1110.19 583.721Z" fill="#FBFBFB"/>
<path d="M1206.04 583.721L1301.81 695.68V583.336L1206.04 583.721Z" fill="#FBFBFB"/>
<path d="M1306.52 583.721L1402.26 695.68V583.336L1306.52 583.721Z" fill="#FBFBFB"/>
<path d="M1408.58 583.721L1504.31 695.68V583.336L1408.58 583.721Z" fill="#FBFBFB"/>
<path d="M1509.03 583.721L1604.8 695.68V583.336L1509.03 583.721Z" fill="#FBFBFB"/>
<path d="M907.684 583.754L1003.45 471.828V584.139L907.684 583.754Z" fill="#FBFBFB"/>
<path d="M1009.74 583.754L1105.51 471.828V584.139L1009.74 583.754Z" fill="#FBFBFB"/>
<path d="M1110.19 583.754L1205.96 471.828V584.139L1110.19 583.754Z" fill="#FBFBFB"/>
<path d="M1206.04 583.754L1301.81 471.828V584.139L1206.04 583.754Z" fill="#FBFBFB"/>
<path d="M1306.52 583.754L1402.26 471.828V584.139L1306.52 583.754Z" fill="#FBFBFB"/>
<path d="M1408.58 583.754L1504.31 471.828V584.139L1408.58 583.754Z" fill="#FBFBFB"/>
<path d="M1509.03 583.754L1604.8 471.828V584.139L1509.03 583.754Z" fill="#FBFBFB"/>
<path d="M311.578 354.192L216.367 242.266V354.609L311.578 354.192Z" fill="#EB81B2"/>
<path d="M211.678 354.192L116.467 242.266V354.609L211.678 354.192Z" fill="#EB81B2"/>
<path d="M110.211 354.192L15 242.266V354.609L110.211 354.192Z" fill="#EB81B2"/>
<path d="M311.578 354.192L216.367 466.118V353.807L311.578 354.192Z" fill="#EB81B2"/>
<path d="M211.678 354.192L116.467 466.118V353.807L211.678 354.192Z" fill="#EB81B2"/>
<path d="M110.211 354.192L15 466.118V353.807L110.211 354.192Z" fill="#EB81B2"/>
<path d="M905.075 355.86L809.891 243.934V356.277L905.075 355.86Z" fill="#EB81B2"/>
<path d="M805.199 355.86L709.988 243.934V356.277L805.199 355.86Z" fill="#EB81B2"/>
<path d="M709.912 355.86L614.701 243.934V356.277L709.912 355.86Z" fill="#EB81B2"/>
<path d="M610.043 355.86L514.832 243.934V356.277L610.043 355.86Z" fill="#EB81B2"/>
<path d="M508.57 355.86L413.359 243.934V356.277L508.57 355.86Z" fill="#EB81B2"/>
<path d="M408.678 355.86L313.467 243.934V356.277L408.678 355.86Z" fill="#EB81B2"/>
<path d="M905.075 355.862L809.891 467.788V355.477L905.075 355.862Z" fill="#EB81B2"/>
<path d="M805.199 355.862L709.988 467.788V355.477L805.199 355.862Z" fill="#EB81B2"/>
<path d="M709.912 355.862L614.701 467.788V355.477L709.912 355.862Z" fill="#EB81B2"/>
<path d="M610.043 355.862L514.832 467.788V355.477L610.043 355.862Z" fill="#EB81B2"/>
<path d="M508.57 355.862L413.359 467.788V355.477L508.57 355.862Z" fill="#EB81B2"/>
<path d="M408.678 355.862L313.467 467.788V355.477L408.678 355.862Z" fill="#EB81B2"/>
<path d="M159.057 213.007H116.081L101.562 177.88C99.2566 172.298 96.978 168.801 94.7524 167.358C92.5268 165.914 89.7977 165.208 86.5388 165.208V213.007H48.4648V85.7785H86.5388V131.781C89.6653 131.396 91.9704 130.049 93.4541 127.835C94.9379 125.59 97.1105 120.681 99.9455 113.111C102.781 105.508 105.324 99.958 107.576 96.4613C109.828 92.9326 112.69 90.3017 116.187 88.5694C119.685 86.805 124.056 85.6825 129.276 85.2334C134.522 84.7522 142.312 84.5273 152.671 84.5273V119.142H150.976C145.862 119.142 141.967 119.398 139.291 119.912C136.615 120.425 134.469 121.516 132.826 123.216C131.21 124.884 129.329 128.316 127.209 133.513C125.09 138.71 123.314 142.335 121.937 144.356C120.532 146.377 118.466 147.757 115.71 148.495C121.009 149.136 125.09 150.58 127.978 152.858C130.839 155.135 135.184 162.449 140.987 174.832L159.03 213.039L159.057 213.007Z" fill="white"/>
<path d="M167.854 261.418V85.7809H203.49V104.612C208.418 96.7201 212.949 91.3628 217.056 88.5398C222.593 84.7864 228.74 82.9258 235.496 82.9258C248.771 82.9258 259.051 89.4383 266.311 102.463C273.57 115.487 277.2 131.591 277.2 150.743C277.2 171.915 273.226 188.051 265.33 199.215C257.408 210.347 247.393 215.929 235.311 215.929C229.455 215.929 224.103 214.646 219.255 212.079C214.406 209.513 210.114 205.728 206.298 200.691V261.45H167.854V261.418ZM206.007 149.748C206.007 159.821 207.65 167.264 210.962 172.14C214.274 177.016 218.433 179.454 223.494 179.454C227.919 179.454 231.628 177.112 234.622 172.429C237.616 167.745 239.1 159.821 239.1 148.657C239.1 138.36 237.537 130.789 234.41 125.945C231.284 121.101 227.495 118.695 222.991 118.695C218.115 118.695 214.062 121.133 210.829 126.009C207.597 130.885 205.954 138.777 205.954 149.716L206.007 149.748Z" fill="white"/>
<path d="M322.508 126.972L286.103 122.063C287.481 113.915 289.468 107.499 292.038 102.848C294.635 98.164 298.344 94.1218 303.219 90.6892C306.717 88.2191 311.512 86.2942 317.633 84.9468C323.753 83.5995 330.351 82.9258 337.478 82.9258C348.898 82.9258 358.065 83.7278 364.98 85.396C371.896 87.0321 377.672 90.4327 382.282 95.6297C385.514 99.2226 388.084 104.323 389.939 110.9C391.82 117.476 392.748 123.764 392.748 129.763V185.966C392.748 191.965 393.039 196.649 393.648 200.049C394.231 203.45 395.53 207.781 397.517 213.042H361.774C360.344 209.77 359.416 207.268 358.966 205.567C358.515 203.835 358.092 201.14 357.668 197.483C352.686 203.643 347.732 208.037 342.804 210.668C336.074 214.197 328.231 215.929 319.329 215.929C307.485 215.929 298.477 212.4 292.33 205.375C286.183 198.349 283.109 189.688 283.109 179.39C283.109 169.734 285.335 161.778 289.76 155.555C294.184 149.331 302.345 144.68 314.268 141.664C328.549 138.007 337.822 135.408 342.062 133.933C346.301 132.457 350.805 130.533 355.521 128.127C355.521 122.128 354.541 117.925 352.633 115.551C350.699 113.145 347.308 111.958 342.433 111.958C336.206 111.958 331.517 113.241 328.39 115.808C325.953 117.797 323.992 121.55 322.508 127.068V126.972ZM355.521 152.636C350.275 155.042 344.817 157.159 339.147 158.987C331.411 161.618 326.509 164.216 324.469 166.783C322.349 169.413 321.289 172.429 321.289 175.765C321.289 179.615 322.323 182.726 324.416 185.164C326.509 187.602 329.582 188.821 333.636 188.821C337.69 188.821 341.823 187.506 345.48 184.876C349.136 182.245 351.706 179.037 353.243 175.22C354.78 171.434 355.521 166.494 355.521 160.431V152.636Z" fill="white"/>
<path d="M489.667 163.157L525.886 168.418C523.899 178.074 520.614 186.447 516.056 193.504C511.499 200.562 505.697 206.08 498.596 209.961C491.522 213.875 482.513 215.832 471.597 215.832C460.681 215.832 452.282 214.581 445.261 212.046C438.239 209.512 432.198 205.47 427.164 199.856C422.104 194.242 418.156 187.634 415.294 180.031C412.433 172.46 411.002 162.387 411.002 149.876C411.002 137.364 412.751 125.912 416.248 117.186C418.792 110.802 422.289 105.06 426.74 99.9916C431.165 94.923 435.722 91.1696 440.412 88.6673C447.831 84.7536 457.342 82.7969 468.947 82.7969C485.163 82.7969 497.536 86.518 506.041 93.9285C514.546 101.339 520.534 112.214 523.952 126.522L488.13 132.617C487.017 127.195 484.951 123.089 482.01 120.33C479.042 117.571 475.068 116.192 470.087 116.192C463.781 116.192 458.694 119.079 454.799 124.854C450.904 130.628 448.943 139.385 448.943 151.095C448.943 161.553 450.878 169.476 454.746 174.898C458.614 180.319 463.542 183.046 469.53 183.046C474.512 183.046 478.724 181.41 482.116 178.138C485.507 174.866 488.051 169.83 489.746 163.029L489.667 163.157Z" fill="white"/>
<path d="M538.682 149.747C538.682 130.339 543.795 114.331 554.023 101.756C564.25 89.1802 578.054 82.8926 595.461 82.8926C615.359 82.8926 630.382 90.2711 640.557 105.06C648.717 116.961 652.824 131.622 652.824 149.041C652.824 168.61 647.763 184.65 637.616 197.161C627.468 209.672 613.452 215.896 595.567 215.896C579.591 215.896 566.687 210.699 556.831 200.305C544.723 187.441 538.682 170.599 538.682 149.747ZM576.862 149.619C576.862 160.975 578.663 169.348 582.24 174.769C585.817 180.191 590.321 182.918 595.753 182.918C601.184 182.918 605.742 180.255 609.266 174.898C612.789 169.54 614.538 160.975 614.538 149.138C614.538 138.102 612.763 129.922 609.213 124.5C605.662 119.111 601.264 116.416 596.018 116.416C590.48 116.416 585.87 119.143 582.267 124.628C578.663 130.114 576.835 138.423 576.835 149.619H576.862Z" fill="white"/>
<path d="M754.885 121.356H727.276V213.008H689.097V121.356H661.488V85.7793H754.858V121.356H754.885Z" fill="white"/>
<path d="M803.162 126.972L766.758 122.063C768.135 113.915 770.123 107.499 772.693 102.848C775.289 98.164 778.999 94.1218 783.874 90.6892C787.371 88.2191 792.167 86.2942 798.287 84.9468C804.408 83.5995 811.005 82.9258 818.132 82.9258C829.552 82.9258 838.719 83.7278 845.635 85.396C852.55 87.0321 858.326 90.4327 862.936 95.6297C866.169 99.2226 868.739 104.323 870.593 110.9C872.475 117.476 873.402 123.764 873.402 129.763V185.966C873.402 191.965 873.693 196.649 874.303 200.049C874.886 203.45 876.184 207.781 878.171 213.042H842.429C840.998 209.77 840.071 207.268 839.62 205.567C839.196 203.835 838.746 201.14 838.322 197.483C833.341 203.643 828.386 208.037 823.458 210.668C816.728 214.197 808.885 215.929 799.983 215.929C788.139 215.929 779.131 212.4 772.984 205.375C766.837 198.349 763.764 189.688 763.764 179.39C763.764 169.734 765.989 161.778 770.414 155.555C774.839 149.331 782.999 144.68 794.922 141.664C809.203 138.007 818.477 135.408 822.716 133.933C826.955 132.457 831.46 130.533 836.176 128.127C836.176 122.128 835.195 117.925 833.288 115.551C831.354 113.145 827.962 111.958 823.087 111.958C816.861 111.958 812.171 113.241 809.044 115.808C806.607 117.797 804.646 121.55 803.162 127.068V126.972ZM836.202 152.636C830.956 155.042 825.498 157.159 819.828 158.987C812.091 161.618 807.19 164.216 805.15 166.783C803.03 169.413 801.97 172.429 801.97 175.765C801.97 179.615 803.003 182.726 805.097 185.164C807.19 187.602 810.263 188.821 814.317 188.821C818.371 188.821 822.504 187.506 826.16 184.876C829.817 182.245 832.387 179.037 833.924 175.22C835.46 171.434 836.229 166.494 836.229 160.431V152.636H836.202Z" fill="white"/>
<path d="M1116.79 419.764H1079.72V328.112H1051.5V419.764H1014.44V292.535H1116.79V419.764Z" fill="white"/>
<path d="M1139.39 468.173V292.536H1174.1V311.334C1178.89 303.443 1183.29 298.085 1187.29 295.295C1192.7 291.541 1198.68 289.648 1205.23 289.648C1218.16 289.648 1228.17 296.161 1235.25 309.185C1242.32 322.209 1245.85 338.314 1245.85 357.465C1245.85 378.638 1241.98 394.774 1234.29 405.938C1226.58 417.07 1216.83 422.651 1205.07 422.651C1199.37 422.651 1194.15 421.368 1189.46 418.802C1184.75 416.236 1180.56 412.45 1176.85 407.413V468.173H1139.41H1139.39ZM1176.53 356.503C1176.53 366.576 1178.15 374.05 1181.36 378.894C1184.56 383.771 1188.64 386.209 1193.57 386.209C1197.89 386.209 1201.49 383.867 1204.41 379.183C1207.32 374.5 1208.78 366.576 1208.78 355.412C1208.78 345.114 1207.27 337.543 1204.22 332.699C1201.17 327.855 1197.49 325.45 1193.12 325.45C1188.38 325.45 1184.43 327.887 1181.28 332.764C1178.12 337.64 1176.53 345.531 1176.53 356.471V356.503Z" fill="white"/>
<path d="M1259.04 356.503C1259.04 337.094 1264.02 321.087 1273.99 308.511C1283.95 295.936 1297.38 289.648 1314.34 289.648C1333.71 289.648 1348.33 297.027 1358.24 311.816C1366.19 323.717 1370.16 338.378 1370.16 355.797C1370.16 375.366 1365.24 391.406 1355.38 403.917C1345.52 416.428 1331.88 422.683 1314.44 422.683C1298.89 422.683 1286.33 417.487 1276.74 407.093C1264.95 394.229 1259.07 377.387 1259.07 356.535L1259.04 356.503ZM1296.19 356.406C1296.19 367.763 1297.94 376.136 1301.44 381.557C1304.93 386.979 1309.3 389.705 1314.6 389.705C1319.9 389.705 1324.33 387.043 1327.77 381.685C1331.19 376.328 1332.91 367.731 1332.91 355.926C1332.91 344.89 1331.19 336.677 1327.72 331.288C1324.25 325.899 1319.98 323.204 1314.87 323.204C1309.46 323.204 1305.01 325.931 1301.49 331.416C1297.96 336.902 1296.22 345.211 1296.22 356.406H1296.19Z" fill="white"/>
<path d="M1460.12 369.944L1495.36 375.205C1493.42 384.861 1490.22 393.234 1485.79 400.292C1481.37 407.381 1475.7 412.867 1468.81 416.781C1461.92 420.695 1453.15 422.651 1442.52 422.651C1431.9 422.651 1423.71 421.4 1416.88 418.866C1410.04 416.364 1404.19 412.29 1399.26 406.644C1394.33 401.03 1390.49 394.421 1387.68 386.85C1384.9 379.247 1383.49 369.207 1383.49 356.695C1383.49 344.184 1385.19 332.699 1388.58 324.006C1391.07 317.622 1394.46 311.88 1398.78 306.843C1403.1 301.775 1407.52 297.989 1412.08 295.519C1419.31 291.605 1428.56 289.648 1439.85 289.648C1455.64 289.648 1467.67 293.37 1475.96 300.78C1484.25 308.223 1490.06 319.066 1493.4 333.373L1458.53 339.469C1457.44 334.047 1455.45 329.941 1452.57 327.182C1449.68 324.423 1445.81 323.044 1440.96 323.044C1434.84 323.044 1429.86 325.931 1426.07 331.705C1422.28 337.479 1420.37 346.237 1420.37 357.947C1420.37 368.405 1422.26 376.328 1426.02 381.75C1429.78 387.171 1434.58 389.898 1440.4 389.898C1445.25 389.898 1449.33 388.262 1452.65 384.99C1455.96 381.717 1458.42 376.681 1460.06 369.88L1460.12 369.944Z" fill="white"/>
<path d="M1593.89 328.112H1567.03V419.764H1529.88V328.112H1503.01V292.535H1593.89V328.112Z" fill="white"/>
<path d="M1645.53 337.832H1662.46C1691.05 337.832 1705.36 351.562 1705.36 379.054C1705.36 406.547 1691.42 419.796 1663.55 419.796H1608.36V292.567H1645.5V337.864L1645.53 337.832ZM1645.53 389.833H1657.64C1660.69 389.833 1663.15 388.903 1665.06 387.074C1666.97 385.246 1667.92 382.551 1667.92 379.054C1667.92 371.387 1664.5 367.538 1657.64 367.538H1645.53V389.833ZM1715.9 292.535H1752.97V419.764H1715.9V292.535Z" fill="white"/>
<path d="M1764.63 292.535H1808.61L1823.95 327.983L1841.84 292.535H1882.72L1849.73 353.166L1885.08 419.796H1841.81L1823.92 378.83L1802.94 419.796H1762.77L1797.91 353.166L1764.6 292.535H1764.63Z" fill="white"/>
<path d="M158.343 686.637H131.901V650.322H61.3434V686.637H34.7949V614.746H44.4658C51.4606 598.77 54.9845 577.79 54.9845 551.869V523.094H147.851V614.746H158.37V686.637H158.343ZM109.565 614.746V558.67H91.2832V560.114C91.2832 577.822 88.2892 596.011 82.2748 614.746H109.565Z" fill="white"/>
<path d="M282.82 598.802H206.275C206.964 606.629 208.633 612.468 211.256 616.285C214.939 621.803 219.761 624.562 225.696 624.562C229.458 624.562 233.009 623.375 236.4 620.969C238.467 619.461 240.692 616.767 243.051 612.949L280.674 617.376C274.925 630.144 267.983 639.319 259.849 644.868C251.715 650.418 240.057 653.209 224.848 653.209C211.653 653.209 201.267 650.835 193.716 646.087C186.138 641.34 179.885 633.801 174.904 623.439C169.923 613.077 167.459 600.919 167.459 586.964C167.459 567.075 172.44 550.971 182.429 538.684C192.391 526.398 206.169 520.238 223.762 520.238C238.016 520.238 249.277 522.997 257.544 528.515C265.81 534.032 272.09 542.02 276.408 552.478C280.727 562.936 282.873 576.57 282.873 593.348V598.866L282.82 598.802ZM243.978 575.448C243.236 566.016 241.249 559.28 238.016 555.205C234.784 551.131 230.571 549.078 225.299 549.078C219.231 549.078 214.382 552.158 210.753 558.317C208.447 562.167 206.964 567.845 206.354 575.448H243.978Z" fill="white"/>
<path d="M384.324 558.67H356.636V650.322H318.35V558.67H290.662V523.094H384.297V558.67H384.324Z" fill="white"/>
<path d="M432.729 564.315L396.245 559.407C397.623 551.259 399.61 544.843 402.207 540.191C404.803 535.539 408.539 531.465 413.414 528.033C416.912 525.562 421.734 523.638 427.854 522.291C433.975 520.943 440.625 520.27 447.752 520.27C459.198 520.27 468.392 521.104 475.334 522.74C482.276 524.376 488.052 527.776 492.689 532.973C495.948 536.566 498.518 541.667 500.372 548.243C502.227 554.819 503.181 561.139 503.181 567.106V623.31C503.181 629.309 503.472 633.993 504.082 637.393C504.664 640.794 505.963 645.124 507.976 650.385H472.128C470.697 647.113 469.743 644.611 469.32 642.911C468.869 641.178 468.445 638.484 467.995 634.827C462.987 640.986 458.032 645.381 453.078 648.011C446.321 651.54 438.479 653.272 429.523 653.272C417.627 653.272 408.618 649.744 402.472 642.718C396.298 635.693 393.225 627.031 393.225 616.701C393.225 607.045 395.45 599.09 399.875 592.866C404.326 586.643 412.513 582.023 424.463 578.975C438.797 575.318 448.07 572.72 452.336 571.244C456.602 569.769 461.079 567.844 465.849 565.438C465.849 559.439 464.868 555.268 462.934 552.862C461 550.456 457.582 549.269 452.707 549.269C446.454 549.269 441.764 550.553 438.638 553.087C436.2 555.076 434.24 558.829 432.729 564.347V564.315ZM465.849 589.947C460.603 592.353 455.118 594.47 449.421 596.299C441.658 598.929 436.757 601.528 434.69 604.094C432.57 606.725 431.511 609.708 431.511 613.076C431.511 616.926 432.57 620.038 434.663 622.476C436.757 624.914 439.83 626.133 443.91 626.133C447.991 626.133 452.124 624.818 455.78 622.187C459.437 619.557 462.033 616.349 463.57 612.531C465.107 608.746 465.875 603.806 465.875 597.742V589.947H465.849Z" fill="white"/>
<path d="M640.533 650.322H602.353V558.67H573.367V612.051C573.367 626.295 571.089 636.849 566.558 643.714C562.027 650.579 555.059 654.044 545.68 654.044C535.055 654.044 525.517 652.792 517.064 650.322V614.264C521.569 616.029 525.013 616.895 527.371 616.895C532.511 616.895 535.055 612.019 535.055 602.267V523.094H640.507V650.322H640.533Z" fill="white"/>
<path d="M774.203 598.802H697.658C698.347 606.629 699.989 612.468 702.639 616.285C706.322 621.803 711.144 624.562 717.079 624.562C720.841 624.562 724.392 623.375 727.783 620.969C729.85 619.461 732.075 616.767 734.434 612.949L772.057 617.376C766.308 630.144 759.366 639.319 751.232 644.868C743.098 650.418 731.44 653.209 716.231 653.209C703.036 653.209 692.65 650.835 685.073 646.087C677.495 641.34 671.242 633.801 666.261 623.439C661.28 613.109 658.789 600.919 658.789 586.964C658.789 567.075 663.77 550.971 673.759 538.684C683.748 526.398 697.499 520.238 715.092 520.238C729.346 520.238 740.607 522.997 748.874 528.515C757.14 534.032 763.42 542.02 767.738 552.478C772.057 562.936 774.203 576.57 774.203 593.348V598.866V598.802ZM735.387 575.448C734.646 566.016 732.658 559.28 729.426 555.205C726.194 551.131 721.954 549.078 716.708 549.078C710.641 549.078 705.792 552.158 702.162 558.317C699.857 562.167 698.373 567.845 697.764 575.448H735.387Z" fill="white"/>
<path d="M903.021 650.322H866.908V587.734L829.444 650.322H793.092V523.093H829.205V586.547L867.067 523.093H903.048V650.322H903.021ZM878.805 471.701C878.619 483.282 875.466 492.168 869.319 498.424C863.199 504.647 855.912 507.759 847.46 507.759C837.578 507.759 829.867 504.583 824.277 498.231C818.713 491.879 815.56 483.025 814.792 471.701H830.927C832.808 480.17 838.055 484.405 846.692 484.405C851.435 484.405 855.171 483.57 857.9 481.87C860.629 480.17 862.457 476.802 863.384 471.733H878.778L878.805 471.701Z" fill="white"/>
</svg>
