<svg width="1328" height="256" viewBox="0 0 1328 256" fill="none" xmlns="http://www.w3.org/2000/svg">
<path d="M0.0129881 4.21289H154.397C188.019 4.21289 213.196 10.786 229.94 23.9323C246.685 37.0785 255.05 55.7711 255.05 80.0369C255.05 104.303 245.926 124.462 227.679 138.501C209.432 152.541 181.582 159.567 144.13 159.567H93.2849V251.231H0V4.21289H0.0129881ZM93.2979 109.516H116.054C133.955 109.516 146.537 106.956 153.772 101.849C161.021 96.743 164.638 90.1966 164.638 82.2235C164.638 74.2505 161.486 67.904 155.209 62.5042C148.918 57.1177 137.094 54.4112 119.738 54.4112H93.2849V109.516H93.2979Z" fill="#FAFAFA"/>
<path d="M266.768 127.889C266.768 87.5568 280.44 56.1712 307.771 33.7054C335.102 11.2395 373.166 0 421.963 0C470.76 0 510.526 11.0396 537.591 33.1055C564.656 55.1713 578.182 86.1035 578.182 125.862C578.182 154.728 572.263 178.407 560.453 196.886C548.63 215.366 531.539 229.739 509.196 240.018C486.852 250.298 459.003 255.431 425.647 255.431C392.291 255.431 363.696 250.991 341.485 242.125C319.275 233.258 301.267 219.206 287.462 200.006C273.657 180.794 266.754 156.754 266.754 127.889H266.768ZM359.64 128.222C359.64 153.155 365.279 171.074 376.557 181.967C387.835 192.86 403.17 198.313 422.587 198.313C442.005 198.313 457.992 192.98 468.924 182.3C479.857 171.634 485.323 152.475 485.323 124.849C485.323 101.596 479.617 84.6103 468.206 73.8773C456.795 63.1577 441.314 57.7846 421.763 57.7846C402.213 57.7846 388.008 63.2378 376.663 74.1307C365.319 85.0237 359.653 103.063 359.653 128.222H359.64Z" fill="#FAFAFA"/>
<path d="M606.721 4.21289H699.806V251.231H606.721V4.21289Z" fill="#FAFAFA"/>
<path d="M741.848 4.21289H828.576L941.743 140.875V4.21289H1029.28V251.231H941.743L829.187 115.609V251.231H741.848V4.21289Z" fill="#FAFAFA"/>
<path d="M1044.7 4.21289H1327.01V65.2108H1232.29V251.231H1139.42V65.2108H1044.7V4.21289Z" fill="#FAFAFA"/>
</svg>
