<svg width="953" height="206" viewBox="0 0 953 206" fill="none" xmlns="http://www.w3.org/2000/svg">
<path d="M25.5488 2.14648H44.2744V56.3179H73.9729V72.5439H44.2744V202.219H25.5488V72.5439H0V56.3179H25.5488V2.14648Z" fill="#EE80B4"/>
<path d="M102.062 0H120.789V82.4773C128.37 72.4643 136.709 64.9844 145.806 60.0112C154.903 55.0381 164.758 52.5716 175.371 52.5716C185.984 52.5716 195.906 55.3448 204.338 60.8913C212.77 66.4377 218.981 73.8775 222.998 83.2238C227.014 92.5702 229.022 107.21 229.022 127.142V202.246H210.296V132.649C210.296 115.836 209.631 104.623 208.288 98.9834C205.974 89.3304 201.758 82.0638 195.653 77.1973C189.549 72.3308 181.542 69.891 171.647 69.891C160.315 69.891 150.181 73.6508 141.217 81.1572C132.253 88.6636 126.348 97.97 123.488 109.05C121.706 116.209 120.815 129.436 120.815 148.742V202.246H102.089V0.0133459L102.062 0Z" fill="#EE80B4"/>
<path d="M391.663 153.822L407.45 162.142C402.277 172.328 396.291 180.554 389.509 186.821C382.726 193.074 375.092 197.847 366.62 201.1C358.134 204.367 348.545 205.993 337.839 205.993C314.099 205.993 295.532 198.194 282.139 182.594C268.747 166.995 262.057 149.356 262.057 129.69C262.057 111.184 267.722 94.6908 279.067 80.1979C293.431 61.7852 312.676 52.5723 336.775 52.5723C360.874 52.5723 381.409 62.0119 396.225 80.8646C406.759 94.1841 412.119 110.81 412.292 130.756H281.328C281.687 147.702 287.087 161.595 297.541 172.435C307.981 183.274 320.882 188.687 336.243 188.687C343.651 188.687 350.859 187.394 357.868 184.808C364.877 182.221 370.836 178.794 375.743 174.528C380.651 170.261 385.971 163.355 391.677 153.822H391.663ZM391.663 114.53C389.163 104.517 385.519 96.5174 380.744 90.5309C375.97 84.5444 369.652 79.718 361.792 76.0514C353.932 72.3849 345.673 70.5583 337.015 70.5583C322.731 70.5583 310.455 75.1581 300.174 84.3711C292.673 91.0776 287.007 101.131 283.164 114.543H391.65L391.663 114.53Z" fill="#EE80B4"/>
<path d="M592.199 56.3317V202.233H573.739V177.154C565.892 186.727 557.088 193.914 547.326 198.74C537.564 203.567 526.884 205.98 515.287 205.98C494.686 205.98 477.103 198.487 462.513 183.514C447.937 168.541 440.635 150.328 440.635 128.863C440.635 107.397 447.99 89.8907 462.713 74.9579C477.422 60.0251 495.124 52.5586 515.819 52.5586C527.762 52.5586 538.588 55.1051 548.257 60.1983C557.926 65.2915 566.424 72.9446 573.739 83.1309V56.3052H592.199V56.3317ZM517.348 70.6779C506.921 70.6779 497.305 73.2512 488.487 78.3844C479.67 83.5175 472.648 90.7306 467.447 100.024C462.234 109.303 459.627 119.13 459.627 129.489C459.627 139.849 462.26 149.582 467.514 158.955C472.767 168.328 479.83 175.634 488.687 180.861C497.545 186.087 507.054 188.7 517.215 188.7C527.376 188.7 537.165 186.114 546.341 180.927C555.518 175.741 562.581 168.741 567.515 159.902C572.463 151.062 574.936 141.102 574.936 130.036C574.936 113.156 569.39 99.0503 558.298 87.704C547.206 76.3577 533.561 70.6913 517.348 70.6913V70.6779Z" fill="#EE80B4"/>
<path d="M650.652 2.14648H669.379V56.3179H699.077V72.5439H669.379V202.219H650.652V72.5439H625.104V56.3179H650.652V2.14648Z" fill="#EE80B4"/>
<path d="M720.078 56.3321H739.203V77.6515C744.909 69.2518 750.934 62.972 757.264 58.8121C763.595 54.6523 770.191 52.5723 777.054 52.5723C782.228 52.5723 787.761 54.2255 793.639 57.5321L783.877 73.3582C779.953 71.6649 776.655 70.8117 773.982 70.8117C767.731 70.8117 761.719 73.3848 755.921 78.518C750.122 83.6645 745.706 91.6376 742.674 102.451C740.347 110.77 739.189 127.57 739.189 152.875V202.22H720.064V56.3189L720.078 56.3321Z" fill="#EE80B4"/>
<path d="M932.102 153.822L947.889 162.142C942.715 172.328 936.73 180.554 929.947 186.821C923.164 193.074 915.531 197.847 907.045 201.1C898.56 204.367 888.971 205.993 878.265 205.993C854.524 205.993 835.958 198.194 822.565 182.594C809.172 166.995 802.482 149.356 802.482 129.69C802.482 111.184 808.148 94.6908 819.493 80.1979C833.857 61.7852 853.101 52.5723 877.2 52.5723C901.299 52.5723 921.835 62.0119 936.65 80.8646C947.184 94.1841 952.544 110.81 952.717 130.756H821.753C822.113 147.702 827.513 161.595 837.953 172.435C848.406 183.274 861.307 188.687 876.655 188.687C884.063 188.687 891.271 187.394 898.28 184.808C905.289 182.221 911.248 178.794 916.155 174.528C921.063 170.261 926.383 163.355 932.088 153.822H932.102ZM932.102 114.53C929.602 104.517 925.958 96.5174 921.183 90.5309C916.408 84.5444 910.091 79.718 902.231 76.0514C894.371 72.3849 886.112 70.5583 877.453 70.5583C863.169 70.5583 850.893 75.1581 840.626 84.3711C833.125 91.0776 827.459 101.131 823.615 114.543H932.102V114.53Z" fill="#EE80B4"/>
</svg>
