<svg width="50" height="50" viewBox="0 0 50 50" fill="none" xmlns="http://www.w3.org/2000/svg">
<path fill-rule="evenodd" clip-rule="evenodd" d="M42.7149 7.26706C38.0144 2.58335 31.7637 0.00275999 25.1054 0C11.3838 0 0.213533 11.1145 0.207987 24.7764C0.207987 29.1427 1.3533 33.4042 3.53023 37.1633L0 50L13.1974 46.5528C16.8358 48.5262 20.929 49.5667 25.0943 49.5694H25.1054C38.8242 49.5694 49.9945 38.455 50 24.793C50 18.1745 47.4154 11.9508 42.7149 7.26706ZM25.1054 45.3881H25.0971C21.3838 45.3853 17.7426 44.3945 14.5646 42.5149L13.8103 42.0678L5.97892 44.1129L8.06711 36.5147L7.57626 35.7364C5.50471 32.4575 4.41209 28.668 4.41209 24.7764C4.41764 13.4218 13.6994 4.18415 25.1137 4.18415C30.6406 4.18691 35.8347 6.33142 39.7421 10.223C43.6467 14.1174 45.7987 19.2896 45.7959 24.793C45.7903 36.1476 36.5086 45.3881 25.1054 45.3881ZM36.4559 29.9625C35.8319 29.6506 32.7759 28.1547 32.2047 27.9477C31.6362 27.7407 31.223 27.6386 30.807 28.2568C30.391 28.875 29.1986 30.2688 28.8353 30.6828C28.472 31.0968 28.1087 31.1465 27.4875 30.8374C26.8663 30.5283 24.8613 29.8741 22.4847 27.7655C20.6351 26.1233 19.3871 24.0975 19.0238 23.4765C18.6606 22.8555 18.985 22.5215 19.2984 22.2124C19.5785 21.9364 19.9196 21.4893 20.2302 21.1277C20.5408 20.7662 20.6434 20.5095 20.8514 20.0955C21.0593 19.6815 20.9567 19.3199 20.7987 19.0108C20.6434 18.6989 19.3982 15.6519 18.8796 14.4127C18.3777 13.2121 17.8647 13.3722 17.482 13.3556C17.1215 13.339 16.7055 13.3335 16.2923 13.3335C15.8763 13.3335 15.2024 13.4881 14.6312 14.1063C14.0599 14.7273 12.4542 16.2232 12.4542 19.2703C12.4542 22.3173 14.6839 25.2622 14.9945 25.6762C15.305 26.0902 19.3816 32.3416 25.6212 35.0243C27.1076 35.6618 28.2668 36.0427 29.1681 36.3298C30.6572 36.8017 32.0133 36.7327 33.0865 36.5754C34.2817 36.3988 36.7665 35.0795 37.2851 33.6333C37.8037 32.187 37.8037 30.9478 37.6484 30.6883C37.4931 30.4289 37.0743 30.2716 36.4559 29.9625Z" fill="white"/>
</svg>
