<svg width="16.000000" height="18.000000" viewBox="0 0 16 18" fill="none" xmlns="http://www.w3.org/2000/svg" xmlns:xlink="http://www.w3.org/1999/xlink">
	<path id="Vector" d="M10.98 0L10.98 1.15L10.99 1.15C10.99 1.83 11.41 2.38 11.94 2.38L16 2.38L16 4.66L0 4.66L0 2.38L4.05 2.38C4.58 2.38 5 1.83 5 1.15L5 0L10.98 0ZM3.16 18L1.48 5.96L14.51 5.96L12.84 18L3.16 18ZM5.91 14.82C6.65 14.82 7.24 14.26 7.24 13.58L7.24 9.85C7.24 9.17 6.65 8.62 5.91 8.62C5.17 8.62 4.58 9.17 4.58 9.85L4.58 13.58C4.58 14.26 5.17 14.82 5.91 14.82ZM10.08 14.82C10.82 14.82 11.41 14.26 11.41 13.58L11.41 9.85C11.41 9.17 10.82 8.62 10.08 8.62C9.34 8.62 8.75 9.17 8.75 9.85L8.75 13.58C8.75 14.26 9.34 14.82 10.08 14.82Z" fill="#262626" fill-opacity="1.000000" fill-rule="evenodd"/>
</svg>
