<svg width="21.000000" height="21.000000" viewBox="0 0 21 21" fill="none" xmlns="http://www.w3.org/2000/svg" xmlns:xlink="http://www.w3.org/1999/xlink">
		<clipPath id="clip9_3608">
			<rect id="lucide/paperclip" rx="0.000000" width="20.000000" height="20.000000" transform="translate(0.500000 0.500000)" fill="white" fill-opacity="0"/>
		</clipPath>
	</defs>
	<rect id="lucide/paperclip" rx="0.000000" width="20.000000" height="20.000000" transform="translate(0.500000 0.500000)" fill="#FFFFFF" fill-opacity="0"/>
	<g clip-path="url(#clip9_3608)">
		<path id="Vector" d="M11.58 17.72L18.37 10.76M14 5.25L6.63 12.76C6.31 13.09 6.12 13.53 6.12 14C6.12 14.46 6.31 14.9 6.63 15.23C6.96 15.56 7.41 15.74 7.87 15.74C8.33 15.74 8.78 15.56 9.11 15.23L16.47 7.72C17.13 7.06 17.5 6.17 17.5 5.25C17.5 4.32 17.13 3.43 16.47 2.77C15.81 2.11 14.92 1.75 14 1.75C13.07 1.75 12.18 2.11 11.52 2.77L4.16 10.28C3.17 11.27 2.62 12.6 2.62 14C2.62 15.39 3.17 16.72 4.16 17.71C5.14 18.69 6.48 19.25 7.87 19.25C9.26 19.25 10.6 18.69 11.58 17.71" stroke="#262626" stroke-opacity="1.000000" stroke-width="2.000000" stroke-linejoin="round" stroke-linecap="square"/>
	</g>
</svg>
