<svg width="188" height="61" viewBox="0 0 188 61" fill="none" xmlns="http://www.w3.org/2000/svg">
<path d="M94.0253 14.9955C91.9216 13.4843 89.3311 12.7302 86.254 12.7302H76.3789V48.0777H79.6716V37.7983C79.6716 35.5421 81.5167 33.7104 83.796 33.7104H86.2571C89.3342 33.7104 91.9277 32.9624 94.0284 31.4664C96.1291 29.9704 97.1825 27.3815 97.1825 23.6935V22.7868C97.1825 19.1018 96.1322 16.5037 94.0284 14.9925L94.0253 14.9955ZM93.7974 23.5592C93.7974 26.2794 93.0489 28.16 91.5581 29.2011C90.0642 30.2422 88.327 30.7642 86.3464 30.7642H83.7929C81.5167 30.7642 79.6685 28.9355 79.6685 26.6763V15.6733H86.3433C88.3239 15.6733 90.0611 16.1954 91.555 17.2364C93.0489 18.2775 93.7943 20.1581 93.7943 22.8784V23.5592H93.7974Z" fill="#262626"/>
<path d="M120.265 12.7303L111.302 24.8019C109.577 27.1221 105.865 25.9162 105.865 23.0311V12.7273H102.572V48.0748H105.865V37.2L110.621 30.5384L120.542 48.0748H124.291L112.725 27.5923L124.291 12.7273H120.268L120.265 12.7303Z" fill="#262626"/>
<path d="M144.225 42.46L133.848 12.733H129.23V48.0805H132.523V26.2822L132.495 25.0213C132.468 23.8367 134.14 23.5406 134.531 24.658L142.722 48.0805H145.694L153.924 24.542C154.316 23.4276 155.982 23.7207 155.96 24.8992L155.936 26.2822V48.0805H159.228V12.73H154.611L144.231 42.4569L144.225 42.46Z" fill="#262626"/>
<path d="M187.659 12.73H183.636L175.47 23.7299C173.493 26.3921 169.236 25.006 169.236 21.6997V12.73H165.943V48.0775H169.236V37.2027L173.992 30.5411L183.913 48.0775H187.662L176.096 27.595L187.662 12.73H187.659Z" fill="#262626"/>
<path fill-rule="evenodd" clip-rule="evenodd" d="M60.6552 30.0597C60.6552 46.6612 47.077 60.1194 30.3276 60.1194C13.5781 60.1194 0 46.6612 0 30.0597C0 13.4582 13.5781 0 30.3276 0C47.077 0 60.6552 13.4582 60.6552 30.0597ZM28.4234 12.7793H47.7608V31.946H38.0059C34.821 31.946 32.2367 34.5044 32.2367 37.6642V47.3331H12.8992V28.1664H22.6542C25.8391 28.1664 28.4234 25.608 28.4234 22.4482V12.7793Z" fill="#AC0900"/>
</svg>
