<svg width="20" height="20" viewBox="0 0 20 20" fill="none" xmlns="http://www.w3.org/2000/svg">
<path d="M19.3334 17.6054L15.6753 13.9473C14.8909 13.1629 14.6295 11.9802 15.0522 10.9539C15.5067 9.84452 15.7022 8.60073 15.5605 7.30073C15.1817 3.84548 12.3984 1.072 8.94075 0.707899C4.19284 0.209404 0.20977 4.19247 0.708265 8.94039C1.07236 12.3981 3.8434 15.1813 7.3011 15.5577C8.60109 15.6994 9.84489 15.5039 10.9543 15.0494C11.983 14.6291 13.1633 14.8881 13.9477 15.6725L17.6033 19.3281L19.3309 17.6005L19.3334 17.6054ZM3.11032 8.13645C3.11032 5.3654 5.36577 3.10996 8.13681 3.10996C10.9079 3.10996 13.1633 5.3654 13.1633 8.13645C13.1633 10.9075 10.9079 13.1629 8.13681 13.1629C5.36577 13.1629 3.11032 10.9075 3.11032 8.13645Z" fill="#262626"/>
</svg>
