<svg width="22.501953" height="17.500732" viewBox="0 0 22.502 17.5007" fill="none" xmlns="http://www.w3.org/2000/svg" xmlns:xlink="http://www.w3.org/1999/xlink">
	<path id="Vector" d="M22.5 1.95C22.5 3.03 21.56 3.91 20.4 3.91C19.24 3.91 18.3 3.03 18.3 1.95C18.3 0.87 19.24 0 20.4 0C21.56 0 22.5 0.87 22.5 1.95ZM17.55 15.42C18.07 16.07 18.59 16.73 19.11 17.39L19.11 17.39C19.11 17.4 19.12 17.4 19.13 17.41C19.15 17.43 19.17 17.45 19.15 17.48C19.14 17.5 19.11 17.5 19.08 17.49C19.07 17.49 19.06 17.49 19.06 17.49C17.69 17.49 16.32 17.49 14.95 17.5C14.86 17.5 14.81 17.47 14.77 17.4C13.95 16.27 13.13 15.13 12.31 14C12.04 13.61 11.76 13.23 11.48 12.84C11.43 12.77 11.38 12.75 11.3 12.75C8.88 12.75 6.45 12.75 4.03 12.75C3.89 12.75 3.89 12.75 3.89 12.88L3.89 17.34Q3.89 17.41 3.85 17.45Q3.81 17.49 3.72 17.49L0.15 17.49C0.05 17.49 0 17.44 0 17.34L0 3.07C0 2.93 0 2.93 0.14 2.93C1.08 2.93 2.02 2.93 2.97 2.93C6.74 2.93 10.51 2.93 14.29 2.93C14.91 2.93 15.53 2.98 16.13 3.16C17.39 3.52 18.21 4.3 18.54 5.5C18.64 5.89 18.69 6.29 18.72 6.69C18.75 7.39 18.74 8.09 18.73 8.78C18.71 9.41 18.62 10.03 18.42 10.64C18.1 11.55 17.45 12.15 16.49 12.48C16.19 12.58 15.88 12.66 15.56 12.71C15.43 12.73 15.43 12.74 15.51 12.84C16.19 13.7 16.87 14.56 17.55 15.42ZM14.85 8.18C14.84 8.16 14.84 8.15 14.84 8.13C14.84 8.01 14.85 7.88 14.85 7.75C14.85 7.49 14.86 7.22 14.83 6.95C14.76 6.51 14.56 6.29 14.15 6.19C13.9 6.14 13.65 6.12 13.4 6.12C10.29 6.12 7.17 6.12 4.05 6.12L4.05 6.12C3.89 6.12 3.89 6.12 3.89 6.27L3.89 9.41C3.89 9.51 3.95 9.56 4.06 9.56L13.33 9.56C13.55 9.56 13.76 9.55 13.97 9.53C14.52 9.47 14.77 9.23 14.83 8.72C14.85 8.54 14.85 8.36 14.85 8.18Z" fill="#262626" fill-opacity="1.000000" fill-rule="evenodd"/>
</svg>
