<svg width="18.001953" height="14.000610" viewBox="0 0 18.002 14.0006" fill="none" xmlns="http://www.w3.org/2000/svg" xmlns:xlink="http://www.w3.org/1999/xlink">
	<path id="Vector" d="M18 1.56C18 2.43 17.25 3.13 16.32 3.13C15.39 3.13 14.64 2.43 14.64 1.56C14.64 0.7 15.39 0 16.32 0C17.25 0 18 0.7 18 1.56ZM14.04 12.33C14.45 12.86 14.87 13.39 15.29 13.91L15.29 13.91C15.29 13.92 15.29 13.92 15.3 13.93C15.32 13.94 15.33 13.96 15.32 13.98C15.31 14 15.29 14 15.26 13.99C15.26 13.99 15.25 13.99 15.24 13.99C14.15 13.99 13.05 13.99 11.96 14C11.89 14 11.85 13.97 11.81 13.92C11.16 13.01 10.5 12.1 9.85 11.2C9.63 10.89 9.4 10.58 9.18 10.27C9.15 10.22 9.1 10.2 9.04 10.2C7.1 10.2 5.16 10.2 3.22 10.2C3.11 10.2 3.11 10.2 3.11 10.3L3.11 13.87Q3.11 13.93 3.08 13.96Q3.05 13.99 2.97 13.99L0.12 13.99Q0.06 13.99 0.02 13.96Q0 13.93 0 13.87L0 2.46C0 2.34 0 2.34 0.11 2.34C0.86 2.34 1.62 2.34 2.37 2.34C5.39 2.34 8.41 2.34 11.43 2.35C11.93 2.35 12.42 2.39 12.9 2.52C13.91 2.82 14.56 3.44 14.83 4.4C14.91 4.71 14.95 5.03 14.97 5.35C15 5.91 14.99 6.47 14.98 7.03C14.97 7.53 14.9 8.03 14.73 8.51C14.48 9.24 13.96 9.72 13.19 9.98C12.95 10.06 12.7 10.12 12.45 10.17C12.35 10.18 12.34 10.19 12.41 10.27C12.95 10.96 13.49 11.65 14.04 12.33ZM11.88 6.54C11.88 6.53 11.88 6.52 11.88 6.5C11.87 6.4 11.88 6.3 11.88 6.2C11.88 5.99 11.89 5.77 11.86 5.56C11.81 5.2 11.65 5.03 11.32 4.95C11.12 4.91 10.92 4.89 10.72 4.89C8.23 4.89 5.74 4.89 3.24 4.89L3.24 4.89C3.11 4.89 3.11 4.89 3.11 5.01L3.11 7.52C3.11 7.61 3.16 7.65 3.25 7.65L10.66 7.65C10.84 7.65 11.01 7.64 11.18 7.62C11.61 7.57 11.81 7.38 11.86 6.98C11.88 6.83 11.88 6.69 11.88 6.54Z" fill="#262626" fill-opacity="1.000000" fill-rule="evenodd"/>
</svg>
