<svg width="24.000000" height="24.000000" viewBox="0 0 24 24" fill="none" xmlns="http://www.w3.org/2000/svg" xmlns:xlink="http://www.w3.org/1999/xlink">
	<path id="Vector" d="M8.01 10.05L7.08 9.08L11.99 4L16.9 9.08L15.97 10.05L14.48 8.5C13.84 7.84 12.75 8.31 12.75 9.25L12.75 15.73L11.43 15.73L11.43 9.05C11.43 8.11 10.34 7.64 9.7 8.3L8.01 10.05ZM4 14.36L4 20L19.99 20L19.99 14.36L18.34 14.36L18.34 16.66C18.34 17.56 17.64 18.28 16.78 18.28L7.21 18.28C6.35 18.28 5.65 17.56 5.65 16.66L5.65 14.36L4 14.36Z" fill="#262626" fill-opacity="1.000000" fill-rule="evenodd"/>
</svg>
