<svg width="22.500000" height="15.000000" viewBox="0 0 22.5 15" fill="none" xmlns="http://www.w3.org/2000/svg" xmlns:xlink="http://www.w3.org/1999/xlink">
	<path id="Vector" d="M0 1.51L0 1.04C0.16 0.76 0.41 0.68 0.68 0.67C1.71 0.66 2.74 0.64 3.78 0.64C4.24 0.64 4.61 0.88 4.79 1.41C5.21 2.62 5.74 3.76 6.26 4.91C6.57 5.59 6.9 6.27 7.37 6.83C7.54 7.03 7.72 7.22 7.97 7.29C8.2 7.36 8.37 7.28 8.48 7.04C8.57 6.86 8.64 6.66 8.67 6.45C8.86 5.21 8.89 3.97 8.75 2.73C8.66 1.88 8.38 1.26 7.58 1.13C7.39 1.09 7.42 0.94 7.51 0.81C7.75 0.44 8.08 0.23 8.47 0.15C9.47 -0.05 10.48 -0.01 11.49 0.03C11.83 0.04 12.17 0.09 12.5 0.21C12.81 0.32 13 0.53 13.1 0.89C13.25 1.42 13.21 1.95 13.2 2.49C13.18 3.63 13.15 4.78 13.14 5.92C13.14 6.27 13.17 6.62 13.33 6.94C13.52 7.31 13.79 7.37 14.07 7.09C14.25 6.91 14.44 6.72 14.59 6.51C15.15 5.74 15.58 4.88 16.01 4.01C16.43 3.15 16.78 2.25 17.09 1.33C17.23 0.91 17.47 0.68 17.87 0.68C19.12 0.68 20.37 0.67 21.62 0.66C21.74 0.66 21.86 0.68 21.97 0.71C22.42 0.83 22.57 1.1 22.47 1.63C22.39 1.99 22.26 2.33 22.11 2.67C21.58 3.81 20.89 4.84 20.22 5.87C19.82 6.49 19.41 7.08 19.06 7.73C18.73 8.34 18.76 8.78 19.19 9.31C19.45 9.63 19.73 9.95 20.01 10.26C20.66 11 21.32 11.73 21.86 12.58C22.11 12.98 22.38 13.37 22.46 13.88C22.53 14.36 22.39 14.68 21.99 14.84C21.79 14.92 21.58 14.94 21.37 14.94C20.36 14.96 19.36 14.98 18.36 14.99C18.24 15 18.11 14.99 17.99 14.97C17.39 14.83 16.89 14.46 16.46 13.97C15.97 13.42 15.55 12.79 15.08 12.22C14.9 12 14.7 11.79 14.47 11.63C14.17 11.43 13.95 11.46 13.7 11.75C13.5 11.97 13.39 12.24 13.31 12.54C13.21 12.94 13.18 13.36 13.17 13.78C13.16 14.61 12.88 14.94 12.16 14.94C11.73 14.94 11.29 14.94 10.85 14.94C9.8 14.95 8.82 14.64 7.9 14.08C6.38 13.16 5.19 11.83 4.18 10.22C2.48 7.51 1.14 4.58 0 1.51Z" fill="#262626" fill-opacity="1.000000" fill-rule="nonzero"/>
</svg>
