<svg width="18.000000" height="12.000000" viewBox="0 0 18 12" fill="none" xmlns="http://www.w3.org/2000/svg" xmlns:xlink="http://www.w3.org/1999/xlink">
	<path id="Vector" d="M0 1.2L0 0.83C0.13 0.6 0.33 0.54 0.54 0.54C1.37 0.52 2.19 0.51 3.02 0.51C3.39 0.51 3.68 0.7 3.83 1.13C4.17 2.09 4.59 3.01 5 3.92C5.25 4.47 5.51 5.02 5.9 5.46C6.03 5.62 6.18 5.77 6.37 5.83C6.56 5.89 6.69 5.83 6.79 5.63C6.86 5.48 6.91 5.33 6.94 5.16C7.09 4.17 7.11 3.18 7 2.18C6.93 1.51 6.7 1.01 6.06 0.9C5.91 0.87 5.93 0.75 6 0.64C6.2 0.35 6.46 0.19 6.77 0.12C7.58 -0.04 8.38 -0.01 9.19 0.02C9.46 0.03 9.74 0.07 10 0.17C10.25 0.25 10.4 0.42 10.48 0.71C10.59 1.14 10.57 1.56 10.56 1.99C10.54 2.91 10.52 3.82 10.51 4.74C10.51 5.01 10.53 5.3 10.66 5.55C10.81 5.85 11.03 5.9 11.26 5.67C11.4 5.53 11.55 5.37 11.67 5.2C12.12 4.59 12.46 3.9 12.81 3.21C13.14 2.52 13.42 1.8 13.67 1.06C13.78 0.73 13.97 0.55 14.29 0.55C15.3 0.55 16.3 0.53 17.3 0.53C17.39 0.53 17.49 0.54 17.58 0.56C17.93 0.66 18.05 0.88 17.97 1.3C17.91 1.59 17.81 1.87 17.68 2.13C17.26 3.05 16.71 3.87 16.18 4.7C15.86 5.19 15.53 5.67 15.25 6.19C14.98 6.67 15.01 7.03 15.35 7.44C15.56 7.71 15.78 7.96 16.01 8.21C16.53 8.8 17.06 9.38 17.49 10.07C17.69 10.38 17.9 10.69 17.97 11.1C18.02 11.49 17.91 11.74 17.59 11.87C17.43 11.93 17.26 11.95 17.09 11.95C16.29 11.97 15.49 11.98 14.69 11.99C14.59 12 14.49 11.99 14.39 11.97C13.91 11.87 13.51 11.57 13.16 11.18C12.77 10.74 12.44 10.23 12.06 9.77C11.91 9.6 11.76 9.43 11.58 9.31C11.34 9.14 11.16 9.17 10.96 9.4C10.8 9.57 10.71 9.79 10.65 10.03C10.57 10.35 10.54 10.68 10.54 11.02C10.53 11.69 10.3 11.95 9.73 11.95C9.38 11.95 9.03 11.95 8.68 11.95C7.84 11.96 7.06 11.71 6.32 11.26C5.1 10.53 4.15 9.46 3.34 8.17C1.98 6.01 0.91 3.66 0 1.2Z" fill="#262626" fill-opacity="1.000000" fill-rule="nonzero"/>
</svg>
