<svg width="14" height="14" viewBox="0 0 14 14" fill="none" xmlns="http://www.w3.org/2000/svg">
<path d="M13.75 6.88872C13.7519 7.83272 13.5537 8.74411 13.161 9.6152C12.9069 10.1774 12.5758 10.6935 12.1773 11.1655C11.6672 11.768 11.0666 12.2649 10.3793 12.6544C9.69018 13.0478 8.95098 13.3049 8.16751 13.4353C7.71321 13.5102 7.25699 13.5351 6.79691 13.5159C6.09429 13.4852 5.41477 13.3452 4.75449 13.0996C4.33292 12.9422 3.36272 12.4779 3.36272 12.4779L0.25 13.75C0.25 13.75 1.89972 10.8105 1.04502 9.45978C0.846749 9.14511 0.708149 8.79591 0.621524 8.43519C0.565699 8.20111 0.521425 7.96511 0.490625 7.72335C0.448275 7.39142 0.429025 7.05756 0.43865 6.72179C0.455975 6.09821 0.556074 5.48615 0.744724 4.89135C0.971874 4.17567 1.3126 3.51756 1.76305 2.917C2.06335 2.51599 2.406 2.15336 2.78907 1.8291C3.23567 1.45111 3.72269 1.13644 4.25399 0.885094C4.84689 0.604964 5.47059 0.415012 6.12124 0.320995C6.35609 0.286459 6.59286 0.265353 6.82964 0.255759C7.86336 0.211629 8.85088 0.401581 9.79798 0.816021C10.3736 1.06929 10.901 1.39931 11.3803 1.80415C11.9983 2.32412 12.5084 2.93427 12.9049 3.63652C13.2688 4.28312 13.5171 4.97001 13.648 5.69912C13.6942 5.96198 13.7269 6.22485 13.7423 6.49155C13.75 6.6201 13.7462 6.74865 13.7519 6.8868L13.75 6.88872ZM9.28401 10.7069C9.42838 10.7031 9.60741 10.6973 9.78066 10.6513C10.1175 10.563 10.4121 10.3884 10.6777 10.1639C10.8048 10.0565 10.9203 9.93754 10.9857 9.78404C11.0993 9.50775 11.159 9.21994 11.1551 8.91871C11.1551 8.8151 11.1128 8.73835 11.0184 8.69038C10.9183 8.63858 10.8163 8.59061 10.7143 8.5388C10.3582 8.36228 10.0001 8.18768 9.64013 8.02075C9.52848 7.96895 9.41491 7.91331 9.29556 7.87877C9.12616 7.82888 9.03568 7.8615 8.93366 8.0054C8.73731 8.2817 8.51786 8.5388 8.29263 8.79207C8.18099 8.91679 8.07896 8.93406 7.92304 8.86882C7.86914 8.8458 7.81524 8.81893 7.76134 8.79591C7.45526 8.66736 7.16074 8.5177 6.88354 8.33542C6.36186 7.99389 5.91526 7.56986 5.54182 7.071C5.39167 6.86953 5.24729 6.66423 5.12602 6.44358C5.05864 6.3227 5.07404 6.22485 5.16452 6.12316C5.22227 6.05792 5.28387 5.99652 5.33969 5.92937C5.48407 5.76052 5.63037 5.59551 5.72084 5.38829C5.76897 5.27893 5.77474 5.17723 5.72662 5.06979C5.56492 4.70331 5.42247 4.32917 5.26847 3.9627C5.19724 3.79385 5.13179 3.62117 5.04517 3.45616C4.95662 3.28923 4.82572 3.19713 4.62937 3.20673C4.53889 3.21056 4.45034 3.20673 4.35987 3.20289C4.15004 3.18946 3.96139 3.2451 3.79969 3.38517C3.74772 3.43121 3.70344 3.4811 3.65724 3.53099C3.49939 3.69791 3.36079 3.88211 3.26069 4.08933C3.0374 4.55366 2.98349 5.04101 3.07782 5.54371C3.15867 5.97158 3.33769 6.36299 3.55907 6.73714C3.69767 6.97314 3.86322 7.18996 4.01914 7.41444C4.29634 7.81545 4.60627 8.1896 4.94507 8.54264C5.16452 8.77289 5.39744 8.9897 5.64192 9.19308C6.03269 9.51542 6.44656 9.80131 6.90664 10.0181C7.40714 10.2541 7.92881 10.4364 8.46396 10.5841C8.72191 10.6551 8.98371 10.7089 9.28786 10.7089L9.28401 10.7069Z" fill="#DBD6C8"/>
</svg>
