<svg width="18.000000" height="12.000977" viewBox="0 0 18 12.001" fill="none" xmlns="http://www.w3.org/2000/svg" xmlns:xlink="http://www.w3.org/1999/xlink">
	<desc>
			Created with Pixso.
	</desc>
	<defs/>
	<path id="Vector" d="M8.01 0C8.62 0 9.23 0 9.84 0C9.88 0 9.92 0.01 9.97 0.01C11.27 0.01 12.57 0.05 13.86 0.12C14.47 0.16 15.08 0.19 15.68 0.29C16.69 0.45 17.4 1.07 17.63 2.02C17.9 3.15 17.96 4.3 17.99 5.45C18 6.17 17.99 6.88 17.94 7.6C17.88 8.42 17.82 9.24 17.62 10.04C17.4 10.89 16.82 11.44 15.92 11.64C15.01 11.84 14.08 11.87 13.15 11.91C12.18 11.95 11.21 11.98 10.24 11.99C8.46 12.01 6.67 11.98 4.89 11.9C4 11.85 3.11 11.8 2.23 11.68C1.29 11.54 0.55 10.89 0.35 10C0.1 8.95 0.03 7.89 0.01 6.82C-0.01 5.94 -0.01 5.06 0.05 4.18C0.11 3.47 0.17 2.77 0.32 2.08C0.5 1.16 1.19 0.5 2.16 0.34C3.4 0.13 4.65 0.09 5.9 0.04C6.56 0.02 7.21 0.01 7.87 0.01C7.92 0.01 7.96 0 8.01 0ZM7.27 5.99C7.27 6.78 7.27 7.56 7.27 8.35C7.27 8.53 7.27 8.53 7.43 8.44C8.88 7.65 10.32 6.87 11.76 6.08C11.91 6 11.91 5.99 11.76 5.91C10.32 5.12 8.87 4.33 7.42 3.54C7.28 3.46 7.27 3.47 7.27 3.63C7.27 4.42 7.27 5.2 7.27 5.99Z" fill="#262626" fill-opacity="1.000000" fill-rule="nonzero"/>
</svg>
