<svg width="22.500000" height="15.001221" viewBox="0 0 22.5 15.0012" fill="none" xmlns="http://www.w3.org/2000/svg" xmlns:xlink="http://www.w3.org/1999/xlink">
	<path id="Vector" d="M10.01 0C10.78 0 11.54 0 12.3 0C12.35 0 12.41 0.01 12.46 0.01C14.08 0.02 15.71 0.07 17.33 0.16C18.09 0.2 18.85 0.24 19.6 0.36C20.87 0.56 21.75 1.34 22.03 2.53C22.37 3.94 22.46 5.38 22.49 6.82C22.51 7.71 22.49 8.61 22.42 9.5C22.35 10.52 22.27 11.55 22.02 12.55C21.75 13.62 21.03 14.3 19.9 14.55C18.77 14.8 17.6 14.84 16.44 14.89C15.23 14.94 14.02 14.97 12.8 14.99C10.57 15.01 8.34 14.98 6.11 14.87C5 14.82 3.89 14.76 2.79 14.6C1.61 14.43 0.68 13.61 0.43 12.51C0.13 11.19 0.04 9.86 0.01 8.52C-0.02 7.42 -0.01 6.33 0.07 5.23C0.14 4.34 0.22 3.47 0.4 2.6C0.63 1.45 1.48 0.63 2.7 0.42C4.25 0.16 5.81 0.12 7.37 0.06C8.2 0.02 9.02 0.02 9.84 0.01C9.9 0.01 9.96 0 10.01 0ZM9.09 7.49C9.09 8.47 9.09 9.45 9.09 10.43C9.09 10.66 9.09 10.66 9.29 10.55C11.1 9.57 12.9 8.58 14.7 7.6C14.89 7.5 14.89 7.49 14.7 7.39C12.89 6.4 11.09 5.41 9.28 4.43C9.1 4.33 9.09 4.33 9.09 4.53C9.09 5.52 9.09 6.51 9.09 7.49Z" fill="#262626" fill-opacity="1.000000" fill-rule="nonzero"/>
</svg>
