<svg width="16.000000" height="16.000000" viewBox="0 0 16 16" fill="none" xmlns="http://www.w3.org/2000/svg" xmlns:xlink="http://www.w3.org/1999/xlink">
	<desc>
			Created with Pixso.
	</desc>
	<defs>
		<clipPath id="clip6_128">
			<rect id="teenyicons:button-solid" width="16.000000" height="16.000000" transform="translate(-0.500000 -0.500000)" fill="white" fill-opacity="0"/>
		</clipPath>
	</defs>
	<rect id="teenyicons:button-solid" width="16.000000" height="16.000000" transform="translate(-0.500000 -0.500000)" fill="#FFFFFF" fill-opacity="0"/>
	<g clip-path="url(#clip6_128)">
		<path id="Vector" d="M3.76 5.9C2.91 5.9 2.1 5.56 1.5 4.96C0.9 4.36 0.56 3.54 0.56 2.7C0.56 1.85 0.9 1.03 1.5 0.43C2.1 -0.17 2.91 -0.5 3.76 -0.5L11.23 -0.5C12.08 -0.5 12.89 -0.17 13.49 0.43C14.09 1.03 14.43 1.85 14.43 2.7C14.43 3.54 14.09 4.36 13.49 4.96C12.89 5.56 12.08 5.9 11.23 5.9L9.1 5.9L9.1 3.23C9.1 2.52 8.81 1.84 8.31 1.34C7.81 0.84 7.14 0.56 6.43 0.56C5.72 0.56 5.04 0.84 4.54 1.34C4.04 1.84 3.76 2.52 3.76 3.23L3.76 5.9Z" fill="#FFFFFF" fill-opacity="1.000000" fill-rule="nonzero"/>
		<path id="Vector" d="M6.43 1.63C6 1.63 5.6 1.8 5.3 2.1C5 2.4 4.83 2.8 4.83 3.23L4.83 8.08C4.23 8.2 3.68 8.53 3.3 9.01C2.91 9.48 2.69 10.08 2.69 10.7C2.69 11.97 3.2 13.19 4.1 14.09C5 14.99 6.22 15.5 7.5 15.5L8.03 15.5C9.44 15.5 10.8 14.93 11.8 13.93C12.8 12.93 13.36 11.58 13.36 10.16L13.36 9.25C13.36 8.64 13.12 8.06 12.69 7.63C12.26 7.2 11.68 6.96 11.07 6.96L8.03 6.96L8.03 3.23C8.03 2.8 7.86 2.4 7.56 2.1C7.26 1.8 6.85 1.63 6.43 1.63Z" fill="#FFFFFF" fill-opacity="1.000000" fill-rule="nonzero"/>
	</g>
</svg>
