<svg width="20" height="22" viewBox="0 0 20 22" fill="none" xmlns="http://www.w3.org/2000/svg">
<path d="M18.5005 6.13379L10.0005 10.8561M10.0005 10.8561L1.50046 6.13379M10.0005 10.8561V20.3561M19.0005 14.9146V6.79749C19.0005 6.45485 19.0005 6.28353 18.95 6.13073C18.9054 5.99555 18.8323 5.87147 18.7359 5.76678C18.6268 5.64844 18.4771 5.56524 18.1775 5.39884L10.7775 1.28773C10.4939 1.13017 10.3521 1.05139 10.202 1.0205C10.069 0.993168 9.93199 0.993168 9.79909 1.0205C9.64889 1.05139 9.50709 1.13017 9.22349 1.28773L1.82346 5.39884C1.52394 5.56524 1.37418 5.64844 1.26512 5.76678C1.16865 5.87147 1.09564 5.99555 1.05097 6.13073C1.00049 6.28353 1.00049 6.45485 1.00049 6.79749V14.9146C1.00049 15.2573 1.00049 15.4286 1.05097 15.5814C1.09564 15.7166 1.16865 15.8407 1.26512 15.9453C1.37418 16.0637 1.52394 16.1469 1.82346 16.3133L9.22349 20.4244C9.50709 20.582 9.64889 20.6607 9.79909 20.6916C9.93199 20.719 10.069 20.719 10.202 20.6916C10.3521 20.6607 10.4939 20.582 10.7775 20.4244L18.1775 16.3133C18.4771 16.1469 18.6268 16.0637 18.7359 15.9453C18.8323 15.8407 18.9054 15.7166 18.95 15.5814C19.0005 15.4286 19.0005 15.2573 19.0005 14.9146Z" stroke="white" stroke-width="2" stroke-linecap="round" stroke-linejoin="round"/>
</svg>
