<svg width="23" height="14" viewBox="0 0 23 14" fill="none" xmlns="http://www.w3.org/2000/svg">
<path d="M6.443 0C7.082 0 7.673 0.05 8.213 0.198C8.754 0.297 9.197 0.495 9.59 0.742C9.984 0.989333 10.279 1.33567 10.475 1.781C10.672 2.226 10.771 2.771 10.771 3.364C10.771 4.057 10.623 4.65 10.279 5.095C9.984 5.541 9.492 5.936 8.902 6.233C9.738 6.481 10.377 6.926 10.771 7.519C11.165 8.112 11.41 8.855 11.41 9.696C11.41 10.389 11.262 10.982 11.016 11.477C10.771 11.972 10.377 12.417 9.934 12.714C9.45258 13.032 8.9207 13.266 8.361 13.406C7.771 13.555 7.181 13.654 6.591 13.654H0V0H6.443ZM6.049 5.54C6.59 5.54 7.033 5.392 7.377 5.145C7.721 4.898 7.869 4.452 7.869 3.908C7.869 3.611 7.819 3.314 7.721 3.117C7.623 2.92 7.475 2.77 7.279 2.622C7.0786 2.50944 6.86306 2.42626 6.639 2.375C6.393 2.325 6.148 2.325 5.852 2.325H3V5.541L6.049 5.54ZM6.197 11.378C6.492 11.378 6.787 11.328 7.033 11.279C7.279 11.229 7.525 11.131 7.721 10.982C7.9206 10.8364 8.08808 10.6512 8.213 10.438C8.311 10.191 8.41 9.894 8.41 9.548C8.41 8.855 8.213 8.36 7.82 8.014C7.426 7.717 6.885 7.569 6.246 7.569H3V11.379L6.197 11.378ZM15.689 11.328C16.0823 11.724 16.6723 11.922 17.459 11.922C18 11.922 18.492 11.774 18.885 11.527C19.279 11.2297 19.525 10.9327 19.623 10.636H22.033C21.639 11.823 21.049 12.664 20.263 13.208C19.475 13.703 18.541 14 17.41 14C16.6865 14.0011 15.9691 13.8668 15.295 13.604C14.6881 13.3777 14.1472 13.0037 13.721 12.516C13.2633 12.0613 12.9256 11.5003 12.738 10.883C12.492 10.24 12.393 9.548 12.393 8.756C12.393 8.014 12.492 7.322 12.738 6.678C12.974 6.05759 13.3244 5.48703 13.771 4.996C14.213 4.551 14.754 4.156 15.344 3.908C16.0008 3.6443 16.7023 3.50985 17.41 3.512C18.246 3.512 18.984 3.661 19.623 4.007C20.263 4.353 20.754 4.749 21.147 5.343C21.541 5.887 21.837 6.53 22.033 7.223C22.131 7.915 22.18 8.608 22.131 9.399H15C15 10.191 15.295 10.933 15.689 11.329M18.787 6.135C18.443 5.789 17.902 5.591 17.262 5.591C16.8867 5.58537 16.5156 5.67009 16.18 5.838C15.885 5.987 15.689 6.185 15.492 6.383C15.3098 6.57346 15.1899 6.8148 15.148 7.075C15.098 7.323 15.049 7.52 15.049 7.718H19.475C19.377 6.976 19.131 6.482 18.787 6.135ZM14.459 0.94H19.967V2.276H14.46L14.459 0.94Z" fill="white"/>
</svg>
