<svg width="59" height="67" viewBox="0 0 59 67" fill="none" xmlns="http://www.w3.org/2000/svg">
<g filter="url(#filter0_d_2295_47111)">
<path d="M8.62878 0.0024583C5.24559 0.0024583 4.00032 1.24636 4.00032 4.6216V45.3335C3.99745 45.689 4.01391 46.0443 4.04964 46.398C4.12608 47.1354 4.14088 47.8484 4.82886 48.6596C4.89543 48.7407 5.59574 49.2619 5.59574 49.2619C5.97302 49.4462 6.23194 49.5815 6.65607 49.7535L27.2092 58.3355C28.2769 58.8247 28.7232 59.014 29.4975 58.9992H29.5025C30.2767 59.014 30.7231 58.8247 31.7908 58.3355L52.3439 49.7511C52.768 49.579 53.027 49.4462 53.4042 49.2594C53.4042 49.2594 54.1046 48.7407 54.1711 48.6621C54.8616 47.8508 54.8739 47.1354 54.9503 46.4004C54.9862 46.0459 55.0026 45.6898 54.9997 45.3335V4.6216C54.9997 1.24636 53.7519 0 50.3687 0L8.62878 0.0024583ZM41.5877 7.64777H43.2645C46.0707 7.64777 47.4269 9.00721 47.4269 11.817V16.4387H44.0388V12.0137C44.0388 11.1066 43.6196 10.6862 42.7492 10.6862H42.1697C41.2647 10.6862 40.8455 11.1041 40.8455 12.0113V26.294C40.8455 27.2011 41.2647 27.6215 42.1697 27.6215H42.8157C43.6862 27.6215 44.1054 27.2011 44.1054 26.294V21.1905H47.4911V26.4587C47.4911 29.271 46.1052 30.6624 43.2991 30.6624H41.5877C38.7816 30.6624 37.3957 29.271 37.3957 26.4587V11.8515C37.3957 9.03917 38.7816 7.65023 41.5877 7.65023V7.64777ZM11.5385 7.84444H19.2173V10.9763H14.9908V17.3753H19.0545V20.5096H14.9908V27.3289H19.2814V30.4633H11.5385V7.84444ZM20.9483 7.84444H26.3683C29.1745 7.84444 30.5603 9.23092 30.5603 12.0432V18.0538C30.5603 20.8661 29.1745 22.2575 26.3683 22.2575H24.3981V30.4633H20.9459L20.9483 7.84444ZM32.1188 7.84444H35.571V30.4633H32.1188V7.84444ZM24.4005 10.8804V19.219H25.8184C26.6914 19.219 27.1081 18.7986 27.1081 17.8915V12.2079C27.1081 11.3033 26.6889 10.8804 25.8184 10.8804H24.4005ZM15.1782 35.8248C15.6759 35.8264 16.1694 35.9163 16.6355 36.0903C17.0751 36.2693 17.483 36.5175 17.8438 36.8253L16.7292 38.1676C16.4999 37.973 16.2442 37.8116 15.9697 37.6882C15.6861 37.5714 15.3813 37.5145 15.0746 37.521C14.8367 37.5222 14.6016 37.5725 14.3841 37.6685C14.1751 37.7641 13.9873 37.9003 13.8318 38.0692C13.6727 38.2444 13.5465 38.4468 13.4594 38.6666C13.3667 38.9006 13.3198 39.1501 13.3213 39.4016V39.4213C13.3221 39.6814 13.3688 39.9394 13.4594 40.1834C13.5447 40.409 13.6766 40.6141 13.8466 40.7857C14.0129 40.9557 14.2127 41.0897 14.4335 41.179C14.6709 41.2744 14.9246 41.3228 15.1806 41.3216C15.5665 41.3356 15.948 41.2365 16.2779 41.0364V40.203H14.9266V38.8141H18.0805V41.8993C17.6908 42.2149 17.2551 42.4694 16.7884 42.654C16.252 42.8627 15.6799 42.9654 15.1042 42.9563C14.597 42.9646 14.093 42.8753 13.6197 42.6933C13.1836 42.524 12.7836 42.2738 12.441 41.9558C12.1074 41.6389 11.8408 41.2586 11.6569 40.8373C11.4616 40.3876 11.3649 39.9014 11.3733 39.4115V39.3918C11.3669 38.9104 11.4618 38.4331 11.6519 37.9906C11.8355 37.5691 12.0964 37.1856 12.4213 36.8598C12.755 36.5299 13.1527 36.2714 13.5901 36.1001C14.0596 35.916 14.5602 35.8234 15.0647 35.8273H15.1757L15.1782 35.8248ZM44.6775 35.8445C45.1895 35.8429 45.6986 35.9209 46.1866 36.0756C46.6413 36.225 47.065 36.4558 47.4368 36.7565L46.485 38.0987C46.1893 37.8873 45.8656 37.7178 45.5233 37.5948C45.2161 37.4852 44.8928 37.4271 44.5665 37.4227C44.3864 37.4108 44.207 37.4555 44.0536 37.5505C44.0007 37.5838 43.9571 37.6299 43.927 37.6845C43.8968 37.7391 43.881 37.8004 43.881 37.8627V37.8824C43.8797 37.9549 43.8984 38.0264 43.9353 38.0889C43.9828 38.158 44.0473 38.2139 44.1227 38.2512C44.2394 38.3098 44.3606 38.3591 44.4851 38.3986C44.638 38.4478 44.832 38.4978 45.0671 38.5486C45.4275 38.6222 45.782 38.7224 46.1274 38.8485C46.4156 38.9487 46.688 39.0895 46.9362 39.2664C47.1494 39.4216 47.324 39.6234 47.4467 39.8564C47.5696 40.115 47.6296 40.3988 47.6217 40.6849V40.7045C47.6249 41.0284 47.5567 41.3489 47.422 41.6436C47.2906 41.9175 47.0973 42.1573 46.8573 42.3442C46.5997 42.5481 46.3037 42.6986 45.9869 42.7867C45.6181 42.8914 45.236 42.9419 44.8526 42.9367C44.2572 42.938 43.6657 42.8417 43.1018 42.6515C42.5614 42.4701 42.0638 42.1807 41.6395 41.8009L42.6999 40.5374C43.3837 41.0864 44.1235 41.3609 44.9191 41.3609C45.1206 41.3723 45.3215 41.3298 45.5011 41.238C45.5632 41.2034 45.6149 41.1527 45.6505 41.0912C45.6861 41.0298 45.7043 40.9599 45.7033 40.8889V40.8692C45.7042 40.8029 45.6872 40.7375 45.654 40.68C45.6085 40.6118 45.5466 40.556 45.474 40.5177C45.3606 40.4578 45.2427 40.4069 45.1213 40.3653C44.932 40.3068 44.7403 40.256 44.5468 40.2129C44.2035 40.1348 43.8637 40.0421 43.5284 39.9351C43.239 39.8432 42.9642 39.7107 42.7122 39.5418C42.4847 39.3888 42.297 39.1841 42.1648 38.9444C42.0224 38.6715 41.9528 38.3668 41.9626 38.0594V38.0397C41.962 37.7362 42.0241 37.4358 42.145 37.1572C42.2665 36.8889 42.4468 36.6511 42.6727 36.4615C42.9198 36.2569 43.2046 36.1024 43.5111 36.0067C43.8681 35.8932 44.2412 35.8384 44.6158 35.8445H44.6775ZM21.6018 35.9059H23.4315L26.3486 42.8138H24.3142L23.8137 41.5871H21.1702L20.682 42.8113H18.6846L21.6018 35.9059ZM27.0193 35.9551H29.0265L30.6614 38.6101L32.2963 35.9551H34.3035V42.8138H32.4147V38.8756L30.6614 41.5576H30.622L28.8786 38.8952V42.8113H27.0193V35.9551ZM35.5735 35.9551H41.0847V37.5727H37.4525V38.6101H40.7419V40.1096H37.4525V41.1962H41.134V42.8138H35.5735V35.9551ZM22.5043 38.1602L21.7275 40.1096H23.2662L22.5043 38.1602ZM19.6809 50.9188H39.4424L29.357 54.2326L19.6809 50.9188Z" fill="white"/>
</g>
<defs>
<filter id="filter0_d_2295_47111" x="0" y="0" width="59" height="67" filterUnits="userSpaceOnUse" color-interpolation-filters="sRGB">
<feFlood flood-opacity="0" result="BackgroundImageFix"/>
<feColorMatrix in="SourceAlpha" type="matrix" values="0 0 0 0 0 0 0 0 0 0 0 0 0 0 0 0 0 0 127 0" result="hardAlpha"/>
<feOffset dy="4"/>
<feGaussianBlur stdDeviation="2"/>
<feComposite in2="hardAlpha" operator="out"/>
<feColorMatrix type="matrix" values="0 0 0 0 1 0 0 0 0 1 0 0 0 0 1 0 0 0 0.25 0"/>
<feBlend mode="normal" in2="BackgroundImageFix" result="effect1_dropShadow_2295_47111"/>
<feBlend mode="normal" in="SourceGraphic" in2="effect1_dropShadow_2295_47111" result="shape"/>
</filter>
</defs>
</svg>
