<svg width="20" height="20" viewBox="0 0 20 20" fill="none" xmlns="http://www.w3.org/2000/svg">
<path d="M19.6613 7.61706L19.6333 7.54506L16.9143 0.451064C16.8593 0.311106 16.7613 0.192215 16.6344 0.111522C16.5075 0.0308294 16.3583 -0.00749786 16.2083 0.00206345C16.058 0.00859598 15.9137 0.062666 15.7962 0.15648C15.6787 0.250294 15.5939 0.379006 15.5543 0.524064L13.7183 6.15006H6.28026L4.44127 0.525063C4.40205 0.379948 4.31779 0.251022 4.20062 0.156855C4.08345 0.0626875 3.93942 0.00813848 3.78927 0.00106352C3.6392 -0.00710085 3.49033 0.0319001 3.36355 0.112599C3.23676 0.193299 3.1384 0.31165 3.08227 0.451064L0.360265 7.55506L0.332265 7.62506C-0.0580249 8.64826 -0.105836 9.77045 0.196012 10.8231C0.49786 11.8758 1.13307 12.8022 2.00627 13.4631L2.01627 13.4701L2.04027 13.4891L6.18727 16.5931L8.23727 18.1461L9.48427 19.0901C9.63038 19.201 9.8088 19.2611 9.99227 19.2611C10.1757 19.2611 10.3542 19.201 10.5003 19.0901L11.7473 18.1461L13.7973 16.5931L17.9693 13.4701L17.9793 13.4621C18.856 12.8023 19.4943 11.8753 19.7977 10.8208C20.1011 9.76641 20.0532 8.64188 19.6613 7.61706Z" fill="white"/>
</svg>
