<svg width="16" height="19" viewBox="0 0 16 19" fill="none" xmlns="http://www.w3.org/2000/svg">
<path d="M15.3776 13.0532L15.9792 9.31988C16.0145 9.10106 16.0048 8.87661 15.9508 8.66224C15.8967 8.44786 15.7997 8.24874 15.6664 8.07878C15.5331 7.90883 15.3667 7.77216 15.179 7.67832C14.9913 7.58449 14.7868 7.53576 14.5797 7.53555H10.1584C10.0553 7.53557 9.95331 7.51151 9.85967 7.46503C9.76603 7.41855 9.68296 7.35077 9.61621 7.2664C9.54946 7.18203 9.50064 7.08309 9.47315 6.97645C9.44565 6.86981 9.44013 6.75803 9.45698 6.64887L10.0228 2.94753C10.1141 2.34654 10.088 1.73173 9.94595 1.14216C9.88463 0.898761 9.76712 0.675855 9.60425 0.494018C9.44138 0.312181 9.23841 0.177274 9.01408 0.101754L8.89035 0.0587471C8.61055 -0.0372402 8.30712 -0.0149819 8.04211 0.12097C7.75197 0.271037 7.54034 0.544634 7.46183 0.869473L7.05563 2.54766C6.92653 3.08178 6.73861 3.59752 6.49583 4.08401C6.14168 4.795 5.59383 5.36507 5.02378 5.89122L3.7958 7.02587C3.62545 7.18372 3.49239 7.38261 3.40755 7.60624C3.3227 7.82987 3.28848 8.07187 3.30768 8.31242L4.00061 16.9074C4.03115 17.2875 4.1935 17.6415 4.45561 17.8995C4.71772 18.1576 5.06052 18.3008 5.41633 18.301H9.38274C12.3541 18.301 14.8895 16.0811 15.3776 13.0532Z" fill="#A5A699"/>
<path fill-rule="evenodd" clip-rule="evenodd" d="M0.612777 6.84927C0.777697 6.84153 0.939025 6.90243 1.06306 7.01923C1.1871 7.13604 1.26425 7.29971 1.2784 7.47607L2.10615 17.7575C2.12018 17.9106 2.10494 18.0651 2.06139 18.2117C2.01783 18.3583 1.94687 18.4938 1.85283 18.61C1.75879 18.7262 1.64365 18.8206 1.51444 18.8875C1.38523 18.9543 1.24466 18.9923 1.10133 18.9989C0.957989 19.0056 0.81489 18.9809 0.680768 18.9262C0.546646 18.8716 0.424317 18.7882 0.321253 18.6812C0.218188 18.5742 0.136551 18.4458 0.0813281 18.3038C0.026105 18.1618 -0.00154509 18.0092 6.6613e-05 17.8554V7.53463C0.000136345 7.35774 0.0639033 7.18771 0.178063 7.06001C0.292224 6.93231 0.447959 6.85681 0.612777 6.84927Z" fill="#A5A699"/>
</svg>
