<svg width="17" height="17" viewBox="0 0 17 17" fill="none" xmlns="http://www.w3.org/2000/svg">
<path d="M8.51001 4.75757H9.2782V11.6713H8.51001V4.75757Z" fill="white"/>
<path d="M12.351 7.83032V8.59851H5.43726V7.83032H12.351Z" fill="white"/>
<path fill-rule="evenodd" clip-rule="evenodd" d="M8.8941 0.148438C13.3488 0.148438 16.9601 3.7597 16.9601 8.21442C16.9601 12.6691 13.3488 16.2804 8.8941 16.2804C4.43939 16.2804 0.828125 12.6691 0.828125 8.21442C0.828125 3.7597 4.43939 0.148438 8.8941 0.148438ZM8.8941 0.916626C4.86365 0.916626 1.59631 4.18396 1.59631 8.21442C1.59631 12.2449 4.86365 15.5122 8.8941 15.5122C12.9246 15.5122 16.1919 12.2449 16.1919 8.21442C16.1919 4.18396 12.9246 0.916626 8.8941 0.916626Z" fill="white"/>
</svg>
