<svg width="68" height="68" viewBox="0 0 68 68" fill="none" xmlns="http://www.w3.org/2000/svg">
<g filter="url(#filter0_d_1561_148)">
<path d="M34 0C50.5685 0 64 13.4315 64 30C64 46.5685 50.5685 60 34 60C17.4315 60 4 46.5685 4 30C4 13.4315 17.4315 1.03088e-06 34 0ZM47.4834 12.1807C46.1087 11.6498 44.5513 12.1955 43.8096 13.4697L36.46 12C36.34 11.9738 36.2155 11.9714 36.0947 11.9932C35.9732 12.0157 35.8574 12.0612 35.7539 12.1279C35.6513 12.1946 35.5621 12.2817 35.4932 12.3828C35.4234 12.4848 35.3744 12.599 35.3496 12.7197L33.1299 23.1299C32.0927 23.1456 31.0578 23.2366 30.0342 23.4023C29.0104 23.5681 27.999 23.8071 27.0098 24.1191C26.0207 24.4311 25.0557 24.8152 24.1221 25.2666C23.1885 25.7188 22.2883 26.2383 21.4297 26.8203C20.9672 26.3852 20.4159 26.0552 19.8135 25.8545C19.2112 25.6538 18.5723 25.5866 17.9414 25.6572C17.3105 25.7276 16.7022 25.9348 16.1592 26.2637C15.6161 26.5926 15.1505 27.0359 14.7959 27.5625C14.4411 28.0891 14.2055 28.6866 14.1045 29.3135C14.0035 29.9405 14.0394 30.5828 14.2109 31.1943C14.3828 31.8055 14.6862 32.3718 15.0986 32.8545C15.511 33.3371 16.0228 33.7251 16.5996 33.9902C16.5914 34.0996 16.5848 34.2102 16.5811 34.3203C16.572 34.5399 16.5721 34.7599 16.5811 34.9795C16.5848 35.0896 16.5914 35.2002 16.5996 35.3096C16.5996 42.0295 24.4299 47.4902 34.0898 47.4902C43.7498 47.4902 51.5801 42.0296 51.5801 35.3096C51.5883 35.2002 51.5949 35.0896 51.5986 34.9795C51.6076 34.7599 51.6076 34.54 51.5986 34.3203C51.5949 34.2101 51.5883 34.0997 51.5801 33.9902C51.9483 33.8073 52.2888 33.5731 52.5918 33.2949C52.8948 33.0167 53.1573 32.6967 53.3711 32.3457C53.5855 31.9948 53.7494 31.6144 53.8574 31.2178C53.9654 30.8211 54.0158 30.4109 54.0098 30C53.979 29.1554 53.7049 28.3375 53.2197 27.6455C52.7347 26.9536 52.0597 26.4166 51.2764 26.0996C50.4931 25.7825 49.6344 25.6994 48.8047 25.8594C47.9751 26.0188 47.209 26.4149 46.5996 27C45.7521 26.4239 44.8639 25.9094 43.9424 25.4609C42.0973 24.562 40.1319 23.9341 38.1074 23.5967C37.0965 23.428 36.0742 23.3313 35.0498 23.3096L37 13.9502L43.4199 15.2998C43.5774 16.7653 44.7768 17.8998 46.249 17.9756C47.7205 18.0513 49.0302 17.046 49.3369 15.6045C49.6444 14.163 48.8581 12.7117 47.4834 12.1807ZM27.2061 39.9268C27.4071 39.917 27.6045 39.9829 27.7598 40.1104C28.2067 40.4381 28.681 40.7271 29.1768 40.9746C29.6725 41.2221 30.1878 41.4274 30.7188 41.5879C31.2489 41.7491 31.7919 41.8653 32.3418 41.9336C32.8915 42.0026 33.4465 42.0247 34 42C34.5543 42.03 35.1101 42.0139 35.6621 41.9502C36.2134 41.8864 36.7585 41.7754 37.291 41.6201C37.8238 41.4644 38.3427 41.2645 38.8418 41.0215C39.341 40.7786 39.8194 40.4935 40.2705 40.1699C40.4436 40.0404 40.6502 39.957 40.8652 39.96C41.0796 39.963 41.2846 40.0505 41.4346 40.2041C41.5845 40.3578 41.668 40.5651 41.665 40.7803C41.662 40.9947 41.5745 41.1996 41.4209 41.3496L41.4404 41.25C40.9133 41.6474 40.3527 41.9983 39.7656 42.2998C38.5885 42.903 37.3163 43.3002 36.0049 43.4727C35.3502 43.5581 34.6894 43.5866 34.0303 43.5596C33.3712 43.5866 32.7103 43.5581 32.0557 43.4727C31.401 43.3864 30.7549 43.2443 30.125 43.0479C29.495 42.8514 28.8822 42.6013 28.2949 42.2998C27.7077 41.9983 27.1473 41.6475 26.6201 41.25C26.4926 41.0947 26.4277 40.8973 26.4375 40.6963C26.4473 40.4954 26.5312 40.3055 26.6729 40.1631C26.8152 40.0214 27.0052 39.9366 27.2061 39.9268ZM38.7793 30.999C39.6372 30.1412 40.9268 29.8837 42.0479 30.3477C43.1684 30.8127 43.9004 31.9066 43.9004 33.1201C43.9168 33.5265 43.8497 33.9318 43.7041 34.3115C43.5586 34.6918 43.3382 35.0383 43.0547 35.3301C42.7712 35.6218 42.4314 35.853 42.0557 36.0098C41.68 36.1657 41.2765 36.2447 40.8701 36.2402L40.9004 36.1201C39.687 36.1201 38.593 35.3889 38.1279 34.2686C37.6637 33.1473 37.9213 31.857 38.7793 30.999ZM25.8613 30.2275C26.9825 29.7633 28.2729 30.021 29.1309 30.8789C29.9889 31.7369 30.2465 33.0272 29.7822 34.1484C29.3172 35.2689 28.2232 36 27.0098 36C26.6159 36 26.2253 35.923 25.8613 35.7725C25.4977 35.621 25.1669 35.4 24.8887 35.1211C24.6098 34.8429 24.3898 34.512 24.2383 34.1484C24.0875 33.7839 24.0098 33.3937 24.0098 33C24.0098 31.7866 24.741 30.6926 25.8613 30.2275Z" fill="white"/>
</g>
<defs>
<filter id="filter0_d_1561_148" x="0" y="0" width="68" height="68" filterUnits="userSpaceOnUse" color-interpolation-filters="sRGB">
<feFlood flood-opacity="0" result="BackgroundImageFix"/>
<feColorMatrix in="SourceAlpha" type="matrix" values="0 0 0 0 0 0 0 0 0 0 0 0 0 0 0 0 0 0 127 0" result="hardAlpha"/>
<feOffset dy="4"/>
<feGaussianBlur stdDeviation="2"/>
<feComposite in2="hardAlpha" operator="out"/>
<feColorMatrix type="matrix" values="0 0 0 0 1 0 0 0 0 1 0 0 0 0 1 0 0 0 0.25 0"/>
<feBlend mode="normal" in2="BackgroundImageFix" result="effect1_dropShadow_1561_148"/>
<feBlend mode="normal" in="SourceGraphic" in2="effect1_dropShadow_1561_148" result="shape"/>
</filter>
</defs>
</svg>
