<svg width="18" height="22" viewBox="0 0 18 22" fill="none" xmlns="http://www.w3.org/2000/svg">
<path d="M9.00024 1.432V20.432M17.0002 10.932C17.0002 15.8405 11.6462 19.4104 9.69824 20.5469C9.47684 20.6761 9.36614 20.7406 9.20994 20.7741C9.08864 20.8001 8.91184 20.8001 8.79054 20.7741C8.63434 20.7406 8.52364 20.6761 8.30224 20.5469C6.3542 19.4104 1.00024 15.8405 1.00024 10.932V6.14961C1.00024 5.35009 1.00024 4.95033 1.131 4.6067C1.24651 4.30314 1.43422 4.03228 1.6779 3.81753C1.95374 3.57444 2.32804 3.43407 3.07664 3.15334L8.43844 1.14268C8.64634 1.06472 8.75024 1.02574 8.85724 1.01027C8.95204 0.996575 9.04844 0.996575 9.14324 1.01027C9.25024 1.02574 9.35414 1.06472 9.56204 1.14268L14.9238 3.15334C15.6724 3.43407 16.0467 3.57444 16.3225 3.81753C16.5662 4.03228 16.7539 4.30314 16.8694 4.6067C17.0002 4.95033 17.0002 5.35009 17.0002 6.14961V10.932Z" stroke="white" stroke-width="2" stroke-linecap="round" stroke-linejoin="round"/>
</svg>
