<svg width="82" height="60" viewBox="0 0 82 60" fill="none" xmlns="http://www.w3.org/2000/svg">
<g filter="url(#filter0_d_1561_158)">
<path fill-rule="evenodd" clip-rule="evenodd" d="M33.3595 35.5933V14.817L53.3506 25.2421L33.3595 35.5933ZM77.26 11.22C77.26 11.22 76.5385 6.122 74.3185 3.878C71.5065 0.935304 68.3504 0.920518 66.9037 0.746766C56.5511 4.95787e-07 41.0148 0 41.0148 0H40.9852C40.9852 0 25.4526 4.95787e-07 15.0963 0.746766C13.6496 0.920518 10.4972 0.931607 7.6815 3.878C5.4615 6.122 4.74 11.22 4.74 11.22C4.74 11.22 4 17.2015 4 23.1867V28.7948C4 34.7763 4.74 40.7616 4.74 40.7616C4.74 40.7616 5.4615 45.8558 7.6815 48.0998C10.4935 51.0462 14.1935 50.9501 15.84 51.2606C21.76 51.8262 41 52 41 52C41 52 56.5511 51.9778 66.9037 51.2311C68.3504 51.0573 71.5065 51.0462 74.3185 48.0998C76.5385 45.8558 77.26 40.7616 77.26 40.7616C77.26 40.7616 78 34.7763 78 28.7948V23.1867C78 17.2015 77.26 11.22 77.26 11.22Z" fill="white"/>
</g>
<defs>
<filter id="filter0_d_1561_158" x="0" y="0" width="82" height="60" filterUnits="userSpaceOnUse" color-interpolation-filters="sRGB">
<feFlood flood-opacity="0" result="BackgroundImageFix"/>
<feColorMatrix in="SourceAlpha" type="matrix" values="0 0 0 0 0 0 0 0 0 0 0 0 0 0 0 0 0 0 127 0" result="hardAlpha"/>
<feOffset dy="4"/>
<feGaussianBlur stdDeviation="2"/>
<feComposite in2="hardAlpha" operator="out"/>
<feColorMatrix type="matrix" values="0 0 0 0 1 0 0 0 0 1 0 0 0 0 1 0 0 0 0.25 0"/>
<feBlend mode="normal" in2="BackgroundImageFix" result="effect1_dropShadow_1561_158"/>
<feBlend mode="normal" in="SourceGraphic" in2="effect1_dropShadow_1561_158" result="shape"/>
</filter>
</defs>
</svg>
