<svg width="22" height="22" viewBox="0 0 22 22" fill="none" xmlns="http://www.w3.org/2000/svg">
<path fill-rule="evenodd" clip-rule="evenodd" d="M7.40052 2.63148C5.63425 3.39418 4.15351 4.69447 3.16895 6.34735H6.0034C6.22576 5.36232 6.5191 4.45677 6.87204 3.66146C7.02803 3.30816 7.20449 2.96425 7.40052 2.63148ZM1.89247 11C1.89247 10.2951 1.9729 9.60856 2.1243 8.94951H5.59983C5.5385 9.63128 5.50803 10.3155 5.50852 11C5.50852 11.6983 5.53927 12.3839 5.59983 13.0495H2.12383C1.96955 12.3773 1.89194 11.6897 1.89247 11ZM3.16847 15.6517C4.153 17.305 5.63394 18.6057 7.40052 19.3685C7.20449 19.0358 7.02803 18.6918 6.87204 18.3385C6.51862 17.5432 6.22576 16.6372 6.0034 15.6517H3.16847ZM8.43854 15.6517C8.59119 16.242 8.79036 16.8193 9.03419 17.3781C9.38383 18.1654 9.76942 18.7289 10.1385 19.0799C10.5009 19.4253 10.7899 19.5161 10.9995 19.5161C11.2091 19.5161 11.4987 19.4253 11.8615 19.0799C12.2301 18.7289 12.6162 18.1654 12.9658 17.3781C13.1915 16.8695 13.3926 16.2899 13.5615 15.6517H8.43854ZM15.9966 15.6517C15.7742 16.6372 15.4809 17.5432 15.1275 18.3385C14.9715 18.6918 14.795 19.0358 14.599 19.3685C16.3658 18.6057 17.8469 17.3051 18.8315 15.6517H15.9966ZM19.8762 13.0495H16.4002C16.4615 12.3681 16.4919 11.6842 16.4915 11C16.4915 10.3012 16.4603 9.61566 16.4002 8.94951H19.8757C20.0271 9.60856 20.1075 10.2951 20.1075 11C20.1075 11.7049 20.0271 12.391 19.8757 13.0495M14.0232 13.0495H7.97583C7.90746 12.3685 7.87351 11.6845 7.87411 11C7.87411 10.2903 7.90959 9.6043 7.9763 8.94951H14.0232C14.0895 9.6043 14.1254 10.2908 14.1254 11C14.1254 11.7092 14.0899 12.3948 14.0232 13.0495ZM15.9961 6.34735H18.8306C17.8459 4.6944 16.365 3.3941 14.5985 2.63148C14.7906 2.9551 14.9666 3.30095 15.127 3.66146C15.4804 4.4563 15.7733 5.36232 15.9957 6.34735M9.03325 4.62189C8.78946 5.18042 8.59029 5.75738 8.43759 6.34735H13.56C13.4075 5.75739 13.2085 5.18044 12.9649 4.62189C12.6148 3.83462 12.2292 3.27114 11.8606 2.92009C11.4987 2.57471 11.2096 2.48387 11 2.48387C10.7904 2.48387 10.5009 2.57471 10.1385 2.92009C9.76942 3.27114 9.38383 3.83462 9.03419 4.62189M11 0C4.92516 0 0 4.92516 0 11C0 17.0748 4.92516 22 11 22C17.0748 22 22 17.0748 22 11C22 4.92516 17.0748 0 11 0Z" fill="white"/>
</svg>
